G04 #@! TF.GenerationSoftware,KiCad,Pcbnew,7.0.9*
G04 #@! TF.CreationDate,2024-02-04T19:54:10+01:00*
G04 #@! TF.ProjectId,Toolbox,546f6f6c-626f-4782-9e6b-696361645f70,rev?*
G04 #@! TF.SameCoordinates,Original*
G04 #@! TF.FileFunction,Legend,Bot*
G04 #@! TF.FilePolarity,Positive*
%FSLAX46Y46*%
G04 Gerber Fmt 4.6, Leading zero omitted, Abs format (unit mm)*
G04 Created by KiCad (PCBNEW 7.0.9) date 2024-02-04 19:54:10*
%MOMM*%
%LPD*%
G01*
G04 APERTURE LIST*
G04 Aperture macros list*
%AMRoundRect*
0 Rectangle with rounded corners*
0 $1 Rounding radius*
0 $2 $3 $4 $5 $6 $7 $8 $9 X,Y pos of 4 corners*
0 Add a 4 corners polygon primitive as box body*
4,1,4,$2,$3,$4,$5,$6,$7,$8,$9,$2,$3,0*
0 Add four circle primitives for the rounded corners*
1,1,$1+$1,$2,$3*
1,1,$1+$1,$4,$5*
1,1,$1+$1,$6,$7*
1,1,$1+$1,$8,$9*
0 Add four rect primitives between the rounded corners*
20,1,$1+$1,$2,$3,$4,$5,0*
20,1,$1+$1,$4,$5,$6,$7,0*
20,1,$1+$1,$6,$7,$8,$9,0*
20,1,$1+$1,$8,$9,$2,$3,0*%
%AMHorizOval*
0 Thick line with rounded ends*
0 $1 width*
0 $2 $3 position (X,Y) of the first rounded end (center of the circle)*
0 $4 $5 position (X,Y) of the second rounded end (center of the circle)*
0 Add line between two ends*
20,1,$1,$2,$3,$4,$5,0*
0 Add two circle primitives to create the rounded ends*
1,1,$1,$2,$3*
1,1,$1,$4,$5*%
%AMRotRect*
0 Rectangle, with rotation*
0 The origin of the aperture is its center*
0 $1 length*
0 $2 width*
0 $3 Rotation angle, in degrees counterclockwise*
0 Add horizontal line*
21,1,$1,$2,0,0,$3*%
G04 Aperture macros list end*
%ADD10C,0.400000*%
%ADD11C,0.150000*%
%ADD12C,0.120000*%
%ADD13R,6.000000X2.000000*%
%ADD14R,6.000000X2.650000*%
%ADD15C,17.800000*%
%ADD16RotRect,2.000000X6.000000X30.000000*%
%ADD17RotRect,2.000000X6.000000X210.000000*%
%ADD18RotRect,2.000000X6.000000X330.000000*%
%ADD19RotRect,2.000000X6.000000X150.000000*%
%ADD20C,1.600000*%
%ADD21R,1.600000X1.600000*%
%ADD22HorizOval,1.600000X0.000000X0.000000X0.000000X0.000000X0*%
%ADD23HorizOval,1.600000X0.000000X0.000000X0.000000X0.000000X0*%
%ADD24HorizOval,1.600000X0.000000X0.000000X0.000000X0.000000X0*%
%ADD25O,1.600000X1.600000*%
%ADD26RoundRect,0.250001X-0.088036X-0.772515X0.713035X-0.310016X0.088036X0.772515X-0.713035X0.310016X0*%
%ADD27RotRect,2.400000X1.600000X60.000000*%
%ADD28HorizOval,1.600000X0.200000X0.346410X-0.200000X-0.346410X0*%
%ADD29R,1.560000X1.560000*%
%ADD30C,1.560000*%
%ADD31C,1.800000*%
%ADD32RotRect,1.800000X1.800000X30.000000*%
%ADD33HorizOval,1.600000X0.000000X0.000000X0.000000X0.000000X0*%
G04 APERTURE END LIST*
D10*
X101445182Y-65247804D02*
X95078645Y-67283339D01*
X96504400Y-66451865D01*
X101029188Y-65004925D01*
X101445182Y-65247804D01*
G36*
X101445182Y-65247804D02*
G01*
X95078645Y-67283339D01*
X96504400Y-66451865D01*
X101029188Y-65004925D01*
X101445182Y-65247804D01*
G37*
X103210449Y-66277716D02*
X89034570Y-70809222D01*
X90460325Y-69977232D01*
X102793937Y-66034837D01*
X103210449Y-66277716D01*
G36*
X103210449Y-66277716D02*
G01*
X89034570Y-70809222D01*
X90460325Y-69977232D01*
X102793937Y-66034837D01*
X103210449Y-66277716D01*
G37*
X104975200Y-67307110D02*
X82990495Y-74335105D01*
X84414698Y-73504148D01*
X104559204Y-67064231D01*
X104975200Y-67307110D01*
G36*
X104975200Y-67307110D02*
G01*
X82990495Y-74335105D01*
X84414698Y-73504148D01*
X104559204Y-67064231D01*
X104975200Y-67307110D01*
G37*
X113799472Y-72454600D02*
X104611404Y-75391889D01*
X104191791Y-75150043D01*
X113383476Y-72211721D01*
X113799472Y-72454600D01*
G36*
X113799472Y-72454600D02*
G01*
X104611404Y-75391889D01*
X104191791Y-75150043D01*
X113383476Y-72211721D01*
X113799472Y-72454600D01*
G37*
X112034717Y-71425205D02*
X96831512Y-76285374D01*
X96831512Y-75909686D01*
X111618724Y-71182326D01*
X112034717Y-71425205D01*
G36*
X112034717Y-71425205D02*
G01*
X96831512Y-76285374D01*
X96831512Y-75909686D01*
X111618724Y-71182326D01*
X112034717Y-71425205D01*
G37*
X115565258Y-73484511D02*
X106392173Y-76417149D01*
X105971527Y-76174786D01*
X115148227Y-73241632D01*
X115565258Y-73484511D01*
G36*
X115565258Y-73484511D02*
G01*
X106392173Y-76417149D01*
X105971527Y-76174786D01*
X115148227Y-73241632D01*
X115565258Y-73484511D01*
G37*
X117330009Y-74513906D02*
X108171394Y-77441893D01*
X107751266Y-77199530D01*
X116912979Y-74271026D01*
X117330009Y-74513906D01*
G36*
X117330009Y-74513906D02*
G01*
X108171394Y-77441893D01*
X107751266Y-77199530D01*
X116912979Y-74271026D01*
X117330009Y-74513906D01*
G37*
X106740467Y-68337021D02*
X76944353Y-77862022D01*
X78372173Y-77028998D01*
X106323436Y-68093625D01*
X106740467Y-68337021D01*
G36*
X106740467Y-68337021D02*
G01*
X76944353Y-77862022D01*
X78372173Y-77028998D01*
X106323436Y-68093625D01*
X106740467Y-68337021D01*
G37*
X103181518Y-75849224D02*
X96831518Y-77879074D01*
X96831518Y-77503388D01*
X103181518Y-75473020D01*
X103181518Y-75849224D01*
G36*
X103181518Y-75849224D02*
G01*
X96831518Y-77879074D01*
X96831518Y-77503388D01*
X103181518Y-75473020D01*
X103181518Y-75849224D01*
G37*
X119094761Y-75543817D02*
X109951648Y-78466636D01*
X109531520Y-78224791D01*
X118678764Y-75300938D01*
X119094761Y-75543817D01*
G36*
X119094761Y-75543817D02*
G01*
X109951648Y-78466636D01*
X109531520Y-78224791D01*
X118678764Y-75300938D01*
X119094761Y-75543817D01*
G37*
X103181522Y-77443442D02*
X96831522Y-79473293D01*
X96831522Y-79097089D01*
X103181522Y-77066722D01*
X103181522Y-77443442D01*
G36*
X103181522Y-77443442D02*
G01*
X96831522Y-79473293D01*
X96831522Y-79097089D01*
X103181522Y-77066722D01*
X103181522Y-77443442D01*
G37*
X120859512Y-76573212D02*
X111731388Y-79491380D01*
X111311256Y-79249534D01*
X120443515Y-76330333D01*
X120859512Y-76573212D01*
G36*
X120859512Y-76573212D02*
G01*
X111731388Y-79491380D01*
X111311256Y-79249534D01*
X120443515Y-76330333D01*
X120859512Y-76573212D01*
G37*
X122624263Y-77602606D02*
X113511123Y-80516124D01*
X113090995Y-80274278D01*
X122208267Y-77359727D01*
X122624263Y-77602606D01*
G36*
X122624263Y-77602606D02*
G01*
X113511123Y-80516124D01*
X113090995Y-80274278D01*
X122208267Y-77359727D01*
X122624263Y-77602606D01*
G37*
X103181511Y-79037145D02*
X96831510Y-81066995D01*
X96831510Y-80690273D01*
X103181511Y-78660423D01*
X103181511Y-79037145D01*
G36*
X103181511Y-79037145D02*
G01*
X96831510Y-81066995D01*
X96831510Y-80690273D01*
X103181511Y-78660423D01*
X103181511Y-79037145D01*
G37*
X108505218Y-69366416D02*
X70900277Y-81387904D01*
X72328097Y-80554364D01*
X108088188Y-69123020D01*
X108505218Y-69366416D01*
G36*
X108505218Y-69366416D02*
G01*
X70900277Y-81387904D01*
X72328097Y-80554364D01*
X108088188Y-69123020D01*
X108505218Y-69366416D01*
G37*
X124389000Y-78632000D02*
X115290847Y-81540866D01*
X114870720Y-81299022D01*
X123973007Y-78389122D01*
X124389000Y-78632000D01*
G36*
X124389000Y-78632000D02*
G01*
X115290847Y-81540866D01*
X114870720Y-81299022D01*
X123973007Y-78389122D01*
X124389000Y-78632000D01*
G37*
X126154785Y-79661913D02*
X117071102Y-82565612D01*
X116650974Y-82323766D01*
X125737758Y-79419033D01*
X126154785Y-79661913D01*
G36*
X126154785Y-79661913D02*
G01*
X117071102Y-82565612D01*
X116650974Y-82323766D01*
X125737758Y-79419033D01*
X126154785Y-79661913D01*
G37*
X103181514Y-80630846D02*
X96831514Y-82660697D01*
X96831514Y-82284492D01*
X103181514Y-80254642D01*
X103181514Y-80630846D01*
G36*
X103181514Y-80630846D02*
G01*
X96831514Y-82660697D01*
X96831514Y-82284492D01*
X103181514Y-80254642D01*
X103181514Y-80630846D01*
G37*
X130484718Y-82682927D02*
X130484718Y-82682916D01*
X130484752Y-82682916D01*
X130484718Y-82682927D01*
G36*
X130484718Y-82682927D02*
G01*
X130484718Y-82682916D01*
X130484752Y-82682916D01*
X130484718Y-82682927D01*
G37*
X110269966Y-70395811D02*
X96831510Y-74691672D01*
X96831510Y-74568683D01*
X96289941Y-74864789D01*
X69527234Y-83420339D01*
X69526718Y-83044135D01*
X109853973Y-70152931D01*
X110269966Y-70395811D01*
G36*
X110269966Y-70395811D02*
G01*
X96831510Y-74691672D01*
X96831510Y-74568683D01*
X96289941Y-74864789D01*
X69527234Y-83420339D01*
X69526718Y-83044135D01*
X109853973Y-70152931D01*
X110269966Y-70395811D01*
G37*
X127919544Y-80691308D02*
X118850845Y-83590356D01*
X118430713Y-83348510D01*
X127502510Y-80448427D01*
X127919544Y-80691308D01*
G36*
X127919544Y-80691308D02*
G01*
X118850845Y-83590356D01*
X118430713Y-83348510D01*
X127502510Y-80448427D01*
X127919544Y-80691308D01*
G37*
X103181511Y-82224547D02*
X96831510Y-84254398D01*
X96831510Y-83878192D01*
X103181511Y-81848342D01*
X103181511Y-82224547D01*
G36*
X103181511Y-82224547D02*
G01*
X96831510Y-84254398D01*
X96831510Y-83878192D01*
X103181511Y-81848342D01*
X103181511Y-82224547D01*
G37*
X129684288Y-81720700D02*
X120630577Y-84615098D01*
X120210964Y-84373769D01*
X129268295Y-81478339D01*
X129684288Y-81720700D01*
G36*
X129684288Y-81720700D02*
G01*
X120630577Y-84615098D01*
X120210964Y-84373769D01*
X129268295Y-81478339D01*
X129684288Y-81720700D01*
G37*
X89271766Y-78702281D02*
X69527234Y-85014039D01*
X69527234Y-84637836D01*
X90927478Y-77796910D01*
X89271766Y-78702281D01*
G36*
X89271766Y-78702281D02*
G01*
X69527234Y-85014039D01*
X69527234Y-84637836D01*
X90927478Y-77796910D01*
X89271766Y-78702281D01*
G37*
X130483718Y-83059121D02*
X122410308Y-85639842D01*
X121990696Y-85397996D01*
X130484718Y-82682927D01*
X130483718Y-83059121D01*
G36*
X130483718Y-83059121D02*
G01*
X122410308Y-85639842D01*
X121990696Y-85397996D01*
X130484718Y-82682927D01*
X130483718Y-83059121D01*
G37*
X103181507Y-83818248D02*
X96831506Y-85848098D01*
X96831506Y-85471892D01*
X103181507Y-83442043D01*
X103181507Y-83818248D01*
G36*
X103181507Y-83818248D02*
G01*
X96831506Y-85848098D01*
X96831506Y-85471892D01*
X103181507Y-83442043D01*
X103181507Y-83818248D01*
G37*
X130465614Y-85876527D02*
X130465614Y-85876521D01*
X130465633Y-85876521D01*
X130465614Y-85876527D01*
G36*
X130465614Y-85876527D02*
G01*
X130465614Y-85876521D01*
X130465633Y-85876521D01*
X130465614Y-85876527D01*
G37*
X82255140Y-82538739D02*
X69527751Y-86607227D01*
X69527751Y-86231538D01*
X83910336Y-81633886D01*
X82255140Y-82538739D01*
G36*
X82255140Y-82538739D02*
G01*
X69527751Y-86607227D01*
X69527751Y-86231538D01*
X83910336Y-81633886D01*
X82255140Y-82538739D01*
G37*
X130477031Y-84654882D02*
X124144600Y-86679048D01*
X124142627Y-86668594D01*
X124139848Y-86653336D01*
X124136299Y-86633578D01*
X123770431Y-86422738D01*
X130480098Y-84278167D01*
X130480133Y-84278161D01*
X130477031Y-84654882D01*
G36*
X130477031Y-84654882D02*
G01*
X124144600Y-86679048D01*
X124142627Y-86668594D01*
X124139848Y-86653336D01*
X124136299Y-86633578D01*
X123770431Y-86422738D01*
X130480098Y-84278167D01*
X130480133Y-84278161D01*
X130477031Y-84654882D01*
G37*
X103181507Y-85411946D02*
X96831506Y-87441796D01*
X96831506Y-87065593D01*
X103181507Y-85035743D01*
X103181507Y-85411946D01*
G36*
X103181507Y-85411946D02*
G01*
X96831506Y-87441796D01*
X96831506Y-87065593D01*
X103181507Y-85035743D01*
X103181507Y-85411946D01*
G37*
X75870000Y-86030000D02*
X75870000Y-86174176D01*
X69528268Y-88201444D01*
X69528268Y-87824721D01*
X76893193Y-85470344D01*
X75870000Y-86030000D01*
G36*
X75870000Y-86030000D02*
G01*
X75870000Y-86174176D01*
X69528268Y-88201444D01*
X69528268Y-87824721D01*
X76893193Y-85470344D01*
X75870000Y-86030000D01*
G37*
X130462013Y-86253759D02*
X124349723Y-88207645D01*
X124340772Y-88111845D01*
X124331476Y-88020963D01*
X124312004Y-87843326D01*
X130465614Y-85876527D01*
X130462013Y-86253759D01*
G36*
X130462013Y-86253759D02*
G01*
X124349723Y-88207645D01*
X124340772Y-88111845D01*
X124331476Y-88020963D01*
X124312004Y-87843326D01*
X130465614Y-85876527D01*
X130462013Y-86253759D01*
G37*
X103181511Y-87006168D02*
X96831510Y-89036018D01*
X96831510Y-88659297D01*
X103181511Y-86629447D01*
X103181511Y-87006168D01*
G36*
X103181511Y-87006168D02*
G01*
X96831510Y-89036018D01*
X96831510Y-88659297D01*
X103181511Y-86629447D01*
X103181511Y-87006168D01*
G37*
X130436729Y-87855727D02*
X124406608Y-89783258D01*
X124410046Y-89593563D01*
X124410870Y-89499257D01*
X124410709Y-89405503D01*
X130442897Y-87477456D01*
X130442928Y-87477456D01*
X130436729Y-87855727D01*
G36*
X130436729Y-87855727D02*
G01*
X124406608Y-89783258D01*
X124410046Y-89593563D01*
X124410870Y-89499257D01*
X124410709Y-89405503D01*
X130442897Y-87477456D01*
X130442928Y-87477456D01*
X130436729Y-87855727D01*
G37*
X75870516Y-87767877D02*
X69528784Y-89795144D01*
X69528784Y-89418424D01*
X75870515Y-87391156D01*
X75870516Y-87767877D01*
G36*
X75870516Y-87767877D02*
G01*
X69528784Y-89795144D01*
X69528784Y-89418424D01*
X75870515Y-87391156D01*
X75870516Y-87767877D01*
G37*
X103181514Y-88599351D02*
X96831514Y-90629718D01*
X96831514Y-90252998D01*
X103181514Y-88223147D01*
X103181514Y-88599351D01*
G36*
X103181514Y-88599351D02*
G01*
X96831514Y-90629718D01*
X96831514Y-90252998D01*
X103181514Y-88223147D01*
X103181514Y-88599351D01*
G37*
X75871033Y-89361062D02*
X69529301Y-91388328D01*
X69528785Y-91012641D01*
X75870516Y-88985374D01*
X75871033Y-89361062D01*
G36*
X75871033Y-89361062D02*
G01*
X69529301Y-91388328D01*
X69528785Y-91012641D01*
X75870516Y-88985374D01*
X75871033Y-89361062D01*
G37*
X130402588Y-89460281D02*
X124229320Y-91433803D01*
X124239721Y-91384685D01*
X124249600Y-91335288D01*
X124268025Y-91235787D01*
X124285055Y-91135558D01*
X124301151Y-91034860D01*
X130413437Y-89080975D01*
X130402588Y-89460281D01*
G36*
X130402588Y-89460281D02*
G01*
X124229320Y-91433803D01*
X124239721Y-91384685D01*
X124249600Y-91335288D01*
X124268025Y-91235787D01*
X124285055Y-91135558D01*
X124301151Y-91034860D01*
X130413437Y-89080975D01*
X130402588Y-89460281D01*
G37*
X103181511Y-90193050D02*
X96831510Y-92222901D01*
X96831510Y-91847213D01*
X103181511Y-89817363D01*
X103181511Y-90193050D01*
G36*
X103181511Y-90193050D02*
G01*
X96831510Y-92222901D01*
X96831510Y-91847213D01*
X103181511Y-89817363D01*
X103181511Y-90193050D01*
G37*
X75871033Y-90954763D02*
X69529300Y-92982026D01*
X69529300Y-92606340D01*
X75871032Y-90579072D01*
X75871033Y-90954763D01*
G36*
X75871033Y-90954763D02*
G01*
X69529300Y-92982026D01*
X69529300Y-92606340D01*
X75871032Y-90579072D01*
X75871033Y-90954763D01*
G37*
X130357627Y-91068448D02*
X123252636Y-93339627D01*
X123314748Y-93276411D01*
X123374429Y-93212926D01*
X123431654Y-93149184D01*
X123486395Y-93085195D01*
X123538627Y-93020971D01*
X123588322Y-92956523D01*
X123635455Y-92891861D01*
X123680000Y-92826997D01*
X130367965Y-90689143D01*
X130367969Y-90689143D01*
X130357627Y-91068448D01*
G36*
X130357627Y-91068448D02*
G01*
X123252636Y-93339627D01*
X123314748Y-93276411D01*
X123374429Y-93212926D01*
X123431654Y-93149184D01*
X123486395Y-93085195D01*
X123538627Y-93020971D01*
X123588322Y-92956523D01*
X123635455Y-92891861D01*
X123680000Y-92826997D01*
X130367965Y-90689143D01*
X130367969Y-90689143D01*
X130357627Y-91068448D01*
G37*
X103181511Y-91786750D02*
X96831510Y-93816602D01*
X96831510Y-93440913D01*
X103181511Y-91411063D01*
X103181511Y-91786750D01*
G36*
X103181511Y-91786750D02*
G01*
X96831510Y-93816602D01*
X96831510Y-93440913D01*
X103181511Y-91411063D01*
X103181511Y-91786750D01*
G37*
X112179931Y-93691547D02*
X111602188Y-93876548D01*
X111611488Y-93497243D01*
X111761348Y-93449184D01*
X112179931Y-93691547D01*
G36*
X112179931Y-93691547D02*
G01*
X111602188Y-93876548D01*
X111611488Y-93497243D01*
X111761348Y-93449184D01*
X112179931Y-93691547D01*
G37*
X75871550Y-92548463D02*
X69529818Y-94575730D01*
X69529818Y-94199525D01*
X75871550Y-92172259D01*
X75871550Y-92548463D01*
G36*
X75871550Y-92548463D02*
G01*
X69529818Y-94575730D01*
X69529818Y-94199525D01*
X75871550Y-92172259D01*
X75871550Y-92548463D01*
G37*
X103181511Y-93380454D02*
X96831510Y-95410304D01*
X96831510Y-95034616D01*
X103181511Y-93004766D01*
X103181511Y-93380454D01*
G36*
X103181511Y-93380454D02*
G01*
X96831510Y-95410304D01*
X96831510Y-95034616D01*
X103181511Y-93004766D01*
X103181511Y-93380454D01*
G37*
X113953983Y-94718356D02*
X111562397Y-95483169D01*
X111571697Y-95103864D01*
X113535400Y-94475995D01*
X113953983Y-94718356D01*
G36*
X113953983Y-94718356D02*
G01*
X111562397Y-95483169D01*
X111571697Y-95103864D01*
X113535400Y-94475995D01*
X113953983Y-94718356D01*
G37*
X75872067Y-94141648D02*
X69530335Y-96168914D01*
X69530335Y-95793225D01*
X75872067Y-93765960D01*
X75872067Y-94141648D01*
G36*
X75872067Y-94141648D02*
G01*
X69530335Y-96168914D01*
X69530335Y-95793225D01*
X75872067Y-93765960D01*
X75872067Y-94141648D01*
G37*
X103181511Y-94974673D02*
X96831510Y-97004523D01*
X96831510Y-96628318D01*
X103181511Y-94598468D01*
X103181511Y-94974673D01*
G36*
X103181511Y-94974673D02*
G01*
X96831510Y-97004523D01*
X96831510Y-96628318D01*
X103181511Y-94598468D01*
X103181511Y-94974673D01*
G37*
X115728050Y-95745166D02*
X111522621Y-97089271D01*
X111532421Y-96710483D01*
X115309452Y-95502805D01*
X115728050Y-95745166D01*
G36*
X115728050Y-95745166D02*
G01*
X111522621Y-97089271D01*
X111532421Y-96710483D01*
X115309452Y-95502805D01*
X115728050Y-95745166D01*
G37*
X128599072Y-97629804D02*
X128599075Y-97629802D01*
X128599079Y-97629802D01*
X128599072Y-97629804D01*
G36*
X128599072Y-97629804D02*
G01*
X128599075Y-97629802D01*
X128599079Y-97629802D01*
X128599072Y-97629804D01*
G37*
X75872067Y-95735866D02*
X69530852Y-97763133D01*
X69530852Y-97386928D01*
X75872067Y-95359660D01*
X75872067Y-95735866D01*
G36*
X75872067Y-95735866D02*
G01*
X69530852Y-97763133D01*
X69530852Y-97386928D01*
X75872067Y-95359660D01*
X75872067Y-95735866D01*
G37*
X93176950Y-96578708D02*
X87384538Y-98430274D01*
X88457342Y-97711456D01*
X92758888Y-96336345D01*
X93176950Y-96578708D01*
G36*
X93176950Y-96578708D02*
G01*
X87384538Y-98430274D01*
X88457342Y-97711456D01*
X92758888Y-96336345D01*
X93176950Y-96578708D01*
G37*
X103181507Y-96568374D02*
X96831506Y-98598224D01*
X96831506Y-98222018D01*
X103181507Y-96192166D01*
X103181507Y-96568374D01*
G36*
X103181507Y-96568374D02*
G01*
X96831506Y-98598224D01*
X96831506Y-98222018D01*
X103181507Y-96192166D01*
X103181507Y-96568374D01*
G37*
X130310604Y-92300950D02*
X130293552Y-92682323D01*
X111483329Y-98695392D01*
X111492630Y-98316604D01*
X117083503Y-96529634D01*
X117100555Y-96539434D01*
X117234575Y-96492872D01*
X117571846Y-96373553D01*
X130310604Y-92300933D01*
X130310604Y-92300950D01*
G36*
X130310604Y-92300950D02*
G01*
X130293552Y-92682323D01*
X111483329Y-98695392D01*
X111492630Y-98316604D01*
X117083503Y-96529634D01*
X117100555Y-96539434D01*
X117234575Y-96492872D01*
X117571846Y-96373553D01*
X130310604Y-92300933D01*
X130310604Y-92300950D01*
G37*
X75872583Y-97329566D02*
X69531368Y-99356830D01*
X69530852Y-98980109D01*
X75872583Y-96952842D01*
X75872583Y-97329566D01*
G36*
X75872583Y-97329566D02*
G01*
X69531368Y-99356830D01*
X69530852Y-98980109D01*
X75872583Y-96952842D01*
X75872583Y-97329566D01*
G37*
X94948421Y-97606551D02*
X87247083Y-100068416D01*
X86840906Y-99821918D01*
X94530359Y-97363670D01*
X94948421Y-97606551D01*
G36*
X94948421Y-97606551D02*
G01*
X87247083Y-100068416D01*
X86840906Y-99821918D01*
X94530359Y-97363670D01*
X94948421Y-97606551D01*
G37*
X130207233Y-94118490D02*
X130192783Y-94308047D01*
X111443538Y-100301997D01*
X111452838Y-99923209D01*
X130221202Y-93923057D01*
X130207233Y-94118490D01*
G36*
X130207233Y-94118490D02*
G01*
X130192783Y-94308047D01*
X111443538Y-100301997D01*
X111452838Y-99923209D01*
X130221202Y-93923057D01*
X130207233Y-94118490D01*
G37*
X75873100Y-98922748D02*
X69531368Y-100950534D01*
X69531368Y-100574329D01*
X75873100Y-98547061D01*
X75873100Y-98922748D01*
G36*
X75873100Y-98922748D02*
G01*
X69531368Y-100950534D01*
X69531368Y-100574329D01*
X75873100Y-98547061D01*
X75873100Y-98922748D01*
G37*
X96719369Y-98633876D02*
X88966354Y-101112792D01*
X88560176Y-100865779D01*
X96301307Y-98391509D01*
X96719369Y-98633876D01*
G36*
X96719369Y-98633876D02*
G01*
X88966354Y-101112792D01*
X88560176Y-100865779D01*
X96301307Y-98391509D01*
X96719369Y-98633876D01*
G37*
X130066177Y-95566367D02*
X130050332Y-95675238D01*
X130034162Y-95778085D01*
X130017591Y-95874549D01*
X130000545Y-95964275D01*
X112925102Y-101422340D01*
X112492054Y-101184627D01*
X130066173Y-95566365D01*
X130066177Y-95566367D01*
G36*
X130066177Y-95566367D02*
G01*
X130050332Y-95675238D01*
X130034162Y-95778085D01*
X130017591Y-95874549D01*
X130000545Y-95964275D01*
X112925102Y-101422340D01*
X112492054Y-101184627D01*
X130066173Y-95566365D01*
X130066177Y-95566367D01*
G37*
X103181507Y-98162067D02*
X90686147Y-102156654D01*
X90280487Y-101910159D01*
X103181507Y-97786380D01*
X103181507Y-98162067D01*
G36*
X103181507Y-98162067D02*
G01*
X90686147Y-102156654D01*
X90280487Y-101910159D01*
X103181507Y-97786380D01*
X103181507Y-98162067D01*
G37*
X128387319Y-97792710D02*
X128167403Y-97957478D01*
X127940340Y-98123643D01*
X127707142Y-98290744D01*
X114757545Y-102430545D01*
X114325016Y-102192832D01*
X128599072Y-97629804D01*
X128387319Y-97792710D01*
G36*
X128387319Y-97792710D02*
G01*
X128167403Y-97957478D01*
X127940340Y-98123643D01*
X127707142Y-98290744D01*
X114757545Y-102430545D01*
X114325016Y-102192832D01*
X128599072Y-97629804D01*
X128387319Y-97792710D01*
G37*
X75873617Y-100516448D02*
X69530852Y-102544234D01*
X69530852Y-102168029D01*
X75873100Y-100140762D01*
X75873617Y-100516448D01*
G36*
X75873617Y-100516448D02*
G01*
X69530852Y-102544234D01*
X69530852Y-102168029D01*
X75873100Y-100140762D01*
X75873617Y-100516448D01*
G37*
X103181511Y-99755771D02*
X92405424Y-103200523D01*
X91999763Y-102954543D01*
X103181511Y-99379569D01*
X103181511Y-99755771D01*
G36*
X103181511Y-99755771D02*
G01*
X92405424Y-103200523D01*
X91999763Y-102954543D01*
X103181511Y-99379569D01*
X103181511Y-99755771D01*
G37*
X124595195Y-100879218D02*
X116590000Y-103438235D01*
X116157466Y-103200523D01*
X124186431Y-100633754D01*
X124595195Y-100879218D01*
G36*
X124595195Y-100879218D02*
G01*
X116590000Y-103438235D01*
X116157466Y-103200523D01*
X124186431Y-100633754D01*
X124595195Y-100879218D01*
G37*
X75873617Y-102110152D02*
X69530335Y-104137935D01*
X69530335Y-103762248D01*
X75873617Y-101734466D01*
X75873617Y-102110152D01*
G36*
X75873617Y-102110152D02*
G01*
X69530335Y-104137935D01*
X69530335Y-103762248D01*
X75873617Y-101734466D01*
X75873617Y-102110152D01*
G37*
X103181514Y-101349475D02*
X94124702Y-104244388D01*
X93719558Y-103998408D01*
X103181514Y-100973270D01*
X103181514Y-101349475D01*
G36*
X103181514Y-101349475D02*
G01*
X94124702Y-104244388D01*
X93719558Y-103998408D01*
X103181514Y-100973270D01*
X103181514Y-101349475D01*
G37*
X126327907Y-101918948D02*
X118422447Y-104445926D01*
X117989914Y-104208213D01*
X125919147Y-101673484D01*
X126327907Y-101918948D01*
G36*
X126327907Y-101918948D02*
G01*
X118422447Y-104445926D01*
X117989914Y-104208213D01*
X125919147Y-101673484D01*
X126327907Y-101918948D01*
G37*
X103653835Y-102792281D02*
X95844494Y-105288772D01*
X95438833Y-105042274D01*
X103245075Y-102546817D01*
X103653835Y-102792281D01*
G36*
X103653835Y-102792281D02*
G01*
X95844494Y-105288772D01*
X95438833Y-105042274D01*
X103245075Y-102546817D01*
X103653835Y-102792281D01*
G37*
X128061130Y-102958678D02*
X120254886Y-105454135D01*
X119822872Y-105216422D01*
X127652370Y-102713214D01*
X128061130Y-102958678D01*
G36*
X128061130Y-102958678D02*
G01*
X120254886Y-105454135D01*
X119822872Y-105216422D01*
X127652370Y-102713214D01*
X128061130Y-102958678D01*
G37*
X75874134Y-103704372D02*
X69529818Y-105732154D01*
X69529818Y-105355949D01*
X75874134Y-103327647D01*
X75874134Y-103704372D01*
G36*
X75874134Y-103704372D02*
G01*
X69529818Y-105732154D01*
X69529818Y-105355949D01*
X75874134Y-103327647D01*
X75874134Y-103704372D01*
G37*
X105387577Y-103832011D02*
X97564281Y-106332633D01*
X97158104Y-106086135D01*
X104978298Y-103586547D01*
X105387577Y-103832011D01*
G36*
X105387577Y-103832011D02*
G01*
X97564281Y-106332633D01*
X97158104Y-106086135D01*
X104978298Y-103586547D01*
X105387577Y-103832011D01*
G37*
X129794357Y-103998927D02*
X122087844Y-106462340D01*
X121655315Y-106224113D01*
X129385074Y-103752944D01*
X129794357Y-103998927D01*
G36*
X129794357Y-103998927D02*
G01*
X122087844Y-106462340D01*
X121655315Y-106224113D01*
X129385074Y-103752944D01*
X129794357Y-103998927D01*
G37*
X75874643Y-105297553D02*
X69529293Y-107325854D01*
X69529293Y-106949649D01*
X75874643Y-104921348D01*
X75874643Y-105297553D01*
G36*
X75874643Y-105297553D02*
G01*
X69529293Y-107325854D01*
X69529293Y-106949649D01*
X75874643Y-104921348D01*
X75874643Y-105297553D01*
G37*
X107120281Y-104871738D02*
X99284067Y-107377010D01*
X98878406Y-107130515D01*
X106711521Y-104626792D01*
X107120281Y-104871738D01*
G36*
X107120281Y-104871738D02*
G01*
X99284067Y-107377010D01*
X98878406Y-107130515D01*
X106711521Y-104626792D01*
X107120281Y-104871738D01*
G37*
X130486293Y-105370929D02*
X123920288Y-107470027D01*
X123487239Y-107231799D01*
X130486293Y-104994727D01*
X130486293Y-105370929D01*
G36*
X130486293Y-105370929D02*
G01*
X123920288Y-107470027D01*
X123487239Y-107231799D01*
X130486293Y-104994727D01*
X130486293Y-105370929D01*
G37*
X108852989Y-105911468D02*
X101003339Y-108420875D01*
X100597679Y-108174380D01*
X108444229Y-105666522D01*
X108852989Y-105911468D01*
G36*
X108852989Y-105911468D02*
G01*
X101003339Y-108420875D01*
X100597679Y-108174380D01*
X108444229Y-105666522D01*
X108852989Y-105911468D01*
G37*
X75875167Y-106891257D02*
X69528775Y-108919555D01*
X69529291Y-108543868D01*
X75874641Y-106515567D01*
X75875167Y-106891257D01*
G36*
X75875167Y-106891257D02*
G01*
X69528775Y-108919555D01*
X69529291Y-108543868D01*
X75874641Y-106515567D01*
X75875167Y-106891257D01*
G37*
X130486293Y-106964633D02*
X124136295Y-108995002D01*
X124136295Y-108618797D01*
X130486293Y-106588946D01*
X130486293Y-106964633D01*
G36*
X130486293Y-106964633D02*
G01*
X124136295Y-108995002D01*
X124136295Y-108618797D01*
X130486293Y-106588946D01*
X130486293Y-106964633D01*
G37*
X106737354Y-108181613D02*
X102723129Y-109464740D01*
X102317470Y-109218761D01*
X107820491Y-107459178D01*
X106737354Y-108181613D01*
G36*
X106737354Y-108181613D02*
G01*
X102723129Y-109464740D01*
X102317470Y-109218761D01*
X107820491Y-107459178D01*
X106737354Y-108181613D01*
G37*
X75875167Y-108484958D02*
X69528785Y-110513774D01*
X69528785Y-110137569D01*
X75875167Y-108108752D01*
X75875167Y-108484958D01*
G36*
X75875167Y-108484958D02*
G01*
X69528785Y-110513774D01*
X69528785Y-110137569D01*
X75875167Y-108108752D01*
X75875167Y-108484958D01*
G37*
X130486305Y-108558337D02*
X124136306Y-110588187D01*
X124136306Y-110212501D01*
X130486305Y-108182651D01*
X130486305Y-108558337D01*
G36*
X130486305Y-108558337D02*
G01*
X124136306Y-110588187D01*
X124136306Y-110212501D01*
X130486305Y-108182651D01*
X130486305Y-108558337D01*
G37*
X75875684Y-110078143D02*
X69528270Y-112107478D01*
X69528270Y-111731273D01*
X75875686Y-109702457D01*
X75875684Y-110078143D01*
G36*
X75875684Y-110078143D02*
G01*
X69528270Y-112107478D01*
X69528270Y-111731273D01*
X75875686Y-109702457D01*
X75875684Y-110078143D01*
G37*
X130486305Y-110152042D02*
X124136306Y-112181892D01*
X124136306Y-111806205D01*
X130486305Y-109776355D01*
X130486305Y-110152042D01*
G36*
X130486305Y-110152042D02*
G01*
X124136306Y-112181892D01*
X124136306Y-111806205D01*
X130486305Y-109776355D01*
X130486305Y-110152042D01*
G37*
X75876201Y-111671847D02*
X69527751Y-113701179D01*
X69527751Y-113325492D01*
X75876201Y-111296161D01*
X75876201Y-111671847D01*
G36*
X75876201Y-111671847D02*
G01*
X69527751Y-113701179D01*
X69527751Y-113325492D01*
X75876201Y-111296161D01*
X75876201Y-111671847D01*
G37*
X130486305Y-111745746D02*
X124136306Y-113775596D01*
X124136306Y-113399909D01*
X130486305Y-111370059D01*
X130486305Y-111745746D01*
G36*
X130486305Y-111745746D02*
G01*
X124136306Y-113775596D01*
X124136306Y-113399909D01*
X130486305Y-111370059D01*
X130486305Y-111745746D01*
G37*
X75876201Y-113266070D02*
X69527234Y-115295402D01*
X69527234Y-114919196D01*
X75876201Y-112889346D01*
X75876201Y-113266070D01*
G36*
X75876201Y-113266070D02*
G01*
X69527234Y-115295402D01*
X69527234Y-114919196D01*
X75876201Y-112889346D01*
X75876201Y-113266070D01*
G37*
X130486305Y-113339957D02*
X121066208Y-116351661D01*
X122518314Y-115510886D01*
X130486305Y-112963756D01*
X130486305Y-113339957D01*
G36*
X130486305Y-113339957D02*
G01*
X121066208Y-116351661D01*
X122518314Y-115510886D01*
X130486305Y-112963756D01*
X130486305Y-113339957D01*
G37*
X75876718Y-114573997D02*
X76194528Y-114757964D01*
X69526718Y-116889617D01*
X69527234Y-116513412D01*
X75876718Y-114483562D01*
X75876718Y-114573997D01*
G36*
X75876718Y-114573997D02*
G01*
X76194528Y-114757964D01*
X69526718Y-116889617D01*
X69527234Y-116513412D01*
X75876718Y-114483562D01*
X75876718Y-114573997D01*
G37*
X77968063Y-115784770D02*
X70339588Y-118223380D01*
X69923593Y-117980502D01*
X77549484Y-115542407D01*
X77968063Y-115784770D01*
G36*
X77968063Y-115784770D02*
G01*
X70339588Y-118223380D01*
X69923593Y-117980502D01*
X77549484Y-115542407D01*
X77968063Y-115784770D01*
G37*
X79741600Y-116811580D02*
X72104857Y-119252772D01*
X71688345Y-119009894D01*
X79323021Y-116569217D01*
X79741600Y-116811580D01*
G36*
X79741600Y-116811580D02*
G01*
X72104857Y-119252772D01*
X71688345Y-119009894D01*
X79323021Y-116569217D01*
X79741600Y-116811580D01*
G37*
X130486305Y-114933658D02*
X114919296Y-119910098D01*
X116369335Y-119070357D01*
X130486301Y-114557971D01*
X130486305Y-114933658D01*
G36*
X130486305Y-114933658D02*
G01*
X114919296Y-119910098D01*
X116369335Y-119070357D01*
X130486301Y-114557971D01*
X130486305Y-114933658D01*
G37*
X81515134Y-117838386D02*
X73869606Y-120282165D01*
X73453094Y-120039287D01*
X81096555Y-117596027D01*
X81515134Y-117838386D01*
G36*
X81515134Y-117838386D02*
G01*
X73869606Y-120282165D01*
X73453094Y-120039287D01*
X81096555Y-117596027D01*
X81515134Y-117838386D01*
G37*
X83289190Y-118865199D02*
X75634877Y-121312080D01*
X75217848Y-121068683D01*
X82870094Y-118622836D01*
X83289190Y-118865199D01*
G36*
X83289190Y-118865199D02*
G01*
X75634877Y-121312080D01*
X75217848Y-121068683D01*
X82870094Y-118622836D01*
X83289190Y-118865199D01*
G37*
X85062208Y-119892009D02*
X77399627Y-122341472D01*
X76982598Y-122098590D01*
X84643629Y-119649646D01*
X85062208Y-119892009D01*
G36*
X85062208Y-119892009D02*
G01*
X77399627Y-122341472D01*
X76982598Y-122098590D01*
X84643629Y-119649646D01*
X85062208Y-119892009D01*
G37*
X86835743Y-120918819D02*
X79164376Y-123370864D01*
X78748381Y-123127986D01*
X86417680Y-120676456D01*
X86835743Y-120918819D01*
G36*
X86835743Y-120918819D02*
G01*
X79164376Y-123370864D01*
X78748381Y-123127986D01*
X86417680Y-120676456D01*
X86835743Y-120918819D01*
G37*
X130486301Y-116527362D02*
X108772380Y-123468539D01*
X110222423Y-122629314D01*
X130486305Y-116151672D01*
X130486301Y-116527362D01*
G36*
X130486301Y-116527362D02*
G01*
X108772380Y-123468539D01*
X110222423Y-122629314D01*
X130486305Y-116151672D01*
X130486301Y-116527362D01*
G37*
X88609283Y-121945624D02*
X80929647Y-124400256D01*
X80513136Y-124157893D01*
X88191219Y-121703265D01*
X88609283Y-121945624D01*
G36*
X88609283Y-121945624D02*
G01*
X80929647Y-124400256D01*
X80513136Y-124157893D01*
X88191219Y-121703265D01*
X88609283Y-121945624D01*
G37*
X90382816Y-122971919D02*
X82694397Y-125430167D01*
X82277885Y-125187289D01*
X89964239Y-122730075D01*
X90382816Y-122971919D01*
G36*
X90382816Y-122971919D02*
G01*
X82694397Y-125430167D01*
X82277885Y-125187289D01*
X89964239Y-122730075D01*
X90382816Y-122971919D01*
G37*
X92156353Y-123998729D02*
X84459148Y-126459560D01*
X84042636Y-126216682D01*
X91737774Y-123756885D01*
X92156353Y-123998729D01*
G36*
X92156353Y-123998729D02*
G01*
X84459148Y-126459560D01*
X84042636Y-126216682D01*
X91737774Y-123756885D01*
X92156353Y-123998729D01*
G37*
X130486305Y-117748984D02*
X129075023Y-118572192D01*
X102625476Y-127027488D01*
X104075519Y-126187747D01*
X130486309Y-117744853D01*
X130486305Y-117748984D01*
G36*
X130486305Y-117748984D02*
G01*
X129075023Y-118572192D01*
X102625476Y-127027488D01*
X104075519Y-126187747D01*
X130486309Y-117744853D01*
X130486305Y-117748984D01*
G37*
X93930404Y-125026057D02*
X86224414Y-127489474D01*
X85807386Y-127246078D01*
X93511308Y-124783179D01*
X93930404Y-125026057D01*
G36*
X93930404Y-125026057D02*
G01*
X86224414Y-127489474D01*
X85807386Y-127246078D01*
X93511308Y-124783179D01*
X93930404Y-125026057D01*
G37*
X95703937Y-126052863D02*
X87989164Y-128518863D01*
X87573167Y-128275985D01*
X95285358Y-125810504D01*
X95703937Y-126052863D01*
G36*
X95703937Y-126052863D02*
G01*
X87989164Y-128518863D01*
X87573167Y-128275985D01*
X95285358Y-125810504D01*
X95703937Y-126052863D01*
G37*
X97477472Y-127079677D02*
X89754428Y-129548259D01*
X89337917Y-129305377D01*
X97058893Y-126837314D01*
X97477472Y-127079677D01*
G36*
X97477472Y-127079677D02*
G01*
X89754428Y-129548259D01*
X89337917Y-129305377D01*
X97058893Y-126837314D01*
X97477472Y-127079677D01*
G37*
X99251007Y-128105971D02*
X91519180Y-130577655D01*
X91102668Y-130334773D01*
X98832428Y-127864123D01*
X99251007Y-128105971D01*
G36*
X99251007Y-128105971D02*
G01*
X91519180Y-130577655D01*
X91102668Y-130334773D01*
X98832428Y-127864123D01*
X99251007Y-128105971D01*
G37*
X123030437Y-122098079D02*
X93283929Y-131607059D01*
X92867418Y-131364696D01*
X124456188Y-121266601D01*
X123030437Y-122098079D01*
G36*
X123030437Y-122098079D02*
G01*
X93283929Y-131607059D01*
X92867418Y-131364696D01*
X124456188Y-121266601D01*
X123030437Y-122098079D01*
G37*
X116984295Y-125624992D02*
X95049198Y-132636966D01*
X94632686Y-132394084D01*
X118412113Y-124792480D01*
X116984295Y-125624992D01*
G36*
X116984295Y-125624992D02*
G01*
X95049198Y-132636966D01*
X94632686Y-132394084D01*
X118412113Y-124792480D01*
X116984295Y-125624992D01*
G37*
X110939701Y-129150859D02*
X96814466Y-133666865D01*
X96397438Y-133423473D01*
X112368038Y-128317844D01*
X110939701Y-129150859D01*
G36*
X110939701Y-129150859D02*
G01*
X96814466Y-133666865D01*
X96397438Y-133423473D01*
X112368038Y-128317844D01*
X110939701Y-129150859D01*
G37*
X104895626Y-132676753D02*
X98579216Y-134696269D01*
X98162704Y-134453387D01*
X106320861Y-131845279D01*
X104895626Y-132676753D01*
G36*
X104895626Y-132676753D02*
G01*
X98579216Y-134696269D01*
X98162704Y-134453387D01*
X106320861Y-131845279D01*
X104895626Y-132676753D01*
G37*
X100006513Y-135528773D02*
X99927454Y-135482783D01*
X100276786Y-135371165D01*
X100006513Y-135528773D01*
G36*
X100006513Y-135528773D02*
G01*
X99927454Y-135482783D01*
X100276786Y-135371165D01*
X100006513Y-135528773D01*
G37*
D11*
X114536009Y-85879285D02*
X114583628Y-86022142D01*
X114583628Y-86022142D02*
X114631247Y-86069761D01*
X114631247Y-86069761D02*
X114726485Y-86117380D01*
X114726485Y-86117380D02*
X114869342Y-86117380D01*
X114869342Y-86117380D02*
X114964580Y-86069761D01*
X114964580Y-86069761D02*
X115012200Y-86022142D01*
X115012200Y-86022142D02*
X115059819Y-85926904D01*
X115059819Y-85926904D02*
X115059819Y-85545952D01*
X115059819Y-85545952D02*
X114059819Y-85545952D01*
X114059819Y-85545952D02*
X114059819Y-85879285D01*
X114059819Y-85879285D02*
X114107438Y-85974523D01*
X114107438Y-85974523D02*
X114155057Y-86022142D01*
X114155057Y-86022142D02*
X114250295Y-86069761D01*
X114250295Y-86069761D02*
X114345533Y-86069761D01*
X114345533Y-86069761D02*
X114440771Y-86022142D01*
X114440771Y-86022142D02*
X114488390Y-85974523D01*
X114488390Y-85974523D02*
X114536009Y-85879285D01*
X114536009Y-85879285D02*
X114536009Y-85545952D01*
X114059819Y-86403095D02*
X114059819Y-86974523D01*
X115059819Y-86688809D02*
X114059819Y-86688809D01*
X115059819Y-87831666D02*
X115059819Y-87260238D01*
X115059819Y-87545952D02*
X114059819Y-87545952D01*
X114059819Y-87545952D02*
X114202676Y-87450714D01*
X114202676Y-87450714D02*
X114297914Y-87355476D01*
X114297914Y-87355476D02*
X114345533Y-87260238D01*
X95721666Y-77499580D02*
X95769285Y-77547200D01*
X95769285Y-77547200D02*
X95912142Y-77594819D01*
X95912142Y-77594819D02*
X96007380Y-77594819D01*
X96007380Y-77594819D02*
X96150237Y-77547200D01*
X96150237Y-77547200D02*
X96245475Y-77451961D01*
X96245475Y-77451961D02*
X96293094Y-77356723D01*
X96293094Y-77356723D02*
X96340713Y-77166247D01*
X96340713Y-77166247D02*
X96340713Y-77023390D01*
X96340713Y-77023390D02*
X96293094Y-76832914D01*
X96293094Y-76832914D02*
X96245475Y-76737676D01*
X96245475Y-76737676D02*
X96150237Y-76642438D01*
X96150237Y-76642438D02*
X96007380Y-76594819D01*
X96007380Y-76594819D02*
X95912142Y-76594819D01*
X95912142Y-76594819D02*
X95769285Y-76642438D01*
X95769285Y-76642438D02*
X95721666Y-76690057D01*
X95340713Y-76690057D02*
X95293094Y-76642438D01*
X95293094Y-76642438D02*
X95197856Y-76594819D01*
X95197856Y-76594819D02*
X94959761Y-76594819D01*
X94959761Y-76594819D02*
X94864523Y-76642438D01*
X94864523Y-76642438D02*
X94816904Y-76690057D01*
X94816904Y-76690057D02*
X94769285Y-76785295D01*
X94769285Y-76785295D02*
X94769285Y-76880533D01*
X94769285Y-76880533D02*
X94816904Y-77023390D01*
X94816904Y-77023390D02*
X95388332Y-77594819D01*
X95388332Y-77594819D02*
X94769285Y-77594819D01*
X89121927Y-120797217D02*
X89648698Y-120551491D01*
X89616799Y-121082932D02*
X90116799Y-120216906D01*
X90116799Y-120216906D02*
X89786884Y-120026430D01*
X89786884Y-120026430D02*
X89680596Y-120020050D01*
X89680596Y-120020050D02*
X89615547Y-120037480D01*
X89615547Y-120037480D02*
X89526689Y-120096149D01*
X89526689Y-120096149D02*
X89455260Y-120219867D01*
X89455260Y-120219867D02*
X89448881Y-120326155D01*
X89448881Y-120326155D02*
X89466311Y-120391204D01*
X89466311Y-120391204D02*
X89524980Y-120480062D01*
X89524980Y-120480062D02*
X89854894Y-120670539D01*
X88879620Y-119502621D02*
X89044577Y-119597859D01*
X89044577Y-119597859D02*
X89103246Y-119686717D01*
X89103246Y-119686717D02*
X89120676Y-119751766D01*
X89120676Y-119751766D02*
X89131726Y-119923103D01*
X89131726Y-119923103D02*
X89077727Y-120111870D01*
X89077727Y-120111870D02*
X88887251Y-120441784D01*
X88887251Y-120441784D02*
X88798392Y-120500453D01*
X88798392Y-120500453D02*
X88733344Y-120517883D01*
X88733344Y-120517883D02*
X88627055Y-120511503D01*
X88627055Y-120511503D02*
X88462098Y-120416265D01*
X88462098Y-120416265D02*
X88403429Y-120327407D01*
X88403429Y-120327407D02*
X88385999Y-120262358D01*
X88385999Y-120262358D02*
X88392379Y-120156070D01*
X88392379Y-120156070D02*
X88511427Y-119949873D01*
X88511427Y-119949873D02*
X88600285Y-119891204D01*
X88600285Y-119891204D02*
X88665334Y-119873774D01*
X88665334Y-119873774D02*
X88771622Y-119880154D01*
X88771622Y-119880154D02*
X88936579Y-119975392D01*
X88936579Y-119975392D02*
X88995248Y-120064251D01*
X88995248Y-120064251D02*
X89012678Y-120129299D01*
X89012678Y-120129299D02*
X89006298Y-120235588D01*
X108626746Y-121265551D02*
X108677326Y-120686492D01*
X109121618Y-120979837D02*
X108621618Y-120113812D01*
X108621618Y-120113812D02*
X108291703Y-120304288D01*
X108291703Y-120304288D02*
X108233034Y-120393146D01*
X108233034Y-120393146D02*
X108215605Y-120458195D01*
X108215605Y-120458195D02*
X108221984Y-120564483D01*
X108221984Y-120564483D02*
X108293413Y-120688201D01*
X108293413Y-120688201D02*
X108382271Y-120746870D01*
X108382271Y-120746870D02*
X108447320Y-120764300D01*
X108447320Y-120764300D02*
X108553608Y-120757920D01*
X108553608Y-120757920D02*
X108883523Y-120567444D01*
X107551105Y-121116772D02*
X107884439Y-121694123D01*
X107566826Y-120667810D02*
X108130165Y-121167352D01*
X108130165Y-121167352D02*
X107594054Y-121476876D01*
X89756927Y-119527217D02*
X90283698Y-119281491D01*
X90251799Y-119812932D02*
X90751799Y-118946906D01*
X90751799Y-118946906D02*
X90421884Y-118756430D01*
X90421884Y-118756430D02*
X90315596Y-118750050D01*
X90315596Y-118750050D02*
X90250547Y-118767480D01*
X90250547Y-118767480D02*
X90161689Y-118826149D01*
X90161689Y-118826149D02*
X90090260Y-118949867D01*
X90090260Y-118949867D02*
X90083881Y-119056155D01*
X90083881Y-119056155D02*
X90101311Y-119121204D01*
X90101311Y-119121204D02*
X90159980Y-119210062D01*
X90159980Y-119210062D02*
X90489894Y-119400539D01*
X89968252Y-118494525D02*
X89390902Y-118161192D01*
X89390902Y-118161192D02*
X89262055Y-119241503D01*
X89354140Y-82292456D02*
X89404720Y-81713396D01*
X89849011Y-82006741D02*
X89349011Y-81140716D01*
X89349011Y-81140716D02*
X89019097Y-81331192D01*
X89019097Y-81331192D02*
X88960428Y-81420051D01*
X88960428Y-81420051D02*
X88942998Y-81485099D01*
X88942998Y-81485099D02*
X88949378Y-81591388D01*
X88949378Y-81591388D02*
X89020806Y-81715105D01*
X89020806Y-81715105D02*
X89109665Y-81773775D01*
X89109665Y-81773775D02*
X89174714Y-81791204D01*
X89174714Y-81791204D02*
X89281002Y-81784825D01*
X89281002Y-81784825D02*
X89610916Y-81594348D01*
X88529354Y-82768646D02*
X89024225Y-82482932D01*
X88776789Y-82625789D02*
X88276789Y-81759764D01*
X88276789Y-81759764D02*
X88430697Y-81835863D01*
X88430697Y-81835863D02*
X88560794Y-81870722D01*
X88560794Y-81870722D02*
X88667082Y-81864342D01*
X87704567Y-83244837D02*
X88199439Y-82959122D01*
X87952003Y-83101980D02*
X87452003Y-82235954D01*
X87452003Y-82235954D02*
X87605910Y-82312053D01*
X87605910Y-82312053D02*
X87736008Y-82346913D01*
X87736008Y-82346913D02*
X87842296Y-82340533D01*
X109174819Y-94118333D02*
X108698628Y-93785000D01*
X109174819Y-93546905D02*
X108174819Y-93546905D01*
X108174819Y-93546905D02*
X108174819Y-93927857D01*
X108174819Y-93927857D02*
X108222438Y-94023095D01*
X108222438Y-94023095D02*
X108270057Y-94070714D01*
X108270057Y-94070714D02*
X108365295Y-94118333D01*
X108365295Y-94118333D02*
X108508152Y-94118333D01*
X108508152Y-94118333D02*
X108603390Y-94070714D01*
X108603390Y-94070714D02*
X108651009Y-94023095D01*
X108651009Y-94023095D02*
X108698628Y-93927857D01*
X108698628Y-93927857D02*
X108698628Y-93546905D01*
X109174819Y-95070714D02*
X109174819Y-94499286D01*
X109174819Y-94785000D02*
X108174819Y-94785000D01*
X108174819Y-94785000D02*
X108317676Y-94689762D01*
X108317676Y-94689762D02*
X108412914Y-94594524D01*
X108412914Y-94594524D02*
X108460533Y-94499286D01*
X112296618Y-110819837D02*
X111796618Y-109953812D01*
X111796618Y-109953812D02*
X111590421Y-110072859D01*
X111590421Y-110072859D02*
X111490513Y-110185527D01*
X111490513Y-110185527D02*
X111455653Y-110315625D01*
X111455653Y-110315625D02*
X111462033Y-110421913D01*
X111462033Y-110421913D02*
X111516032Y-110610680D01*
X111516032Y-110610680D02*
X111587460Y-110734398D01*
X111587460Y-110734398D02*
X111723938Y-110875545D01*
X111723938Y-110875545D02*
X111812796Y-110934214D01*
X111812796Y-110934214D02*
X111942894Y-110969074D01*
X111942894Y-110969074D02*
X112090421Y-110938885D01*
X112090421Y-110938885D02*
X112296618Y-110819837D01*
X110976960Y-111581742D02*
X111471832Y-111296027D01*
X111224396Y-111438885D02*
X110724396Y-110572859D01*
X110724396Y-110572859D02*
X110878303Y-110648958D01*
X110878303Y-110648958D02*
X111008401Y-110683818D01*
X111008401Y-110683818D02*
X111114689Y-110677438D01*
X85214819Y-99198333D02*
X84738628Y-98865000D01*
X85214819Y-98626905D02*
X84214819Y-98626905D01*
X84214819Y-98626905D02*
X84214819Y-99007857D01*
X84214819Y-99007857D02*
X84262438Y-99103095D01*
X84262438Y-99103095D02*
X84310057Y-99150714D01*
X84310057Y-99150714D02*
X84405295Y-99198333D01*
X84405295Y-99198333D02*
X84548152Y-99198333D01*
X84548152Y-99198333D02*
X84643390Y-99150714D01*
X84643390Y-99150714D02*
X84691009Y-99103095D01*
X84691009Y-99103095D02*
X84738628Y-99007857D01*
X84738628Y-99007857D02*
X84738628Y-98626905D01*
X84214819Y-99531667D02*
X84214819Y-100150714D01*
X84214819Y-100150714D02*
X84595771Y-99817381D01*
X84595771Y-99817381D02*
X84595771Y-99960238D01*
X84595771Y-99960238D02*
X84643390Y-100055476D01*
X84643390Y-100055476D02*
X84691009Y-100103095D01*
X84691009Y-100103095D02*
X84786247Y-100150714D01*
X84786247Y-100150714D02*
X85024342Y-100150714D01*
X85024342Y-100150714D02*
X85119580Y-100103095D01*
X85119580Y-100103095D02*
X85167200Y-100055476D01*
X85167200Y-100055476D02*
X85214819Y-99960238D01*
X85214819Y-99960238D02*
X85214819Y-99674524D01*
X85214819Y-99674524D02*
X85167200Y-99579286D01*
X85167200Y-99579286D02*
X85119580Y-99531667D01*
X103831650Y-119158023D02*
X104532719Y-119562785D01*
X104532719Y-119562785D02*
X104591388Y-119651643D01*
X104591388Y-119651643D02*
X104608817Y-119716692D01*
X104608817Y-119716692D02*
X104602438Y-119822980D01*
X104602438Y-119822980D02*
X104507200Y-119987938D01*
X104507200Y-119987938D02*
X104418341Y-120046607D01*
X104418341Y-120046607D02*
X104353292Y-120064036D01*
X104353292Y-120064036D02*
X104247004Y-120057657D01*
X104247004Y-120057657D02*
X103545936Y-119652895D01*
X103414129Y-120071668D02*
X103349080Y-120089097D01*
X103349080Y-120089097D02*
X103260222Y-120147766D01*
X103260222Y-120147766D02*
X103141174Y-120353963D01*
X103141174Y-120353963D02*
X103134794Y-120460251D01*
X103134794Y-120460251D02*
X103152224Y-120525300D01*
X103152224Y-120525300D02*
X103210893Y-120614158D01*
X103210893Y-120614158D02*
X103293372Y-120661777D01*
X103293372Y-120661777D02*
X103440899Y-120691967D01*
X103440899Y-120691967D02*
X104221485Y-120482809D01*
X104221485Y-120482809D02*
X103911961Y-121018920D01*
X109174819Y-85228333D02*
X108698628Y-84895000D01*
X109174819Y-84656905D02*
X108174819Y-84656905D01*
X108174819Y-84656905D02*
X108174819Y-85037857D01*
X108174819Y-85037857D02*
X108222438Y-85133095D01*
X108222438Y-85133095D02*
X108270057Y-85180714D01*
X108270057Y-85180714D02*
X108365295Y-85228333D01*
X108365295Y-85228333D02*
X108508152Y-85228333D01*
X108508152Y-85228333D02*
X108603390Y-85180714D01*
X108603390Y-85180714D02*
X108651009Y-85133095D01*
X108651009Y-85133095D02*
X108698628Y-85037857D01*
X108698628Y-85037857D02*
X108698628Y-84656905D01*
X108270057Y-85609286D02*
X108222438Y-85656905D01*
X108222438Y-85656905D02*
X108174819Y-85752143D01*
X108174819Y-85752143D02*
X108174819Y-85990238D01*
X108174819Y-85990238D02*
X108222438Y-86085476D01*
X108222438Y-86085476D02*
X108270057Y-86133095D01*
X108270057Y-86133095D02*
X108365295Y-86180714D01*
X108365295Y-86180714D02*
X108460533Y-86180714D01*
X108460533Y-86180714D02*
X108603390Y-86133095D01*
X108603390Y-86133095D02*
X109174819Y-85561667D01*
X109174819Y-85561667D02*
X109174819Y-86180714D01*
X82674819Y-99198333D02*
X82198628Y-98865000D01*
X82674819Y-98626905D02*
X81674819Y-98626905D01*
X81674819Y-98626905D02*
X81674819Y-99007857D01*
X81674819Y-99007857D02*
X81722438Y-99103095D01*
X81722438Y-99103095D02*
X81770057Y-99150714D01*
X81770057Y-99150714D02*
X81865295Y-99198333D01*
X81865295Y-99198333D02*
X82008152Y-99198333D01*
X82008152Y-99198333D02*
X82103390Y-99150714D01*
X82103390Y-99150714D02*
X82151009Y-99103095D01*
X82151009Y-99103095D02*
X82198628Y-99007857D01*
X82198628Y-99007857D02*
X82198628Y-98626905D01*
X82103390Y-99769762D02*
X82055771Y-99674524D01*
X82055771Y-99674524D02*
X82008152Y-99626905D01*
X82008152Y-99626905D02*
X81912914Y-99579286D01*
X81912914Y-99579286D02*
X81865295Y-99579286D01*
X81865295Y-99579286D02*
X81770057Y-99626905D01*
X81770057Y-99626905D02*
X81722438Y-99674524D01*
X81722438Y-99674524D02*
X81674819Y-99769762D01*
X81674819Y-99769762D02*
X81674819Y-99960238D01*
X81674819Y-99960238D02*
X81722438Y-100055476D01*
X81722438Y-100055476D02*
X81770057Y-100103095D01*
X81770057Y-100103095D02*
X81865295Y-100150714D01*
X81865295Y-100150714D02*
X81912914Y-100150714D01*
X81912914Y-100150714D02*
X82008152Y-100103095D01*
X82008152Y-100103095D02*
X82055771Y-100055476D01*
X82055771Y-100055476D02*
X82103390Y-99960238D01*
X82103390Y-99960238D02*
X82103390Y-99769762D01*
X82103390Y-99769762D02*
X82151009Y-99674524D01*
X82151009Y-99674524D02*
X82198628Y-99626905D01*
X82198628Y-99626905D02*
X82293866Y-99579286D01*
X82293866Y-99579286D02*
X82484342Y-99579286D01*
X82484342Y-99579286D02*
X82579580Y-99626905D01*
X82579580Y-99626905D02*
X82627200Y-99674524D01*
X82627200Y-99674524D02*
X82674819Y-99769762D01*
X82674819Y-99769762D02*
X82674819Y-99960238D01*
X82674819Y-99960238D02*
X82627200Y-100055476D01*
X82627200Y-100055476D02*
X82579580Y-100103095D01*
X82579580Y-100103095D02*
X82484342Y-100150714D01*
X82484342Y-100150714D02*
X82293866Y-100150714D01*
X82293866Y-100150714D02*
X82198628Y-100103095D01*
X82198628Y-100103095D02*
X82151009Y-100055476D01*
X82151009Y-100055476D02*
X82103390Y-99960238D01*
X91861904Y-83164819D02*
X91861904Y-83974342D01*
X91861904Y-83974342D02*
X91814285Y-84069580D01*
X91814285Y-84069580D02*
X91766666Y-84117200D01*
X91766666Y-84117200D02*
X91671428Y-84164819D01*
X91671428Y-84164819D02*
X91480952Y-84164819D01*
X91480952Y-84164819D02*
X91385714Y-84117200D01*
X91385714Y-84117200D02*
X91338095Y-84069580D01*
X91338095Y-84069580D02*
X91290476Y-83974342D01*
X91290476Y-83974342D02*
X91290476Y-83164819D01*
X90290476Y-84164819D02*
X90861904Y-84164819D01*
X90576190Y-84164819D02*
X90576190Y-83164819D01*
X90576190Y-83164819D02*
X90671428Y-83307676D01*
X90671428Y-83307676D02*
X90766666Y-83402914D01*
X90766666Y-83402914D02*
X90861904Y-83450533D01*
X110489321Y-82300313D02*
X111016091Y-82054587D01*
X110984192Y-82586027D02*
X111484192Y-81720002D01*
X111484192Y-81720002D02*
X111154278Y-81529526D01*
X111154278Y-81529526D02*
X111047990Y-81523146D01*
X111047990Y-81523146D02*
X110982941Y-81540576D01*
X110982941Y-81540576D02*
X110894083Y-81599245D01*
X110894083Y-81599245D02*
X110822654Y-81722963D01*
X110822654Y-81722963D02*
X110816274Y-81829251D01*
X110816274Y-81829251D02*
X110833704Y-81894300D01*
X110833704Y-81894300D02*
X110892373Y-81983158D01*
X110892373Y-81983158D02*
X111222288Y-82173634D01*
X109664535Y-81824122D02*
X110159406Y-82109837D01*
X109911970Y-81966980D02*
X110411970Y-81100954D01*
X110411970Y-81100954D02*
X110423020Y-81272291D01*
X110423020Y-81272291D02*
X110457880Y-81402389D01*
X110457880Y-81402389D02*
X110516549Y-81491247D01*
X109875859Y-80791430D02*
X109339748Y-80481907D01*
X109339748Y-80481907D02*
X109437947Y-80978488D01*
X109437947Y-80978488D02*
X109314229Y-80907059D01*
X109314229Y-80907059D02*
X109207941Y-80900679D01*
X109207941Y-80900679D02*
X109142892Y-80918109D01*
X109142892Y-80918109D02*
X109054034Y-80976778D01*
X109054034Y-80976778D02*
X108934986Y-81182975D01*
X108934986Y-81182975D02*
X108928607Y-81289263D01*
X108928607Y-81289263D02*
X108946037Y-81354312D01*
X108946037Y-81354312D02*
X109004706Y-81443170D01*
X109004706Y-81443170D02*
X109252141Y-81586027D01*
X109252141Y-81586027D02*
X109358430Y-81592407D01*
X109358430Y-81592407D02*
X109423478Y-81574977D01*
X82280238Y-93984819D02*
X82613571Y-93508628D01*
X82851666Y-93984819D02*
X82851666Y-92984819D01*
X82851666Y-92984819D02*
X82470714Y-92984819D01*
X82470714Y-92984819D02*
X82375476Y-93032438D01*
X82375476Y-93032438D02*
X82327857Y-93080057D01*
X82327857Y-93080057D02*
X82280238Y-93175295D01*
X82280238Y-93175295D02*
X82280238Y-93318152D01*
X82280238Y-93318152D02*
X82327857Y-93413390D01*
X82327857Y-93413390D02*
X82375476Y-93461009D01*
X82375476Y-93461009D02*
X82470714Y-93508628D01*
X82470714Y-93508628D02*
X82851666Y-93508628D01*
X81994523Y-92984819D02*
X81661190Y-93984819D01*
X81661190Y-93984819D02*
X81327857Y-92984819D01*
X80470714Y-93984819D02*
X81042142Y-93984819D01*
X80756428Y-93984819D02*
X80756428Y-92984819D01*
X80756428Y-92984819D02*
X80851666Y-93127676D01*
X80851666Y-93127676D02*
X80946904Y-93222914D01*
X80946904Y-93222914D02*
X81042142Y-93270533D01*
X83944819Y-99198333D02*
X83468628Y-98865000D01*
X83944819Y-98626905D02*
X82944819Y-98626905D01*
X82944819Y-98626905D02*
X82944819Y-99007857D01*
X82944819Y-99007857D02*
X82992438Y-99103095D01*
X82992438Y-99103095D02*
X83040057Y-99150714D01*
X83040057Y-99150714D02*
X83135295Y-99198333D01*
X83135295Y-99198333D02*
X83278152Y-99198333D01*
X83278152Y-99198333D02*
X83373390Y-99150714D01*
X83373390Y-99150714D02*
X83421009Y-99103095D01*
X83421009Y-99103095D02*
X83468628Y-99007857D01*
X83468628Y-99007857D02*
X83468628Y-98626905D01*
X83944819Y-99674524D02*
X83944819Y-99865000D01*
X83944819Y-99865000D02*
X83897200Y-99960238D01*
X83897200Y-99960238D02*
X83849580Y-100007857D01*
X83849580Y-100007857D02*
X83706723Y-100103095D01*
X83706723Y-100103095D02*
X83516247Y-100150714D01*
X83516247Y-100150714D02*
X83135295Y-100150714D01*
X83135295Y-100150714D02*
X83040057Y-100103095D01*
X83040057Y-100103095D02*
X82992438Y-100055476D01*
X82992438Y-100055476D02*
X82944819Y-99960238D01*
X82944819Y-99960238D02*
X82944819Y-99769762D01*
X82944819Y-99769762D02*
X82992438Y-99674524D01*
X82992438Y-99674524D02*
X83040057Y-99626905D01*
X83040057Y-99626905D02*
X83135295Y-99579286D01*
X83135295Y-99579286D02*
X83373390Y-99579286D01*
X83373390Y-99579286D02*
X83468628Y-99626905D01*
X83468628Y-99626905D02*
X83516247Y-99674524D01*
X83516247Y-99674524D02*
X83563866Y-99769762D01*
X83563866Y-99769762D02*
X83563866Y-99960238D01*
X83563866Y-99960238D02*
X83516247Y-100055476D01*
X83516247Y-100055476D02*
X83468628Y-100103095D01*
X83468628Y-100103095D02*
X83373390Y-100150714D01*
X115471618Y-116534837D02*
X114971618Y-115668812D01*
X114971618Y-115668812D02*
X114765421Y-115787859D01*
X114765421Y-115787859D02*
X114665513Y-115900527D01*
X114665513Y-115900527D02*
X114630653Y-116030625D01*
X114630653Y-116030625D02*
X114637033Y-116136913D01*
X114637033Y-116136913D02*
X114691032Y-116325680D01*
X114691032Y-116325680D02*
X114762460Y-116449398D01*
X114762460Y-116449398D02*
X114898938Y-116590545D01*
X114898938Y-116590545D02*
X114987796Y-116649214D01*
X114987796Y-116649214D02*
X115117894Y-116684074D01*
X115117894Y-116684074D02*
X115265421Y-116653885D01*
X115265421Y-116653885D02*
X115471618Y-116534837D01*
X114194451Y-116227481D02*
X114129402Y-116210051D01*
X114129402Y-116210051D02*
X114023114Y-116216431D01*
X114023114Y-116216431D02*
X113816917Y-116335478D01*
X113816917Y-116335478D02*
X113758248Y-116424337D01*
X113758248Y-116424337D02*
X113740818Y-116489385D01*
X113740818Y-116489385D02*
X113747198Y-116595674D01*
X113747198Y-116595674D02*
X113794817Y-116678152D01*
X113794817Y-116678152D02*
X113907485Y-116778061D01*
X113907485Y-116778061D02*
X114688071Y-116987218D01*
X114688071Y-116987218D02*
X114151960Y-117296742D01*
X88719140Y-81022456D02*
X88769720Y-80443396D01*
X89214011Y-80736741D02*
X88714011Y-79870716D01*
X88714011Y-79870716D02*
X88384097Y-80061192D01*
X88384097Y-80061192D02*
X88325428Y-80150051D01*
X88325428Y-80150051D02*
X88307998Y-80215099D01*
X88307998Y-80215099D02*
X88314378Y-80321388D01*
X88314378Y-80321388D02*
X88385806Y-80445105D01*
X88385806Y-80445105D02*
X88474665Y-80503775D01*
X88474665Y-80503775D02*
X88539714Y-80521204D01*
X88539714Y-80521204D02*
X88646002Y-80514825D01*
X88646002Y-80514825D02*
X88975916Y-80324348D01*
X87894354Y-81498646D02*
X88389225Y-81212932D01*
X88141789Y-81355789D02*
X87641789Y-80489764D01*
X87641789Y-80489764D02*
X87795697Y-80565863D01*
X87795697Y-80565863D02*
X87925794Y-80600722D01*
X87925794Y-80600722D02*
X88032082Y-80594342D01*
X86858243Y-80942145D02*
X86775764Y-80989764D01*
X86775764Y-80989764D02*
X86717095Y-81078622D01*
X86717095Y-81078622D02*
X86699665Y-81143671D01*
X86699665Y-81143671D02*
X86706045Y-81249959D01*
X86706045Y-81249959D02*
X86760044Y-81438726D01*
X86760044Y-81438726D02*
X86879091Y-81644922D01*
X86879091Y-81644922D02*
X87015569Y-81786070D01*
X87015569Y-81786070D02*
X87104427Y-81844739D01*
X87104427Y-81844739D02*
X87169476Y-81862169D01*
X87169476Y-81862169D02*
X87275764Y-81855789D01*
X87275764Y-81855789D02*
X87358243Y-81808170D01*
X87358243Y-81808170D02*
X87416912Y-81719312D01*
X87416912Y-81719312D02*
X87434341Y-81654263D01*
X87434341Y-81654263D02*
X87427962Y-81547975D01*
X87427962Y-81547975D02*
X87373963Y-81359208D01*
X87373963Y-81359208D02*
X87254915Y-81153011D01*
X87254915Y-81153011D02*
X87118438Y-81011864D01*
X87118438Y-81011864D02*
X87029580Y-80953195D01*
X87029580Y-80953195D02*
X86964531Y-80935765D01*
X86964531Y-80935765D02*
X86858243Y-80942145D01*
X107991746Y-119995551D02*
X108042326Y-119416492D01*
X108486618Y-119709837D02*
X107986618Y-118843812D01*
X107986618Y-118843812D02*
X107656703Y-119034288D01*
X107656703Y-119034288D02*
X107598034Y-119123146D01*
X107598034Y-119123146D02*
X107580605Y-119188195D01*
X107580605Y-119188195D02*
X107586984Y-119294483D01*
X107586984Y-119294483D02*
X107658413Y-119418201D01*
X107658413Y-119418201D02*
X107747271Y-119476870D01*
X107747271Y-119476870D02*
X107812320Y-119494300D01*
X107812320Y-119494300D02*
X107918608Y-119487920D01*
X107918608Y-119487920D02*
X108248523Y-119297444D01*
X106708199Y-119581907D02*
X107120592Y-119343812D01*
X107120592Y-119343812D02*
X107399927Y-119732395D01*
X107399927Y-119732395D02*
X107334878Y-119714965D01*
X107334878Y-119714965D02*
X107228590Y-119721345D01*
X107228590Y-119721345D02*
X107022393Y-119840393D01*
X107022393Y-119840393D02*
X106963724Y-119929251D01*
X106963724Y-119929251D02*
X106946295Y-119994300D01*
X106946295Y-119994300D02*
X106952674Y-120100588D01*
X106952674Y-120100588D02*
X107071722Y-120306785D01*
X107071722Y-120306785D02*
X107160580Y-120365454D01*
X107160580Y-120365454D02*
X107225629Y-120382883D01*
X107225629Y-120382883D02*
X107331917Y-120376504D01*
X107331917Y-120376504D02*
X107538114Y-120257456D01*
X107538114Y-120257456D02*
X107596783Y-120168598D01*
X107596783Y-120168598D02*
X107614213Y-120103549D01*
X111124321Y-81030313D02*
X111651091Y-80784587D01*
X111619192Y-81316027D02*
X112119192Y-80450002D01*
X112119192Y-80450002D02*
X111789278Y-80259526D01*
X111789278Y-80259526D02*
X111682990Y-80253146D01*
X111682990Y-80253146D02*
X111617941Y-80270576D01*
X111617941Y-80270576D02*
X111529083Y-80329245D01*
X111529083Y-80329245D02*
X111457654Y-80452963D01*
X111457654Y-80452963D02*
X111451274Y-80559251D01*
X111451274Y-80559251D02*
X111468704Y-80624300D01*
X111468704Y-80624300D02*
X111527373Y-80713158D01*
X111527373Y-80713158D02*
X111857288Y-80903634D01*
X110299535Y-80554122D02*
X110794406Y-80839837D01*
X110546970Y-80696980D02*
X111046970Y-79830954D01*
X111046970Y-79830954D02*
X111058020Y-80002291D01*
X111058020Y-80002291D02*
X111092880Y-80132389D01*
X111092880Y-80132389D02*
X111151549Y-80221247D01*
X110422001Y-79580099D02*
X110404571Y-79515051D01*
X110404571Y-79515051D02*
X110345902Y-79426192D01*
X110345902Y-79426192D02*
X110139706Y-79307145D01*
X110139706Y-79307145D02*
X110033417Y-79300765D01*
X110033417Y-79300765D02*
X109968369Y-79318195D01*
X109968369Y-79318195D02*
X109879510Y-79376864D01*
X109879510Y-79376864D02*
X109831891Y-79459342D01*
X109831891Y-79459342D02*
X109801702Y-79606870D01*
X109801702Y-79606870D02*
X110010859Y-80387456D01*
X110010859Y-80387456D02*
X109474748Y-80077932D01*
X78424580Y-109973333D02*
X78472200Y-109925714D01*
X78472200Y-109925714D02*
X78519819Y-109782857D01*
X78519819Y-109782857D02*
X78519819Y-109687619D01*
X78519819Y-109687619D02*
X78472200Y-109544762D01*
X78472200Y-109544762D02*
X78376961Y-109449524D01*
X78376961Y-109449524D02*
X78281723Y-109401905D01*
X78281723Y-109401905D02*
X78091247Y-109354286D01*
X78091247Y-109354286D02*
X77948390Y-109354286D01*
X77948390Y-109354286D02*
X77757914Y-109401905D01*
X77757914Y-109401905D02*
X77662676Y-109449524D01*
X77662676Y-109449524D02*
X77567438Y-109544762D01*
X77567438Y-109544762D02*
X77519819Y-109687619D01*
X77519819Y-109687619D02*
X77519819Y-109782857D01*
X77519819Y-109782857D02*
X77567438Y-109925714D01*
X77567438Y-109925714D02*
X77615057Y-109973333D01*
X78519819Y-110925714D02*
X78519819Y-110354286D01*
X78519819Y-110640000D02*
X77519819Y-110640000D01*
X77519819Y-110640000D02*
X77662676Y-110544762D01*
X77662676Y-110544762D02*
X77757914Y-110449524D01*
X77757914Y-110449524D02*
X77805533Y-110354286D01*
D12*
X124510000Y-110780000D02*
X122050000Y-110780000D01*
X116050000Y-110780000D02*
X115420000Y-110780000D01*
X115420000Y-110780000D02*
X111470000Y-109340000D01*
X126590000Y-108700000D02*
X124510000Y-110780000D01*
X126590000Y-105200000D02*
X126590000Y-108700000D01*
X126590000Y-91300000D02*
X126590000Y-94800000D01*
X126590000Y-91300000D02*
X124510000Y-89220000D01*
X124510000Y-89220000D02*
X122050000Y-89220000D01*
X116050000Y-89220000D02*
X115420000Y-89220000D01*
X115420000Y-89220000D02*
X111470000Y-90660000D01*
X110483470Y-106003354D02*
G75*
G03*
X111470000Y-109340000I1716531J-1306646D01*
G01*
X111461831Y-90674757D02*
G75*
G03*
X110500001Y-94000000I738169J-2015243D01*
G01*
X96270000Y-80930000D02*
G75*
G03*
X96270000Y-80930000I-2620000J0D01*
G01*
X95514000Y-79129000D02*
X94690000Y-79129000D01*
X92610000Y-78969000D02*
X91951000Y-78969000D01*
X96118000Y-80169000D02*
X94690000Y-80169000D01*
X95255000Y-78889000D02*
X94690000Y-78889000D01*
X92610000Y-80490000D02*
X91107000Y-80490000D01*
X95551000Y-79169000D02*
X94690000Y-79169000D01*
X92610000Y-78809000D02*
X92150000Y-78809000D01*
X96215000Y-80650000D02*
X94690000Y-80650000D01*
X92610000Y-79249000D02*
X91679000Y-79249000D01*
X94565000Y-78489000D02*
X92735000Y-78489000D01*
X92610000Y-78849000D02*
X92096000Y-78849000D01*
X95960000Y-79769000D02*
X94690000Y-79769000D01*
X95204000Y-78849000D02*
X94690000Y-78849000D01*
X95918000Y-79689000D02*
X94690000Y-79689000D01*
X92610000Y-79729000D02*
X91360000Y-79729000D01*
X92610000Y-80610000D02*
X91089000Y-80610000D01*
X92610000Y-79409000D02*
X91555000Y-79409000D01*
X96141000Y-80250000D02*
X94690000Y-80250000D01*
X95621000Y-79249000D02*
X94690000Y-79249000D01*
X95998000Y-79849000D02*
X94690000Y-79849000D01*
X95375000Y-83484775D02*
X94875000Y-83484775D01*
X92610000Y-80009000D02*
X91236000Y-80009000D01*
X92610000Y-79569000D02*
X91450000Y-79569000D01*
X95772000Y-79449000D02*
X94690000Y-79449000D01*
X94828000Y-78609000D02*
X92472000Y-78609000D01*
X95150000Y-78809000D02*
X94690000Y-78809000D01*
X95654000Y-79289000D02*
X94690000Y-79289000D01*
X92610000Y-79929000D02*
X91268000Y-79929000D01*
X94661000Y-78529000D02*
X92639000Y-78529000D01*
X96078000Y-80049000D02*
X94690000Y-80049000D01*
X93934000Y-78329000D02*
X93366000Y-78329000D01*
X92610000Y-80650000D02*
X91085000Y-80650000D01*
X92610000Y-80049000D02*
X91222000Y-80049000D01*
X94901000Y-78649000D02*
X94690000Y-78649000D01*
X94455000Y-78449000D02*
X92845000Y-78449000D01*
X92610000Y-78889000D02*
X92045000Y-78889000D01*
X95125000Y-83734775D02*
X95125000Y-83234775D01*
X96048000Y-79969000D02*
X94690000Y-79969000D01*
X92610000Y-79609000D02*
X91426000Y-79609000D01*
X92610000Y-80129000D02*
X91195000Y-80129000D01*
X92610000Y-79169000D02*
X91749000Y-79169000D01*
X92610000Y-79649000D02*
X91403000Y-79649000D01*
X92610000Y-79369000D02*
X91585000Y-79369000D01*
X92610000Y-80089000D02*
X91208000Y-80089000D01*
X92610000Y-79209000D02*
X91713000Y-79209000D01*
X96206000Y-80570000D02*
X94690000Y-80570000D01*
X95303000Y-78929000D02*
X94690000Y-78929000D01*
X92610000Y-79889000D02*
X91285000Y-79889000D01*
X95715000Y-79369000D02*
X94690000Y-79369000D01*
X95940000Y-79729000D02*
X94690000Y-79729000D01*
X92610000Y-79049000D02*
X91865000Y-79049000D01*
X92610000Y-80330000D02*
X91139000Y-80330000D01*
X96219000Y-80690000D02*
X94690000Y-80690000D01*
X96223000Y-80730000D02*
X91077000Y-80730000D01*
X96228000Y-80810000D02*
X91072000Y-80810000D01*
X92610000Y-79969000D02*
X91252000Y-79969000D01*
X92610000Y-79529000D02*
X91475000Y-79529000D01*
X96200000Y-80530000D02*
X94690000Y-80530000D01*
X96170000Y-80370000D02*
X94690000Y-80370000D01*
X96092000Y-80089000D02*
X94690000Y-80089000D01*
X92610000Y-80530000D02*
X91100000Y-80530000D01*
X95476000Y-79089000D02*
X94690000Y-79089000D01*
X92610000Y-79329000D02*
X91615000Y-79329000D01*
X95850000Y-79569000D02*
X94690000Y-79569000D01*
X96211000Y-80610000D02*
X94690000Y-80610000D01*
X96151000Y-80290000D02*
X94690000Y-80290000D01*
X92610000Y-78929000D02*
X91997000Y-78929000D01*
X96015000Y-79889000D02*
X94690000Y-79889000D01*
X96230000Y-80890000D02*
X91070000Y-80890000D01*
X96178000Y-80410000D02*
X94690000Y-80410000D01*
X92610000Y-80290000D02*
X91149000Y-80290000D01*
X96032000Y-79929000D02*
X94690000Y-79929000D01*
X92610000Y-79689000D02*
X91382000Y-79689000D01*
X95745000Y-79409000D02*
X94690000Y-79409000D01*
X96226000Y-80770000D02*
X91074000Y-80770000D01*
X96193000Y-80490000D02*
X94690000Y-80490000D01*
X92610000Y-80410000D02*
X91122000Y-80410000D01*
X92610000Y-80690000D02*
X91081000Y-80690000D01*
X95393000Y-79009000D02*
X94690000Y-79009000D01*
X94748000Y-78569000D02*
X92552000Y-78569000D01*
X96161000Y-80330000D02*
X94690000Y-80330000D01*
X92610000Y-78729000D02*
X92267000Y-78729000D01*
X92610000Y-80570000D02*
X91094000Y-80570000D01*
X95979000Y-79809000D02*
X94690000Y-79809000D01*
X95799000Y-79489000D02*
X94690000Y-79489000D01*
X95587000Y-79209000D02*
X94690000Y-79209000D01*
X92610000Y-78769000D02*
X92207000Y-78769000D01*
X95435000Y-79049000D02*
X94690000Y-79049000D01*
X92610000Y-80169000D02*
X91182000Y-80169000D01*
X95825000Y-79529000D02*
X94690000Y-79529000D01*
X94327000Y-78409000D02*
X92973000Y-78409000D01*
X92610000Y-80250000D02*
X91159000Y-80250000D01*
X96064000Y-80009000D02*
X94690000Y-80009000D01*
X96130000Y-80209000D02*
X94690000Y-80209000D01*
X96186000Y-80450000D02*
X94690000Y-80450000D01*
X92610000Y-80370000D02*
X91130000Y-80370000D01*
X92610000Y-79129000D02*
X91786000Y-79129000D01*
X92610000Y-78649000D02*
X92399000Y-78649000D01*
X92610000Y-78689000D02*
X92331000Y-78689000D01*
X92610000Y-79289000D02*
X91646000Y-79289000D01*
X92610000Y-79009000D02*
X91907000Y-79009000D01*
X92610000Y-79809000D02*
X91321000Y-79809000D01*
X95874000Y-79609000D02*
X94690000Y-79609000D01*
X96105000Y-80129000D02*
X94690000Y-80129000D01*
X94168000Y-78369000D02*
X93132000Y-78369000D01*
X95685000Y-79329000D02*
X94690000Y-79329000D01*
X96229000Y-80850000D02*
X91071000Y-80850000D01*
X95093000Y-78769000D02*
X94690000Y-78769000D01*
X92610000Y-79449000D02*
X91528000Y-79449000D01*
X92610000Y-80209000D02*
X91170000Y-80209000D01*
X92610000Y-79489000D02*
X91501000Y-79489000D01*
X92610000Y-79089000D02*
X91824000Y-79089000D01*
X92610000Y-79769000D02*
X91340000Y-79769000D01*
X96230000Y-80930000D02*
X91070000Y-80930000D01*
X95897000Y-79649000D02*
X94690000Y-79649000D01*
X92610000Y-80450000D02*
X91114000Y-80450000D01*
X95033000Y-78729000D02*
X94690000Y-78729000D01*
X94969000Y-78689000D02*
X94690000Y-78689000D01*
X95349000Y-78969000D02*
X94690000Y-78969000D01*
X92610000Y-79849000D02*
X91302000Y-79849000D01*
X88131312Y-127586455D02*
X82467506Y-124316455D01*
X83837506Y-121943545D02*
X89501312Y-125213545D01*
X89501312Y-125213545D02*
X88131312Y-127586455D01*
X82467506Y-124316455D02*
X83837506Y-121943545D01*
X82485666Y-122745000D02*
X83152506Y-123130000D01*
X89483152Y-126785000D02*
X88816312Y-126400000D01*
X117514334Y-122745000D02*
X116847494Y-123130000D01*
X110516848Y-126785000D02*
X111183688Y-126400000D01*
X111868688Y-127586455D02*
X110498688Y-125213545D01*
X116162494Y-121943545D02*
X117532494Y-124316455D01*
X110498688Y-125213545D02*
X116162494Y-121943545D01*
X117532494Y-124316455D02*
X111868688Y-127586455D01*
X85742506Y-118768545D02*
X91406312Y-122038545D01*
X90036312Y-124411455D02*
X84372506Y-121141455D01*
X84372506Y-121141455D02*
X85742506Y-118768545D01*
X91406312Y-122038545D02*
X90036312Y-124411455D01*
X91388152Y-123610000D02*
X90721312Y-123225000D01*
X84390666Y-119570000D02*
X85057506Y-119955000D01*
X91451903Y-77961455D02*
X85788097Y-81231455D01*
X84418097Y-78858545D02*
X90081903Y-75588545D01*
X90081903Y-75588545D02*
X91451903Y-77961455D01*
X85788097Y-81231455D02*
X84418097Y-78858545D01*
X84436257Y-80430000D02*
X85103097Y-80045000D01*
X91433743Y-76390000D02*
X90766903Y-76775000D01*
X107720000Y-95460000D02*
X107720000Y-102000000D01*
X104980000Y-102000000D02*
X104980000Y-95460000D01*
X104980000Y-95460000D02*
X107720000Y-95460000D01*
X107720000Y-102000000D02*
X104980000Y-102000000D01*
X106350000Y-102770000D02*
X106350000Y-102000000D01*
X106350000Y-94690000D02*
X106350000Y-95460000D01*
X109573141Y-111612939D02*
X106057078Y-113642939D01*
X106057078Y-113642939D02*
X104922078Y-111677061D01*
X104922078Y-111677061D02*
X108438141Y-109647061D01*
X79680000Y-104040000D02*
X79680000Y-103270000D01*
X79680000Y-95960000D02*
X79680000Y-96730000D01*
X78310000Y-96730000D02*
X81050000Y-96730000D01*
X81050000Y-103270000D02*
X78310000Y-103270000D01*
X81050000Y-96730000D02*
X81050000Y-103270000D01*
X78310000Y-103270000D02*
X78310000Y-96730000D01*
X104181814Y-117641886D02*
X103556814Y-118724418D01*
X101931814Y-121539000D02*
X84230255Y-111319000D01*
X86480255Y-107421886D02*
X104181814Y-117641886D01*
X102556814Y-120456469D02*
X101931814Y-121539000D01*
X84230255Y-111319000D02*
X86480255Y-107421886D01*
X103556814Y-118724418D02*
G75*
G03*
X102556814Y-120456469I-500000J-866025D01*
G01*
X107720000Y-82125000D02*
X107720000Y-88665000D01*
X104980000Y-88665000D02*
X104980000Y-82125000D01*
X104980000Y-82125000D02*
X107720000Y-82125000D01*
X107720000Y-88665000D02*
X104980000Y-88665000D01*
X106350000Y-89435000D02*
X106350000Y-88665000D01*
X106350000Y-81355000D02*
X106350000Y-82125000D01*
X72060000Y-104040000D02*
X72060000Y-103270000D01*
X72060000Y-95960000D02*
X72060000Y-96730000D01*
X70690000Y-96730000D02*
X73430000Y-96730000D01*
X73430000Y-103270000D02*
X70690000Y-103270000D01*
X73430000Y-96730000D02*
X73430000Y-103270000D01*
X70690000Y-103270000D02*
X70690000Y-96730000D01*
X88450000Y-84710000D02*
X90100000Y-84710000D01*
X93750000Y-84710000D02*
X93750000Y-94990000D01*
X88450000Y-94990000D02*
X88450000Y-84710000D01*
X92100000Y-84710000D02*
X93750000Y-84710000D01*
X93750000Y-94990000D02*
X88450000Y-94990000D01*
X90100000Y-84710000D02*
G75*
G03*
X92100000Y-84710000I1000000J0D01*
G01*
X115609334Y-80430000D02*
X114942494Y-80045000D01*
X108611848Y-76390000D02*
X109278688Y-76775000D01*
X108593688Y-77961455D02*
X109963688Y-75588545D01*
X115627494Y-78858545D02*
X114257494Y-81231455D01*
X109963688Y-75588545D02*
X115627494Y-78858545D01*
X114257494Y-81231455D02*
X108593688Y-77961455D01*
X78275000Y-86530000D02*
X78275000Y-90070000D01*
X83375000Y-92440000D02*
X84795000Y-92440000D01*
X79795000Y-92240000D02*
X83375000Y-92240000D01*
X84895000Y-92240000D02*
X84895000Y-91550000D01*
X78375000Y-92440000D02*
X78375000Y-92240000D01*
X81075000Y-85220000D02*
X79585000Y-85220000D01*
X84895000Y-90510000D02*
X84895000Y-86530000D01*
X78375000Y-92240000D02*
X78275000Y-92240000D01*
X84795000Y-92240000D02*
X84895000Y-92240000D01*
X78375000Y-92440000D02*
X79795000Y-92440000D01*
X84795000Y-92440000D02*
X84795000Y-92240000D01*
X79795000Y-92240000D02*
X79795000Y-92440000D01*
X78275000Y-92240000D02*
X78275000Y-91990000D01*
X83375000Y-92240000D02*
X83375000Y-92440000D01*
X83585000Y-85220000D02*
X82095000Y-85220000D01*
X79585000Y-85220000D02*
G75*
G03*
X78275000Y-86530000I0J-1310000D01*
G01*
X84895000Y-86530000D02*
G75*
G03*
X83585000Y-85220000I-1310000J0D01*
G01*
X77240000Y-96730000D02*
X77240000Y-103270000D01*
X74500000Y-103270000D02*
X74500000Y-96730000D01*
X74500000Y-96730000D02*
X77240000Y-96730000D01*
X77240000Y-103270000D02*
X74500000Y-103270000D01*
X75870000Y-104040000D02*
X75870000Y-103270000D01*
X75870000Y-95960000D02*
X75870000Y-96730000D01*
X109422429Y-117727488D02*
G75*
G03*
X112143259Y-115975434I733241J1849988D01*
G01*
X110517397Y-114421770D02*
G75*
G03*
X108714172Y-115462673I-361727J-1455730D01*
G01*
X111064651Y-114107232D02*
G75*
G03*
X108186913Y-115587512I-908981J-1770268D01*
G01*
X109794172Y-117333288D02*
G75*
G03*
X111597234Y-116292101I361498J1455788D01*
G01*
X108264671Y-115722193D02*
X108186671Y-115587093D01*
X109422671Y-117727907D02*
X109344671Y-117592807D01*
X82467506Y-75683545D02*
X88131312Y-72413545D01*
X89501312Y-74786455D02*
X83837506Y-78056455D01*
X83837506Y-78056455D02*
X82467506Y-75683545D01*
X88131312Y-72413545D02*
X89501312Y-74786455D01*
X89483152Y-73215000D02*
X88816312Y-73600000D01*
X82485666Y-77255000D02*
X83152506Y-76870000D01*
X108593688Y-122038545D02*
X114257494Y-118768545D01*
X115627494Y-121141455D02*
X109963688Y-124411455D01*
X109963688Y-124411455D02*
X108593688Y-122038545D01*
X114257494Y-118768545D02*
X115627494Y-121141455D01*
X115609334Y-119570000D02*
X114942494Y-119955000D01*
X108611848Y-123610000D02*
X109278688Y-123225000D01*
X110471257Y-73215000D02*
X111138097Y-73600000D01*
X117468743Y-77255000D02*
X116801903Y-76870000D01*
X117486903Y-75683545D02*
X116116903Y-78056455D01*
X110453097Y-74786455D02*
X111823097Y-72413545D01*
X116116903Y-78056455D02*
X110453097Y-74786455D01*
X111823097Y-72413545D02*
X117486903Y-75683545D01*
X79195000Y-108520000D02*
X79260000Y-108520000D01*
X81435000Y-108520000D02*
X81435000Y-111760000D01*
X81370000Y-108520000D02*
X81435000Y-108520000D01*
X81370000Y-111760000D02*
X81435000Y-111760000D01*
X79195000Y-111760000D02*
X79260000Y-111760000D01*
X79195000Y-108520000D02*
X79195000Y-111760000D01*
%LPC*%
D13*
X72790000Y-110400000D03*
D14*
X119050000Y-112450000D03*
X119050000Y-87550000D03*
D15*
X119050000Y-100000000D03*
D16*
X122598442Y-118573097D03*
D17*
X93881558Y-71766903D03*
D18*
X78908442Y-119443097D03*
D17*
X77401558Y-81426903D03*
D19*
X104611558Y-70896903D03*
X121091558Y-80556903D03*
D16*
X106118442Y-128233097D03*
D13*
X72790000Y-91340000D03*
D18*
X95388442Y-129103097D03*
D20*
X93650000Y-79680000D03*
D21*
X93650000Y-82180000D03*
D22*
X90383818Y-127305000D03*
D20*
X81585000Y-122225000D03*
X109616182Y-127305000D03*
D23*
X118415000Y-122225000D03*
D24*
X83490000Y-119050000D03*
D20*
X92288818Y-124130000D03*
D23*
X92334409Y-75870000D03*
D20*
X83535591Y-80950000D03*
D25*
X106350000Y-93650000D03*
D20*
X106350000Y-103810000D03*
D26*
X108908213Y-110686250D03*
X106331787Y-112173750D03*
D20*
X79680000Y-94920000D03*
D25*
X79680000Y-105080000D03*
D27*
X100000000Y-122225000D03*
D28*
X97800295Y-120955000D03*
X95600591Y-119685000D03*
X93400886Y-118415000D03*
X91201182Y-117145000D03*
X89001477Y-115875000D03*
X86801773Y-114605000D03*
X84602068Y-113335000D03*
X88412068Y-106735886D03*
X90611773Y-108005886D03*
X92811477Y-109275886D03*
X95011182Y-110545886D03*
X97210886Y-111815886D03*
X99410591Y-113085886D03*
X101610295Y-114355886D03*
X103810000Y-115625886D03*
D25*
X106350000Y-80315000D03*
D20*
X106350000Y-90475000D03*
X72060000Y-94920000D03*
D25*
X72060000Y-105080000D03*
D21*
X94910000Y-86040000D03*
D25*
X94910000Y-88580000D03*
X94910000Y-91120000D03*
X94910000Y-93660000D03*
X87290000Y-93660000D03*
X87290000Y-91120000D03*
X87290000Y-88580000D03*
X87290000Y-86040000D03*
D20*
X107711182Y-75870000D03*
D22*
X116510000Y-80950000D03*
D29*
X79085000Y-91030000D03*
D30*
X81585000Y-86030000D03*
X84085000Y-91030000D03*
D25*
X75870000Y-94920000D03*
D20*
X75870000Y-105080000D03*
D31*
X111255523Y-115242500D03*
D32*
X109055818Y-116512500D03*
D33*
X81585000Y-77775000D03*
D20*
X90383818Y-72695000D03*
D33*
X107711182Y-124130000D03*
D20*
X116510000Y-119050000D03*
X118369409Y-77775000D03*
D24*
X109570591Y-72695000D03*
D20*
X80315000Y-111390000D03*
X80315000Y-108890000D03*
%LPD*%
M02*
