M48
; DRILL file {KiCad 7.0.9} date Sun Feb  4 19:54:13 2024
; FORMAT={-:-/ absolute / metric / decimal}
; #@! TF.CreationDate,2024-02-04T19:54:13+01:00
; #@! TF.GenerationSoftware,Kicad,Pcbnew,7.0.9
; #@! TF.FileFunction,Plated,1,2,PTH
FMAT,2
METRIC
; #@! TA.AperFunction,Plated,PTH,ViaDrill
T1C0.600
; #@! TA.AperFunction,Plated,PTH,ComponentDrill
T2C0.800
; #@! TA.AperFunction,Plated,PTH,ComponentDrill
T3C0.900
; #@! TA.AperFunction,Plated,PTH,ComponentDrill
T4C1.000
%
G90
G05
T1
X73.965Y-100.0
X84.125Y-103.175
X85.395Y-101.905
X86.665Y-100.635
X97.46Y-74.6
X99.365Y-76.505
X101.27Y-91.11
X105.715Y-108.89
X111.43Y-88.57
X113.335Y-88.57
X124.13Y-87.935
X126.035Y-112.065
X127.94Y-112.065
T2
X72.06Y-94.92
X72.06Y-105.08
X75.87Y-94.92
X75.87Y-105.08
X79.68Y-94.92
X79.68Y-105.08
X80.315Y-108.89
X80.315Y-111.39
X81.585Y-77.775
X81.585Y-122.225
X83.49Y-119.05
X83.536Y-80.95
X84.602Y-113.335
X86.802Y-114.605
X87.29Y-86.04
X87.29Y-88.58
X87.29Y-91.12
X87.29Y-93.66
X88.412Y-106.736
X89.001Y-115.875
X90.384Y-72.695
X90.384Y-127.305
X90.612Y-108.006
X91.201Y-117.145
X92.289Y-124.13
X92.334Y-75.87
X92.811Y-109.276
X93.401Y-118.415
X93.65Y-79.68
X93.65Y-82.18
X94.91Y-86.04
X94.91Y-88.58
X94.91Y-91.12
X94.91Y-93.66
X95.011Y-110.546
X95.601Y-119.685
X97.211Y-111.816
X97.8Y-120.955
X99.411Y-113.086
X100.0Y-122.225
X101.61Y-114.356
X103.81Y-115.626
X106.35Y-80.315
X106.35Y-90.475
X106.35Y-93.65
X106.35Y-103.81
X107.711Y-75.87
X107.711Y-124.13
X109.571Y-72.695
X109.616Y-127.305
X116.51Y-80.95
X116.51Y-119.05
X118.369Y-77.775
X118.415Y-122.225
T3
X109.056Y-116.512
X111.256Y-115.242
T4
X79.085Y-91.03
X81.585Y-86.03
X84.085Y-91.03
T0
M30
