%TF.GenerationSoftware,KiCad,Pcbnew,7.0.9*%
%TF.CreationDate,2024-02-04T19:54:16+01:00*%
%TF.ProjectId,Toolbox,546f6f6c-626f-4782-9e6b-696361645f70,rev?*%
%TF.SameCoordinates,Original*%
%TF.FileFunction,Drillmap*%
%TF.FilePolarity,Positive*%
%FSLAX45Y45*%
G04 Gerber Fmt 4.5, Leading zero omitted, Abs format (unit mm)*
G04 Created by KiCad (PCBNEW 7.0.9) date 2024-02-04 19:54:16*
%MOMM*%
%LPD*%
G01*
G04 APERTURE LIST*
%ADD10C,0.100000*%
%ADD11C,0.200000*%
G04 APERTURE END LIST*
D10*
X13048000Y-9746000D02*
X13048000Y-8222000D01*
X12476500Y-10063500D02*
X13048000Y-9746000D01*
X13048000Y-10381000D02*
X12476500Y-10063500D01*
X13048000Y-10381000D02*
X13048000Y-11778000D01*
X10000000Y-6444000D02*
X13048000Y-8222000D01*
X10000000Y-6444000D02*
X6952000Y-8222000D01*
X10000000Y-13556000D02*
X6952000Y-11778000D01*
X10000000Y-13556000D02*
X13048000Y-11778000D01*
X6952000Y-8222000D02*
X6952000Y-11778000D01*
D11*
D10*
X7366500Y-9970000D02*
X7426500Y-10030000D01*
X7426500Y-9970000D02*
X7366500Y-10030000D01*
X8382500Y-10287500D02*
X8442500Y-10347500D01*
X8442500Y-10287500D02*
X8382500Y-10347500D01*
X8509500Y-10160500D02*
X8569500Y-10220500D01*
X8569500Y-10160500D02*
X8509500Y-10220500D01*
X8636500Y-10033500D02*
X8696500Y-10093500D01*
X8696500Y-10033500D02*
X8636500Y-10093500D01*
X9716000Y-7430000D02*
X9776000Y-7490000D01*
X9776000Y-7430000D02*
X9716000Y-7490000D01*
X9906500Y-7620500D02*
X9966500Y-7680500D01*
X9966500Y-7620500D02*
X9906500Y-7680500D01*
X10097000Y-9081000D02*
X10157000Y-9141000D01*
X10157000Y-9081000D02*
X10097000Y-9141000D01*
X10541500Y-10859000D02*
X10601500Y-10919000D01*
X10601500Y-10859000D02*
X10541500Y-10919000D01*
X11113000Y-8827000D02*
X11173000Y-8887000D01*
X11173000Y-8827000D02*
X11113000Y-8887000D01*
X11303500Y-8827000D02*
X11363500Y-8887000D01*
X11363500Y-8827000D02*
X11303500Y-8887000D01*
X12383000Y-8763500D02*
X12443000Y-8823500D01*
X12443000Y-8763500D02*
X12383000Y-8823500D01*
X12573500Y-11176500D02*
X12633500Y-11236500D01*
X12633500Y-11176500D02*
X12573500Y-11236500D01*
X12764000Y-11176500D02*
X12824000Y-11236500D01*
X12824000Y-11176500D02*
X12764000Y-11236500D01*
X7246000Y-9492000D02*
G75*
G03*
X7246000Y-9492000I-40000J0D01*
G01*
X7246000Y-10508000D02*
G75*
G03*
X7246000Y-10508000I-40000J0D01*
G01*
X7627000Y-9492000D02*
G75*
G03*
X7627000Y-9492000I-40000J0D01*
G01*
X7627000Y-10508000D02*
G75*
G03*
X7627000Y-10508000I-40000J0D01*
G01*
X8008000Y-9492000D02*
G75*
G03*
X8008000Y-9492000I-40000J0D01*
G01*
X8008000Y-10508000D02*
G75*
G03*
X8008000Y-10508000I-40000J0D01*
G01*
X8071500Y-10889000D02*
G75*
G03*
X8071500Y-10889000I-40000J0D01*
G01*
X8071500Y-11139000D02*
G75*
G03*
X8071500Y-11139000I-40000J0D01*
G01*
X8198500Y-7777500D02*
G75*
G03*
X8198500Y-7777500I-40000J0D01*
G01*
X8198500Y-12222500D02*
G75*
G03*
X8198500Y-12222500I-40000J0D01*
G01*
X8389000Y-11905000D02*
G75*
G03*
X8389000Y-11905000I-40000J0D01*
G01*
X8393559Y-8095000D02*
G75*
G03*
X8393559Y-8095000I-40000J0D01*
G01*
X8500207Y-11333500D02*
G75*
G03*
X8500207Y-11333500I-40000J0D01*
G01*
X8720177Y-11460500D02*
G75*
G03*
X8720177Y-11460500I-40000J0D01*
G01*
X8769000Y-8604000D02*
G75*
G03*
X8769000Y-8604000I-40000J0D01*
G01*
X8769000Y-8858000D02*
G75*
G03*
X8769000Y-8858000I-40000J0D01*
G01*
X8769000Y-9112000D02*
G75*
G03*
X8769000Y-9112000I-40000J0D01*
G01*
X8769000Y-9366000D02*
G75*
G03*
X8769000Y-9366000I-40000J0D01*
G01*
X8881207Y-10673589D02*
G75*
G03*
X8881207Y-10673589I-40000J0D01*
G01*
X8940148Y-11587500D02*
G75*
G03*
X8940148Y-11587500I-40000J0D01*
G01*
X9078382Y-7269500D02*
G75*
G03*
X9078382Y-7269500I-40000J0D01*
G01*
X9078382Y-12730500D02*
G75*
G03*
X9078382Y-12730500I-40000J0D01*
G01*
X9101177Y-10800589D02*
G75*
G03*
X9101177Y-10800589I-40000J0D01*
G01*
X9160118Y-11714500D02*
G75*
G03*
X9160118Y-11714500I-40000J0D01*
G01*
X9268882Y-12413000D02*
G75*
G03*
X9268882Y-12413000I-40000J0D01*
G01*
X9273441Y-7587000D02*
G75*
G03*
X9273441Y-7587000I-40000J0D01*
G01*
X9321148Y-10927589D02*
G75*
G03*
X9321148Y-10927589I-40000J0D01*
G01*
X9380089Y-11841500D02*
G75*
G03*
X9380089Y-11841500I-40000J0D01*
G01*
X9405000Y-7968000D02*
G75*
G03*
X9405000Y-7968000I-40000J0D01*
G01*
X9405000Y-8218000D02*
G75*
G03*
X9405000Y-8218000I-40000J0D01*
G01*
X9531000Y-8604000D02*
G75*
G03*
X9531000Y-8604000I-40000J0D01*
G01*
X9531000Y-8858000D02*
G75*
G03*
X9531000Y-8858000I-40000J0D01*
G01*
X9531000Y-9112000D02*
G75*
G03*
X9531000Y-9112000I-40000J0D01*
G01*
X9531000Y-9366000D02*
G75*
G03*
X9531000Y-9366000I-40000J0D01*
G01*
X9541118Y-11054589D02*
G75*
G03*
X9541118Y-11054589I-40000J0D01*
G01*
X9600059Y-11968500D02*
G75*
G03*
X9600059Y-11968500I-40000J0D01*
G01*
X9761089Y-11181589D02*
G75*
G03*
X9761089Y-11181589I-40000J0D01*
G01*
X9820030Y-12095500D02*
G75*
G03*
X9820030Y-12095500I-40000J0D01*
G01*
X9981059Y-11308589D02*
G75*
G03*
X9981059Y-11308589I-40000J0D01*
G01*
X10040000Y-12222500D02*
G75*
G03*
X10040000Y-12222500I-40000J0D01*
G01*
X10201030Y-11435589D02*
G75*
G03*
X10201030Y-11435589I-40000J0D01*
G01*
X10421000Y-11562589D02*
G75*
G03*
X10421000Y-11562589I-40000J0D01*
G01*
X10675000Y-8031500D02*
G75*
G03*
X10675000Y-8031500I-40000J0D01*
G01*
X10675000Y-9047500D02*
G75*
G03*
X10675000Y-9047500I-40000J0D01*
G01*
X10675000Y-9365000D02*
G75*
G03*
X10675000Y-9365000I-40000J0D01*
G01*
X10675000Y-10381000D02*
G75*
G03*
X10675000Y-10381000I-40000J0D01*
G01*
X10811118Y-7587000D02*
G75*
G03*
X10811118Y-7587000I-40000J0D01*
G01*
X10811118Y-12413000D02*
G75*
G03*
X10811118Y-12413000I-40000J0D01*
G01*
X10997059Y-7269500D02*
G75*
G03*
X10997059Y-7269500I-40000J0D01*
G01*
X11001618Y-12730500D02*
G75*
G03*
X11001618Y-12730500I-40000J0D01*
G01*
X11691000Y-8095000D02*
G75*
G03*
X11691000Y-8095000I-40000J0D01*
G01*
X11691000Y-11905000D02*
G75*
G03*
X11691000Y-11905000I-40000J0D01*
G01*
X11876941Y-7777500D02*
G75*
G03*
X11876941Y-7777500I-40000J0D01*
G01*
X11881500Y-12222500D02*
G75*
G03*
X11881500Y-12222500I-40000J0D01*
G01*
X10905582Y-11606250D02*
X10905582Y-11696250D01*
X10860582Y-11651250D02*
X10950582Y-11651250D01*
X11125552Y-11479250D02*
X11125552Y-11569250D01*
X11080552Y-11524250D02*
X11170552Y-11524250D01*
X7943856Y-9138356D02*
X7943856Y-9067644D01*
X7873144Y-9067644D01*
X7873144Y-9138356D01*
X7943856Y-9138356D01*
X8193856Y-8638356D02*
X8193856Y-8567644D01*
X8123144Y-8567644D01*
X8123144Y-8638356D01*
X8193856Y-8638356D01*
X8443856Y-9138356D02*
X8443856Y-9067644D01*
X8373144Y-9067644D01*
X8373144Y-9138356D01*
X8443856Y-9138356D01*
D11*
X7207777Y-13872484D02*
X7207777Y-13672484D01*
X7207777Y-13672484D02*
X7255396Y-13672484D01*
X7255396Y-13672484D02*
X7283967Y-13682008D01*
X7283967Y-13682008D02*
X7303015Y-13701055D01*
X7303015Y-13701055D02*
X7312539Y-13720103D01*
X7312539Y-13720103D02*
X7322062Y-13758198D01*
X7322062Y-13758198D02*
X7322062Y-13786769D01*
X7322062Y-13786769D02*
X7312539Y-13824865D01*
X7312539Y-13824865D02*
X7303015Y-13843912D01*
X7303015Y-13843912D02*
X7283967Y-13862960D01*
X7283967Y-13862960D02*
X7255396Y-13872484D01*
X7255396Y-13872484D02*
X7207777Y-13872484D01*
X7407777Y-13872484D02*
X7407777Y-13739150D01*
X7407777Y-13777246D02*
X7417301Y-13758198D01*
X7417301Y-13758198D02*
X7426824Y-13748674D01*
X7426824Y-13748674D02*
X7445872Y-13739150D01*
X7445872Y-13739150D02*
X7464920Y-13739150D01*
X7531586Y-13872484D02*
X7531586Y-13739150D01*
X7531586Y-13672484D02*
X7522062Y-13682008D01*
X7522062Y-13682008D02*
X7531586Y-13691531D01*
X7531586Y-13691531D02*
X7541110Y-13682008D01*
X7541110Y-13682008D02*
X7531586Y-13672484D01*
X7531586Y-13672484D02*
X7531586Y-13691531D01*
X7655396Y-13872484D02*
X7636348Y-13862960D01*
X7636348Y-13862960D02*
X7626824Y-13843912D01*
X7626824Y-13843912D02*
X7626824Y-13672484D01*
X7760158Y-13872484D02*
X7741110Y-13862960D01*
X7741110Y-13862960D02*
X7731586Y-13843912D01*
X7731586Y-13843912D02*
X7731586Y-13672484D01*
X7988729Y-13872484D02*
X7988729Y-13672484D01*
X7988729Y-13672484D02*
X8055396Y-13815341D01*
X8055396Y-13815341D02*
X8122062Y-13672484D01*
X8122062Y-13672484D02*
X8122062Y-13872484D01*
X8303015Y-13872484D02*
X8303015Y-13767722D01*
X8303015Y-13767722D02*
X8293491Y-13748674D01*
X8293491Y-13748674D02*
X8274443Y-13739150D01*
X8274443Y-13739150D02*
X8236348Y-13739150D01*
X8236348Y-13739150D02*
X8217301Y-13748674D01*
X8303015Y-13862960D02*
X8283967Y-13872484D01*
X8283967Y-13872484D02*
X8236348Y-13872484D01*
X8236348Y-13872484D02*
X8217301Y-13862960D01*
X8217301Y-13862960D02*
X8207777Y-13843912D01*
X8207777Y-13843912D02*
X8207777Y-13824865D01*
X8207777Y-13824865D02*
X8217301Y-13805817D01*
X8217301Y-13805817D02*
X8236348Y-13796293D01*
X8236348Y-13796293D02*
X8283967Y-13796293D01*
X8283967Y-13796293D02*
X8303015Y-13786769D01*
X8398253Y-13739150D02*
X8398253Y-13939150D01*
X8398253Y-13748674D02*
X8417301Y-13739150D01*
X8417301Y-13739150D02*
X8455396Y-13739150D01*
X8455396Y-13739150D02*
X8474444Y-13748674D01*
X8474444Y-13748674D02*
X8483967Y-13758198D01*
X8483967Y-13758198D02*
X8493491Y-13777246D01*
X8493491Y-13777246D02*
X8493491Y-13834388D01*
X8493491Y-13834388D02*
X8483967Y-13853436D01*
X8483967Y-13853436D02*
X8474444Y-13862960D01*
X8474444Y-13862960D02*
X8455396Y-13872484D01*
X8455396Y-13872484D02*
X8417301Y-13872484D01*
X8417301Y-13872484D02*
X8398253Y-13862960D01*
X8579205Y-13853436D02*
X8588729Y-13862960D01*
X8588729Y-13862960D02*
X8579205Y-13872484D01*
X8579205Y-13872484D02*
X8569682Y-13862960D01*
X8569682Y-13862960D02*
X8579205Y-13853436D01*
X8579205Y-13853436D02*
X8579205Y-13872484D01*
X8579205Y-13748674D02*
X8588729Y-13758198D01*
X8588729Y-13758198D02*
X8579205Y-13767722D01*
X8579205Y-13767722D02*
X8569682Y-13758198D01*
X8569682Y-13758198D02*
X8579205Y-13748674D01*
X8579205Y-13748674D02*
X8579205Y-13767722D01*
D10*
X6887000Y-14171000D02*
X6947000Y-14231000D01*
X6947000Y-14171000D02*
X6887000Y-14231000D01*
D11*
X7245872Y-14092484D02*
X7264920Y-14092484D01*
X7264920Y-14092484D02*
X7283967Y-14102008D01*
X7283967Y-14102008D02*
X7293491Y-14111531D01*
X7293491Y-14111531D02*
X7303015Y-14130579D01*
X7303015Y-14130579D02*
X7312539Y-14168674D01*
X7312539Y-14168674D02*
X7312539Y-14216293D01*
X7312539Y-14216293D02*
X7303015Y-14254388D01*
X7303015Y-14254388D02*
X7293491Y-14273436D01*
X7293491Y-14273436D02*
X7283967Y-14282960D01*
X7283967Y-14282960D02*
X7264920Y-14292484D01*
X7264920Y-14292484D02*
X7245872Y-14292484D01*
X7245872Y-14292484D02*
X7226824Y-14282960D01*
X7226824Y-14282960D02*
X7217301Y-14273436D01*
X7217301Y-14273436D02*
X7207777Y-14254388D01*
X7207777Y-14254388D02*
X7198253Y-14216293D01*
X7198253Y-14216293D02*
X7198253Y-14168674D01*
X7198253Y-14168674D02*
X7207777Y-14130579D01*
X7207777Y-14130579D02*
X7217301Y-14111531D01*
X7217301Y-14111531D02*
X7226824Y-14102008D01*
X7226824Y-14102008D02*
X7245872Y-14092484D01*
X7398253Y-14273436D02*
X7407777Y-14282960D01*
X7407777Y-14282960D02*
X7398253Y-14292484D01*
X7398253Y-14292484D02*
X7388729Y-14282960D01*
X7388729Y-14282960D02*
X7398253Y-14273436D01*
X7398253Y-14273436D02*
X7398253Y-14292484D01*
X7579205Y-14092484D02*
X7541110Y-14092484D01*
X7541110Y-14092484D02*
X7522062Y-14102008D01*
X7522062Y-14102008D02*
X7512539Y-14111531D01*
X7512539Y-14111531D02*
X7493491Y-14140103D01*
X7493491Y-14140103D02*
X7483967Y-14178198D01*
X7483967Y-14178198D02*
X7483967Y-14254388D01*
X7483967Y-14254388D02*
X7493491Y-14273436D01*
X7493491Y-14273436D02*
X7503015Y-14282960D01*
X7503015Y-14282960D02*
X7522062Y-14292484D01*
X7522062Y-14292484D02*
X7560158Y-14292484D01*
X7560158Y-14292484D02*
X7579205Y-14282960D01*
X7579205Y-14282960D02*
X7588729Y-14273436D01*
X7588729Y-14273436D02*
X7598253Y-14254388D01*
X7598253Y-14254388D02*
X7598253Y-14206769D01*
X7598253Y-14206769D02*
X7588729Y-14187722D01*
X7588729Y-14187722D02*
X7579205Y-14178198D01*
X7579205Y-14178198D02*
X7560158Y-14168674D01*
X7560158Y-14168674D02*
X7522062Y-14168674D01*
X7522062Y-14168674D02*
X7503015Y-14178198D01*
X7503015Y-14178198D02*
X7493491Y-14187722D01*
X7493491Y-14187722D02*
X7483967Y-14206769D01*
X7722062Y-14092484D02*
X7741110Y-14092484D01*
X7741110Y-14092484D02*
X7760158Y-14102008D01*
X7760158Y-14102008D02*
X7769682Y-14111531D01*
X7769682Y-14111531D02*
X7779205Y-14130579D01*
X7779205Y-14130579D02*
X7788729Y-14168674D01*
X7788729Y-14168674D02*
X7788729Y-14216293D01*
X7788729Y-14216293D02*
X7779205Y-14254388D01*
X7779205Y-14254388D02*
X7769682Y-14273436D01*
X7769682Y-14273436D02*
X7760158Y-14282960D01*
X7760158Y-14282960D02*
X7741110Y-14292484D01*
X7741110Y-14292484D02*
X7722062Y-14292484D01*
X7722062Y-14292484D02*
X7703015Y-14282960D01*
X7703015Y-14282960D02*
X7693491Y-14273436D01*
X7693491Y-14273436D02*
X7683967Y-14254388D01*
X7683967Y-14254388D02*
X7674443Y-14216293D01*
X7674443Y-14216293D02*
X7674443Y-14168674D01*
X7674443Y-14168674D02*
X7683967Y-14130579D01*
X7683967Y-14130579D02*
X7693491Y-14111531D01*
X7693491Y-14111531D02*
X7703015Y-14102008D01*
X7703015Y-14102008D02*
X7722062Y-14092484D01*
X7912539Y-14092484D02*
X7931586Y-14092484D01*
X7931586Y-14092484D02*
X7950634Y-14102008D01*
X7950634Y-14102008D02*
X7960158Y-14111531D01*
X7960158Y-14111531D02*
X7969682Y-14130579D01*
X7969682Y-14130579D02*
X7979205Y-14168674D01*
X7979205Y-14168674D02*
X7979205Y-14216293D01*
X7979205Y-14216293D02*
X7969682Y-14254388D01*
X7969682Y-14254388D02*
X7960158Y-14273436D01*
X7960158Y-14273436D02*
X7950634Y-14282960D01*
X7950634Y-14282960D02*
X7931586Y-14292484D01*
X7931586Y-14292484D02*
X7912539Y-14292484D01*
X7912539Y-14292484D02*
X7893491Y-14282960D01*
X7893491Y-14282960D02*
X7883967Y-14273436D01*
X7883967Y-14273436D02*
X7874443Y-14254388D01*
X7874443Y-14254388D02*
X7864920Y-14216293D01*
X7864920Y-14216293D02*
X7864920Y-14168674D01*
X7864920Y-14168674D02*
X7874443Y-14130579D01*
X7874443Y-14130579D02*
X7883967Y-14111531D01*
X7883967Y-14111531D02*
X7893491Y-14102008D01*
X7893491Y-14102008D02*
X7912539Y-14092484D01*
X8064920Y-14292484D02*
X8064920Y-14159150D01*
X8064920Y-14178198D02*
X8074443Y-14168674D01*
X8074443Y-14168674D02*
X8093491Y-14159150D01*
X8093491Y-14159150D02*
X8122063Y-14159150D01*
X8122063Y-14159150D02*
X8141110Y-14168674D01*
X8141110Y-14168674D02*
X8150634Y-14187722D01*
X8150634Y-14187722D02*
X8150634Y-14292484D01*
X8150634Y-14187722D02*
X8160158Y-14168674D01*
X8160158Y-14168674D02*
X8179205Y-14159150D01*
X8179205Y-14159150D02*
X8207777Y-14159150D01*
X8207777Y-14159150D02*
X8226824Y-14168674D01*
X8226824Y-14168674D02*
X8236348Y-14187722D01*
X8236348Y-14187722D02*
X8236348Y-14292484D01*
X8331586Y-14292484D02*
X8331586Y-14159150D01*
X8331586Y-14178198D02*
X8341110Y-14168674D01*
X8341110Y-14168674D02*
X8360158Y-14159150D01*
X8360158Y-14159150D02*
X8388729Y-14159150D01*
X8388729Y-14159150D02*
X8407777Y-14168674D01*
X8407777Y-14168674D02*
X8417301Y-14187722D01*
X8417301Y-14187722D02*
X8417301Y-14292484D01*
X8417301Y-14187722D02*
X8426825Y-14168674D01*
X8426825Y-14168674D02*
X8445872Y-14159150D01*
X8445872Y-14159150D02*
X8474444Y-14159150D01*
X8474444Y-14159150D02*
X8493491Y-14168674D01*
X8493491Y-14168674D02*
X8503015Y-14187722D01*
X8503015Y-14187722D02*
X8503015Y-14292484D01*
X8893491Y-14082960D02*
X8722063Y-14340103D01*
X9150634Y-14092484D02*
X9169682Y-14092484D01*
X9169682Y-14092484D02*
X9188729Y-14102008D01*
X9188729Y-14102008D02*
X9198253Y-14111531D01*
X9198253Y-14111531D02*
X9207777Y-14130579D01*
X9207777Y-14130579D02*
X9217301Y-14168674D01*
X9217301Y-14168674D02*
X9217301Y-14216293D01*
X9217301Y-14216293D02*
X9207777Y-14254388D01*
X9207777Y-14254388D02*
X9198253Y-14273436D01*
X9198253Y-14273436D02*
X9188729Y-14282960D01*
X9188729Y-14282960D02*
X9169682Y-14292484D01*
X9169682Y-14292484D02*
X9150634Y-14292484D01*
X9150634Y-14292484D02*
X9131587Y-14282960D01*
X9131587Y-14282960D02*
X9122063Y-14273436D01*
X9122063Y-14273436D02*
X9112539Y-14254388D01*
X9112539Y-14254388D02*
X9103015Y-14216293D01*
X9103015Y-14216293D02*
X9103015Y-14168674D01*
X9103015Y-14168674D02*
X9112539Y-14130579D01*
X9112539Y-14130579D02*
X9122063Y-14111531D01*
X9122063Y-14111531D02*
X9131587Y-14102008D01*
X9131587Y-14102008D02*
X9150634Y-14092484D01*
X9303015Y-14273436D02*
X9312539Y-14282960D01*
X9312539Y-14282960D02*
X9303015Y-14292484D01*
X9303015Y-14292484D02*
X9293491Y-14282960D01*
X9293491Y-14282960D02*
X9303015Y-14273436D01*
X9303015Y-14273436D02*
X9303015Y-14292484D01*
X9436348Y-14092484D02*
X9455396Y-14092484D01*
X9455396Y-14092484D02*
X9474444Y-14102008D01*
X9474444Y-14102008D02*
X9483968Y-14111531D01*
X9483968Y-14111531D02*
X9493491Y-14130579D01*
X9493491Y-14130579D02*
X9503015Y-14168674D01*
X9503015Y-14168674D02*
X9503015Y-14216293D01*
X9503015Y-14216293D02*
X9493491Y-14254388D01*
X9493491Y-14254388D02*
X9483968Y-14273436D01*
X9483968Y-14273436D02*
X9474444Y-14282960D01*
X9474444Y-14282960D02*
X9455396Y-14292484D01*
X9455396Y-14292484D02*
X9436348Y-14292484D01*
X9436348Y-14292484D02*
X9417301Y-14282960D01*
X9417301Y-14282960D02*
X9407777Y-14273436D01*
X9407777Y-14273436D02*
X9398253Y-14254388D01*
X9398253Y-14254388D02*
X9388729Y-14216293D01*
X9388729Y-14216293D02*
X9388729Y-14168674D01*
X9388729Y-14168674D02*
X9398253Y-14130579D01*
X9398253Y-14130579D02*
X9407777Y-14111531D01*
X9407777Y-14111531D02*
X9417301Y-14102008D01*
X9417301Y-14102008D02*
X9436348Y-14092484D01*
X9579206Y-14111531D02*
X9588729Y-14102008D01*
X9588729Y-14102008D02*
X9607777Y-14092484D01*
X9607777Y-14092484D02*
X9655396Y-14092484D01*
X9655396Y-14092484D02*
X9674444Y-14102008D01*
X9674444Y-14102008D02*
X9683968Y-14111531D01*
X9683968Y-14111531D02*
X9693491Y-14130579D01*
X9693491Y-14130579D02*
X9693491Y-14149627D01*
X9693491Y-14149627D02*
X9683968Y-14178198D01*
X9683968Y-14178198D02*
X9569682Y-14292484D01*
X9569682Y-14292484D02*
X9693491Y-14292484D01*
X9760158Y-14092484D02*
X9883968Y-14092484D01*
X9883968Y-14092484D02*
X9817301Y-14168674D01*
X9817301Y-14168674D02*
X9845872Y-14168674D01*
X9845872Y-14168674D02*
X9864920Y-14178198D01*
X9864920Y-14178198D02*
X9874444Y-14187722D01*
X9874444Y-14187722D02*
X9883968Y-14206769D01*
X9883968Y-14206769D02*
X9883968Y-14254388D01*
X9883968Y-14254388D02*
X9874444Y-14273436D01*
X9874444Y-14273436D02*
X9864920Y-14282960D01*
X9864920Y-14282960D02*
X9845872Y-14292484D01*
X9845872Y-14292484D02*
X9788729Y-14292484D01*
X9788729Y-14292484D02*
X9769682Y-14282960D01*
X9769682Y-14282960D02*
X9760158Y-14273436D01*
X10055396Y-14092484D02*
X10017301Y-14092484D01*
X10017301Y-14092484D02*
X9998253Y-14102008D01*
X9998253Y-14102008D02*
X9988729Y-14111531D01*
X9988729Y-14111531D02*
X9969682Y-14140103D01*
X9969682Y-14140103D02*
X9960158Y-14178198D01*
X9960158Y-14178198D02*
X9960158Y-14254388D01*
X9960158Y-14254388D02*
X9969682Y-14273436D01*
X9969682Y-14273436D02*
X9979206Y-14282960D01*
X9979206Y-14282960D02*
X9998253Y-14292484D01*
X9998253Y-14292484D02*
X10036349Y-14292484D01*
X10036349Y-14292484D02*
X10055396Y-14282960D01*
X10055396Y-14282960D02*
X10064920Y-14273436D01*
X10064920Y-14273436D02*
X10074444Y-14254388D01*
X10074444Y-14254388D02*
X10074444Y-14206769D01*
X10074444Y-14206769D02*
X10064920Y-14187722D01*
X10064920Y-14187722D02*
X10055396Y-14178198D01*
X10055396Y-14178198D02*
X10036349Y-14168674D01*
X10036349Y-14168674D02*
X9998253Y-14168674D01*
X9998253Y-14168674D02*
X9979206Y-14178198D01*
X9979206Y-14178198D02*
X9969682Y-14187722D01*
X9969682Y-14187722D02*
X9960158Y-14206769D01*
X10150634Y-14092484D02*
X10150634Y-14130579D01*
X10226825Y-14092484D02*
X10226825Y-14130579D01*
X10522063Y-14368674D02*
X10512539Y-14359150D01*
X10512539Y-14359150D02*
X10493491Y-14330579D01*
X10493491Y-14330579D02*
X10483968Y-14311531D01*
X10483968Y-14311531D02*
X10474444Y-14282960D01*
X10474444Y-14282960D02*
X10464920Y-14235341D01*
X10464920Y-14235341D02*
X10464920Y-14197246D01*
X10464920Y-14197246D02*
X10474444Y-14149627D01*
X10474444Y-14149627D02*
X10483968Y-14121055D01*
X10483968Y-14121055D02*
X10493491Y-14102008D01*
X10493491Y-14102008D02*
X10512539Y-14073436D01*
X10512539Y-14073436D02*
X10522063Y-14063912D01*
X10703015Y-14292484D02*
X10588730Y-14292484D01*
X10645872Y-14292484D02*
X10645872Y-14092484D01*
X10645872Y-14092484D02*
X10626825Y-14121055D01*
X10626825Y-14121055D02*
X10607777Y-14140103D01*
X10607777Y-14140103D02*
X10588730Y-14149627D01*
X10769682Y-14092484D02*
X10893491Y-14092484D01*
X10893491Y-14092484D02*
X10826825Y-14168674D01*
X10826825Y-14168674D02*
X10855396Y-14168674D01*
X10855396Y-14168674D02*
X10874444Y-14178198D01*
X10874444Y-14178198D02*
X10883968Y-14187722D01*
X10883968Y-14187722D02*
X10893491Y-14206769D01*
X10893491Y-14206769D02*
X10893491Y-14254388D01*
X10893491Y-14254388D02*
X10883968Y-14273436D01*
X10883968Y-14273436D02*
X10874444Y-14282960D01*
X10874444Y-14282960D02*
X10855396Y-14292484D01*
X10855396Y-14292484D02*
X10798253Y-14292484D01*
X10798253Y-14292484D02*
X10779206Y-14282960D01*
X10779206Y-14282960D02*
X10769682Y-14273436D01*
X11131587Y-14292484D02*
X11131587Y-14092484D01*
X11217301Y-14292484D02*
X11217301Y-14187722D01*
X11217301Y-14187722D02*
X11207777Y-14168674D01*
X11207777Y-14168674D02*
X11188730Y-14159150D01*
X11188730Y-14159150D02*
X11160158Y-14159150D01*
X11160158Y-14159150D02*
X11141111Y-14168674D01*
X11141111Y-14168674D02*
X11131587Y-14178198D01*
X11341110Y-14292484D02*
X11322063Y-14282960D01*
X11322063Y-14282960D02*
X11312539Y-14273436D01*
X11312539Y-14273436D02*
X11303015Y-14254388D01*
X11303015Y-14254388D02*
X11303015Y-14197246D01*
X11303015Y-14197246D02*
X11312539Y-14178198D01*
X11312539Y-14178198D02*
X11322063Y-14168674D01*
X11322063Y-14168674D02*
X11341110Y-14159150D01*
X11341110Y-14159150D02*
X11369682Y-14159150D01*
X11369682Y-14159150D02*
X11388730Y-14168674D01*
X11388730Y-14168674D02*
X11398253Y-14178198D01*
X11398253Y-14178198D02*
X11407777Y-14197246D01*
X11407777Y-14197246D02*
X11407777Y-14254388D01*
X11407777Y-14254388D02*
X11398253Y-14273436D01*
X11398253Y-14273436D02*
X11388730Y-14282960D01*
X11388730Y-14282960D02*
X11369682Y-14292484D01*
X11369682Y-14292484D02*
X11341110Y-14292484D01*
X11522063Y-14292484D02*
X11503015Y-14282960D01*
X11503015Y-14282960D02*
X11493491Y-14263912D01*
X11493491Y-14263912D02*
X11493491Y-14092484D01*
X11674444Y-14282960D02*
X11655396Y-14292484D01*
X11655396Y-14292484D02*
X11617301Y-14292484D01*
X11617301Y-14292484D02*
X11598253Y-14282960D01*
X11598253Y-14282960D02*
X11588730Y-14263912D01*
X11588730Y-14263912D02*
X11588730Y-14187722D01*
X11588730Y-14187722D02*
X11598253Y-14168674D01*
X11598253Y-14168674D02*
X11617301Y-14159150D01*
X11617301Y-14159150D02*
X11655396Y-14159150D01*
X11655396Y-14159150D02*
X11674444Y-14168674D01*
X11674444Y-14168674D02*
X11683968Y-14187722D01*
X11683968Y-14187722D02*
X11683968Y-14206769D01*
X11683968Y-14206769D02*
X11588730Y-14225817D01*
X11760158Y-14282960D02*
X11779206Y-14292484D01*
X11779206Y-14292484D02*
X11817301Y-14292484D01*
X11817301Y-14292484D02*
X11836349Y-14282960D01*
X11836349Y-14282960D02*
X11845872Y-14263912D01*
X11845872Y-14263912D02*
X11845872Y-14254388D01*
X11845872Y-14254388D02*
X11836349Y-14235341D01*
X11836349Y-14235341D02*
X11817301Y-14225817D01*
X11817301Y-14225817D02*
X11788730Y-14225817D01*
X11788730Y-14225817D02*
X11769682Y-14216293D01*
X11769682Y-14216293D02*
X11760158Y-14197246D01*
X11760158Y-14197246D02*
X11760158Y-14187722D01*
X11760158Y-14187722D02*
X11769682Y-14168674D01*
X11769682Y-14168674D02*
X11788730Y-14159150D01*
X11788730Y-14159150D02*
X11817301Y-14159150D01*
X11817301Y-14159150D02*
X11836349Y-14168674D01*
X11912539Y-14368674D02*
X11922063Y-14359150D01*
X11922063Y-14359150D02*
X11941111Y-14330579D01*
X11941111Y-14330579D02*
X11950634Y-14311531D01*
X11950634Y-14311531D02*
X11960158Y-14282960D01*
X11960158Y-14282960D02*
X11969682Y-14235341D01*
X11969682Y-14235341D02*
X11969682Y-14197246D01*
X11969682Y-14197246D02*
X11960158Y-14149627D01*
X11960158Y-14149627D02*
X11950634Y-14121055D01*
X11950634Y-14121055D02*
X11941111Y-14102008D01*
X11941111Y-14102008D02*
X11922063Y-14073436D01*
X11922063Y-14073436D02*
X11912539Y-14063912D01*
D10*
X6947000Y-14465000D02*
G75*
G03*
X6947000Y-14465000I-40000J0D01*
G01*
D11*
X7245872Y-14356484D02*
X7264920Y-14356484D01*
X7264920Y-14356484D02*
X7283967Y-14366008D01*
X7283967Y-14366008D02*
X7293491Y-14375531D01*
X7293491Y-14375531D02*
X7303015Y-14394579D01*
X7303015Y-14394579D02*
X7312539Y-14432674D01*
X7312539Y-14432674D02*
X7312539Y-14480293D01*
X7312539Y-14480293D02*
X7303015Y-14518388D01*
X7303015Y-14518388D02*
X7293491Y-14537436D01*
X7293491Y-14537436D02*
X7283967Y-14546960D01*
X7283967Y-14546960D02*
X7264920Y-14556484D01*
X7264920Y-14556484D02*
X7245872Y-14556484D01*
X7245872Y-14556484D02*
X7226824Y-14546960D01*
X7226824Y-14546960D02*
X7217301Y-14537436D01*
X7217301Y-14537436D02*
X7207777Y-14518388D01*
X7207777Y-14518388D02*
X7198253Y-14480293D01*
X7198253Y-14480293D02*
X7198253Y-14432674D01*
X7198253Y-14432674D02*
X7207777Y-14394579D01*
X7207777Y-14394579D02*
X7217301Y-14375531D01*
X7217301Y-14375531D02*
X7226824Y-14366008D01*
X7226824Y-14366008D02*
X7245872Y-14356484D01*
X7398253Y-14537436D02*
X7407777Y-14546960D01*
X7407777Y-14546960D02*
X7398253Y-14556484D01*
X7398253Y-14556484D02*
X7388729Y-14546960D01*
X7388729Y-14546960D02*
X7398253Y-14537436D01*
X7398253Y-14537436D02*
X7398253Y-14556484D01*
X7522062Y-14442198D02*
X7503015Y-14432674D01*
X7503015Y-14432674D02*
X7493491Y-14423150D01*
X7493491Y-14423150D02*
X7483967Y-14404103D01*
X7483967Y-14404103D02*
X7483967Y-14394579D01*
X7483967Y-14394579D02*
X7493491Y-14375531D01*
X7493491Y-14375531D02*
X7503015Y-14366008D01*
X7503015Y-14366008D02*
X7522062Y-14356484D01*
X7522062Y-14356484D02*
X7560158Y-14356484D01*
X7560158Y-14356484D02*
X7579205Y-14366008D01*
X7579205Y-14366008D02*
X7588729Y-14375531D01*
X7588729Y-14375531D02*
X7598253Y-14394579D01*
X7598253Y-14394579D02*
X7598253Y-14404103D01*
X7598253Y-14404103D02*
X7588729Y-14423150D01*
X7588729Y-14423150D02*
X7579205Y-14432674D01*
X7579205Y-14432674D02*
X7560158Y-14442198D01*
X7560158Y-14442198D02*
X7522062Y-14442198D01*
X7522062Y-14442198D02*
X7503015Y-14451722D01*
X7503015Y-14451722D02*
X7493491Y-14461246D01*
X7493491Y-14461246D02*
X7483967Y-14480293D01*
X7483967Y-14480293D02*
X7483967Y-14518388D01*
X7483967Y-14518388D02*
X7493491Y-14537436D01*
X7493491Y-14537436D02*
X7503015Y-14546960D01*
X7503015Y-14546960D02*
X7522062Y-14556484D01*
X7522062Y-14556484D02*
X7560158Y-14556484D01*
X7560158Y-14556484D02*
X7579205Y-14546960D01*
X7579205Y-14546960D02*
X7588729Y-14537436D01*
X7588729Y-14537436D02*
X7598253Y-14518388D01*
X7598253Y-14518388D02*
X7598253Y-14480293D01*
X7598253Y-14480293D02*
X7588729Y-14461246D01*
X7588729Y-14461246D02*
X7579205Y-14451722D01*
X7579205Y-14451722D02*
X7560158Y-14442198D01*
X7722062Y-14356484D02*
X7741110Y-14356484D01*
X7741110Y-14356484D02*
X7760158Y-14366008D01*
X7760158Y-14366008D02*
X7769682Y-14375531D01*
X7769682Y-14375531D02*
X7779205Y-14394579D01*
X7779205Y-14394579D02*
X7788729Y-14432674D01*
X7788729Y-14432674D02*
X7788729Y-14480293D01*
X7788729Y-14480293D02*
X7779205Y-14518388D01*
X7779205Y-14518388D02*
X7769682Y-14537436D01*
X7769682Y-14537436D02*
X7760158Y-14546960D01*
X7760158Y-14546960D02*
X7741110Y-14556484D01*
X7741110Y-14556484D02*
X7722062Y-14556484D01*
X7722062Y-14556484D02*
X7703015Y-14546960D01*
X7703015Y-14546960D02*
X7693491Y-14537436D01*
X7693491Y-14537436D02*
X7683967Y-14518388D01*
X7683967Y-14518388D02*
X7674443Y-14480293D01*
X7674443Y-14480293D02*
X7674443Y-14432674D01*
X7674443Y-14432674D02*
X7683967Y-14394579D01*
X7683967Y-14394579D02*
X7693491Y-14375531D01*
X7693491Y-14375531D02*
X7703015Y-14366008D01*
X7703015Y-14366008D02*
X7722062Y-14356484D01*
X7912539Y-14356484D02*
X7931586Y-14356484D01*
X7931586Y-14356484D02*
X7950634Y-14366008D01*
X7950634Y-14366008D02*
X7960158Y-14375531D01*
X7960158Y-14375531D02*
X7969682Y-14394579D01*
X7969682Y-14394579D02*
X7979205Y-14432674D01*
X7979205Y-14432674D02*
X7979205Y-14480293D01*
X7979205Y-14480293D02*
X7969682Y-14518388D01*
X7969682Y-14518388D02*
X7960158Y-14537436D01*
X7960158Y-14537436D02*
X7950634Y-14546960D01*
X7950634Y-14546960D02*
X7931586Y-14556484D01*
X7931586Y-14556484D02*
X7912539Y-14556484D01*
X7912539Y-14556484D02*
X7893491Y-14546960D01*
X7893491Y-14546960D02*
X7883967Y-14537436D01*
X7883967Y-14537436D02*
X7874443Y-14518388D01*
X7874443Y-14518388D02*
X7864920Y-14480293D01*
X7864920Y-14480293D02*
X7864920Y-14432674D01*
X7864920Y-14432674D02*
X7874443Y-14394579D01*
X7874443Y-14394579D02*
X7883967Y-14375531D01*
X7883967Y-14375531D02*
X7893491Y-14366008D01*
X7893491Y-14366008D02*
X7912539Y-14356484D01*
X8064920Y-14556484D02*
X8064920Y-14423150D01*
X8064920Y-14442198D02*
X8074443Y-14432674D01*
X8074443Y-14432674D02*
X8093491Y-14423150D01*
X8093491Y-14423150D02*
X8122063Y-14423150D01*
X8122063Y-14423150D02*
X8141110Y-14432674D01*
X8141110Y-14432674D02*
X8150634Y-14451722D01*
X8150634Y-14451722D02*
X8150634Y-14556484D01*
X8150634Y-14451722D02*
X8160158Y-14432674D01*
X8160158Y-14432674D02*
X8179205Y-14423150D01*
X8179205Y-14423150D02*
X8207777Y-14423150D01*
X8207777Y-14423150D02*
X8226824Y-14432674D01*
X8226824Y-14432674D02*
X8236348Y-14451722D01*
X8236348Y-14451722D02*
X8236348Y-14556484D01*
X8331586Y-14556484D02*
X8331586Y-14423150D01*
X8331586Y-14442198D02*
X8341110Y-14432674D01*
X8341110Y-14432674D02*
X8360158Y-14423150D01*
X8360158Y-14423150D02*
X8388729Y-14423150D01*
X8388729Y-14423150D02*
X8407777Y-14432674D01*
X8407777Y-14432674D02*
X8417301Y-14451722D01*
X8417301Y-14451722D02*
X8417301Y-14556484D01*
X8417301Y-14451722D02*
X8426825Y-14432674D01*
X8426825Y-14432674D02*
X8445872Y-14423150D01*
X8445872Y-14423150D02*
X8474444Y-14423150D01*
X8474444Y-14423150D02*
X8493491Y-14432674D01*
X8493491Y-14432674D02*
X8503015Y-14451722D01*
X8503015Y-14451722D02*
X8503015Y-14556484D01*
X8893491Y-14346960D02*
X8722063Y-14604103D01*
X9150634Y-14356484D02*
X9169682Y-14356484D01*
X9169682Y-14356484D02*
X9188729Y-14366008D01*
X9188729Y-14366008D02*
X9198253Y-14375531D01*
X9198253Y-14375531D02*
X9207777Y-14394579D01*
X9207777Y-14394579D02*
X9217301Y-14432674D01*
X9217301Y-14432674D02*
X9217301Y-14480293D01*
X9217301Y-14480293D02*
X9207777Y-14518388D01*
X9207777Y-14518388D02*
X9198253Y-14537436D01*
X9198253Y-14537436D02*
X9188729Y-14546960D01*
X9188729Y-14546960D02*
X9169682Y-14556484D01*
X9169682Y-14556484D02*
X9150634Y-14556484D01*
X9150634Y-14556484D02*
X9131587Y-14546960D01*
X9131587Y-14546960D02*
X9122063Y-14537436D01*
X9122063Y-14537436D02*
X9112539Y-14518388D01*
X9112539Y-14518388D02*
X9103015Y-14480293D01*
X9103015Y-14480293D02*
X9103015Y-14432674D01*
X9103015Y-14432674D02*
X9112539Y-14394579D01*
X9112539Y-14394579D02*
X9122063Y-14375531D01*
X9122063Y-14375531D02*
X9131587Y-14366008D01*
X9131587Y-14366008D02*
X9150634Y-14356484D01*
X9303015Y-14537436D02*
X9312539Y-14546960D01*
X9312539Y-14546960D02*
X9303015Y-14556484D01*
X9303015Y-14556484D02*
X9293491Y-14546960D01*
X9293491Y-14546960D02*
X9303015Y-14537436D01*
X9303015Y-14537436D02*
X9303015Y-14556484D01*
X9436348Y-14356484D02*
X9455396Y-14356484D01*
X9455396Y-14356484D02*
X9474444Y-14366008D01*
X9474444Y-14366008D02*
X9483968Y-14375531D01*
X9483968Y-14375531D02*
X9493491Y-14394579D01*
X9493491Y-14394579D02*
X9503015Y-14432674D01*
X9503015Y-14432674D02*
X9503015Y-14480293D01*
X9503015Y-14480293D02*
X9493491Y-14518388D01*
X9493491Y-14518388D02*
X9483968Y-14537436D01*
X9483968Y-14537436D02*
X9474444Y-14546960D01*
X9474444Y-14546960D02*
X9455396Y-14556484D01*
X9455396Y-14556484D02*
X9436348Y-14556484D01*
X9436348Y-14556484D02*
X9417301Y-14546960D01*
X9417301Y-14546960D02*
X9407777Y-14537436D01*
X9407777Y-14537436D02*
X9398253Y-14518388D01*
X9398253Y-14518388D02*
X9388729Y-14480293D01*
X9388729Y-14480293D02*
X9388729Y-14432674D01*
X9388729Y-14432674D02*
X9398253Y-14394579D01*
X9398253Y-14394579D02*
X9407777Y-14375531D01*
X9407777Y-14375531D02*
X9417301Y-14366008D01*
X9417301Y-14366008D02*
X9436348Y-14356484D01*
X9569682Y-14356484D02*
X9693491Y-14356484D01*
X9693491Y-14356484D02*
X9626825Y-14432674D01*
X9626825Y-14432674D02*
X9655396Y-14432674D01*
X9655396Y-14432674D02*
X9674444Y-14442198D01*
X9674444Y-14442198D02*
X9683968Y-14451722D01*
X9683968Y-14451722D02*
X9693491Y-14470769D01*
X9693491Y-14470769D02*
X9693491Y-14518388D01*
X9693491Y-14518388D02*
X9683968Y-14537436D01*
X9683968Y-14537436D02*
X9674444Y-14546960D01*
X9674444Y-14546960D02*
X9655396Y-14556484D01*
X9655396Y-14556484D02*
X9598253Y-14556484D01*
X9598253Y-14556484D02*
X9579206Y-14546960D01*
X9579206Y-14546960D02*
X9569682Y-14537436D01*
X9883968Y-14556484D02*
X9769682Y-14556484D01*
X9826825Y-14556484D02*
X9826825Y-14356484D01*
X9826825Y-14356484D02*
X9807777Y-14385055D01*
X9807777Y-14385055D02*
X9788729Y-14404103D01*
X9788729Y-14404103D02*
X9769682Y-14413627D01*
X10064920Y-14356484D02*
X9969682Y-14356484D01*
X9969682Y-14356484D02*
X9960158Y-14451722D01*
X9960158Y-14451722D02*
X9969682Y-14442198D01*
X9969682Y-14442198D02*
X9988729Y-14432674D01*
X9988729Y-14432674D02*
X10036349Y-14432674D01*
X10036349Y-14432674D02*
X10055396Y-14442198D01*
X10055396Y-14442198D02*
X10064920Y-14451722D01*
X10064920Y-14451722D02*
X10074444Y-14470769D01*
X10074444Y-14470769D02*
X10074444Y-14518388D01*
X10074444Y-14518388D02*
X10064920Y-14537436D01*
X10064920Y-14537436D02*
X10055396Y-14546960D01*
X10055396Y-14546960D02*
X10036349Y-14556484D01*
X10036349Y-14556484D02*
X9988729Y-14556484D01*
X9988729Y-14556484D02*
X9969682Y-14546960D01*
X9969682Y-14546960D02*
X9960158Y-14537436D01*
X10150634Y-14356484D02*
X10150634Y-14394579D01*
X10226825Y-14356484D02*
X10226825Y-14394579D01*
X10522063Y-14632674D02*
X10512539Y-14623150D01*
X10512539Y-14623150D02*
X10493491Y-14594579D01*
X10493491Y-14594579D02*
X10483968Y-14575531D01*
X10483968Y-14575531D02*
X10474444Y-14546960D01*
X10474444Y-14546960D02*
X10464920Y-14499341D01*
X10464920Y-14499341D02*
X10464920Y-14461246D01*
X10464920Y-14461246D02*
X10474444Y-14413627D01*
X10474444Y-14413627D02*
X10483968Y-14385055D01*
X10483968Y-14385055D02*
X10493491Y-14366008D01*
X10493491Y-14366008D02*
X10512539Y-14337436D01*
X10512539Y-14337436D02*
X10522063Y-14327912D01*
X10693491Y-14356484D02*
X10598253Y-14356484D01*
X10598253Y-14356484D02*
X10588730Y-14451722D01*
X10588730Y-14451722D02*
X10598253Y-14442198D01*
X10598253Y-14442198D02*
X10617301Y-14432674D01*
X10617301Y-14432674D02*
X10664920Y-14432674D01*
X10664920Y-14432674D02*
X10683968Y-14442198D01*
X10683968Y-14442198D02*
X10693491Y-14451722D01*
X10693491Y-14451722D02*
X10703015Y-14470769D01*
X10703015Y-14470769D02*
X10703015Y-14518388D01*
X10703015Y-14518388D02*
X10693491Y-14537436D01*
X10693491Y-14537436D02*
X10683968Y-14546960D01*
X10683968Y-14546960D02*
X10664920Y-14556484D01*
X10664920Y-14556484D02*
X10617301Y-14556484D01*
X10617301Y-14556484D02*
X10598253Y-14546960D01*
X10598253Y-14546960D02*
X10588730Y-14537436D01*
X10874444Y-14423150D02*
X10874444Y-14556484D01*
X10826825Y-14346960D02*
X10779206Y-14489817D01*
X10779206Y-14489817D02*
X10903015Y-14489817D01*
X11131587Y-14556484D02*
X11131587Y-14356484D01*
X11217301Y-14556484D02*
X11217301Y-14451722D01*
X11217301Y-14451722D02*
X11207777Y-14432674D01*
X11207777Y-14432674D02*
X11188730Y-14423150D01*
X11188730Y-14423150D02*
X11160158Y-14423150D01*
X11160158Y-14423150D02*
X11141111Y-14432674D01*
X11141111Y-14432674D02*
X11131587Y-14442198D01*
X11341110Y-14556484D02*
X11322063Y-14546960D01*
X11322063Y-14546960D02*
X11312539Y-14537436D01*
X11312539Y-14537436D02*
X11303015Y-14518388D01*
X11303015Y-14518388D02*
X11303015Y-14461246D01*
X11303015Y-14461246D02*
X11312539Y-14442198D01*
X11312539Y-14442198D02*
X11322063Y-14432674D01*
X11322063Y-14432674D02*
X11341110Y-14423150D01*
X11341110Y-14423150D02*
X11369682Y-14423150D01*
X11369682Y-14423150D02*
X11388730Y-14432674D01*
X11388730Y-14432674D02*
X11398253Y-14442198D01*
X11398253Y-14442198D02*
X11407777Y-14461246D01*
X11407777Y-14461246D02*
X11407777Y-14518388D01*
X11407777Y-14518388D02*
X11398253Y-14537436D01*
X11398253Y-14537436D02*
X11388730Y-14546960D01*
X11388730Y-14546960D02*
X11369682Y-14556484D01*
X11369682Y-14556484D02*
X11341110Y-14556484D01*
X11522063Y-14556484D02*
X11503015Y-14546960D01*
X11503015Y-14546960D02*
X11493491Y-14527912D01*
X11493491Y-14527912D02*
X11493491Y-14356484D01*
X11674444Y-14546960D02*
X11655396Y-14556484D01*
X11655396Y-14556484D02*
X11617301Y-14556484D01*
X11617301Y-14556484D02*
X11598253Y-14546960D01*
X11598253Y-14546960D02*
X11588730Y-14527912D01*
X11588730Y-14527912D02*
X11588730Y-14451722D01*
X11588730Y-14451722D02*
X11598253Y-14432674D01*
X11598253Y-14432674D02*
X11617301Y-14423150D01*
X11617301Y-14423150D02*
X11655396Y-14423150D01*
X11655396Y-14423150D02*
X11674444Y-14432674D01*
X11674444Y-14432674D02*
X11683968Y-14451722D01*
X11683968Y-14451722D02*
X11683968Y-14470769D01*
X11683968Y-14470769D02*
X11588730Y-14489817D01*
X11760158Y-14546960D02*
X11779206Y-14556484D01*
X11779206Y-14556484D02*
X11817301Y-14556484D01*
X11817301Y-14556484D02*
X11836349Y-14546960D01*
X11836349Y-14546960D02*
X11845872Y-14527912D01*
X11845872Y-14527912D02*
X11845872Y-14518388D01*
X11845872Y-14518388D02*
X11836349Y-14499341D01*
X11836349Y-14499341D02*
X11817301Y-14489817D01*
X11817301Y-14489817D02*
X11788730Y-14489817D01*
X11788730Y-14489817D02*
X11769682Y-14480293D01*
X11769682Y-14480293D02*
X11760158Y-14461246D01*
X11760158Y-14461246D02*
X11760158Y-14451722D01*
X11760158Y-14451722D02*
X11769682Y-14432674D01*
X11769682Y-14432674D02*
X11788730Y-14423150D01*
X11788730Y-14423150D02*
X11817301Y-14423150D01*
X11817301Y-14423150D02*
X11836349Y-14432674D01*
X11912539Y-14632674D02*
X11922063Y-14623150D01*
X11922063Y-14623150D02*
X11941111Y-14594579D01*
X11941111Y-14594579D02*
X11950634Y-14575531D01*
X11950634Y-14575531D02*
X11960158Y-14546960D01*
X11960158Y-14546960D02*
X11969682Y-14499341D01*
X11969682Y-14499341D02*
X11969682Y-14461246D01*
X11969682Y-14461246D02*
X11960158Y-14413627D01*
X11960158Y-14413627D02*
X11950634Y-14385055D01*
X11950634Y-14385055D02*
X11941111Y-14366008D01*
X11941111Y-14366008D02*
X11922063Y-14337436D01*
X11922063Y-14337436D02*
X11912539Y-14327912D01*
D10*
X6902000Y-14684000D02*
X6902000Y-14774000D01*
X6857000Y-14729000D02*
X6947000Y-14729000D01*
D11*
X7245872Y-14620484D02*
X7264920Y-14620484D01*
X7264920Y-14620484D02*
X7283967Y-14630008D01*
X7283967Y-14630008D02*
X7293491Y-14639531D01*
X7293491Y-14639531D02*
X7303015Y-14658579D01*
X7303015Y-14658579D02*
X7312539Y-14696674D01*
X7312539Y-14696674D02*
X7312539Y-14744293D01*
X7312539Y-14744293D02*
X7303015Y-14782388D01*
X7303015Y-14782388D02*
X7293491Y-14801436D01*
X7293491Y-14801436D02*
X7283967Y-14810960D01*
X7283967Y-14810960D02*
X7264920Y-14820484D01*
X7264920Y-14820484D02*
X7245872Y-14820484D01*
X7245872Y-14820484D02*
X7226824Y-14810960D01*
X7226824Y-14810960D02*
X7217301Y-14801436D01*
X7217301Y-14801436D02*
X7207777Y-14782388D01*
X7207777Y-14782388D02*
X7198253Y-14744293D01*
X7198253Y-14744293D02*
X7198253Y-14696674D01*
X7198253Y-14696674D02*
X7207777Y-14658579D01*
X7207777Y-14658579D02*
X7217301Y-14639531D01*
X7217301Y-14639531D02*
X7226824Y-14630008D01*
X7226824Y-14630008D02*
X7245872Y-14620484D01*
X7398253Y-14801436D02*
X7407777Y-14810960D01*
X7407777Y-14810960D02*
X7398253Y-14820484D01*
X7398253Y-14820484D02*
X7388729Y-14810960D01*
X7388729Y-14810960D02*
X7398253Y-14801436D01*
X7398253Y-14801436D02*
X7398253Y-14820484D01*
X7503015Y-14820484D02*
X7541110Y-14820484D01*
X7541110Y-14820484D02*
X7560158Y-14810960D01*
X7560158Y-14810960D02*
X7569682Y-14801436D01*
X7569682Y-14801436D02*
X7588729Y-14772865D01*
X7588729Y-14772865D02*
X7598253Y-14734769D01*
X7598253Y-14734769D02*
X7598253Y-14658579D01*
X7598253Y-14658579D02*
X7588729Y-14639531D01*
X7588729Y-14639531D02*
X7579205Y-14630008D01*
X7579205Y-14630008D02*
X7560158Y-14620484D01*
X7560158Y-14620484D02*
X7522062Y-14620484D01*
X7522062Y-14620484D02*
X7503015Y-14630008D01*
X7503015Y-14630008D02*
X7493491Y-14639531D01*
X7493491Y-14639531D02*
X7483967Y-14658579D01*
X7483967Y-14658579D02*
X7483967Y-14706198D01*
X7483967Y-14706198D02*
X7493491Y-14725246D01*
X7493491Y-14725246D02*
X7503015Y-14734769D01*
X7503015Y-14734769D02*
X7522062Y-14744293D01*
X7522062Y-14744293D02*
X7560158Y-14744293D01*
X7560158Y-14744293D02*
X7579205Y-14734769D01*
X7579205Y-14734769D02*
X7588729Y-14725246D01*
X7588729Y-14725246D02*
X7598253Y-14706198D01*
X7722062Y-14620484D02*
X7741110Y-14620484D01*
X7741110Y-14620484D02*
X7760158Y-14630008D01*
X7760158Y-14630008D02*
X7769682Y-14639531D01*
X7769682Y-14639531D02*
X7779205Y-14658579D01*
X7779205Y-14658579D02*
X7788729Y-14696674D01*
X7788729Y-14696674D02*
X7788729Y-14744293D01*
X7788729Y-14744293D02*
X7779205Y-14782388D01*
X7779205Y-14782388D02*
X7769682Y-14801436D01*
X7769682Y-14801436D02*
X7760158Y-14810960D01*
X7760158Y-14810960D02*
X7741110Y-14820484D01*
X7741110Y-14820484D02*
X7722062Y-14820484D01*
X7722062Y-14820484D02*
X7703015Y-14810960D01*
X7703015Y-14810960D02*
X7693491Y-14801436D01*
X7693491Y-14801436D02*
X7683967Y-14782388D01*
X7683967Y-14782388D02*
X7674443Y-14744293D01*
X7674443Y-14744293D02*
X7674443Y-14696674D01*
X7674443Y-14696674D02*
X7683967Y-14658579D01*
X7683967Y-14658579D02*
X7693491Y-14639531D01*
X7693491Y-14639531D02*
X7703015Y-14630008D01*
X7703015Y-14630008D02*
X7722062Y-14620484D01*
X7912539Y-14620484D02*
X7931586Y-14620484D01*
X7931586Y-14620484D02*
X7950634Y-14630008D01*
X7950634Y-14630008D02*
X7960158Y-14639531D01*
X7960158Y-14639531D02*
X7969682Y-14658579D01*
X7969682Y-14658579D02*
X7979205Y-14696674D01*
X7979205Y-14696674D02*
X7979205Y-14744293D01*
X7979205Y-14744293D02*
X7969682Y-14782388D01*
X7969682Y-14782388D02*
X7960158Y-14801436D01*
X7960158Y-14801436D02*
X7950634Y-14810960D01*
X7950634Y-14810960D02*
X7931586Y-14820484D01*
X7931586Y-14820484D02*
X7912539Y-14820484D01*
X7912539Y-14820484D02*
X7893491Y-14810960D01*
X7893491Y-14810960D02*
X7883967Y-14801436D01*
X7883967Y-14801436D02*
X7874443Y-14782388D01*
X7874443Y-14782388D02*
X7864920Y-14744293D01*
X7864920Y-14744293D02*
X7864920Y-14696674D01*
X7864920Y-14696674D02*
X7874443Y-14658579D01*
X7874443Y-14658579D02*
X7883967Y-14639531D01*
X7883967Y-14639531D02*
X7893491Y-14630008D01*
X7893491Y-14630008D02*
X7912539Y-14620484D01*
X8064920Y-14820484D02*
X8064920Y-14687150D01*
X8064920Y-14706198D02*
X8074443Y-14696674D01*
X8074443Y-14696674D02*
X8093491Y-14687150D01*
X8093491Y-14687150D02*
X8122063Y-14687150D01*
X8122063Y-14687150D02*
X8141110Y-14696674D01*
X8141110Y-14696674D02*
X8150634Y-14715722D01*
X8150634Y-14715722D02*
X8150634Y-14820484D01*
X8150634Y-14715722D02*
X8160158Y-14696674D01*
X8160158Y-14696674D02*
X8179205Y-14687150D01*
X8179205Y-14687150D02*
X8207777Y-14687150D01*
X8207777Y-14687150D02*
X8226824Y-14696674D01*
X8226824Y-14696674D02*
X8236348Y-14715722D01*
X8236348Y-14715722D02*
X8236348Y-14820484D01*
X8331586Y-14820484D02*
X8331586Y-14687150D01*
X8331586Y-14706198D02*
X8341110Y-14696674D01*
X8341110Y-14696674D02*
X8360158Y-14687150D01*
X8360158Y-14687150D02*
X8388729Y-14687150D01*
X8388729Y-14687150D02*
X8407777Y-14696674D01*
X8407777Y-14696674D02*
X8417301Y-14715722D01*
X8417301Y-14715722D02*
X8417301Y-14820484D01*
X8417301Y-14715722D02*
X8426825Y-14696674D01*
X8426825Y-14696674D02*
X8445872Y-14687150D01*
X8445872Y-14687150D02*
X8474444Y-14687150D01*
X8474444Y-14687150D02*
X8493491Y-14696674D01*
X8493491Y-14696674D02*
X8503015Y-14715722D01*
X8503015Y-14715722D02*
X8503015Y-14820484D01*
X8893491Y-14610960D02*
X8722063Y-14868103D01*
X9150634Y-14620484D02*
X9169682Y-14620484D01*
X9169682Y-14620484D02*
X9188729Y-14630008D01*
X9188729Y-14630008D02*
X9198253Y-14639531D01*
X9198253Y-14639531D02*
X9207777Y-14658579D01*
X9207777Y-14658579D02*
X9217301Y-14696674D01*
X9217301Y-14696674D02*
X9217301Y-14744293D01*
X9217301Y-14744293D02*
X9207777Y-14782388D01*
X9207777Y-14782388D02*
X9198253Y-14801436D01*
X9198253Y-14801436D02*
X9188729Y-14810960D01*
X9188729Y-14810960D02*
X9169682Y-14820484D01*
X9169682Y-14820484D02*
X9150634Y-14820484D01*
X9150634Y-14820484D02*
X9131587Y-14810960D01*
X9131587Y-14810960D02*
X9122063Y-14801436D01*
X9122063Y-14801436D02*
X9112539Y-14782388D01*
X9112539Y-14782388D02*
X9103015Y-14744293D01*
X9103015Y-14744293D02*
X9103015Y-14696674D01*
X9103015Y-14696674D02*
X9112539Y-14658579D01*
X9112539Y-14658579D02*
X9122063Y-14639531D01*
X9122063Y-14639531D02*
X9131587Y-14630008D01*
X9131587Y-14630008D02*
X9150634Y-14620484D01*
X9303015Y-14801436D02*
X9312539Y-14810960D01*
X9312539Y-14810960D02*
X9303015Y-14820484D01*
X9303015Y-14820484D02*
X9293491Y-14810960D01*
X9293491Y-14810960D02*
X9303015Y-14801436D01*
X9303015Y-14801436D02*
X9303015Y-14820484D01*
X9436348Y-14620484D02*
X9455396Y-14620484D01*
X9455396Y-14620484D02*
X9474444Y-14630008D01*
X9474444Y-14630008D02*
X9483968Y-14639531D01*
X9483968Y-14639531D02*
X9493491Y-14658579D01*
X9493491Y-14658579D02*
X9503015Y-14696674D01*
X9503015Y-14696674D02*
X9503015Y-14744293D01*
X9503015Y-14744293D02*
X9493491Y-14782388D01*
X9493491Y-14782388D02*
X9483968Y-14801436D01*
X9483968Y-14801436D02*
X9474444Y-14810960D01*
X9474444Y-14810960D02*
X9455396Y-14820484D01*
X9455396Y-14820484D02*
X9436348Y-14820484D01*
X9436348Y-14820484D02*
X9417301Y-14810960D01*
X9417301Y-14810960D02*
X9407777Y-14801436D01*
X9407777Y-14801436D02*
X9398253Y-14782388D01*
X9398253Y-14782388D02*
X9388729Y-14744293D01*
X9388729Y-14744293D02*
X9388729Y-14696674D01*
X9388729Y-14696674D02*
X9398253Y-14658579D01*
X9398253Y-14658579D02*
X9407777Y-14639531D01*
X9407777Y-14639531D02*
X9417301Y-14630008D01*
X9417301Y-14630008D02*
X9436348Y-14620484D01*
X9569682Y-14620484D02*
X9693491Y-14620484D01*
X9693491Y-14620484D02*
X9626825Y-14696674D01*
X9626825Y-14696674D02*
X9655396Y-14696674D01*
X9655396Y-14696674D02*
X9674444Y-14706198D01*
X9674444Y-14706198D02*
X9683968Y-14715722D01*
X9683968Y-14715722D02*
X9693491Y-14734769D01*
X9693491Y-14734769D02*
X9693491Y-14782388D01*
X9693491Y-14782388D02*
X9683968Y-14801436D01*
X9683968Y-14801436D02*
X9674444Y-14810960D01*
X9674444Y-14810960D02*
X9655396Y-14820484D01*
X9655396Y-14820484D02*
X9598253Y-14820484D01*
X9598253Y-14820484D02*
X9579206Y-14810960D01*
X9579206Y-14810960D02*
X9569682Y-14801436D01*
X9874444Y-14620484D02*
X9779206Y-14620484D01*
X9779206Y-14620484D02*
X9769682Y-14715722D01*
X9769682Y-14715722D02*
X9779206Y-14706198D01*
X9779206Y-14706198D02*
X9798253Y-14696674D01*
X9798253Y-14696674D02*
X9845872Y-14696674D01*
X9845872Y-14696674D02*
X9864920Y-14706198D01*
X9864920Y-14706198D02*
X9874444Y-14715722D01*
X9874444Y-14715722D02*
X9883968Y-14734769D01*
X9883968Y-14734769D02*
X9883968Y-14782388D01*
X9883968Y-14782388D02*
X9874444Y-14801436D01*
X9874444Y-14801436D02*
X9864920Y-14810960D01*
X9864920Y-14810960D02*
X9845872Y-14820484D01*
X9845872Y-14820484D02*
X9798253Y-14820484D01*
X9798253Y-14820484D02*
X9779206Y-14810960D01*
X9779206Y-14810960D02*
X9769682Y-14801436D01*
X10055396Y-14687150D02*
X10055396Y-14820484D01*
X10007777Y-14610960D02*
X9960158Y-14753817D01*
X9960158Y-14753817D02*
X10083968Y-14753817D01*
X10150634Y-14620484D02*
X10150634Y-14658579D01*
X10226825Y-14620484D02*
X10226825Y-14658579D01*
X10522063Y-14896674D02*
X10512539Y-14887150D01*
X10512539Y-14887150D02*
X10493491Y-14858579D01*
X10493491Y-14858579D02*
X10483968Y-14839531D01*
X10483968Y-14839531D02*
X10474444Y-14810960D01*
X10474444Y-14810960D02*
X10464920Y-14763341D01*
X10464920Y-14763341D02*
X10464920Y-14725246D01*
X10464920Y-14725246D02*
X10474444Y-14677627D01*
X10474444Y-14677627D02*
X10483968Y-14649055D01*
X10483968Y-14649055D02*
X10493491Y-14630008D01*
X10493491Y-14630008D02*
X10512539Y-14601436D01*
X10512539Y-14601436D02*
X10522063Y-14591912D01*
X10588730Y-14639531D02*
X10598253Y-14630008D01*
X10598253Y-14630008D02*
X10617301Y-14620484D01*
X10617301Y-14620484D02*
X10664920Y-14620484D01*
X10664920Y-14620484D02*
X10683968Y-14630008D01*
X10683968Y-14630008D02*
X10693491Y-14639531D01*
X10693491Y-14639531D02*
X10703015Y-14658579D01*
X10703015Y-14658579D02*
X10703015Y-14677627D01*
X10703015Y-14677627D02*
X10693491Y-14706198D01*
X10693491Y-14706198D02*
X10579206Y-14820484D01*
X10579206Y-14820484D02*
X10703015Y-14820484D01*
X10941111Y-14820484D02*
X10941111Y-14620484D01*
X11026825Y-14820484D02*
X11026825Y-14715722D01*
X11026825Y-14715722D02*
X11017301Y-14696674D01*
X11017301Y-14696674D02*
X10998253Y-14687150D01*
X10998253Y-14687150D02*
X10969682Y-14687150D01*
X10969682Y-14687150D02*
X10950634Y-14696674D01*
X10950634Y-14696674D02*
X10941111Y-14706198D01*
X11150634Y-14820484D02*
X11131587Y-14810960D01*
X11131587Y-14810960D02*
X11122063Y-14801436D01*
X11122063Y-14801436D02*
X11112539Y-14782388D01*
X11112539Y-14782388D02*
X11112539Y-14725246D01*
X11112539Y-14725246D02*
X11122063Y-14706198D01*
X11122063Y-14706198D02*
X11131587Y-14696674D01*
X11131587Y-14696674D02*
X11150634Y-14687150D01*
X11150634Y-14687150D02*
X11179206Y-14687150D01*
X11179206Y-14687150D02*
X11198253Y-14696674D01*
X11198253Y-14696674D02*
X11207777Y-14706198D01*
X11207777Y-14706198D02*
X11217301Y-14725246D01*
X11217301Y-14725246D02*
X11217301Y-14782388D01*
X11217301Y-14782388D02*
X11207777Y-14801436D01*
X11207777Y-14801436D02*
X11198253Y-14810960D01*
X11198253Y-14810960D02*
X11179206Y-14820484D01*
X11179206Y-14820484D02*
X11150634Y-14820484D01*
X11331587Y-14820484D02*
X11312539Y-14810960D01*
X11312539Y-14810960D02*
X11303015Y-14791912D01*
X11303015Y-14791912D02*
X11303015Y-14620484D01*
X11483968Y-14810960D02*
X11464920Y-14820484D01*
X11464920Y-14820484D02*
X11426825Y-14820484D01*
X11426825Y-14820484D02*
X11407777Y-14810960D01*
X11407777Y-14810960D02*
X11398253Y-14791912D01*
X11398253Y-14791912D02*
X11398253Y-14715722D01*
X11398253Y-14715722D02*
X11407777Y-14696674D01*
X11407777Y-14696674D02*
X11426825Y-14687150D01*
X11426825Y-14687150D02*
X11464920Y-14687150D01*
X11464920Y-14687150D02*
X11483968Y-14696674D01*
X11483968Y-14696674D02*
X11493491Y-14715722D01*
X11493491Y-14715722D02*
X11493491Y-14734769D01*
X11493491Y-14734769D02*
X11398253Y-14753817D01*
X11569682Y-14810960D02*
X11588730Y-14820484D01*
X11588730Y-14820484D02*
X11626825Y-14820484D01*
X11626825Y-14820484D02*
X11645872Y-14810960D01*
X11645872Y-14810960D02*
X11655396Y-14791912D01*
X11655396Y-14791912D02*
X11655396Y-14782388D01*
X11655396Y-14782388D02*
X11645872Y-14763341D01*
X11645872Y-14763341D02*
X11626825Y-14753817D01*
X11626825Y-14753817D02*
X11598253Y-14753817D01*
X11598253Y-14753817D02*
X11579206Y-14744293D01*
X11579206Y-14744293D02*
X11569682Y-14725246D01*
X11569682Y-14725246D02*
X11569682Y-14715722D01*
X11569682Y-14715722D02*
X11579206Y-14696674D01*
X11579206Y-14696674D02*
X11598253Y-14687150D01*
X11598253Y-14687150D02*
X11626825Y-14687150D01*
X11626825Y-14687150D02*
X11645872Y-14696674D01*
X11722063Y-14896674D02*
X11731587Y-14887150D01*
X11731587Y-14887150D02*
X11750634Y-14858579D01*
X11750634Y-14858579D02*
X11760158Y-14839531D01*
X11760158Y-14839531D02*
X11769682Y-14810960D01*
X11769682Y-14810960D02*
X11779206Y-14763341D01*
X11779206Y-14763341D02*
X11779206Y-14725246D01*
X11779206Y-14725246D02*
X11769682Y-14677627D01*
X11769682Y-14677627D02*
X11760158Y-14649055D01*
X11760158Y-14649055D02*
X11750634Y-14630008D01*
X11750634Y-14630008D02*
X11731587Y-14601436D01*
X11731587Y-14601436D02*
X11722063Y-14591912D01*
D10*
X6932356Y-15028356D02*
X6932356Y-14957644D01*
X6861644Y-14957644D01*
X6861644Y-15028356D01*
X6932356Y-15028356D01*
D11*
X7312539Y-15084484D02*
X7198253Y-15084484D01*
X7255396Y-15084484D02*
X7255396Y-14884484D01*
X7255396Y-14884484D02*
X7236348Y-14913055D01*
X7236348Y-14913055D02*
X7217301Y-14932103D01*
X7217301Y-14932103D02*
X7198253Y-14941627D01*
X7398253Y-15065436D02*
X7407777Y-15074960D01*
X7407777Y-15074960D02*
X7398253Y-15084484D01*
X7398253Y-15084484D02*
X7388729Y-15074960D01*
X7388729Y-15074960D02*
X7398253Y-15065436D01*
X7398253Y-15065436D02*
X7398253Y-15084484D01*
X7531586Y-14884484D02*
X7550634Y-14884484D01*
X7550634Y-14884484D02*
X7569682Y-14894008D01*
X7569682Y-14894008D02*
X7579205Y-14903531D01*
X7579205Y-14903531D02*
X7588729Y-14922579D01*
X7588729Y-14922579D02*
X7598253Y-14960674D01*
X7598253Y-14960674D02*
X7598253Y-15008293D01*
X7598253Y-15008293D02*
X7588729Y-15046388D01*
X7588729Y-15046388D02*
X7579205Y-15065436D01*
X7579205Y-15065436D02*
X7569682Y-15074960D01*
X7569682Y-15074960D02*
X7550634Y-15084484D01*
X7550634Y-15084484D02*
X7531586Y-15084484D01*
X7531586Y-15084484D02*
X7512539Y-15074960D01*
X7512539Y-15074960D02*
X7503015Y-15065436D01*
X7503015Y-15065436D02*
X7493491Y-15046388D01*
X7493491Y-15046388D02*
X7483967Y-15008293D01*
X7483967Y-15008293D02*
X7483967Y-14960674D01*
X7483967Y-14960674D02*
X7493491Y-14922579D01*
X7493491Y-14922579D02*
X7503015Y-14903531D01*
X7503015Y-14903531D02*
X7512539Y-14894008D01*
X7512539Y-14894008D02*
X7531586Y-14884484D01*
X7722062Y-14884484D02*
X7741110Y-14884484D01*
X7741110Y-14884484D02*
X7760158Y-14894008D01*
X7760158Y-14894008D02*
X7769682Y-14903531D01*
X7769682Y-14903531D02*
X7779205Y-14922579D01*
X7779205Y-14922579D02*
X7788729Y-14960674D01*
X7788729Y-14960674D02*
X7788729Y-15008293D01*
X7788729Y-15008293D02*
X7779205Y-15046388D01*
X7779205Y-15046388D02*
X7769682Y-15065436D01*
X7769682Y-15065436D02*
X7760158Y-15074960D01*
X7760158Y-15074960D02*
X7741110Y-15084484D01*
X7741110Y-15084484D02*
X7722062Y-15084484D01*
X7722062Y-15084484D02*
X7703015Y-15074960D01*
X7703015Y-15074960D02*
X7693491Y-15065436D01*
X7693491Y-15065436D02*
X7683967Y-15046388D01*
X7683967Y-15046388D02*
X7674443Y-15008293D01*
X7674443Y-15008293D02*
X7674443Y-14960674D01*
X7674443Y-14960674D02*
X7683967Y-14922579D01*
X7683967Y-14922579D02*
X7693491Y-14903531D01*
X7693491Y-14903531D02*
X7703015Y-14894008D01*
X7703015Y-14894008D02*
X7722062Y-14884484D01*
X7912539Y-14884484D02*
X7931586Y-14884484D01*
X7931586Y-14884484D02*
X7950634Y-14894008D01*
X7950634Y-14894008D02*
X7960158Y-14903531D01*
X7960158Y-14903531D02*
X7969682Y-14922579D01*
X7969682Y-14922579D02*
X7979205Y-14960674D01*
X7979205Y-14960674D02*
X7979205Y-15008293D01*
X7979205Y-15008293D02*
X7969682Y-15046388D01*
X7969682Y-15046388D02*
X7960158Y-15065436D01*
X7960158Y-15065436D02*
X7950634Y-15074960D01*
X7950634Y-15074960D02*
X7931586Y-15084484D01*
X7931586Y-15084484D02*
X7912539Y-15084484D01*
X7912539Y-15084484D02*
X7893491Y-15074960D01*
X7893491Y-15074960D02*
X7883967Y-15065436D01*
X7883967Y-15065436D02*
X7874443Y-15046388D01*
X7874443Y-15046388D02*
X7864920Y-15008293D01*
X7864920Y-15008293D02*
X7864920Y-14960674D01*
X7864920Y-14960674D02*
X7874443Y-14922579D01*
X7874443Y-14922579D02*
X7883967Y-14903531D01*
X7883967Y-14903531D02*
X7893491Y-14894008D01*
X7893491Y-14894008D02*
X7912539Y-14884484D01*
X8064920Y-15084484D02*
X8064920Y-14951150D01*
X8064920Y-14970198D02*
X8074443Y-14960674D01*
X8074443Y-14960674D02*
X8093491Y-14951150D01*
X8093491Y-14951150D02*
X8122063Y-14951150D01*
X8122063Y-14951150D02*
X8141110Y-14960674D01*
X8141110Y-14960674D02*
X8150634Y-14979722D01*
X8150634Y-14979722D02*
X8150634Y-15084484D01*
X8150634Y-14979722D02*
X8160158Y-14960674D01*
X8160158Y-14960674D02*
X8179205Y-14951150D01*
X8179205Y-14951150D02*
X8207777Y-14951150D01*
X8207777Y-14951150D02*
X8226824Y-14960674D01*
X8226824Y-14960674D02*
X8236348Y-14979722D01*
X8236348Y-14979722D02*
X8236348Y-15084484D01*
X8331586Y-15084484D02*
X8331586Y-14951150D01*
X8331586Y-14970198D02*
X8341110Y-14960674D01*
X8341110Y-14960674D02*
X8360158Y-14951150D01*
X8360158Y-14951150D02*
X8388729Y-14951150D01*
X8388729Y-14951150D02*
X8407777Y-14960674D01*
X8407777Y-14960674D02*
X8417301Y-14979722D01*
X8417301Y-14979722D02*
X8417301Y-15084484D01*
X8417301Y-14979722D02*
X8426825Y-14960674D01*
X8426825Y-14960674D02*
X8445872Y-14951150D01*
X8445872Y-14951150D02*
X8474444Y-14951150D01*
X8474444Y-14951150D02*
X8493491Y-14960674D01*
X8493491Y-14960674D02*
X8503015Y-14979722D01*
X8503015Y-14979722D02*
X8503015Y-15084484D01*
X8893491Y-14874960D02*
X8722063Y-15132103D01*
X9150634Y-14884484D02*
X9169682Y-14884484D01*
X9169682Y-14884484D02*
X9188729Y-14894008D01*
X9188729Y-14894008D02*
X9198253Y-14903531D01*
X9198253Y-14903531D02*
X9207777Y-14922579D01*
X9207777Y-14922579D02*
X9217301Y-14960674D01*
X9217301Y-14960674D02*
X9217301Y-15008293D01*
X9217301Y-15008293D02*
X9207777Y-15046388D01*
X9207777Y-15046388D02*
X9198253Y-15065436D01*
X9198253Y-15065436D02*
X9188729Y-15074960D01*
X9188729Y-15074960D02*
X9169682Y-15084484D01*
X9169682Y-15084484D02*
X9150634Y-15084484D01*
X9150634Y-15084484D02*
X9131587Y-15074960D01*
X9131587Y-15074960D02*
X9122063Y-15065436D01*
X9122063Y-15065436D02*
X9112539Y-15046388D01*
X9112539Y-15046388D02*
X9103015Y-15008293D01*
X9103015Y-15008293D02*
X9103015Y-14960674D01*
X9103015Y-14960674D02*
X9112539Y-14922579D01*
X9112539Y-14922579D02*
X9122063Y-14903531D01*
X9122063Y-14903531D02*
X9131587Y-14894008D01*
X9131587Y-14894008D02*
X9150634Y-14884484D01*
X9303015Y-15065436D02*
X9312539Y-15074960D01*
X9312539Y-15074960D02*
X9303015Y-15084484D01*
X9303015Y-15084484D02*
X9293491Y-15074960D01*
X9293491Y-15074960D02*
X9303015Y-15065436D01*
X9303015Y-15065436D02*
X9303015Y-15084484D01*
X9436348Y-14884484D02*
X9455396Y-14884484D01*
X9455396Y-14884484D02*
X9474444Y-14894008D01*
X9474444Y-14894008D02*
X9483968Y-14903531D01*
X9483968Y-14903531D02*
X9493491Y-14922579D01*
X9493491Y-14922579D02*
X9503015Y-14960674D01*
X9503015Y-14960674D02*
X9503015Y-15008293D01*
X9503015Y-15008293D02*
X9493491Y-15046388D01*
X9493491Y-15046388D02*
X9483968Y-15065436D01*
X9483968Y-15065436D02*
X9474444Y-15074960D01*
X9474444Y-15074960D02*
X9455396Y-15084484D01*
X9455396Y-15084484D02*
X9436348Y-15084484D01*
X9436348Y-15084484D02*
X9417301Y-15074960D01*
X9417301Y-15074960D02*
X9407777Y-15065436D01*
X9407777Y-15065436D02*
X9398253Y-15046388D01*
X9398253Y-15046388D02*
X9388729Y-15008293D01*
X9388729Y-15008293D02*
X9388729Y-14960674D01*
X9388729Y-14960674D02*
X9398253Y-14922579D01*
X9398253Y-14922579D02*
X9407777Y-14903531D01*
X9407777Y-14903531D02*
X9417301Y-14894008D01*
X9417301Y-14894008D02*
X9436348Y-14884484D01*
X9569682Y-14884484D02*
X9693491Y-14884484D01*
X9693491Y-14884484D02*
X9626825Y-14960674D01*
X9626825Y-14960674D02*
X9655396Y-14960674D01*
X9655396Y-14960674D02*
X9674444Y-14970198D01*
X9674444Y-14970198D02*
X9683968Y-14979722D01*
X9683968Y-14979722D02*
X9693491Y-14998769D01*
X9693491Y-14998769D02*
X9693491Y-15046388D01*
X9693491Y-15046388D02*
X9683968Y-15065436D01*
X9683968Y-15065436D02*
X9674444Y-15074960D01*
X9674444Y-15074960D02*
X9655396Y-15084484D01*
X9655396Y-15084484D02*
X9598253Y-15084484D01*
X9598253Y-15084484D02*
X9579206Y-15074960D01*
X9579206Y-15074960D02*
X9569682Y-15065436D01*
X9788729Y-15084484D02*
X9826825Y-15084484D01*
X9826825Y-15084484D02*
X9845872Y-15074960D01*
X9845872Y-15074960D02*
X9855396Y-15065436D01*
X9855396Y-15065436D02*
X9874444Y-15036865D01*
X9874444Y-15036865D02*
X9883968Y-14998769D01*
X9883968Y-14998769D02*
X9883968Y-14922579D01*
X9883968Y-14922579D02*
X9874444Y-14903531D01*
X9874444Y-14903531D02*
X9864920Y-14894008D01*
X9864920Y-14894008D02*
X9845872Y-14884484D01*
X9845872Y-14884484D02*
X9807777Y-14884484D01*
X9807777Y-14884484D02*
X9788729Y-14894008D01*
X9788729Y-14894008D02*
X9779206Y-14903531D01*
X9779206Y-14903531D02*
X9769682Y-14922579D01*
X9769682Y-14922579D02*
X9769682Y-14970198D01*
X9769682Y-14970198D02*
X9779206Y-14989246D01*
X9779206Y-14989246D02*
X9788729Y-14998769D01*
X9788729Y-14998769D02*
X9807777Y-15008293D01*
X9807777Y-15008293D02*
X9845872Y-15008293D01*
X9845872Y-15008293D02*
X9864920Y-14998769D01*
X9864920Y-14998769D02*
X9874444Y-14989246D01*
X9874444Y-14989246D02*
X9883968Y-14970198D01*
X10055396Y-14951150D02*
X10055396Y-15084484D01*
X10007777Y-14874960D02*
X9960158Y-15017817D01*
X9960158Y-15017817D02*
X10083968Y-15017817D01*
X10150634Y-14884484D02*
X10150634Y-14922579D01*
X10226825Y-14884484D02*
X10226825Y-14922579D01*
X10522063Y-15160674D02*
X10512539Y-15151150D01*
X10512539Y-15151150D02*
X10493491Y-15122579D01*
X10493491Y-15122579D02*
X10483968Y-15103531D01*
X10483968Y-15103531D02*
X10474444Y-15074960D01*
X10474444Y-15074960D02*
X10464920Y-15027341D01*
X10464920Y-15027341D02*
X10464920Y-14989246D01*
X10464920Y-14989246D02*
X10474444Y-14941627D01*
X10474444Y-14941627D02*
X10483968Y-14913055D01*
X10483968Y-14913055D02*
X10493491Y-14894008D01*
X10493491Y-14894008D02*
X10512539Y-14865436D01*
X10512539Y-14865436D02*
X10522063Y-14855912D01*
X10579206Y-14884484D02*
X10703015Y-14884484D01*
X10703015Y-14884484D02*
X10636349Y-14960674D01*
X10636349Y-14960674D02*
X10664920Y-14960674D01*
X10664920Y-14960674D02*
X10683968Y-14970198D01*
X10683968Y-14970198D02*
X10693491Y-14979722D01*
X10693491Y-14979722D02*
X10703015Y-14998769D01*
X10703015Y-14998769D02*
X10703015Y-15046388D01*
X10703015Y-15046388D02*
X10693491Y-15065436D01*
X10693491Y-15065436D02*
X10683968Y-15074960D01*
X10683968Y-15074960D02*
X10664920Y-15084484D01*
X10664920Y-15084484D02*
X10607777Y-15084484D01*
X10607777Y-15084484D02*
X10588730Y-15074960D01*
X10588730Y-15074960D02*
X10579206Y-15065436D01*
X10941111Y-15084484D02*
X10941111Y-14884484D01*
X11026825Y-15084484D02*
X11026825Y-14979722D01*
X11026825Y-14979722D02*
X11017301Y-14960674D01*
X11017301Y-14960674D02*
X10998253Y-14951150D01*
X10998253Y-14951150D02*
X10969682Y-14951150D01*
X10969682Y-14951150D02*
X10950634Y-14960674D01*
X10950634Y-14960674D02*
X10941111Y-14970198D01*
X11150634Y-15084484D02*
X11131587Y-15074960D01*
X11131587Y-15074960D02*
X11122063Y-15065436D01*
X11122063Y-15065436D02*
X11112539Y-15046388D01*
X11112539Y-15046388D02*
X11112539Y-14989246D01*
X11112539Y-14989246D02*
X11122063Y-14970198D01*
X11122063Y-14970198D02*
X11131587Y-14960674D01*
X11131587Y-14960674D02*
X11150634Y-14951150D01*
X11150634Y-14951150D02*
X11179206Y-14951150D01*
X11179206Y-14951150D02*
X11198253Y-14960674D01*
X11198253Y-14960674D02*
X11207777Y-14970198D01*
X11207777Y-14970198D02*
X11217301Y-14989246D01*
X11217301Y-14989246D02*
X11217301Y-15046388D01*
X11217301Y-15046388D02*
X11207777Y-15065436D01*
X11207777Y-15065436D02*
X11198253Y-15074960D01*
X11198253Y-15074960D02*
X11179206Y-15084484D01*
X11179206Y-15084484D02*
X11150634Y-15084484D01*
X11331587Y-15084484D02*
X11312539Y-15074960D01*
X11312539Y-15074960D02*
X11303015Y-15055912D01*
X11303015Y-15055912D02*
X11303015Y-14884484D01*
X11483968Y-15074960D02*
X11464920Y-15084484D01*
X11464920Y-15084484D02*
X11426825Y-15084484D01*
X11426825Y-15084484D02*
X11407777Y-15074960D01*
X11407777Y-15074960D02*
X11398253Y-15055912D01*
X11398253Y-15055912D02*
X11398253Y-14979722D01*
X11398253Y-14979722D02*
X11407777Y-14960674D01*
X11407777Y-14960674D02*
X11426825Y-14951150D01*
X11426825Y-14951150D02*
X11464920Y-14951150D01*
X11464920Y-14951150D02*
X11483968Y-14960674D01*
X11483968Y-14960674D02*
X11493491Y-14979722D01*
X11493491Y-14979722D02*
X11493491Y-14998769D01*
X11493491Y-14998769D02*
X11398253Y-15017817D01*
X11569682Y-15074960D02*
X11588730Y-15084484D01*
X11588730Y-15084484D02*
X11626825Y-15084484D01*
X11626825Y-15084484D02*
X11645872Y-15074960D01*
X11645872Y-15074960D02*
X11655396Y-15055912D01*
X11655396Y-15055912D02*
X11655396Y-15046388D01*
X11655396Y-15046388D02*
X11645872Y-15027341D01*
X11645872Y-15027341D02*
X11626825Y-15017817D01*
X11626825Y-15017817D02*
X11598253Y-15017817D01*
X11598253Y-15017817D02*
X11579206Y-15008293D01*
X11579206Y-15008293D02*
X11569682Y-14989246D01*
X11569682Y-14989246D02*
X11569682Y-14979722D01*
X11569682Y-14979722D02*
X11579206Y-14960674D01*
X11579206Y-14960674D02*
X11598253Y-14951150D01*
X11598253Y-14951150D02*
X11626825Y-14951150D01*
X11626825Y-14951150D02*
X11645872Y-14960674D01*
X11722063Y-15160674D02*
X11731587Y-15151150D01*
X11731587Y-15151150D02*
X11750634Y-15122579D01*
X11750634Y-15122579D02*
X11760158Y-15103531D01*
X11760158Y-15103531D02*
X11769682Y-15074960D01*
X11769682Y-15074960D02*
X11779206Y-15027341D01*
X11779206Y-15027341D02*
X11779206Y-14989246D01*
X11779206Y-14989246D02*
X11769682Y-14941627D01*
X11769682Y-14941627D02*
X11760158Y-14913055D01*
X11760158Y-14913055D02*
X11750634Y-14894008D01*
X11750634Y-14894008D02*
X11731587Y-14865436D01*
X11731587Y-14865436D02*
X11722063Y-14855912D01*
M02*
