G04 #@! TF.GenerationSoftware,KiCad,Pcbnew,7.0.9*
G04 #@! TF.CreationDate,2024-02-04T19:54:10+01:00*
G04 #@! TF.ProjectId,Toolbox,546f6f6c-626f-4782-9e6b-696361645f70,rev?*
G04 #@! TF.SameCoordinates,Original*
G04 #@! TF.FileFunction,Legend,Top*
G04 #@! TF.FilePolarity,Positive*
%FSLAX46Y46*%
G04 Gerber Fmt 4.6, Leading zero omitted, Abs format (unit mm)*
G04 Created by KiCad (PCBNEW 7.0.9) date 2024-02-04 19:54:10*
%MOMM*%
%LPD*%
G01*
G04 APERTURE LIST*
G04 Aperture macros list*
%AMHorizOval*
0 Thick line with rounded ends*
0 $1 width*
0 $2 $3 position (X,Y) of the first rounded end (center of the circle)*
0 $4 $5 position (X,Y) of the second rounded end (center of the circle)*
0 Add line between two ends*
20,1,$1,$2,$3,$4,$5,0*
0 Add two circle primitives to create the rounded ends*
1,1,$1,$2,$3*
1,1,$1,$4,$5*%
%AMRotRect*
0 Rectangle, with rotation*
0 The origin of the aperture is its center*
0 $1 length*
0 $2 width*
0 $3 Rotation angle, in degrees counterclockwise*
0 Add horizontal line*
21,1,$1,$2,0,0,$3*%
G04 Aperture macros list end*
%ADD10C,0.150000*%
%ADD11C,0.200000*%
%ADD12C,0.120000*%
%ADD13R,5.000000X2.000000*%
%ADD14RotRect,2.000000X5.000000X30.000000*%
%ADD15RotRect,2.000000X5.000000X210.000000*%
%ADD16RotRect,2.000000X5.000000X330.000000*%
%ADD17R,6.000000X2.650000*%
%ADD18C,17.800000*%
%ADD19RotRect,2.000000X5.000000X150.000000*%
%ADD20C,1.600000*%
%ADD21R,1.600000X1.600000*%
%ADD22HorizOval,1.600000X0.000000X0.000000X0.000000X0.000000X0*%
%ADD23HorizOval,1.600000X0.000000X0.000000X0.000000X0.000000X0*%
%ADD24HorizOval,1.600000X0.000000X0.000000X0.000000X0.000000X0*%
%ADD25O,1.600000X1.600000*%
%ADD26RotRect,2.400000X1.600000X60.000000*%
%ADD27HorizOval,1.600000X0.200000X0.346410X-0.200000X-0.346410X0*%
%ADD28R,1.560000X1.560000*%
%ADD29C,1.560000*%
%ADD30C,1.800000*%
%ADD31RotRect,1.800000X1.800000X30.000000*%
%ADD32HorizOval,1.600000X0.000000X0.000000X0.000000X0.000000X0*%
G04 APERTURE END LIST*
D10*
X90129160Y-101165057D02*
X90176779Y-101117438D01*
X90176779Y-101117438D02*
X90272017Y-101069819D01*
X90272017Y-101069819D02*
X90510112Y-101069819D01*
X90510112Y-101069819D02*
X90605350Y-101117438D01*
X90605350Y-101117438D02*
X90652969Y-101165057D01*
X90652969Y-101165057D02*
X90700588Y-101260295D01*
X90700588Y-101260295D02*
X90700588Y-101355533D01*
X90700588Y-101355533D02*
X90652969Y-101498390D01*
X90652969Y-101498390D02*
X90081541Y-102069819D01*
X90081541Y-102069819D02*
X90700588Y-102069819D01*
X91033922Y-102069819D02*
X91557731Y-101403152D01*
X91033922Y-101403152D02*
X91557731Y-102069819D01*
X92605351Y-101069819D02*
X93224398Y-101069819D01*
X93224398Y-101069819D02*
X92891065Y-101450771D01*
X92891065Y-101450771D02*
X93033922Y-101450771D01*
X93033922Y-101450771D02*
X93129160Y-101498390D01*
X93129160Y-101498390D02*
X93176779Y-101546009D01*
X93176779Y-101546009D02*
X93224398Y-101641247D01*
X93224398Y-101641247D02*
X93224398Y-101879342D01*
X93224398Y-101879342D02*
X93176779Y-101974580D01*
X93176779Y-101974580D02*
X93129160Y-102022200D01*
X93129160Y-102022200D02*
X93033922Y-102069819D01*
X93033922Y-102069819D02*
X92748208Y-102069819D01*
X92748208Y-102069819D02*
X92652970Y-102022200D01*
X92652970Y-102022200D02*
X92605351Y-101974580D01*
X93510113Y-101069819D02*
X93843446Y-102069819D01*
X93843446Y-102069819D02*
X94176779Y-101069819D01*
X95272018Y-102069819D02*
X95272018Y-101069819D01*
X95272018Y-101450771D02*
X95367256Y-101403152D01*
X95367256Y-101403152D02*
X95557732Y-101403152D01*
X95557732Y-101403152D02*
X95652970Y-101450771D01*
X95652970Y-101450771D02*
X95700589Y-101498390D01*
X95700589Y-101498390D02*
X95748208Y-101593628D01*
X95748208Y-101593628D02*
X95748208Y-101879342D01*
X95748208Y-101879342D02*
X95700589Y-101974580D01*
X95700589Y-101974580D02*
X95652970Y-102022200D01*
X95652970Y-102022200D02*
X95557732Y-102069819D01*
X95557732Y-102069819D02*
X95367256Y-102069819D01*
X95367256Y-102069819D02*
X95272018Y-102022200D01*
X96605351Y-102069819D02*
X96605351Y-101546009D01*
X96605351Y-101546009D02*
X96557732Y-101450771D01*
X96557732Y-101450771D02*
X96462494Y-101403152D01*
X96462494Y-101403152D02*
X96272018Y-101403152D01*
X96272018Y-101403152D02*
X96176780Y-101450771D01*
X96605351Y-102022200D02*
X96510113Y-102069819D01*
X96510113Y-102069819D02*
X96272018Y-102069819D01*
X96272018Y-102069819D02*
X96176780Y-102022200D01*
X96176780Y-102022200D02*
X96129161Y-101926961D01*
X96129161Y-101926961D02*
X96129161Y-101831723D01*
X96129161Y-101831723D02*
X96176780Y-101736485D01*
X96176780Y-101736485D02*
X96272018Y-101688866D01*
X96272018Y-101688866D02*
X96510113Y-101688866D01*
X96510113Y-101688866D02*
X96605351Y-101641247D01*
X96938685Y-101403152D02*
X97319637Y-101403152D01*
X97081542Y-101069819D02*
X97081542Y-101926961D01*
X97081542Y-101926961D02*
X97129161Y-102022200D01*
X97129161Y-102022200D02*
X97224399Y-102069819D01*
X97224399Y-102069819D02*
X97319637Y-102069819D01*
X97510114Y-101403152D02*
X97891066Y-101403152D01*
X97652971Y-101069819D02*
X97652971Y-101926961D01*
X97652971Y-101926961D02*
X97700590Y-102022200D01*
X97700590Y-102022200D02*
X97795828Y-102069819D01*
X97795828Y-102069819D02*
X97891066Y-102069819D01*
X98605352Y-102022200D02*
X98510114Y-102069819D01*
X98510114Y-102069819D02*
X98319638Y-102069819D01*
X98319638Y-102069819D02*
X98224400Y-102022200D01*
X98224400Y-102022200D02*
X98176781Y-101926961D01*
X98176781Y-101926961D02*
X98176781Y-101546009D01*
X98176781Y-101546009D02*
X98224400Y-101450771D01*
X98224400Y-101450771D02*
X98319638Y-101403152D01*
X98319638Y-101403152D02*
X98510114Y-101403152D01*
X98510114Y-101403152D02*
X98605352Y-101450771D01*
X98605352Y-101450771D02*
X98652971Y-101546009D01*
X98652971Y-101546009D02*
X98652971Y-101641247D01*
X98652971Y-101641247D02*
X98176781Y-101736485D01*
X99081543Y-102069819D02*
X99081543Y-101403152D01*
X99081543Y-101593628D02*
X99129162Y-101498390D01*
X99129162Y-101498390D02*
X99176781Y-101450771D01*
X99176781Y-101450771D02*
X99272019Y-101403152D01*
X99272019Y-101403152D02*
X99367257Y-101403152D01*
X99605353Y-101403152D02*
X99843448Y-102069819D01*
X100081543Y-101403152D02*
X99843448Y-102069819D01*
X99843448Y-102069819D02*
X99748210Y-102307914D01*
X99748210Y-102307914D02*
X99700591Y-102355533D01*
X99700591Y-102355533D02*
X99605353Y-102403152D01*
X101795829Y-101974580D02*
X101748210Y-102022200D01*
X101748210Y-102022200D02*
X101605353Y-102069819D01*
X101605353Y-102069819D02*
X101510115Y-102069819D01*
X101510115Y-102069819D02*
X101367258Y-102022200D01*
X101367258Y-102022200D02*
X101272020Y-101926961D01*
X101272020Y-101926961D02*
X101224401Y-101831723D01*
X101224401Y-101831723D02*
X101176782Y-101641247D01*
X101176782Y-101641247D02*
X101176782Y-101498390D01*
X101176782Y-101498390D02*
X101224401Y-101307914D01*
X101224401Y-101307914D02*
X101272020Y-101212676D01*
X101272020Y-101212676D02*
X101367258Y-101117438D01*
X101367258Y-101117438D02*
X101510115Y-101069819D01*
X101510115Y-101069819D02*
X101605353Y-101069819D01*
X101605353Y-101069819D02*
X101748210Y-101117438D01*
X101748210Y-101117438D02*
X101795829Y-101165057D01*
X102795829Y-102069819D02*
X102462496Y-101593628D01*
X102224401Y-102069819D02*
X102224401Y-101069819D01*
X102224401Y-101069819D02*
X102605353Y-101069819D01*
X102605353Y-101069819D02*
X102700591Y-101117438D01*
X102700591Y-101117438D02*
X102748210Y-101165057D01*
X102748210Y-101165057D02*
X102795829Y-101260295D01*
X102795829Y-101260295D02*
X102795829Y-101403152D01*
X102795829Y-101403152D02*
X102748210Y-101498390D01*
X102748210Y-101498390D02*
X102700591Y-101546009D01*
X102700591Y-101546009D02*
X102605353Y-101593628D01*
X102605353Y-101593628D02*
X102224401Y-101593628D01*
X103176782Y-101165057D02*
X103224401Y-101117438D01*
X103224401Y-101117438D02*
X103319639Y-101069819D01*
X103319639Y-101069819D02*
X103557734Y-101069819D01*
X103557734Y-101069819D02*
X103652972Y-101117438D01*
X103652972Y-101117438D02*
X103700591Y-101165057D01*
X103700591Y-101165057D02*
X103748210Y-101260295D01*
X103748210Y-101260295D02*
X103748210Y-101355533D01*
X103748210Y-101355533D02*
X103700591Y-101498390D01*
X103700591Y-101498390D02*
X103129163Y-102069819D01*
X103129163Y-102069819D02*
X103748210Y-102069819D01*
X104367258Y-101069819D02*
X104462496Y-101069819D01*
X104462496Y-101069819D02*
X104557734Y-101117438D01*
X104557734Y-101117438D02*
X104605353Y-101165057D01*
X104605353Y-101165057D02*
X104652972Y-101260295D01*
X104652972Y-101260295D02*
X104700591Y-101450771D01*
X104700591Y-101450771D02*
X104700591Y-101688866D01*
X104700591Y-101688866D02*
X104652972Y-101879342D01*
X104652972Y-101879342D02*
X104605353Y-101974580D01*
X104605353Y-101974580D02*
X104557734Y-102022200D01*
X104557734Y-102022200D02*
X104462496Y-102069819D01*
X104462496Y-102069819D02*
X104367258Y-102069819D01*
X104367258Y-102069819D02*
X104272020Y-102022200D01*
X104272020Y-102022200D02*
X104224401Y-101974580D01*
X104224401Y-101974580D02*
X104176782Y-101879342D01*
X104176782Y-101879342D02*
X104129163Y-101688866D01*
X104129163Y-101688866D02*
X104129163Y-101450771D01*
X104129163Y-101450771D02*
X104176782Y-101260295D01*
X104176782Y-101260295D02*
X104224401Y-101165057D01*
X104224401Y-101165057D02*
X104272020Y-101117438D01*
X104272020Y-101117438D02*
X104367258Y-101069819D01*
X105033925Y-101069819D02*
X105700591Y-102069819D01*
X105700591Y-101069819D02*
X105033925Y-102069819D01*
X105986306Y-101069819D02*
X106652972Y-102069819D01*
X106652972Y-101069819D02*
X105986306Y-102069819D01*
X90748207Y-103679819D02*
X90414874Y-103203628D01*
X90176779Y-103679819D02*
X90176779Y-102679819D01*
X90176779Y-102679819D02*
X90557731Y-102679819D01*
X90557731Y-102679819D02*
X90652969Y-102727438D01*
X90652969Y-102727438D02*
X90700588Y-102775057D01*
X90700588Y-102775057D02*
X90748207Y-102870295D01*
X90748207Y-102870295D02*
X90748207Y-103013152D01*
X90748207Y-103013152D02*
X90700588Y-103108390D01*
X90700588Y-103108390D02*
X90652969Y-103156009D01*
X90652969Y-103156009D02*
X90557731Y-103203628D01*
X90557731Y-103203628D02*
X90176779Y-103203628D01*
X91605350Y-103013152D02*
X91605350Y-103679819D01*
X91367255Y-102632200D02*
X91129160Y-103346485D01*
X91129160Y-103346485D02*
X91748207Y-103346485D01*
X92129160Y-103298866D02*
X92891065Y-103298866D01*
X93938683Y-103679819D02*
X93605350Y-103203628D01*
X93367255Y-103679819D02*
X93367255Y-102679819D01*
X93367255Y-102679819D02*
X93748207Y-102679819D01*
X93748207Y-102679819D02*
X93843445Y-102727438D01*
X93843445Y-102727438D02*
X93891064Y-102775057D01*
X93891064Y-102775057D02*
X93938683Y-102870295D01*
X93938683Y-102870295D02*
X93938683Y-103013152D01*
X93938683Y-103013152D02*
X93891064Y-103108390D01*
X93891064Y-103108390D02*
X93843445Y-103156009D01*
X93843445Y-103156009D02*
X93748207Y-103203628D01*
X93748207Y-103203628D02*
X93367255Y-103203628D01*
X94891064Y-103679819D02*
X94319636Y-103679819D01*
X94605350Y-103679819D02*
X94605350Y-102679819D01*
X94605350Y-102679819D02*
X94510112Y-102822676D01*
X94510112Y-102822676D02*
X94414874Y-102917914D01*
X94414874Y-102917914D02*
X94319636Y-102965533D01*
X95224398Y-102679819D02*
X95843445Y-102679819D01*
X95843445Y-102679819D02*
X95510112Y-103060771D01*
X95510112Y-103060771D02*
X95652969Y-103060771D01*
X95652969Y-103060771D02*
X95748207Y-103108390D01*
X95748207Y-103108390D02*
X95795826Y-103156009D01*
X95795826Y-103156009D02*
X95843445Y-103251247D01*
X95843445Y-103251247D02*
X95843445Y-103489342D01*
X95843445Y-103489342D02*
X95795826Y-103584580D01*
X95795826Y-103584580D02*
X95748207Y-103632200D01*
X95748207Y-103632200D02*
X95652969Y-103679819D01*
X95652969Y-103679819D02*
X95367255Y-103679819D01*
X95367255Y-103679819D02*
X95272017Y-103632200D01*
X95272017Y-103632200D02*
X95224398Y-103584580D01*
X97033922Y-103679819D02*
X97033922Y-103013152D01*
X97033922Y-103108390D02*
X97081541Y-103060771D01*
X97081541Y-103060771D02*
X97176779Y-103013152D01*
X97176779Y-103013152D02*
X97319636Y-103013152D01*
X97319636Y-103013152D02*
X97414874Y-103060771D01*
X97414874Y-103060771D02*
X97462493Y-103156009D01*
X97462493Y-103156009D02*
X97462493Y-103679819D01*
X97462493Y-103156009D02*
X97510112Y-103060771D01*
X97510112Y-103060771D02*
X97605350Y-103013152D01*
X97605350Y-103013152D02*
X97748207Y-103013152D01*
X97748207Y-103013152D02*
X97843446Y-103060771D01*
X97843446Y-103060771D02*
X97891065Y-103156009D01*
X97891065Y-103156009D02*
X97891065Y-103679819D01*
X98367255Y-103679819D02*
X98367255Y-103013152D01*
X98367255Y-102679819D02*
X98319636Y-102727438D01*
X98319636Y-102727438D02*
X98367255Y-102775057D01*
X98367255Y-102775057D02*
X98414874Y-102727438D01*
X98414874Y-102727438D02*
X98367255Y-102679819D01*
X98367255Y-102679819D02*
X98367255Y-102775057D01*
X98843445Y-103013152D02*
X98843445Y-103679819D01*
X98843445Y-103108390D02*
X98891064Y-103060771D01*
X98891064Y-103060771D02*
X98986302Y-103013152D01*
X98986302Y-103013152D02*
X99129159Y-103013152D01*
X99129159Y-103013152D02*
X99224397Y-103060771D01*
X99224397Y-103060771D02*
X99272016Y-103156009D01*
X99272016Y-103156009D02*
X99272016Y-103679819D01*
X100938683Y-102679819D02*
X100748207Y-102679819D01*
X100748207Y-102679819D02*
X100652969Y-102727438D01*
X100652969Y-102727438D02*
X100605350Y-102775057D01*
X100605350Y-102775057D02*
X100510112Y-102917914D01*
X100510112Y-102917914D02*
X100462493Y-103108390D01*
X100462493Y-103108390D02*
X100462493Y-103489342D01*
X100462493Y-103489342D02*
X100510112Y-103584580D01*
X100510112Y-103584580D02*
X100557731Y-103632200D01*
X100557731Y-103632200D02*
X100652969Y-103679819D01*
X100652969Y-103679819D02*
X100843445Y-103679819D01*
X100843445Y-103679819D02*
X100938683Y-103632200D01*
X100938683Y-103632200D02*
X100986302Y-103584580D01*
X100986302Y-103584580D02*
X101033921Y-103489342D01*
X101033921Y-103489342D02*
X101033921Y-103251247D01*
X101033921Y-103251247D02*
X100986302Y-103156009D01*
X100986302Y-103156009D02*
X100938683Y-103108390D01*
X100938683Y-103108390D02*
X100843445Y-103060771D01*
X100843445Y-103060771D02*
X100652969Y-103060771D01*
X100652969Y-103060771D02*
X100557731Y-103108390D01*
X100557731Y-103108390D02*
X100510112Y-103156009D01*
X100510112Y-103156009D02*
X100462493Y-103251247D01*
X101891064Y-102679819D02*
X101700588Y-102679819D01*
X101700588Y-102679819D02*
X101605350Y-102727438D01*
X101605350Y-102727438D02*
X101557731Y-102775057D01*
X101557731Y-102775057D02*
X101462493Y-102917914D01*
X101462493Y-102917914D02*
X101414874Y-103108390D01*
X101414874Y-103108390D02*
X101414874Y-103489342D01*
X101414874Y-103489342D02*
X101462493Y-103584580D01*
X101462493Y-103584580D02*
X101510112Y-103632200D01*
X101510112Y-103632200D02*
X101605350Y-103679819D01*
X101605350Y-103679819D02*
X101795826Y-103679819D01*
X101795826Y-103679819D02*
X101891064Y-103632200D01*
X101891064Y-103632200D02*
X101938683Y-103584580D01*
X101938683Y-103584580D02*
X101986302Y-103489342D01*
X101986302Y-103489342D02*
X101986302Y-103251247D01*
X101986302Y-103251247D02*
X101938683Y-103156009D01*
X101938683Y-103156009D02*
X101891064Y-103108390D01*
X101891064Y-103108390D02*
X101795826Y-103060771D01*
X101795826Y-103060771D02*
X101605350Y-103060771D01*
X101605350Y-103060771D02*
X101510112Y-103108390D01*
X101510112Y-103108390D02*
X101462493Y-103156009D01*
X101462493Y-103156009D02*
X101414874Y-103251247D01*
X102605350Y-102679819D02*
X102700588Y-102679819D01*
X102700588Y-102679819D02*
X102795826Y-102727438D01*
X102795826Y-102727438D02*
X102843445Y-102775057D01*
X102843445Y-102775057D02*
X102891064Y-102870295D01*
X102891064Y-102870295D02*
X102938683Y-103060771D01*
X102938683Y-103060771D02*
X102938683Y-103298866D01*
X102938683Y-103298866D02*
X102891064Y-103489342D01*
X102891064Y-103489342D02*
X102843445Y-103584580D01*
X102843445Y-103584580D02*
X102795826Y-103632200D01*
X102795826Y-103632200D02*
X102700588Y-103679819D01*
X102700588Y-103679819D02*
X102605350Y-103679819D01*
X102605350Y-103679819D02*
X102510112Y-103632200D01*
X102510112Y-103632200D02*
X102462493Y-103584580D01*
X102462493Y-103584580D02*
X102414874Y-103489342D01*
X102414874Y-103489342D02*
X102367255Y-103298866D01*
X102367255Y-103298866D02*
X102367255Y-103060771D01*
X102367255Y-103060771D02*
X102414874Y-102870295D01*
X102414874Y-102870295D02*
X102462493Y-102775057D01*
X102462493Y-102775057D02*
X102510112Y-102727438D01*
X102510112Y-102727438D02*
X102605350Y-102679819D01*
X103367255Y-103679819D02*
X103367255Y-102679819D01*
X103462493Y-103298866D02*
X103748207Y-103679819D01*
X103748207Y-103013152D02*
X103367255Y-103394104D01*
D11*
X90114435Y-95891028D02*
X90971578Y-95891028D01*
X90543006Y-97391028D02*
X90543006Y-95891028D01*
X91685863Y-97391028D02*
X91543006Y-97319600D01*
X91543006Y-97319600D02*
X91471577Y-97248171D01*
X91471577Y-97248171D02*
X91400149Y-97105314D01*
X91400149Y-97105314D02*
X91400149Y-96676742D01*
X91400149Y-96676742D02*
X91471577Y-96533885D01*
X91471577Y-96533885D02*
X91543006Y-96462457D01*
X91543006Y-96462457D02*
X91685863Y-96391028D01*
X91685863Y-96391028D02*
X91900149Y-96391028D01*
X91900149Y-96391028D02*
X92043006Y-96462457D01*
X92043006Y-96462457D02*
X92114435Y-96533885D01*
X92114435Y-96533885D02*
X92185863Y-96676742D01*
X92185863Y-96676742D02*
X92185863Y-97105314D01*
X92185863Y-97105314D02*
X92114435Y-97248171D01*
X92114435Y-97248171D02*
X92043006Y-97319600D01*
X92043006Y-97319600D02*
X91900149Y-97391028D01*
X91900149Y-97391028D02*
X91685863Y-97391028D01*
X93043006Y-97391028D02*
X92900149Y-97319600D01*
X92900149Y-97319600D02*
X92828720Y-97248171D01*
X92828720Y-97248171D02*
X92757292Y-97105314D01*
X92757292Y-97105314D02*
X92757292Y-96676742D01*
X92757292Y-96676742D02*
X92828720Y-96533885D01*
X92828720Y-96533885D02*
X92900149Y-96462457D01*
X92900149Y-96462457D02*
X93043006Y-96391028D01*
X93043006Y-96391028D02*
X93257292Y-96391028D01*
X93257292Y-96391028D02*
X93400149Y-96462457D01*
X93400149Y-96462457D02*
X93471578Y-96533885D01*
X93471578Y-96533885D02*
X93543006Y-96676742D01*
X93543006Y-96676742D02*
X93543006Y-97105314D01*
X93543006Y-97105314D02*
X93471578Y-97248171D01*
X93471578Y-97248171D02*
X93400149Y-97319600D01*
X93400149Y-97319600D02*
X93257292Y-97391028D01*
X93257292Y-97391028D02*
X93043006Y-97391028D01*
X94400149Y-97391028D02*
X94257292Y-97319600D01*
X94257292Y-97319600D02*
X94185863Y-97176742D01*
X94185863Y-97176742D02*
X94185863Y-95891028D01*
X94971577Y-97391028D02*
X94971577Y-95891028D01*
X94971577Y-96462457D02*
X95114435Y-96391028D01*
X95114435Y-96391028D02*
X95400149Y-96391028D01*
X95400149Y-96391028D02*
X95543006Y-96462457D01*
X95543006Y-96462457D02*
X95614435Y-96533885D01*
X95614435Y-96533885D02*
X95685863Y-96676742D01*
X95685863Y-96676742D02*
X95685863Y-97105314D01*
X95685863Y-97105314D02*
X95614435Y-97248171D01*
X95614435Y-97248171D02*
X95543006Y-97319600D01*
X95543006Y-97319600D02*
X95400149Y-97391028D01*
X95400149Y-97391028D02*
X95114435Y-97391028D01*
X95114435Y-97391028D02*
X94971577Y-97319600D01*
X96543006Y-97391028D02*
X96400149Y-97319600D01*
X96400149Y-97319600D02*
X96328720Y-97248171D01*
X96328720Y-97248171D02*
X96257292Y-97105314D01*
X96257292Y-97105314D02*
X96257292Y-96676742D01*
X96257292Y-96676742D02*
X96328720Y-96533885D01*
X96328720Y-96533885D02*
X96400149Y-96462457D01*
X96400149Y-96462457D02*
X96543006Y-96391028D01*
X96543006Y-96391028D02*
X96757292Y-96391028D01*
X96757292Y-96391028D02*
X96900149Y-96462457D01*
X96900149Y-96462457D02*
X96971578Y-96533885D01*
X96971578Y-96533885D02*
X97043006Y-96676742D01*
X97043006Y-96676742D02*
X97043006Y-97105314D01*
X97043006Y-97105314D02*
X96971578Y-97248171D01*
X96971578Y-97248171D02*
X96900149Y-97319600D01*
X96900149Y-97319600D02*
X96757292Y-97391028D01*
X96757292Y-97391028D02*
X96543006Y-97391028D01*
X97543006Y-97391028D02*
X98328721Y-96391028D01*
X97543006Y-96391028D02*
X98328721Y-97391028D01*
X90828720Y-99020314D02*
X91043006Y-99091742D01*
X91043006Y-99091742D02*
X91114435Y-99163171D01*
X91114435Y-99163171D02*
X91185863Y-99306028D01*
X91185863Y-99306028D02*
X91185863Y-99520314D01*
X91185863Y-99520314D02*
X91114435Y-99663171D01*
X91114435Y-99663171D02*
X91043006Y-99734600D01*
X91043006Y-99734600D02*
X90900149Y-99806028D01*
X90900149Y-99806028D02*
X90328720Y-99806028D01*
X90328720Y-99806028D02*
X90328720Y-98306028D01*
X90328720Y-98306028D02*
X90828720Y-98306028D01*
X90828720Y-98306028D02*
X90971578Y-98377457D01*
X90971578Y-98377457D02*
X91043006Y-98448885D01*
X91043006Y-98448885D02*
X91114435Y-98591742D01*
X91114435Y-98591742D02*
X91114435Y-98734600D01*
X91114435Y-98734600D02*
X91043006Y-98877457D01*
X91043006Y-98877457D02*
X90971578Y-98948885D01*
X90971578Y-98948885D02*
X90828720Y-99020314D01*
X90828720Y-99020314D02*
X90328720Y-99020314D01*
X92043006Y-99806028D02*
X91900149Y-99734600D01*
X91900149Y-99734600D02*
X91828720Y-99663171D01*
X91828720Y-99663171D02*
X91757292Y-99520314D01*
X91757292Y-99520314D02*
X91757292Y-99091742D01*
X91757292Y-99091742D02*
X91828720Y-98948885D01*
X91828720Y-98948885D02*
X91900149Y-98877457D01*
X91900149Y-98877457D02*
X92043006Y-98806028D01*
X92043006Y-98806028D02*
X92257292Y-98806028D01*
X92257292Y-98806028D02*
X92400149Y-98877457D01*
X92400149Y-98877457D02*
X92471578Y-98948885D01*
X92471578Y-98948885D02*
X92543006Y-99091742D01*
X92543006Y-99091742D02*
X92543006Y-99520314D01*
X92543006Y-99520314D02*
X92471578Y-99663171D01*
X92471578Y-99663171D02*
X92400149Y-99734600D01*
X92400149Y-99734600D02*
X92257292Y-99806028D01*
X92257292Y-99806028D02*
X92043006Y-99806028D01*
X93828721Y-99806028D02*
X93828721Y-98306028D01*
X93828721Y-99734600D02*
X93685863Y-99806028D01*
X93685863Y-99806028D02*
X93400149Y-99806028D01*
X93400149Y-99806028D02*
X93257292Y-99734600D01*
X93257292Y-99734600D02*
X93185863Y-99663171D01*
X93185863Y-99663171D02*
X93114435Y-99520314D01*
X93114435Y-99520314D02*
X93114435Y-99091742D01*
X93114435Y-99091742D02*
X93185863Y-98948885D01*
X93185863Y-98948885D02*
X93257292Y-98877457D01*
X93257292Y-98877457D02*
X93400149Y-98806028D01*
X93400149Y-98806028D02*
X93685863Y-98806028D01*
X93685863Y-98806028D02*
X93828721Y-98877457D01*
X95114435Y-99734600D02*
X94971578Y-99806028D01*
X94971578Y-99806028D02*
X94685864Y-99806028D01*
X94685864Y-99806028D02*
X94543006Y-99734600D01*
X94543006Y-99734600D02*
X94471578Y-99591742D01*
X94471578Y-99591742D02*
X94471578Y-99020314D01*
X94471578Y-99020314D02*
X94543006Y-98877457D01*
X94543006Y-98877457D02*
X94685864Y-98806028D01*
X94685864Y-98806028D02*
X94971578Y-98806028D01*
X94971578Y-98806028D02*
X95114435Y-98877457D01*
X95114435Y-98877457D02*
X95185864Y-99020314D01*
X95185864Y-99020314D02*
X95185864Y-99163171D01*
X95185864Y-99163171D02*
X94471578Y-99306028D01*
X95828720Y-98806028D02*
X95828720Y-99806028D01*
X95828720Y-98948885D02*
X95900149Y-98877457D01*
X95900149Y-98877457D02*
X96043006Y-98806028D01*
X96043006Y-98806028D02*
X96257292Y-98806028D01*
X96257292Y-98806028D02*
X96400149Y-98877457D01*
X96400149Y-98877457D02*
X96471578Y-99020314D01*
X96471578Y-99020314D02*
X96471578Y-99806028D01*
X97114435Y-99734600D02*
X97257292Y-99806028D01*
X97257292Y-99806028D02*
X97543006Y-99806028D01*
X97543006Y-99806028D02*
X97685863Y-99734600D01*
X97685863Y-99734600D02*
X97757292Y-99591742D01*
X97757292Y-99591742D02*
X97757292Y-99520314D01*
X97757292Y-99520314D02*
X97685863Y-99377457D01*
X97685863Y-99377457D02*
X97543006Y-99306028D01*
X97543006Y-99306028D02*
X97328721Y-99306028D01*
X97328721Y-99306028D02*
X97185863Y-99234600D01*
X97185863Y-99234600D02*
X97114435Y-99091742D01*
X97114435Y-99091742D02*
X97114435Y-99020314D01*
X97114435Y-99020314D02*
X97185863Y-98877457D01*
X97185863Y-98877457D02*
X97328721Y-98806028D01*
X97328721Y-98806028D02*
X97543006Y-98806028D01*
X97543006Y-98806028D02*
X97685863Y-98877457D01*
X98971578Y-99734600D02*
X98828721Y-99806028D01*
X98828721Y-99806028D02*
X98543007Y-99806028D01*
X98543007Y-99806028D02*
X98400149Y-99734600D01*
X98400149Y-99734600D02*
X98328721Y-99591742D01*
X98328721Y-99591742D02*
X98328721Y-99020314D01*
X98328721Y-99020314D02*
X98400149Y-98877457D01*
X98400149Y-98877457D02*
X98543007Y-98806028D01*
X98543007Y-98806028D02*
X98828721Y-98806028D01*
X98828721Y-98806028D02*
X98971578Y-98877457D01*
X98971578Y-98877457D02*
X99043007Y-99020314D01*
X99043007Y-99020314D02*
X99043007Y-99163171D01*
X99043007Y-99163171D02*
X98328721Y-99306028D01*
X100257292Y-99734600D02*
X100114435Y-99806028D01*
X100114435Y-99806028D02*
X99828721Y-99806028D01*
X99828721Y-99806028D02*
X99685863Y-99734600D01*
X99685863Y-99734600D02*
X99614435Y-99591742D01*
X99614435Y-99591742D02*
X99614435Y-99020314D01*
X99614435Y-99020314D02*
X99685863Y-98877457D01*
X99685863Y-98877457D02*
X99828721Y-98806028D01*
X99828721Y-98806028D02*
X100114435Y-98806028D01*
X100114435Y-98806028D02*
X100257292Y-98877457D01*
X100257292Y-98877457D02*
X100328721Y-99020314D01*
X100328721Y-99020314D02*
X100328721Y-99163171D01*
X100328721Y-99163171D02*
X99614435Y-99306028D01*
X102685863Y-99734600D02*
X102543006Y-99806028D01*
X102543006Y-99806028D02*
X102257292Y-99806028D01*
X102257292Y-99806028D02*
X102114434Y-99734600D01*
X102114434Y-99734600D02*
X102043006Y-99591742D01*
X102043006Y-99591742D02*
X102043006Y-99020314D01*
X102043006Y-99020314D02*
X102114434Y-98877457D01*
X102114434Y-98877457D02*
X102257292Y-98806028D01*
X102257292Y-98806028D02*
X102543006Y-98806028D01*
X102543006Y-98806028D02*
X102685863Y-98877457D01*
X102685863Y-98877457D02*
X102757292Y-99020314D01*
X102757292Y-99020314D02*
X102757292Y-99163171D01*
X102757292Y-99163171D02*
X102043006Y-99306028D01*
X103400148Y-99663171D02*
X103471577Y-99734600D01*
X103471577Y-99734600D02*
X103400148Y-99806028D01*
X103400148Y-99806028D02*
X103328720Y-99734600D01*
X103328720Y-99734600D02*
X103400148Y-99663171D01*
X103400148Y-99663171D02*
X103400148Y-99806028D01*
X103900149Y-98306028D02*
X104400149Y-99806028D01*
X104400149Y-99806028D02*
X104900149Y-98306028D01*
X105400148Y-99663171D02*
X105471577Y-99734600D01*
X105471577Y-99734600D02*
X105400148Y-99806028D01*
X105400148Y-99806028D02*
X105328720Y-99734600D01*
X105328720Y-99734600D02*
X105400148Y-99663171D01*
X105400148Y-99663171D02*
X105400148Y-99806028D01*
D10*
X70686905Y-112524819D02*
X70686905Y-111524819D01*
X70686905Y-111524819D02*
X70925000Y-111524819D01*
X70925000Y-111524819D02*
X71067857Y-111572438D01*
X71067857Y-111572438D02*
X71163095Y-111667676D01*
X71163095Y-111667676D02*
X71210714Y-111762914D01*
X71210714Y-111762914D02*
X71258333Y-111953390D01*
X71258333Y-111953390D02*
X71258333Y-112096247D01*
X71258333Y-112096247D02*
X71210714Y-112286723D01*
X71210714Y-112286723D02*
X71163095Y-112381961D01*
X71163095Y-112381961D02*
X71067857Y-112477200D01*
X71067857Y-112477200D02*
X70925000Y-112524819D01*
X70925000Y-112524819D02*
X70686905Y-112524819D01*
X71591667Y-111524819D02*
X72258333Y-111524819D01*
X72258333Y-111524819D02*
X71829762Y-112524819D01*
D11*
X71159673Y-108762219D02*
X71159673Y-107762219D01*
X71731101Y-108762219D02*
X71302530Y-108190790D01*
X71731101Y-107762219D02*
X71159673Y-108333647D01*
D10*
X123964272Y-118508422D02*
X124830298Y-118008422D01*
X124830298Y-118008422D02*
X124949345Y-118214619D01*
X124949345Y-118214619D02*
X124979535Y-118362146D01*
X124979535Y-118362146D02*
X124944675Y-118492244D01*
X124944675Y-118492244D02*
X124886006Y-118581102D01*
X124886006Y-118581102D02*
X124744858Y-118717580D01*
X124744858Y-118717580D02*
X124621140Y-118789008D01*
X124621140Y-118789008D02*
X124432374Y-118843007D01*
X124432374Y-118843007D02*
X124326085Y-118849387D01*
X124326085Y-118849387D02*
X124195988Y-118814527D01*
X124195988Y-118814527D02*
X124083320Y-118714619D01*
X124083320Y-118714619D02*
X123964272Y-118508422D01*
X125282679Y-118791969D02*
X125592202Y-119328080D01*
X125592202Y-119328080D02*
X125095621Y-119229881D01*
X125095621Y-119229881D02*
X125167050Y-119353599D01*
X125167050Y-119353599D02*
X125173430Y-119459887D01*
X125173430Y-119459887D02*
X125156000Y-119524936D01*
X125156000Y-119524936D02*
X125097331Y-119613794D01*
X125097331Y-119613794D02*
X124891134Y-119732842D01*
X124891134Y-119732842D02*
X124784846Y-119739222D01*
X124784846Y-119739222D02*
X124719797Y-119721792D01*
X124719797Y-119721792D02*
X124630939Y-119663123D01*
X124630939Y-119663123D02*
X124488082Y-119415687D01*
X124488082Y-119415687D02*
X124481702Y-119309399D01*
X124481702Y-119309399D02*
X124499132Y-119244350D01*
D11*
X121995245Y-120803892D02*
X121129220Y-121303892D01*
X121709531Y-120309020D02*
X121428945Y-120965888D01*
X120843506Y-120809020D02*
X121624091Y-121018177D01*
D10*
X90751767Y-70595585D02*
X91617792Y-70095585D01*
X91617792Y-70095585D02*
X91736840Y-70301781D01*
X91736840Y-70301781D02*
X91767029Y-70449309D01*
X91767029Y-70449309D02*
X91732169Y-70579406D01*
X91732169Y-70579406D02*
X91673500Y-70668265D01*
X91673500Y-70668265D02*
X91532353Y-70804742D01*
X91532353Y-70804742D02*
X91408635Y-70876171D01*
X91408635Y-70876171D02*
X91219868Y-70930169D01*
X91219868Y-70930169D02*
X91113580Y-70936549D01*
X91113580Y-70936549D02*
X90983482Y-70901690D01*
X90983482Y-70901690D02*
X90870814Y-70801781D01*
X90870814Y-70801781D02*
X90751767Y-70595585D01*
X91513672Y-71915242D02*
X91227957Y-71420371D01*
X91370814Y-71667807D02*
X92236840Y-71167807D01*
X92236840Y-71167807D02*
X92065503Y-71156757D01*
X92065503Y-71156757D02*
X91935405Y-71121897D01*
X91935405Y-71121897D02*
X91846547Y-71063228D01*
X92689221Y-71951353D02*
X92736840Y-72033832D01*
X92736840Y-72033832D02*
X92743220Y-72140120D01*
X92743220Y-72140120D02*
X92725790Y-72205169D01*
X92725790Y-72205169D02*
X92667121Y-72294027D01*
X92667121Y-72294027D02*
X92525973Y-72430505D01*
X92525973Y-72430505D02*
X92319776Y-72549552D01*
X92319776Y-72549552D02*
X92131010Y-72603551D01*
X92131010Y-72603551D02*
X92024722Y-72609931D01*
X92024722Y-72609931D02*
X91959673Y-72592501D01*
X91959673Y-72592501D02*
X91870814Y-72533832D01*
X91870814Y-72533832D02*
X91823195Y-72451353D01*
X91823195Y-72451353D02*
X91816816Y-72345065D01*
X91816816Y-72345065D02*
X91834245Y-72280017D01*
X91834245Y-72280017D02*
X91892914Y-72191158D01*
X91892914Y-72191158D02*
X92034062Y-72054681D01*
X92034062Y-72054681D02*
X92240259Y-71935633D01*
X92240259Y-71935633D02*
X92429025Y-71881634D01*
X92429025Y-71881634D02*
X92535314Y-71875255D01*
X92535314Y-71875255D02*
X92600362Y-71892684D01*
X92600362Y-71892684D02*
X92689221Y-71951353D01*
D11*
X94484754Y-69536107D02*
X95350779Y-69036107D01*
X94770468Y-70030979D02*
X95051054Y-69374111D01*
X95636493Y-69530979D02*
X94855908Y-69321822D01*
D10*
X79697042Y-122326840D02*
X78831017Y-121826840D01*
X78831017Y-121826840D02*
X78950064Y-121620643D01*
X78950064Y-121620643D02*
X79062732Y-121520735D01*
X79062732Y-121520735D02*
X79192830Y-121485875D01*
X79192830Y-121485875D02*
X79299118Y-121492255D01*
X79299118Y-121492255D02*
X79487885Y-121546254D01*
X79487885Y-121546254D02*
X79611603Y-121617682D01*
X79611603Y-121617682D02*
X79752750Y-121754160D01*
X79752750Y-121754160D02*
X79811419Y-121843018D01*
X79811419Y-121843018D02*
X79846279Y-121973116D01*
X79846279Y-121973116D02*
X79816090Y-122120643D01*
X79816090Y-122120643D02*
X79697042Y-122326840D01*
X79545302Y-120589661D02*
X79450064Y-120754618D01*
X79450064Y-120754618D02*
X79443684Y-120860906D01*
X79443684Y-120860906D02*
X79461114Y-120925955D01*
X79461114Y-120925955D02*
X79537213Y-121079862D01*
X79537213Y-121079862D02*
X79678361Y-121216339D01*
X79678361Y-121216339D02*
X80008275Y-121406816D01*
X80008275Y-121406816D02*
X80114563Y-121413195D01*
X80114563Y-121413195D02*
X80179612Y-121395766D01*
X80179612Y-121395766D02*
X80268471Y-121337097D01*
X80268471Y-121337097D02*
X80363709Y-121172139D01*
X80363709Y-121172139D02*
X80370088Y-121065851D01*
X80370088Y-121065851D02*
X80352659Y-121000802D01*
X80352659Y-121000802D02*
X80293990Y-120911944D01*
X80293990Y-120911944D02*
X80087793Y-120792896D01*
X80087793Y-120792896D02*
X79981505Y-120786517D01*
X79981505Y-120786517D02*
X79916456Y-120803946D01*
X79916456Y-120803946D02*
X79827598Y-120862615D01*
X79827598Y-120862615D02*
X79732360Y-121027573D01*
X79732360Y-121027573D02*
X79725980Y-121133861D01*
X79725980Y-121133861D02*
X79743410Y-121198910D01*
X79743410Y-121198910D02*
X79802079Y-121287768D01*
D11*
X76674918Y-120036111D02*
X75808893Y-119536111D01*
X76960633Y-119541239D02*
X76251475Y-119626678D01*
X76094607Y-119041239D02*
X76303765Y-119821825D01*
D10*
X128506009Y-108405714D02*
X128553628Y-108262857D01*
X128553628Y-108262857D02*
X128601247Y-108215238D01*
X128601247Y-108215238D02*
X128696485Y-108167619D01*
X128696485Y-108167619D02*
X128839342Y-108167619D01*
X128839342Y-108167619D02*
X128934580Y-108215238D01*
X128934580Y-108215238D02*
X128982200Y-108262857D01*
X128982200Y-108262857D02*
X129029819Y-108358095D01*
X129029819Y-108358095D02*
X129029819Y-108739047D01*
X129029819Y-108739047D02*
X128029819Y-108739047D01*
X128029819Y-108739047D02*
X128029819Y-108405714D01*
X128029819Y-108405714D02*
X128077438Y-108310476D01*
X128077438Y-108310476D02*
X128125057Y-108262857D01*
X128125057Y-108262857D02*
X128220295Y-108215238D01*
X128220295Y-108215238D02*
X128315533Y-108215238D01*
X128315533Y-108215238D02*
X128410771Y-108262857D01*
X128410771Y-108262857D02*
X128458390Y-108310476D01*
X128458390Y-108310476D02*
X128506009Y-108405714D01*
X128506009Y-108405714D02*
X128506009Y-108739047D01*
X128029819Y-107881904D02*
X128029819Y-107310476D01*
X129029819Y-107596190D02*
X128029819Y-107596190D01*
X128125057Y-107024761D02*
X128077438Y-106977142D01*
X128077438Y-106977142D02*
X128029819Y-106881904D01*
X128029819Y-106881904D02*
X128029819Y-106643809D01*
X128029819Y-106643809D02*
X128077438Y-106548571D01*
X128077438Y-106548571D02*
X128125057Y-106500952D01*
X128125057Y-106500952D02*
X128220295Y-106453333D01*
X128220295Y-106453333D02*
X128315533Y-106453333D01*
X128315533Y-106453333D02*
X128458390Y-106500952D01*
X128458390Y-106500952D02*
X129029819Y-107072380D01*
X129029819Y-107072380D02*
X129029819Y-106453333D01*
X74509862Y-80667978D02*
X75375888Y-80167978D01*
X75375888Y-80167978D02*
X75494935Y-80374175D01*
X75494935Y-80374175D02*
X75525125Y-80521702D01*
X75525125Y-80521702D02*
X75490265Y-80651800D01*
X75490265Y-80651800D02*
X75431596Y-80740658D01*
X75431596Y-80740658D02*
X75290448Y-80877136D01*
X75290448Y-80877136D02*
X75166730Y-80948564D01*
X75166730Y-80948564D02*
X74977964Y-81002563D01*
X74977964Y-81002563D02*
X74871675Y-81008943D01*
X74871675Y-81008943D02*
X74741578Y-80974083D01*
X74741578Y-80974083D02*
X74628910Y-80874175D01*
X74628910Y-80874175D02*
X74509862Y-80667978D01*
X75033672Y-81575243D02*
X75128910Y-81740200D01*
X75128910Y-81740200D02*
X75217768Y-81798869D01*
X75217768Y-81798869D02*
X75282817Y-81816299D01*
X75282817Y-81816299D02*
X75454154Y-81827349D01*
X75454154Y-81827349D02*
X75642921Y-81773350D01*
X75642921Y-81773350D02*
X75972835Y-81582874D01*
X75972835Y-81582874D02*
X76031504Y-81494016D01*
X76031504Y-81494016D02*
X76048934Y-81428967D01*
X76048934Y-81428967D02*
X76042554Y-81322679D01*
X76042554Y-81322679D02*
X75947316Y-81157722D01*
X75947316Y-81157722D02*
X75858458Y-81099052D01*
X75858458Y-81099052D02*
X75793409Y-81081623D01*
X75793409Y-81081623D02*
X75687121Y-81088002D01*
X75687121Y-81088002D02*
X75480924Y-81207050D01*
X75480924Y-81207050D02*
X75422255Y-81295908D01*
X75422255Y-81295908D02*
X75404826Y-81360957D01*
X75404826Y-81360957D02*
X75411205Y-81467245D01*
X75411205Y-81467245D02*
X75506443Y-81632203D01*
X75506443Y-81632203D02*
X75595302Y-81690872D01*
X75595302Y-81690872D02*
X75660351Y-81708301D01*
X75660351Y-81708301D02*
X75766639Y-81701922D01*
D11*
X78004754Y-79196107D02*
X78870779Y-78696107D01*
X78290468Y-79690979D02*
X78571054Y-79034111D01*
X79156493Y-79190979D02*
X78375908Y-78981822D01*
D10*
X103634537Y-70158789D02*
X102768512Y-69658789D01*
X102768512Y-69658789D02*
X102887560Y-69452593D01*
X102887560Y-69452593D02*
X103000228Y-69352684D01*
X103000228Y-69352684D02*
X103130325Y-69317825D01*
X103130325Y-69317825D02*
X103236613Y-69324205D01*
X103236613Y-69324205D02*
X103425380Y-69378203D01*
X103425380Y-69378203D02*
X103549098Y-69449632D01*
X103549098Y-69449632D02*
X103690246Y-69586109D01*
X103690246Y-69586109D02*
X103748915Y-69674968D01*
X103748915Y-69674968D02*
X103783774Y-69805065D01*
X103783774Y-69805065D02*
X103753585Y-69952593D01*
X103753585Y-69952593D02*
X103634537Y-70158789D01*
X104396442Y-68839132D02*
X104110728Y-69334003D01*
X104253585Y-69086567D02*
X103387560Y-68586567D01*
X103387560Y-68586567D02*
X103463659Y-68740475D01*
X103463659Y-68740475D02*
X103498518Y-68870572D01*
X103498518Y-68870572D02*
X103492138Y-68976860D01*
X104872633Y-68014345D02*
X104586918Y-68509217D01*
X104729776Y-68261781D02*
X103863750Y-67761781D01*
X103863750Y-67761781D02*
X103939849Y-67915688D01*
X103939849Y-67915688D02*
X103974709Y-68045786D01*
X103974709Y-68045786D02*
X103968329Y-68152074D01*
D11*
X106845081Y-70303888D02*
X107711106Y-70803888D01*
X106559366Y-70798760D02*
X107268524Y-70713321D01*
X107425392Y-71298760D02*
X107216234Y-70518174D01*
D10*
X120114536Y-79818789D02*
X119248511Y-79318789D01*
X119248511Y-79318789D02*
X119367559Y-79112593D01*
X119367559Y-79112593D02*
X119480227Y-79012684D01*
X119480227Y-79012684D02*
X119610324Y-78977825D01*
X119610324Y-78977825D02*
X119716612Y-78984205D01*
X119716612Y-78984205D02*
X119905379Y-79038203D01*
X119905379Y-79038203D02*
X120029097Y-79109632D01*
X120029097Y-79109632D02*
X120170245Y-79246109D01*
X120170245Y-79246109D02*
X120228914Y-79334968D01*
X120228914Y-79334968D02*
X120263773Y-79465065D01*
X120263773Y-79465065D02*
X120233584Y-79612593D01*
X120233584Y-79612593D02*
X120114536Y-79818789D01*
X120876441Y-78499132D02*
X120590727Y-78994003D01*
X120733584Y-78746567D02*
X119867559Y-78246567D01*
X119867559Y-78246567D02*
X119943658Y-78400475D01*
X119943658Y-78400475D02*
X119978517Y-78530572D01*
X119978517Y-78530572D02*
X119972137Y-78636860D01*
X120283371Y-77716836D02*
X120265941Y-77651787D01*
X120265941Y-77651787D02*
X120272321Y-77545499D01*
X120272321Y-77545499D02*
X120391368Y-77339303D01*
X120391368Y-77339303D02*
X120480227Y-77280634D01*
X120480227Y-77280634D02*
X120545275Y-77263204D01*
X120545275Y-77263204D02*
X120651564Y-77269584D01*
X120651564Y-77269584D02*
X120734042Y-77317203D01*
X120734042Y-77317203D02*
X120833951Y-77429870D01*
X120833951Y-77429870D02*
X121043108Y-78210456D01*
X121043108Y-78210456D02*
X121352632Y-77674345D01*
D11*
X123325081Y-79963888D02*
X124191106Y-80463888D01*
X123039366Y-80458760D02*
X123748524Y-80373321D01*
X123905392Y-80958760D02*
X123696234Y-80178174D01*
D10*
X107484272Y-128168422D02*
X108350298Y-127668422D01*
X108350298Y-127668422D02*
X108469345Y-127874619D01*
X108469345Y-127874619D02*
X108499535Y-128022146D01*
X108499535Y-128022146D02*
X108464675Y-128152244D01*
X108464675Y-128152244D02*
X108406006Y-128241102D01*
X108406006Y-128241102D02*
X108264858Y-128377580D01*
X108264858Y-128377580D02*
X108141140Y-128449008D01*
X108141140Y-128449008D02*
X107952374Y-128503007D01*
X107952374Y-128503007D02*
X107846085Y-128509387D01*
X107846085Y-128509387D02*
X107715988Y-128474527D01*
X107715988Y-128474527D02*
X107603320Y-128374619D01*
X107603320Y-128374619D02*
X107484272Y-128168422D01*
X108775908Y-129072268D02*
X108198558Y-129405601D01*
X108986775Y-128675595D02*
X108249138Y-128826542D01*
X108249138Y-128826542D02*
X108558662Y-129362653D01*
D11*
X105515245Y-130463892D02*
X104649220Y-130963892D01*
X105229531Y-129969020D02*
X104948945Y-130625888D01*
X104363506Y-130469020D02*
X105144091Y-130678177D01*
D10*
X70686905Y-93464819D02*
X70686905Y-92464819D01*
X70686905Y-92464819D02*
X70925000Y-92464819D01*
X70925000Y-92464819D02*
X71067857Y-92512438D01*
X71067857Y-92512438D02*
X71163095Y-92607676D01*
X71163095Y-92607676D02*
X71210714Y-92702914D01*
X71210714Y-92702914D02*
X71258333Y-92893390D01*
X71258333Y-92893390D02*
X71258333Y-93036247D01*
X71258333Y-93036247D02*
X71210714Y-93226723D01*
X71210714Y-93226723D02*
X71163095Y-93321961D01*
X71163095Y-93321961D02*
X71067857Y-93417200D01*
X71067857Y-93417200D02*
X70925000Y-93464819D01*
X70925000Y-93464819D02*
X70686905Y-93464819D01*
X71829762Y-92893390D02*
X71734524Y-92845771D01*
X71734524Y-92845771D02*
X71686905Y-92798152D01*
X71686905Y-92798152D02*
X71639286Y-92702914D01*
X71639286Y-92702914D02*
X71639286Y-92655295D01*
X71639286Y-92655295D02*
X71686905Y-92560057D01*
X71686905Y-92560057D02*
X71734524Y-92512438D01*
X71734524Y-92512438D02*
X71829762Y-92464819D01*
X71829762Y-92464819D02*
X72020238Y-92464819D01*
X72020238Y-92464819D02*
X72115476Y-92512438D01*
X72115476Y-92512438D02*
X72163095Y-92560057D01*
X72163095Y-92560057D02*
X72210714Y-92655295D01*
X72210714Y-92655295D02*
X72210714Y-92702914D01*
X72210714Y-92702914D02*
X72163095Y-92798152D01*
X72163095Y-92798152D02*
X72115476Y-92845771D01*
X72115476Y-92845771D02*
X72020238Y-92893390D01*
X72020238Y-92893390D02*
X71829762Y-92893390D01*
X71829762Y-92893390D02*
X71734524Y-92941009D01*
X71734524Y-92941009D02*
X71686905Y-92988628D01*
X71686905Y-92988628D02*
X71639286Y-93083866D01*
X71639286Y-93083866D02*
X71639286Y-93274342D01*
X71639286Y-93274342D02*
X71686905Y-93369580D01*
X71686905Y-93369580D02*
X71734524Y-93417200D01*
X71734524Y-93417200D02*
X71829762Y-93464819D01*
X71829762Y-93464819D02*
X72020238Y-93464819D01*
X72020238Y-93464819D02*
X72115476Y-93417200D01*
X72115476Y-93417200D02*
X72163095Y-93369580D01*
X72163095Y-93369580D02*
X72210714Y-93274342D01*
X72210714Y-93274342D02*
X72210714Y-93083866D01*
X72210714Y-93083866D02*
X72163095Y-92988628D01*
X72163095Y-92988628D02*
X72115476Y-92941009D01*
X72115476Y-92941009D02*
X72020238Y-92893390D01*
D11*
X71159673Y-89702219D02*
X71159673Y-88702219D01*
X71731101Y-89702219D02*
X71302530Y-89130790D01*
X71731101Y-88702219D02*
X71159673Y-89273647D01*
D10*
X96177042Y-131986840D02*
X95311017Y-131486840D01*
X95311017Y-131486840D02*
X95430064Y-131280643D01*
X95430064Y-131280643D02*
X95542732Y-131180735D01*
X95542732Y-131180735D02*
X95672830Y-131145875D01*
X95672830Y-131145875D02*
X95779118Y-131152255D01*
X95779118Y-131152255D02*
X95967885Y-131206254D01*
X95967885Y-131206254D02*
X96091603Y-131277682D01*
X96091603Y-131277682D02*
X96232750Y-131414160D01*
X96232750Y-131414160D02*
X96291419Y-131503018D01*
X96291419Y-131503018D02*
X96326279Y-131633116D01*
X96326279Y-131633116D02*
X96296090Y-131780643D01*
X96296090Y-131780643D02*
X96177042Y-131986840D01*
X96049112Y-130208421D02*
X95811017Y-130620814D01*
X95811017Y-130620814D02*
X96199600Y-130900149D01*
X96199600Y-130900149D02*
X96182170Y-130835100D01*
X96182170Y-130835100D02*
X96188550Y-130728812D01*
X96188550Y-130728812D02*
X96307598Y-130522615D01*
X96307598Y-130522615D02*
X96396456Y-130463946D01*
X96396456Y-130463946D02*
X96461505Y-130446517D01*
X96461505Y-130446517D02*
X96567793Y-130452896D01*
X96567793Y-130452896D02*
X96773990Y-130571944D01*
X96773990Y-130571944D02*
X96832659Y-130660802D01*
X96832659Y-130660802D02*
X96850088Y-130725851D01*
X96850088Y-130725851D02*
X96843709Y-130832139D01*
X96843709Y-130832139D02*
X96724661Y-131038336D01*
X96724661Y-131038336D02*
X96635803Y-131097005D01*
X96635803Y-131097005D02*
X96570754Y-131114435D01*
D11*
X93154918Y-129696111D02*
X92288893Y-129196111D01*
X93440633Y-129201239D02*
X92731475Y-129286678D01*
X92574607Y-128701239D02*
X92783765Y-129481825D01*
D12*
X63420000Y-106970000D02*
G75*
G03*
X63420000Y-112090000I0J-2560000D01*
G01*
X68460000Y-112490000D02*
X68460000Y-112090000D01*
X69580000Y-112490000D02*
X68460000Y-112490000D01*
X68460000Y-112090000D02*
X69580000Y-112090000D01*
X69580000Y-112090000D02*
X69580000Y-112490000D01*
X69580000Y-112090000D02*
X63420000Y-112090000D01*
X69580000Y-110800000D02*
X69580000Y-110800000D01*
X69580000Y-110800000D02*
X69710000Y-110800000D01*
X69710000Y-110800000D02*
X69580000Y-110800000D01*
X69710000Y-110800000D02*
X69710000Y-110800000D01*
X69580000Y-108260000D02*
X69580000Y-108260000D01*
X69580000Y-108260000D02*
X69710000Y-108260000D01*
X69710000Y-108260000D02*
X69580000Y-108260000D01*
X69710000Y-108260000D02*
X69710000Y-108260000D01*
X69580000Y-106970000D02*
X69580000Y-112090000D01*
X69580000Y-106970000D02*
X63420000Y-106970000D01*
X124312976Y-128402755D02*
G75*
G03*
X128747024Y-125842755I2217024J1280000D01*
G01*
X126573435Y-121277987D02*
X126227025Y-121477987D01*
X126013435Y-120308038D02*
X126573435Y-121277987D01*
X126227025Y-121477987D02*
X125667025Y-120508038D01*
X125667025Y-120508038D02*
X126013435Y-120308038D01*
X125667025Y-120508038D02*
X128747025Y-125842755D01*
X124549852Y-121153038D02*
X124549852Y-121153038D01*
X124549852Y-121153038D02*
X124484852Y-121040455D01*
X124484852Y-121040455D02*
X124549852Y-121153038D01*
X124484852Y-121040455D02*
X124484852Y-121040455D01*
X122350148Y-122423038D02*
X122350148Y-122423038D01*
X122350148Y-122423038D02*
X122285148Y-122310455D01*
X122285148Y-122310455D02*
X122350148Y-122423038D01*
X122285148Y-122310455D02*
X122285148Y-122310455D01*
X121232975Y-123068038D02*
X125667025Y-120508038D01*
X121232975Y-123068038D02*
X124312975Y-128402755D01*
X95247025Y-67271962D02*
X92167025Y-61937245D01*
X95247025Y-67271962D02*
X90812975Y-69831962D01*
X94194852Y-68029545D02*
X94194852Y-68029545D01*
X94194852Y-68029545D02*
X94129852Y-67916962D01*
X94129852Y-67916962D02*
X94194852Y-68029545D01*
X94129852Y-67916962D02*
X94129852Y-67916962D01*
X91995148Y-69299545D02*
X91995148Y-69299545D01*
X91995148Y-69299545D02*
X91930148Y-69186962D01*
X91930148Y-69186962D02*
X91995148Y-69299545D01*
X91930148Y-69186962D02*
X91930148Y-69186962D01*
X90812975Y-69831962D02*
X87732975Y-64497245D01*
X90812975Y-69831962D02*
X90466565Y-70031962D01*
X90252975Y-68862013D02*
X90812975Y-69831962D01*
X90466565Y-70031962D02*
X89906565Y-69062013D01*
X89906565Y-69062013D02*
X90252975Y-68862013D01*
X92167024Y-61937245D02*
G75*
G03*
X87732976Y-64497245I-2217024J-1280000D01*
G01*
X71252976Y-125842755D02*
G75*
G03*
X75687024Y-128402755I2217024J-1280000D01*
G01*
X78553435Y-124237987D02*
X78207025Y-124037987D01*
X79113435Y-123268038D02*
X78553435Y-124237987D01*
X78207025Y-124037987D02*
X78767025Y-123068038D01*
X78767025Y-123068038D02*
X79113435Y-123268038D01*
X78767025Y-123068038D02*
X75687025Y-128402755D01*
X77649852Y-122423038D02*
X77649852Y-122423038D01*
X77649852Y-122423038D02*
X77714852Y-122310455D01*
X77714852Y-122310455D02*
X77649852Y-122423038D01*
X77714852Y-122310455D02*
X77714852Y-122310455D01*
X75450148Y-121153038D02*
X75450148Y-121153038D01*
X75450148Y-121153038D02*
X75515148Y-121040455D01*
X75515148Y-121040455D02*
X75450148Y-121153038D01*
X75515148Y-121040455D02*
X75515148Y-121040455D01*
X74332975Y-120508038D02*
X78767025Y-123068038D01*
X74332975Y-120508038D02*
X71252975Y-125842755D01*
X124510000Y-89220000D02*
X122050000Y-89220000D01*
X116050000Y-89220000D02*
X115420000Y-89220000D01*
X115420000Y-89220000D02*
X111470000Y-90660000D01*
X126590000Y-91300000D02*
X124510000Y-89220000D01*
X126590000Y-94800000D02*
X126590000Y-91300000D01*
X126590000Y-108700000D02*
X126590000Y-105200000D01*
X126590000Y-108700000D02*
X124510000Y-110780000D01*
X124510000Y-110780000D02*
X122050000Y-110780000D01*
X116050000Y-110780000D02*
X115420000Y-110780000D01*
X115420000Y-110780000D02*
X111470000Y-109340000D01*
X111470000Y-90660000D02*
G75*
G03*
X110483470Y-93996646I730001J-2030000D01*
G01*
X110500001Y-106000000D02*
G75*
G03*
X111461831Y-109325243I1699999J-1310000D01*
G01*
X78767025Y-76931962D02*
X75687025Y-71597245D01*
X78767025Y-76931962D02*
X74332975Y-79491962D01*
X77714852Y-77689545D02*
X77714852Y-77689545D01*
X77714852Y-77689545D02*
X77649852Y-77576962D01*
X77649852Y-77576962D02*
X77714852Y-77689545D01*
X77649852Y-77576962D02*
X77649852Y-77576962D01*
X75515148Y-78959545D02*
X75515148Y-78959545D01*
X75515148Y-78959545D02*
X75450148Y-78846962D01*
X75450148Y-78846962D02*
X75515148Y-78959545D01*
X75450148Y-78846962D02*
X75450148Y-78846962D01*
X74332975Y-79491962D02*
X71252975Y-74157245D01*
X74332975Y-79491962D02*
X73986565Y-79691962D01*
X73772975Y-78522013D02*
X74332975Y-79491962D01*
X73986565Y-79691962D02*
X73426565Y-78722013D01*
X73426565Y-78722013D02*
X73772975Y-78522013D01*
X75687024Y-71597245D02*
G75*
G03*
X71252976Y-74157245I-2217024J-1280000D01*
G01*
X109187025Y-69831962D02*
X112267025Y-64497245D01*
X109187025Y-69831962D02*
X104752975Y-67271962D01*
X108004852Y-69299545D02*
X108004852Y-69299545D01*
X108004852Y-69299545D02*
X108069852Y-69186962D01*
X108069852Y-69186962D02*
X108004852Y-69299545D01*
X108069852Y-69186962D02*
X108069852Y-69186962D01*
X105805148Y-68029545D02*
X105805148Y-68029545D01*
X105805148Y-68029545D02*
X105870148Y-67916962D01*
X105870148Y-67916962D02*
X105805148Y-68029545D01*
X105870148Y-67916962D02*
X105870148Y-67916962D01*
X104752975Y-67271962D02*
X107832975Y-61937245D01*
X104752975Y-67271962D02*
X104406565Y-67071962D01*
X105312975Y-66302013D02*
X104752975Y-67271962D01*
X104406565Y-67071962D02*
X104966565Y-66102013D01*
X104966565Y-66102013D02*
X105312975Y-66302013D01*
X112267024Y-64497245D02*
G75*
G03*
X107832976Y-61937245I-2217024J1280000D01*
G01*
X128747024Y-74157245D02*
G75*
G03*
X124312976Y-71597245I-2217024J1280000D01*
G01*
X121446565Y-75762013D02*
X121792975Y-75962013D01*
X120886565Y-76731962D02*
X121446565Y-75762013D01*
X121792975Y-75962013D02*
X121232975Y-76931962D01*
X121232975Y-76931962D02*
X120886565Y-76731962D01*
X121232975Y-76931962D02*
X124312975Y-71597245D01*
X122350148Y-77576962D02*
X122350148Y-77576962D01*
X122350148Y-77576962D02*
X122285148Y-77689545D01*
X122285148Y-77689545D02*
X122350148Y-77576962D01*
X122285148Y-77689545D02*
X122285148Y-77689545D01*
X124549852Y-78846962D02*
X124549852Y-78846962D01*
X124549852Y-78846962D02*
X124484852Y-78959545D01*
X124484852Y-78959545D02*
X124549852Y-78846962D01*
X124484852Y-78959545D02*
X124484852Y-78959545D01*
X125667025Y-79491962D02*
X121232975Y-76931962D01*
X125667025Y-79491962D02*
X128747025Y-74157245D01*
X107832976Y-138062755D02*
G75*
G03*
X112267024Y-135502755I2217024J1280000D01*
G01*
X110093435Y-130937987D02*
X109747025Y-131137987D01*
X109533435Y-129968038D02*
X110093435Y-130937987D01*
X109747025Y-131137987D02*
X109187025Y-130168038D01*
X109187025Y-130168038D02*
X109533435Y-129968038D01*
X109187025Y-130168038D02*
X112267025Y-135502755D01*
X108069852Y-130813038D02*
X108069852Y-130813038D01*
X108069852Y-130813038D02*
X108004852Y-130700455D01*
X108004852Y-130700455D02*
X108069852Y-130813038D01*
X108004852Y-130700455D02*
X108004852Y-130700455D01*
X105870148Y-132083038D02*
X105870148Y-132083038D01*
X105870148Y-132083038D02*
X105805148Y-131970455D01*
X105805148Y-131970455D02*
X105870148Y-132083038D01*
X105805148Y-131970455D02*
X105805148Y-131970455D01*
X104752975Y-132728038D02*
X109187025Y-130168038D01*
X104752975Y-132728038D02*
X107832975Y-138062755D01*
X63420000Y-87910000D02*
G75*
G03*
X63420000Y-93030000I0J-2560000D01*
G01*
X68460000Y-93430000D02*
X68460000Y-93030000D01*
X69580000Y-93430000D02*
X68460000Y-93430000D01*
X68460000Y-93030000D02*
X69580000Y-93030000D01*
X69580000Y-93030000D02*
X69580000Y-93430000D01*
X69580000Y-93030000D02*
X63420000Y-93030000D01*
X69580000Y-91740000D02*
X69580000Y-91740000D01*
X69580000Y-91740000D02*
X69710000Y-91740000D01*
X69710000Y-91740000D02*
X69580000Y-91740000D01*
X69710000Y-91740000D02*
X69710000Y-91740000D01*
X69580000Y-89200000D02*
X69580000Y-89200000D01*
X69580000Y-89200000D02*
X69710000Y-89200000D01*
X69710000Y-89200000D02*
X69580000Y-89200000D01*
X69710000Y-89200000D02*
X69710000Y-89200000D01*
X69580000Y-87910000D02*
X69580000Y-93030000D01*
X69580000Y-87910000D02*
X63420000Y-87910000D01*
X87732976Y-135502755D02*
G75*
G03*
X92167024Y-138062755I2217024J-1280000D01*
G01*
X95033435Y-133897987D02*
X94687025Y-133697987D01*
X95593435Y-132928038D02*
X95033435Y-133897987D01*
X94687025Y-133697987D02*
X95247025Y-132728038D01*
X95247025Y-132728038D02*
X95593435Y-132928038D01*
X95247025Y-132728038D02*
X92167025Y-138062755D01*
X94129852Y-132083038D02*
X94129852Y-132083038D01*
X94129852Y-132083038D02*
X94194852Y-131970455D01*
X94194852Y-131970455D02*
X94129852Y-132083038D01*
X94194852Y-131970455D02*
X94194852Y-131970455D01*
X91930148Y-130813038D02*
X91930148Y-130813038D01*
X91930148Y-130813038D02*
X91995148Y-130700455D01*
X91995148Y-130700455D02*
X91930148Y-130813038D01*
X91995148Y-130700455D02*
X91995148Y-130700455D01*
X90812975Y-130168038D02*
X95247025Y-132728038D01*
X90812975Y-130168038D02*
X87732975Y-135502755D01*
%LPC*%
D13*
X72290000Y-108660000D03*
D14*
X121341558Y-119876110D03*
D15*
X95138442Y-70463890D03*
D16*
X77151558Y-119006110D03*
D17*
X119050000Y-87550000D03*
X119050000Y-112450000D03*
D18*
X119050000Y-100000000D03*
D15*
X78658442Y-80123890D03*
D19*
X106368442Y-71333890D03*
X122848442Y-80993890D03*
D14*
X104861558Y-129536110D03*
D13*
X72290000Y-89600000D03*
D16*
X93631558Y-128666110D03*
D20*
X93650000Y-79680000D03*
D21*
X93650000Y-82180000D03*
D22*
X90383818Y-127305000D03*
D20*
X81585000Y-122225000D03*
X109616182Y-127305000D03*
D23*
X118415000Y-122225000D03*
D24*
X83490000Y-119050000D03*
D20*
X92288818Y-124130000D03*
D23*
X92334409Y-75870000D03*
D20*
X83535591Y-80950000D03*
D25*
X106350000Y-93650000D03*
D20*
X106350000Y-103810000D03*
X79680000Y-94920000D03*
D25*
X79680000Y-105080000D03*
D26*
X100000000Y-122225000D03*
D27*
X97800295Y-120955000D03*
X95600591Y-119685000D03*
X93400886Y-118415000D03*
X91201182Y-117145000D03*
X89001477Y-115875000D03*
X86801773Y-114605000D03*
X84602068Y-113335000D03*
X88412068Y-106735886D03*
X90611773Y-108005886D03*
X92811477Y-109275886D03*
X95011182Y-110545886D03*
X97210886Y-111815886D03*
X99410591Y-113085886D03*
X101610295Y-114355886D03*
X103810000Y-115625886D03*
D25*
X106350000Y-80315000D03*
D20*
X106350000Y-90475000D03*
X72060000Y-94920000D03*
D25*
X72060000Y-105080000D03*
D21*
X94910000Y-86040000D03*
D25*
X94910000Y-88580000D03*
X94910000Y-91120000D03*
X94910000Y-93660000D03*
X87290000Y-93660000D03*
X87290000Y-91120000D03*
X87290000Y-88580000D03*
X87290000Y-86040000D03*
D20*
X107711182Y-75870000D03*
D22*
X116510000Y-80950000D03*
D28*
X79085000Y-91030000D03*
D29*
X81585000Y-86030000D03*
X84085000Y-91030000D03*
D25*
X75870000Y-94920000D03*
D20*
X75870000Y-105080000D03*
D30*
X111255523Y-115242500D03*
D31*
X109055818Y-116512500D03*
D32*
X81585000Y-77775000D03*
D20*
X90383818Y-72695000D03*
D32*
X107711182Y-124130000D03*
D20*
X116510000Y-119050000D03*
X118369409Y-77775000D03*
D24*
X109570591Y-72695000D03*
D20*
X80315000Y-111390000D03*
X80315000Y-108890000D03*
%LPD*%
M02*
