G04 #@! TF.GenerationSoftware,KiCad,Pcbnew,7.0.9*
G04 #@! TF.CreationDate,2024-02-04T19:54:09+01:00*
G04 #@! TF.ProjectId,Toolbox,546f6f6c-626f-4782-9e6b-696361645f70,rev?*
G04 #@! TF.SameCoordinates,Original*
G04 #@! TF.FileFunction,Copper,L1,Top*
G04 #@! TF.FilePolarity,Positive*
%FSLAX46Y46*%
G04 Gerber Fmt 4.6, Leading zero omitted, Abs format (unit mm)*
G04 Created by KiCad (PCBNEW 7.0.9) date 2024-02-04 19:54:09*
%MOMM*%
%LPD*%
G01*
G04 APERTURE LIST*
G04 Aperture macros list*
%AMHorizOval*
0 Thick line with rounded ends*
0 $1 width*
0 $2 $3 position (X,Y) of the first rounded end (center of the circle)*
0 $4 $5 position (X,Y) of the second rounded end (center of the circle)*
0 Add line between two ends*
20,1,$1,$2,$3,$4,$5,0*
0 Add two circle primitives to create the rounded ends*
1,1,$1,$2,$3*
1,1,$1,$4,$5*%
%AMRotRect*
0 Rectangle, with rotation*
0 The origin of the aperture is its center*
0 $1 length*
0 $2 width*
0 $3 Rotation angle, in degrees counterclockwise*
0 Add horizontal line*
21,1,$1,$2,0,0,$3*%
G04 Aperture macros list end*
G04 #@! TA.AperFunction,SMDPad,CuDef*
%ADD10R,5.000000X2.000000*%
G04 #@! TD*
G04 #@! TA.AperFunction,SMDPad,CuDef*
%ADD11RotRect,2.000000X5.000000X30.000000*%
G04 #@! TD*
G04 #@! TA.AperFunction,SMDPad,CuDef*
%ADD12RotRect,2.000000X5.000000X210.000000*%
G04 #@! TD*
G04 #@! TA.AperFunction,SMDPad,CuDef*
%ADD13RotRect,2.000000X5.000000X330.000000*%
G04 #@! TD*
G04 #@! TA.AperFunction,SMDPad,CuDef*
%ADD14R,6.000000X2.650000*%
G04 #@! TD*
G04 #@! TA.AperFunction,SMDPad,CuDef*
%ADD15C,17.800000*%
G04 #@! TD*
G04 #@! TA.AperFunction,SMDPad,CuDef*
%ADD16RotRect,2.000000X5.000000X150.000000*%
G04 #@! TD*
G04 #@! TA.AperFunction,ComponentPad*
%ADD17C,1.600000*%
G04 #@! TD*
G04 #@! TA.AperFunction,ComponentPad*
%ADD18R,1.600000X1.600000*%
G04 #@! TD*
G04 #@! TA.AperFunction,ComponentPad*
%ADD19HorizOval,1.600000X0.000000X0.000000X0.000000X0.000000X0*%
G04 #@! TD*
G04 #@! TA.AperFunction,ComponentPad*
%ADD20HorizOval,1.600000X0.000000X0.000000X0.000000X0.000000X0*%
G04 #@! TD*
G04 #@! TA.AperFunction,ComponentPad*
%ADD21HorizOval,1.600000X0.000000X0.000000X0.000000X0.000000X0*%
G04 #@! TD*
G04 #@! TA.AperFunction,ComponentPad*
%ADD22O,1.600000X1.600000*%
G04 #@! TD*
G04 #@! TA.AperFunction,ComponentPad*
%ADD23RotRect,2.400000X1.600000X60.000000*%
G04 #@! TD*
G04 #@! TA.AperFunction,ComponentPad*
%ADD24HorizOval,1.600000X0.200000X0.346410X-0.200000X-0.346410X0*%
G04 #@! TD*
G04 #@! TA.AperFunction,ComponentPad*
%ADD25R,1.560000X1.560000*%
G04 #@! TD*
G04 #@! TA.AperFunction,ComponentPad*
%ADD26C,1.560000*%
G04 #@! TD*
G04 #@! TA.AperFunction,ComponentPad*
%ADD27C,1.800000*%
G04 #@! TD*
G04 #@! TA.AperFunction,ComponentPad*
%ADD28RotRect,1.800000X1.800000X30.000000*%
G04 #@! TD*
G04 #@! TA.AperFunction,ComponentPad*
%ADD29HorizOval,1.600000X0.000000X0.000000X0.000000X0.000000X0*%
G04 #@! TD*
G04 #@! TA.AperFunction,ViaPad*
%ADD30C,1.260000*%
G04 #@! TD*
G04 #@! TA.AperFunction,Conductor*
%ADD31C,0.600000*%
G04 #@! TD*
G04 APERTURE END LIST*
D10*
X72290000Y-108660000D03*
D11*
X121341558Y-119876110D03*
D12*
X95138442Y-70463890D03*
D13*
X77151558Y-119006110D03*
D14*
X119050000Y-87550000D03*
X119050000Y-112450000D03*
D15*
X119050000Y-100000000D03*
D12*
X78658442Y-80123890D03*
D16*
X106368442Y-71333890D03*
X122848442Y-80993890D03*
D11*
X104861558Y-129536110D03*
D10*
X72290000Y-89600000D03*
D13*
X93631558Y-128666110D03*
D17*
X93650000Y-79680000D03*
D18*
X93650000Y-82180000D03*
D19*
X90383818Y-127305000D03*
D17*
X81585000Y-122225000D03*
X109616182Y-127305000D03*
D20*
X118415000Y-122225000D03*
D21*
X83490000Y-119050000D03*
D17*
X92288818Y-124130000D03*
D20*
X92334409Y-75870000D03*
D17*
X83535591Y-80950000D03*
D22*
X106350000Y-93650000D03*
D17*
X106350000Y-103810000D03*
X79680000Y-94920000D03*
D22*
X79680000Y-105080000D03*
D23*
X100000000Y-122225000D03*
D24*
X97800295Y-120955000D03*
X95600591Y-119685000D03*
X93400886Y-118415000D03*
X91201182Y-117145000D03*
X89001477Y-115875000D03*
X86801773Y-114605000D03*
X84602068Y-113335000D03*
X88412068Y-106735886D03*
X90611773Y-108005886D03*
X92811477Y-109275886D03*
X95011182Y-110545886D03*
X97210886Y-111815886D03*
X99410591Y-113085886D03*
X101610295Y-114355886D03*
X103810000Y-115625886D03*
D22*
X106350000Y-80315000D03*
D17*
X106350000Y-90475000D03*
X72060000Y-94920000D03*
D22*
X72060000Y-105080000D03*
D18*
X94910000Y-86040000D03*
D22*
X94910000Y-88580000D03*
X94910000Y-91120000D03*
X94910000Y-93660000D03*
X87290000Y-93660000D03*
X87290000Y-91120000D03*
X87290000Y-88580000D03*
X87290000Y-86040000D03*
D17*
X107711182Y-75870000D03*
D19*
X116510000Y-80950000D03*
D25*
X79085000Y-91030000D03*
D26*
X81585000Y-86030000D03*
X84085000Y-91030000D03*
D22*
X75870000Y-94920000D03*
D17*
X75870000Y-105080000D03*
D27*
X111255523Y-115242500D03*
D28*
X109055818Y-116512500D03*
D29*
X81585000Y-77775000D03*
D17*
X90383818Y-72695000D03*
D29*
X107711182Y-124130000D03*
D17*
X116510000Y-119050000D03*
X118369409Y-77775000D03*
D21*
X109570591Y-72695000D03*
D17*
X80315000Y-111390000D03*
X80315000Y-108890000D03*
D30*
X127940000Y-112065000D03*
X126035000Y-112065000D03*
X111430000Y-88570000D03*
X113335000Y-88570000D03*
X105715000Y-108890000D03*
X101270000Y-91110000D03*
X99365000Y-76505000D03*
X86665000Y-100635000D03*
X85395000Y-101905000D03*
X97460000Y-74600000D03*
X73965000Y-100000000D03*
X84125000Y-103175000D03*
X124130000Y-87935000D03*
D31*
X105080000Y-105080000D02*
X86665000Y-105080000D01*
X106350000Y-103810000D02*
X105080000Y-105080000D01*
X106350000Y-93650000D02*
X94920000Y-93650000D01*
X127555000Y-112450000D02*
X127940000Y-112065000D01*
X119050000Y-112450000D02*
X127555000Y-112450000D01*
X125650000Y-112450000D02*
X126035000Y-112065000D01*
X119050000Y-112450000D02*
X125650000Y-112450000D01*
X112450000Y-87550000D02*
X111430000Y-88570000D01*
X119050000Y-87550000D02*
X112450000Y-87550000D01*
X114355000Y-87550000D02*
X113335000Y-88570000D01*
X119050000Y-87550000D02*
X114355000Y-87550000D01*
X103606477Y-108890000D02*
X99410591Y-113085886D01*
X105715000Y-108890000D02*
X103606477Y-108890000D01*
X101270000Y-91110000D02*
X101260000Y-91120000D01*
X101260000Y-91120000D02*
X94910000Y-91120000D01*
X100000000Y-75870000D02*
X107711182Y-75870000D01*
X99365000Y-76505000D02*
X100000000Y-75870000D01*
X86665000Y-100635000D02*
X86665000Y-105080000D01*
X86665000Y-105080000D02*
X79680000Y-105080000D01*
X72060000Y-99693062D02*
X72060000Y-94920000D01*
X74271938Y-101905000D02*
X72060000Y-99693062D01*
X85395000Y-101905000D02*
X74271938Y-101905000D01*
X113305000Y-74570000D02*
X116510000Y-77775000D01*
X97490000Y-74570000D02*
X113305000Y-74570000D01*
X97460000Y-74600000D02*
X97490000Y-74570000D01*
X116510000Y-77775000D02*
X118369409Y-77775000D01*
X84750000Y-93660000D02*
X78410000Y-100000000D01*
X78410000Y-100000000D02*
X73965000Y-100000000D01*
X87290000Y-93660000D02*
X84750000Y-93660000D01*
X87290000Y-86040000D02*
X94910000Y-93660000D01*
X77775000Y-103175000D02*
X75870000Y-105080000D01*
X84125000Y-103175000D02*
X77775000Y-103175000D01*
X85073550Y-112863518D02*
X84602068Y-113335000D01*
X96163254Y-112863518D02*
X85073550Y-112863518D01*
X97210886Y-111815886D02*
X96163254Y-112863518D01*
X95138442Y-78191558D02*
X93650000Y-79680000D01*
X95138442Y-70463890D02*
X95138442Y-78191558D01*
X124130000Y-87935000D02*
X124130000Y-87305000D01*
X124130000Y-87305000D02*
X122550000Y-85725000D01*
X122550000Y-85725000D02*
X111100000Y-85725000D01*
X111100000Y-85725000D02*
X106350000Y-90475000D01*
X99410591Y-125235000D02*
X97800295Y-123624704D01*
X102540000Y-125235000D02*
X99410591Y-125235000D01*
X105550000Y-122225000D02*
X102540000Y-125235000D01*
X112065000Y-122225000D02*
X105550000Y-122225000D01*
X97800295Y-123624704D02*
X97800295Y-120955000D01*
X115240000Y-119050000D02*
X112065000Y-122225000D01*
X116510000Y-119050000D02*
X115240000Y-119050000D01*
X97460000Y-126035000D02*
X95600591Y-124175591D01*
X95600591Y-124175591D02*
X95600591Y-119685000D01*
X108346182Y-126035000D02*
X97460000Y-126035000D01*
X109616182Y-127305000D02*
X108346182Y-126035000D01*
X72802401Y-111390000D02*
X72207401Y-110795000D01*
X72207401Y-110795000D02*
X72060000Y-114605000D01*
X72290000Y-108660000D02*
X72207401Y-110795000D01*
X80315000Y-111390000D02*
X72802401Y-111390000D01*
X80315000Y-111390000D02*
X82657068Y-111390000D01*
X82657068Y-111390000D02*
X84602068Y-113335000D01*
X119685000Y-123495000D02*
X121341558Y-119876110D01*
X110160000Y-129210000D02*
X119685000Y-123495000D01*
X104861558Y-129536110D02*
X110160000Y-129210000D01*
X89840000Y-129210000D02*
X93631558Y-128666110D01*
X79739037Y-123393794D02*
X89840000Y-129210000D01*
X77151558Y-119006110D02*
X79739037Y-123393794D01*
X72060000Y-114605000D02*
X77151558Y-119006110D01*
X72060000Y-84125000D02*
X72290000Y-89600000D01*
X78658442Y-80123890D02*
X72060000Y-84125000D01*
X80315000Y-76505000D02*
X78658442Y-80123890D01*
X90475000Y-70790000D02*
X80315000Y-76505000D01*
X95138442Y-70463890D02*
X90475000Y-70790000D01*
X109525000Y-70790000D02*
X106368442Y-71333890D01*
X120955000Y-77140000D02*
X109525000Y-70790000D01*
X122848442Y-80993890D02*
X120955000Y-77140000D01*
X70155000Y-106525000D02*
X72290000Y-108660000D01*
X70155000Y-91735000D02*
X70155000Y-106525000D01*
X72290000Y-89600000D02*
X70155000Y-91735000D01*
X127305000Y-91745000D02*
X119050000Y-100000000D01*
X127305000Y-85395000D02*
X127305000Y-91745000D01*
X127249552Y-85395000D02*
X127305000Y-85395000D01*
X122848442Y-80993890D02*
X127249552Y-85395000D01*
X95138442Y-70463890D02*
X105498442Y-70463890D01*
X105498442Y-70463890D02*
X106368442Y-71333890D01*
X89590886Y-122225000D02*
X93400886Y-118415000D01*
X81585000Y-122225000D02*
X89590886Y-122225000D01*
X104861558Y-129536110D02*
X94501558Y-129536110D01*
X94920000Y-93650000D02*
X94910000Y-93660000D01*
X106350000Y-90475000D02*
X106350000Y-93650000D01*
X85435000Y-82180000D02*
X93650000Y-82180000D01*
X81585000Y-86030000D02*
X85435000Y-82180000D01*
X84085000Y-88530000D02*
X81585000Y-86030000D01*
X84085000Y-91030000D02*
X84085000Y-88530000D01*
X87200000Y-91030000D02*
X87290000Y-91120000D01*
X84085000Y-91030000D02*
X87200000Y-91030000D01*
X94501558Y-129536110D02*
X93631558Y-128666110D01*
G04 #@! TA.AperFunction,Conductor*
G36*
X100062478Y-64477023D02*
G01*
X106345787Y-68142287D01*
X106393774Y-68193068D01*
X106406690Y-68261733D01*
X106382226Y-68322055D01*
X106383210Y-68322773D01*
X106343323Y-68377398D01*
X106343313Y-68377412D01*
X105194403Y-70367383D01*
X105194403Y-70367384D01*
X106602560Y-71180384D01*
X106650776Y-71230951D01*
X106663999Y-71299558D01*
X106647947Y-71349771D01*
X106521947Y-71568009D01*
X106471380Y-71616225D01*
X106402773Y-71629448D01*
X106352560Y-71613396D01*
X104944403Y-70800396D01*
X104944402Y-70800396D01*
X103795492Y-72790369D01*
X103771258Y-72845149D01*
X103747417Y-72986930D01*
X103747416Y-72986932D01*
X103764487Y-73129695D01*
X103821083Y-73261861D01*
X103912627Y-73372734D01*
X103912629Y-73372735D01*
X103960988Y-73408046D01*
X103961002Y-73408056D01*
X104186268Y-73538113D01*
X104234484Y-73588680D01*
X104247707Y-73657287D01*
X104221739Y-73722152D01*
X104164825Y-73762680D01*
X104124268Y-73769500D01*
X98275080Y-73769500D01*
X98208041Y-73749815D01*
X98191542Y-73737137D01*
X98144197Y-73693977D01*
X98144195Y-73693975D01*
X97966069Y-73583684D01*
X97966063Y-73583682D01*
X97770701Y-73507998D01*
X97564756Y-73469500D01*
X97355244Y-73469500D01*
X97149299Y-73507998D01*
X97025752Y-73555860D01*
X96953936Y-73583682D01*
X96953930Y-73583684D01*
X96775805Y-73693974D01*
X96775800Y-73693978D01*
X96620976Y-73835118D01*
X96620973Y-73835121D01*
X96494712Y-74002318D01*
X96401328Y-74189856D01*
X96401323Y-74189869D01*
X96343987Y-74391381D01*
X96324657Y-74599999D01*
X96324657Y-74600000D01*
X96343987Y-74808618D01*
X96401323Y-75010130D01*
X96401328Y-75010143D01*
X96494712Y-75197681D01*
X96620973Y-75364878D01*
X96620976Y-75364881D01*
X96775800Y-75506021D01*
X96775805Y-75506025D01*
X96953930Y-75616315D01*
X96953931Y-75616315D01*
X96953934Y-75616317D01*
X97149299Y-75692002D01*
X97355244Y-75730500D01*
X97355246Y-75730500D01*
X97564754Y-75730500D01*
X97564756Y-75730500D01*
X97770701Y-75692002D01*
X97966066Y-75616317D01*
X98110975Y-75526593D01*
X98144194Y-75506025D01*
X98144194Y-75506024D01*
X98144197Y-75506023D01*
X98257359Y-75402862D01*
X98320163Y-75372246D01*
X98340897Y-75370500D01*
X98613991Y-75370500D01*
X98681030Y-75390185D01*
X98726785Y-75442989D01*
X98736729Y-75512147D01*
X98707704Y-75575703D01*
X98685010Y-75595035D01*
X98685378Y-75595522D01*
X98680800Y-75598978D01*
X98525976Y-75740118D01*
X98525973Y-75740121D01*
X98399712Y-75907318D01*
X98306328Y-76094856D01*
X98306323Y-76094869D01*
X98248987Y-76296381D01*
X98229657Y-76504999D01*
X98229657Y-76505000D01*
X98248987Y-76713618D01*
X98306323Y-76915130D01*
X98306328Y-76915143D01*
X98399712Y-77102681D01*
X98525973Y-77269878D01*
X98525976Y-77269881D01*
X98680800Y-77411021D01*
X98680805Y-77411025D01*
X98858930Y-77521315D01*
X98858931Y-77521315D01*
X98858934Y-77521317D01*
X99054299Y-77597002D01*
X99260244Y-77635500D01*
X99260246Y-77635500D01*
X99469754Y-77635500D01*
X99469756Y-77635500D01*
X99675701Y-77597002D01*
X99871066Y-77521317D01*
X100049197Y-77411023D01*
X100204029Y-77269876D01*
X100330288Y-77102681D01*
X100423676Y-76915133D01*
X100467654Y-76760564D01*
X100504933Y-76701472D01*
X100568243Y-76671915D01*
X100586920Y-76670500D01*
X106621133Y-76670500D01*
X106688172Y-76690185D01*
X106708814Y-76706819D01*
X106872040Y-76870045D01*
X106872043Y-76870047D01*
X107058448Y-77000568D01*
X107264686Y-77096739D01*
X107484490Y-77155635D01*
X107618942Y-77167398D01*
X107711180Y-77175468D01*
X107711182Y-77175468D01*
X107711184Y-77175468D01*
X107767855Y-77170509D01*
X107937874Y-77155635D01*
X108157678Y-77096739D01*
X108363916Y-77000568D01*
X108550321Y-76870047D01*
X108711229Y-76709139D01*
X108841750Y-76522734D01*
X108937921Y-76316496D01*
X108996817Y-76096692D01*
X109016650Y-75870000D01*
X108996817Y-75643308D01*
X108983490Y-75593573D01*
X108965544Y-75526593D01*
X108967207Y-75456743D01*
X109006370Y-75398881D01*
X109070599Y-75371377D01*
X109085319Y-75370500D01*
X112922060Y-75370500D01*
X112989099Y-75390185D01*
X113009741Y-75406819D01*
X116007740Y-78404818D01*
X116020790Y-78413017D01*
X116043104Y-78427038D01*
X116048757Y-78431049D01*
X116081413Y-78457091D01*
X116119044Y-78475213D01*
X116125106Y-78478563D01*
X116154524Y-78497048D01*
X116160478Y-78500789D01*
X116199898Y-78514583D01*
X116206326Y-78517245D01*
X116243939Y-78535359D01*
X116284655Y-78544652D01*
X116291324Y-78546574D01*
X116330745Y-78560368D01*
X116372251Y-78565044D01*
X116379076Y-78566203D01*
X116419805Y-78575500D01*
X116465046Y-78575500D01*
X117279360Y-78575500D01*
X117346399Y-78595185D01*
X117367041Y-78611819D01*
X117530267Y-78775045D01*
X117530270Y-78775047D01*
X117716675Y-78905568D01*
X117922913Y-79001739D01*
X118142717Y-79060635D01*
X118304639Y-79074801D01*
X118369407Y-79080468D01*
X118369409Y-79080468D01*
X118369411Y-79080468D01*
X118426082Y-79075509D01*
X118596101Y-79060635D01*
X118815905Y-79001739D01*
X119022143Y-78905568D01*
X119208548Y-78775047D01*
X119369456Y-78614139D01*
X119499977Y-78427734D01*
X119596148Y-78221496D01*
X119655044Y-78001692D01*
X119674877Y-77775000D01*
X119655044Y-77548308D01*
X119596148Y-77328504D01*
X119499977Y-77122266D01*
X119382728Y-76954815D01*
X119369454Y-76935858D01*
X119208550Y-76774954D01*
X119022143Y-76644432D01*
X119022141Y-76644431D01*
X118815906Y-76548261D01*
X118815897Y-76548258D01*
X118596106Y-76489366D01*
X118596102Y-76489365D01*
X118596101Y-76489365D01*
X118596100Y-76489364D01*
X118596095Y-76489364D01*
X118369411Y-76469532D01*
X118369407Y-76469532D01*
X118142722Y-76489364D01*
X118142711Y-76489366D01*
X117922920Y-76548258D01*
X117922911Y-76548261D01*
X117716676Y-76644431D01*
X117716674Y-76644432D01*
X117530267Y-76774954D01*
X117367041Y-76938181D01*
X117305718Y-76971666D01*
X117279360Y-76974500D01*
X116892940Y-76974500D01*
X116825901Y-76954815D01*
X116805259Y-76938181D01*
X113807262Y-73940184D01*
X113807259Y-73940182D01*
X113771904Y-73917966D01*
X113766229Y-73913940D01*
X113733589Y-73887910D01*
X113695959Y-73869787D01*
X113689872Y-73866422D01*
X113654525Y-73844212D01*
X113615114Y-73830421D01*
X113608688Y-73827759D01*
X113571061Y-73809639D01*
X113530345Y-73800345D01*
X113523662Y-73798420D01*
X113484259Y-73784632D01*
X113442763Y-73779955D01*
X113435908Y-73778791D01*
X113395200Y-73769501D01*
X113395196Y-73769500D01*
X113395194Y-73769500D01*
X113395191Y-73769500D01*
X110634640Y-73769500D01*
X110567601Y-73749815D01*
X110521846Y-73697011D01*
X110511902Y-73627853D01*
X110540927Y-73564297D01*
X110546959Y-73557819D01*
X110570636Y-73534141D01*
X110570638Y-73534139D01*
X110701159Y-73347734D01*
X110797330Y-73141496D01*
X110856226Y-72921692D01*
X110876059Y-72695000D01*
X110856226Y-72468308D01*
X110797330Y-72248504D01*
X110701159Y-72042266D01*
X110570638Y-71855861D01*
X110570636Y-71855858D01*
X110409732Y-71694954D01*
X110223325Y-71564432D01*
X110223323Y-71564431D01*
X110017088Y-71468261D01*
X110017079Y-71468258D01*
X109797288Y-71409366D01*
X109797284Y-71409365D01*
X109797283Y-71409365D01*
X109797282Y-71409364D01*
X109797277Y-71409364D01*
X109570593Y-71389532D01*
X109570589Y-71389532D01*
X109343904Y-71409364D01*
X109343893Y-71409366D01*
X109124102Y-71468258D01*
X109124093Y-71468261D01*
X108917858Y-71564431D01*
X108917856Y-71564432D01*
X108731449Y-71694954D01*
X108570545Y-71855858D01*
X108440023Y-72042265D01*
X108440022Y-72042267D01*
X108343852Y-72248502D01*
X108343849Y-72248511D01*
X108284957Y-72468302D01*
X108284955Y-72468313D01*
X108265123Y-72694998D01*
X108265123Y-72695001D01*
X108284955Y-72921686D01*
X108284957Y-72921697D01*
X108343849Y-73141488D01*
X108343852Y-73141497D01*
X108440022Y-73347732D01*
X108440023Y-73347734D01*
X108570545Y-73534141D01*
X108594223Y-73557819D01*
X108627708Y-73619142D01*
X108622724Y-73688834D01*
X108580852Y-73744767D01*
X108515388Y-73769184D01*
X108506542Y-73769500D01*
X106909067Y-73769500D01*
X106842028Y-73749815D01*
X106796273Y-73697011D01*
X106786329Y-73627853D01*
X106801680Y-73583500D01*
X108941392Y-69877410D01*
X108941394Y-69877404D01*
X108963010Y-69828542D01*
X109008133Y-69775197D01*
X109074933Y-69754715D01*
X109138888Y-69771596D01*
X115992437Y-73769500D01*
X122857165Y-77773925D01*
X122905154Y-77824708D01*
X122918070Y-77893373D01*
X122891812Y-77958121D01*
X122873636Y-77976652D01*
X122858636Y-77989036D01*
X122858634Y-77989039D01*
X122823323Y-78037398D01*
X122823313Y-78037412D01*
X121674403Y-80027383D01*
X121674403Y-80027384D01*
X122771070Y-80660545D01*
X122771076Y-80660547D01*
X124272479Y-81527382D01*
X124272480Y-81527382D01*
X125421395Y-79537403D01*
X125445625Y-79482630D01*
X125446306Y-79478582D01*
X125447705Y-79475700D01*
X125447856Y-79475200D01*
X125447937Y-79475224D01*
X125476834Y-79415735D01*
X125536494Y-79379370D01*
X125606344Y-79381032D01*
X125631065Y-79392033D01*
X130417980Y-82184400D01*
X130465969Y-82235183D01*
X130479500Y-82291509D01*
X130479500Y-97386743D01*
X130459815Y-97453782D01*
X130415720Y-97495139D01*
X128506792Y-98555653D01*
X128438629Y-98571002D01*
X128372988Y-98547064D01*
X128330710Y-98491437D01*
X128324228Y-98467456D01*
X128274319Y-98165158D01*
X128274319Y-98165159D01*
X128134566Y-97565792D01*
X127955914Y-96976857D01*
X127955914Y-96976856D01*
X127739121Y-96400851D01*
X127485120Y-95840258D01*
X127195001Y-95297484D01*
X127195002Y-95297484D01*
X126870006Y-94774848D01*
X126511517Y-94274576D01*
X126511517Y-94274577D01*
X126121083Y-93798832D01*
X126121082Y-93798832D01*
X125871354Y-93532199D01*
X119403553Y-100000000D01*
X125871354Y-106467800D01*
X126121076Y-106201176D01*
X126121076Y-106201175D01*
X126511517Y-105725423D01*
X126511517Y-105725424D01*
X126870006Y-105225152D01*
X127195002Y-104702516D01*
X127195001Y-104702516D01*
X127485120Y-104159742D01*
X127739121Y-103599149D01*
X127955914Y-103023144D01*
X128070930Y-102643978D01*
X128109227Y-102585540D01*
X128173039Y-102557083D01*
X128242106Y-102567643D01*
X128249805Y-102571574D01*
X130415721Y-103774860D01*
X130464763Y-103824624D01*
X130479500Y-103883255D01*
X130479500Y-117708489D01*
X130459815Y-117775528D01*
X130417980Y-117815598D01*
X124125565Y-121486173D01*
X124057739Y-121502949D01*
X123991611Y-121480392D01*
X123948175Y-121425665D01*
X123940801Y-121399625D01*
X123938739Y-121387366D01*
X123914507Y-121332589D01*
X123914508Y-121332589D01*
X122765596Y-119342616D01*
X122765595Y-119342616D01*
X121357439Y-120155616D01*
X121289539Y-120172089D01*
X121223512Y-120149236D01*
X121188052Y-120110229D01*
X121008215Y-119798744D01*
X121008213Y-119798738D01*
X119625052Y-117403033D01*
X119625051Y-117403033D01*
X118934118Y-117801943D01*
X118934104Y-117801953D01*
X118885745Y-117837264D01*
X118885743Y-117837265D01*
X118794199Y-117948138D01*
X118737603Y-118080304D01*
X118720532Y-118223067D01*
X118720533Y-118223069D01*
X118744374Y-118364850D01*
X118768604Y-118419623D01*
X121316429Y-122832587D01*
X121316439Y-122832601D01*
X121351750Y-122880960D01*
X121351755Y-122880965D01*
X121373148Y-122898629D01*
X121412311Y-122956491D01*
X121413974Y-123026341D01*
X121377609Y-123086002D01*
X121356679Y-123101357D01*
X107635176Y-131105567D01*
X107567350Y-131122343D01*
X107501222Y-131099786D01*
X107459297Y-131048624D01*
X107434512Y-130992597D01*
X107434508Y-130992589D01*
X106285596Y-129002616D01*
X106285595Y-129002616D01*
X104806506Y-129856569D01*
X104806502Y-129856570D01*
X103687519Y-130502614D01*
X103687519Y-130502615D01*
X104836429Y-132492587D01*
X104836439Y-132492601D01*
X104871750Y-132540960D01*
X104872153Y-132541388D01*
X104872360Y-132541795D01*
X104876326Y-132547227D01*
X104875445Y-132547869D01*
X104903798Y-132603681D01*
X104896742Y-132673193D01*
X104853224Y-132727856D01*
X104844381Y-132733530D01*
X100062479Y-135522974D01*
X99994653Y-135539750D01*
X99937519Y-135522974D01*
X95155615Y-132733530D01*
X93654214Y-131857712D01*
X93606226Y-131806930D01*
X93593310Y-131738265D01*
X93617772Y-131677944D01*
X93616790Y-131677227D01*
X93656676Y-131622601D01*
X93656686Y-131622587D01*
X94805595Y-129632615D01*
X94805595Y-129632614D01*
X93661065Y-128971820D01*
X93661062Y-128971819D01*
X93397438Y-128819615D01*
X93349222Y-128769048D01*
X93336000Y-128700441D01*
X93352051Y-128650228D01*
X93395713Y-128574603D01*
X93973063Y-128574603D01*
X95055595Y-129199602D01*
X95055596Y-129199602D01*
X96204511Y-127209623D01*
X96228741Y-127154850D01*
X96252582Y-127013069D01*
X96252583Y-127013067D01*
X96235512Y-126870304D01*
X96178916Y-126738138D01*
X96087372Y-126627265D01*
X96087370Y-126627264D01*
X96039011Y-126591953D01*
X96038997Y-126591943D01*
X95348063Y-126193033D01*
X95348062Y-126193033D01*
X93973063Y-128574602D01*
X93973063Y-128574603D01*
X93395713Y-128574603D01*
X94915050Y-125943033D01*
X94915050Y-125943032D01*
X94224116Y-125544122D01*
X94169336Y-125519888D01*
X94027555Y-125496047D01*
X94027553Y-125496046D01*
X93884790Y-125513117D01*
X93752624Y-125569713D01*
X93641751Y-125661257D01*
X93641750Y-125661259D01*
X93606439Y-125709618D01*
X93606429Y-125709632D01*
X91058603Y-130122598D01*
X91036988Y-130171459D01*
X90991863Y-130224803D01*
X90925062Y-130245283D01*
X90861109Y-130228401D01*
X85849566Y-127305001D01*
X89078350Y-127305001D01*
X89098182Y-127531686D01*
X89098184Y-127531697D01*
X89157076Y-127751488D01*
X89157079Y-127751497D01*
X89253249Y-127957732D01*
X89253250Y-127957734D01*
X89383772Y-128144141D01*
X89544676Y-128305045D01*
X89544679Y-128305047D01*
X89731084Y-128435568D01*
X89937322Y-128531739D01*
X90157126Y-128590635D01*
X90319048Y-128604801D01*
X90383816Y-128610468D01*
X90383818Y-128610468D01*
X90383820Y-128610468D01*
X90440491Y-128605509D01*
X90610510Y-128590635D01*
X90830314Y-128531739D01*
X91036552Y-128435568D01*
X91222957Y-128305047D01*
X91383865Y-128144139D01*
X91514386Y-127957734D01*
X91610557Y-127751496D01*
X91669453Y-127531692D01*
X91689286Y-127305000D01*
X91669453Y-127078308D01*
X91610557Y-126858504D01*
X91514386Y-126652266D01*
X91383865Y-126465861D01*
X91383863Y-126465858D01*
X91222959Y-126304954D01*
X91036552Y-126174432D01*
X91036550Y-126174431D01*
X90830315Y-126078261D01*
X90830306Y-126078258D01*
X90610515Y-126019366D01*
X90610511Y-126019365D01*
X90610510Y-126019365D01*
X90610509Y-126019364D01*
X90610504Y-126019364D01*
X90383820Y-125999532D01*
X90383816Y-125999532D01*
X90157131Y-126019364D01*
X90157120Y-126019366D01*
X89937329Y-126078258D01*
X89937320Y-126078261D01*
X89731085Y-126174431D01*
X89731083Y-126174432D01*
X89544676Y-126304954D01*
X89383772Y-126465858D01*
X89253250Y-126652265D01*
X89253249Y-126652267D01*
X89157079Y-126858502D01*
X89157076Y-126858511D01*
X89098184Y-127078302D01*
X89098182Y-127078313D01*
X89078350Y-127304998D01*
X89078350Y-127305001D01*
X85849566Y-127305001D01*
X80406709Y-124130001D01*
X90983350Y-124130001D01*
X91003182Y-124356686D01*
X91003184Y-124356697D01*
X91062076Y-124576488D01*
X91062079Y-124576497D01*
X91158249Y-124782732D01*
X91158250Y-124782734D01*
X91288772Y-124969141D01*
X91449676Y-125130045D01*
X91449679Y-125130047D01*
X91636084Y-125260568D01*
X91842322Y-125356739D01*
X92062126Y-125415635D01*
X92224048Y-125429801D01*
X92288816Y-125435468D01*
X92288818Y-125435468D01*
X92288820Y-125435468D01*
X92345491Y-125430509D01*
X92515510Y-125415635D01*
X92735314Y-125356739D01*
X92941552Y-125260568D01*
X93127957Y-125130047D01*
X93288865Y-124969139D01*
X93419386Y-124782734D01*
X93515557Y-124576496D01*
X93574453Y-124356692D01*
X93594286Y-124130000D01*
X93574453Y-123903308D01*
X93515557Y-123683504D01*
X93419386Y-123477266D01*
X93288865Y-123290861D01*
X93288863Y-123290858D01*
X93127959Y-123129954D01*
X92941552Y-122999432D01*
X92941550Y-122999431D01*
X92735315Y-122903261D01*
X92735306Y-122903258D01*
X92515515Y-122844366D01*
X92515511Y-122844365D01*
X92515510Y-122844365D01*
X92515509Y-122844364D01*
X92515504Y-122844364D01*
X92288820Y-122824532D01*
X92288816Y-122824532D01*
X92062131Y-122844364D01*
X92062120Y-122844366D01*
X91842329Y-122903258D01*
X91842320Y-122903261D01*
X91636085Y-122999431D01*
X91636083Y-122999432D01*
X91449676Y-123129954D01*
X91288772Y-123290858D01*
X91158250Y-123477265D01*
X91158249Y-123477267D01*
X91062079Y-123683502D01*
X91062076Y-123683511D01*
X91003184Y-123903302D01*
X91003182Y-123903313D01*
X90983350Y-124129998D01*
X90983350Y-124130001D01*
X80406709Y-124130001D01*
X77142835Y-122226074D01*
X77141821Y-122225001D01*
X80279532Y-122225001D01*
X80299364Y-122451686D01*
X80299366Y-122451697D01*
X80358258Y-122671488D01*
X80358261Y-122671497D01*
X80454431Y-122877732D01*
X80454432Y-122877734D01*
X80584954Y-123064141D01*
X80745858Y-123225045D01*
X80745861Y-123225047D01*
X80932266Y-123355568D01*
X81138504Y-123451739D01*
X81358308Y-123510635D01*
X81520230Y-123524801D01*
X81584998Y-123530468D01*
X81585000Y-123530468D01*
X81585002Y-123530468D01*
X81641673Y-123525509D01*
X81811692Y-123510635D01*
X82031496Y-123451739D01*
X82237734Y-123355568D01*
X82424139Y-123225047D01*
X82482039Y-123167147D01*
X82587368Y-123061819D01*
X82648691Y-123028334D01*
X82675049Y-123025500D01*
X89681080Y-123025500D01*
X89721791Y-123016208D01*
X89728646Y-123015043D01*
X89770141Y-123010368D01*
X89809566Y-122996571D01*
X89816207Y-122994658D01*
X89856947Y-122985360D01*
X89894579Y-122967236D01*
X89900991Y-122964580D01*
X89940408Y-122950789D01*
X89975775Y-122928565D01*
X89981847Y-122925209D01*
X90019473Y-122907091D01*
X90052122Y-122881052D01*
X90057781Y-122877037D01*
X90093148Y-122854816D01*
X90220702Y-122727262D01*
X90220702Y-122727261D01*
X92866259Y-120081703D01*
X92927580Y-120048220D01*
X92968726Y-120047404D01*
X92968799Y-120046573D01*
X92974192Y-120047044D01*
X92974193Y-120047045D01*
X93046319Y-120053355D01*
X93200884Y-120066878D01*
X93200886Y-120066878D01*
X93200888Y-120066878D01*
X93230269Y-120064307D01*
X93427578Y-120047046D01*
X93647382Y-119988149D01*
X93853619Y-119891978D01*
X93906052Y-119855264D01*
X93972256Y-119832938D01*
X94040023Y-119849948D01*
X94087836Y-119900896D01*
X94100701Y-119967647D01*
X94095123Y-120031407D01*
X94095123Y-120031412D01*
X94096753Y-120050045D01*
X94114955Y-120258102D01*
X94148127Y-120381899D01*
X94173853Y-120477909D01*
X94270019Y-120684136D01*
X94270021Y-120684139D01*
X94270023Y-120684143D01*
X94400544Y-120870549D01*
X94400545Y-120870550D01*
X94400546Y-120870551D01*
X94561450Y-121031455D01*
X94747214Y-121161528D01*
X94790839Y-121216105D01*
X94800091Y-121263103D01*
X94800091Y-124265782D01*
X94800092Y-124265791D01*
X94809382Y-124306499D01*
X94810546Y-124313354D01*
X94815223Y-124354850D01*
X94829011Y-124394253D01*
X94830936Y-124400936D01*
X94840230Y-124441652D01*
X94858350Y-124479279D01*
X94861012Y-124485705D01*
X94874803Y-124525116D01*
X94897013Y-124560463D01*
X94900378Y-124566550D01*
X94918501Y-124604180D01*
X94944531Y-124636820D01*
X94948557Y-124642495D01*
X94970773Y-124677850D01*
X94970775Y-124677853D01*
X96957740Y-126664818D01*
X96970790Y-126673017D01*
X96993104Y-126687038D01*
X96998757Y-126691049D01*
X97031413Y-126717091D01*
X97069044Y-126735213D01*
X97075106Y-126738563D01*
X97110478Y-126760789D01*
X97149898Y-126774583D01*
X97156326Y-126777245D01*
X97193939Y-126795359D01*
X97234655Y-126804652D01*
X97241324Y-126806574D01*
X97280745Y-126820368D01*
X97322251Y-126825044D01*
X97329076Y-126826203D01*
X97369805Y-126835500D01*
X97415046Y-126835500D01*
X103076378Y-126835500D01*
X103143417Y-126855185D01*
X103189172Y-126907989D01*
X103199116Y-126977147D01*
X103170091Y-127040703D01*
X103138378Y-127066887D01*
X102454118Y-127461943D01*
X102454104Y-127461953D01*
X102405745Y-127497264D01*
X102405743Y-127497265D01*
X102314199Y-127608138D01*
X102257603Y-127740304D01*
X102240532Y-127883067D01*
X102240533Y-127883069D01*
X102264374Y-128024850D01*
X102288608Y-128079630D01*
X102288607Y-128079630D01*
X103437518Y-130069602D01*
X103437519Y-130069602D01*
X104953064Y-129194604D01*
X106035595Y-128569604D01*
X106035595Y-128569603D01*
X105141798Y-127021500D01*
X105125325Y-126953600D01*
X105148178Y-126887573D01*
X105203099Y-126844382D01*
X105249185Y-126835500D01*
X107963242Y-126835500D01*
X108030281Y-126855185D01*
X108050923Y-126871819D01*
X108283776Y-127104672D01*
X108317261Y-127165995D01*
X108319623Y-127203160D01*
X108310714Y-127304997D01*
X108310714Y-127305001D01*
X108330546Y-127531686D01*
X108330548Y-127531697D01*
X108389440Y-127751488D01*
X108389443Y-127751497D01*
X108485613Y-127957732D01*
X108485614Y-127957734D01*
X108616136Y-128144141D01*
X108777040Y-128305045D01*
X108777043Y-128305047D01*
X108963448Y-128435568D01*
X109169686Y-128531739D01*
X109389490Y-128590635D01*
X109551412Y-128604801D01*
X109616180Y-128610468D01*
X109616182Y-128610468D01*
X109616184Y-128610468D01*
X109672855Y-128605509D01*
X109842874Y-128590635D01*
X110062678Y-128531739D01*
X110268916Y-128435568D01*
X110455321Y-128305047D01*
X110616229Y-128144139D01*
X110746750Y-127957734D01*
X110842921Y-127751496D01*
X110901817Y-127531692D01*
X110921650Y-127305000D01*
X110901817Y-127078308D01*
X110842921Y-126858504D01*
X110746750Y-126652266D01*
X110616229Y-126465861D01*
X110616227Y-126465858D01*
X110455323Y-126304954D01*
X110268916Y-126174432D01*
X110268914Y-126174431D01*
X110062679Y-126078261D01*
X110062670Y-126078258D01*
X109842879Y-126019366D01*
X109842875Y-126019365D01*
X109842874Y-126019365D01*
X109842873Y-126019364D01*
X109842868Y-126019364D01*
X109616184Y-125999532D01*
X109616180Y-125999532D01*
X109514342Y-126008441D01*
X109445842Y-125994674D01*
X109415854Y-125972594D01*
X108848444Y-125405184D01*
X108848441Y-125405182D01*
X108813086Y-125382966D01*
X108807411Y-125378940D01*
X108774771Y-125352910D01*
X108737141Y-125334787D01*
X108731054Y-125331422D01*
X108695707Y-125309212D01*
X108691154Y-125307618D01*
X108656289Y-125295418D01*
X108649868Y-125292758D01*
X108630309Y-125283339D01*
X108578449Y-125236516D01*
X108560137Y-125169089D01*
X108581185Y-125102465D01*
X108596425Y-125083942D01*
X108711229Y-124969139D01*
X108841750Y-124782734D01*
X108937921Y-124576496D01*
X108996817Y-124356692D01*
X109016650Y-124130000D01*
X108996817Y-123903308D01*
X108937921Y-123683504D01*
X108841750Y-123477266D01*
X108711229Y-123290861D01*
X108711227Y-123290858D01*
X108657550Y-123237181D01*
X108624065Y-123175858D01*
X108629049Y-123106166D01*
X108670921Y-123050233D01*
X108736385Y-123025816D01*
X108745231Y-123025500D01*
X112155194Y-123025500D01*
X112195905Y-123016208D01*
X112202760Y-123015043D01*
X112244255Y-123010368D01*
X112283680Y-122996571D01*
X112290321Y-122994658D01*
X112331061Y-122985360D01*
X112368693Y-122967236D01*
X112375105Y-122964580D01*
X112414522Y-122950789D01*
X112449889Y-122928565D01*
X112455961Y-122925209D01*
X112493587Y-122907091D01*
X112526236Y-122881052D01*
X112531895Y-122877037D01*
X112567262Y-122854816D01*
X112694816Y-122727262D01*
X113197077Y-122225001D01*
X117109532Y-122225001D01*
X117129364Y-122451686D01*
X117129366Y-122451697D01*
X117188258Y-122671488D01*
X117188261Y-122671497D01*
X117284431Y-122877732D01*
X117284432Y-122877734D01*
X117414954Y-123064141D01*
X117575858Y-123225045D01*
X117575861Y-123225047D01*
X117762266Y-123355568D01*
X117968504Y-123451739D01*
X118188308Y-123510635D01*
X118350230Y-123524801D01*
X118414998Y-123530468D01*
X118415000Y-123530468D01*
X118415002Y-123530468D01*
X118471673Y-123525509D01*
X118641692Y-123510635D01*
X118861496Y-123451739D01*
X119067734Y-123355568D01*
X119254139Y-123225047D01*
X119415047Y-123064139D01*
X119545568Y-122877734D01*
X119641739Y-122671496D01*
X119700635Y-122451692D01*
X119720468Y-122225000D01*
X119700635Y-121998308D01*
X119649362Y-121806954D01*
X119641741Y-121778511D01*
X119641738Y-121778502D01*
X119571172Y-121627174D01*
X119545568Y-121572266D01*
X119424685Y-121399625D01*
X119415045Y-121385858D01*
X119254141Y-121224954D01*
X119067734Y-121094432D01*
X119067732Y-121094431D01*
X118861497Y-120998261D01*
X118861488Y-120998258D01*
X118641697Y-120939366D01*
X118641693Y-120939365D01*
X118641692Y-120939365D01*
X118641691Y-120939364D01*
X118641686Y-120939364D01*
X118415002Y-120919532D01*
X118414998Y-120919532D01*
X118188313Y-120939364D01*
X118188302Y-120939366D01*
X117968511Y-120998258D01*
X117968502Y-120998261D01*
X117762267Y-121094431D01*
X117762265Y-121094432D01*
X117575858Y-121224954D01*
X117414954Y-121385858D01*
X117284432Y-121572265D01*
X117284431Y-121572267D01*
X117188261Y-121778502D01*
X117188258Y-121778511D01*
X117129366Y-121998302D01*
X117129364Y-121998313D01*
X117109532Y-122224998D01*
X117109532Y-122225001D01*
X113197077Y-122225001D01*
X115433766Y-119988311D01*
X115495087Y-119954828D01*
X115564779Y-119959812D01*
X115609126Y-119988313D01*
X115670858Y-120050045D01*
X115670861Y-120050047D01*
X115857266Y-120180568D01*
X116063504Y-120276739D01*
X116063509Y-120276740D01*
X116063511Y-120276741D01*
X116076663Y-120280265D01*
X116283308Y-120335635D01*
X116445230Y-120349801D01*
X116509998Y-120355468D01*
X116510000Y-120355468D01*
X116510002Y-120355468D01*
X116566673Y-120350509D01*
X116736692Y-120335635D01*
X116956496Y-120276739D01*
X117162734Y-120180568D01*
X117349139Y-120050047D01*
X117510047Y-119889139D01*
X117640568Y-119702734D01*
X117736739Y-119496496D01*
X117795635Y-119276692D01*
X117815468Y-119050000D01*
X117795635Y-118823308D01*
X117736739Y-118603504D01*
X117640568Y-118397266D01*
X117542839Y-118257693D01*
X117510045Y-118210858D01*
X117349141Y-118049954D01*
X117162734Y-117919432D01*
X117162732Y-117919431D01*
X116956497Y-117823261D01*
X116956488Y-117823258D01*
X116736697Y-117764366D01*
X116736693Y-117764365D01*
X116736692Y-117764365D01*
X116736691Y-117764364D01*
X116736686Y-117764364D01*
X116510002Y-117744532D01*
X116509998Y-117744532D01*
X116283313Y-117764364D01*
X116283302Y-117764366D01*
X116063511Y-117823258D01*
X116063502Y-117823261D01*
X115857267Y-117919431D01*
X115857265Y-117919432D01*
X115670858Y-118049954D01*
X115507632Y-118213181D01*
X115446309Y-118246666D01*
X115419951Y-118249500D01*
X115330194Y-118249500D01*
X115149806Y-118249500D01*
X115143888Y-118250850D01*
X115109089Y-118258791D01*
X115102235Y-118259955D01*
X115060744Y-118264632D01*
X115021341Y-118278419D01*
X115014659Y-118280344D01*
X114973939Y-118289639D01*
X114936320Y-118307755D01*
X114929895Y-118310416D01*
X114890483Y-118324208D01*
X114890476Y-118324212D01*
X114855120Y-118346427D01*
X114849033Y-118349791D01*
X114811410Y-118367910D01*
X114778769Y-118393941D01*
X114773096Y-118397966D01*
X114737739Y-118420183D01*
X114737735Y-118420186D01*
X111769741Y-121388181D01*
X111708418Y-121421666D01*
X111682060Y-121424500D01*
X105640194Y-121424500D01*
X105459806Y-121424500D01*
X105454701Y-121425665D01*
X105419089Y-121433791D01*
X105412235Y-121434955D01*
X105370743Y-121439632D01*
X105331339Y-121453419D01*
X105324658Y-121455344D01*
X105283935Y-121464641D01*
X105246308Y-121482759D01*
X105239885Y-121485420D01*
X105200481Y-121499210D01*
X105200475Y-121499212D01*
X105165122Y-121521425D01*
X105159036Y-121524789D01*
X105121414Y-121542907D01*
X105088768Y-121568941D01*
X105083097Y-121572965D01*
X105047734Y-121595186D01*
X105047733Y-121595187D01*
X105026410Y-121616511D01*
X105015748Y-121627174D01*
X103627880Y-123015042D01*
X102244741Y-124398181D01*
X102183418Y-124431666D01*
X102157060Y-124434500D01*
X99793531Y-124434500D01*
X99726492Y-124414815D01*
X99705850Y-124398181D01*
X99474085Y-124166416D01*
X99440600Y-124105093D01*
X99445584Y-124035401D01*
X99487456Y-123979468D01*
X99552920Y-123955051D01*
X99621193Y-123969903D01*
X99623743Y-123971335D01*
X99884029Y-124121611D01*
X99938858Y-124145867D01*
X100080785Y-124169734D01*
X100080786Y-124169735D01*
X100080786Y-124169734D01*
X100080787Y-124169735D01*
X100223691Y-124152647D01*
X100355993Y-124095993D01*
X100466974Y-124004359D01*
X100502330Y-123955940D01*
X101750201Y-121794561D01*
X101774457Y-121739732D01*
X101798324Y-121597803D01*
X101781237Y-121454899D01*
X101724583Y-121322596D01*
X101636655Y-121216105D01*
X101632950Y-121211617D01*
X101632946Y-121211613D01*
X101584534Y-121176262D01*
X101584526Y-121176257D01*
X100732144Y-120684136D01*
X100115971Y-120328389D01*
X100061142Y-120304133D01*
X100061139Y-120304132D01*
X100061138Y-120304132D01*
X99919214Y-120280265D01*
X99919213Y-120280264D01*
X99776311Y-120297352D01*
X99644007Y-120354007D01*
X99533024Y-120445642D01*
X99512219Y-120474135D01*
X99456786Y-120516668D01*
X99387159Y-120522480D01*
X99325442Y-120489725D01*
X99291231Y-120428804D01*
X99288548Y-120411815D01*
X99285931Y-120381898D01*
X99227034Y-120162093D01*
X99138678Y-119972615D01*
X99130864Y-119955858D01*
X99086135Y-119891978D01*
X99000342Y-119769451D01*
X99000340Y-119769448D01*
X98839435Y-119608543D01*
X98653033Y-119478023D01*
X98653029Y-119478021D01*
X98653023Y-119478018D01*
X98446792Y-119381851D01*
X98446788Y-119381850D01*
X98446784Y-119381848D01*
X98226993Y-119322956D01*
X98226989Y-119322955D01*
X98226988Y-119322955D01*
X98226987Y-119322954D01*
X98226982Y-119322954D01*
X98000297Y-119303122D01*
X98000293Y-119303122D01*
X97900871Y-119311820D01*
X97773603Y-119322954D01*
X97773600Y-119322954D01*
X97553806Y-119381847D01*
X97553797Y-119381850D01*
X97347566Y-119478018D01*
X97295129Y-119514734D01*
X97228922Y-119537060D01*
X97161155Y-119520047D01*
X97113344Y-119469098D01*
X97100480Y-119402351D01*
X97106059Y-119338590D01*
X97086227Y-119111898D01*
X97027330Y-118892093D01*
X96931159Y-118685856D01*
X96800638Y-118499451D01*
X96800636Y-118499448D01*
X96639731Y-118338543D01*
X96453329Y-118208023D01*
X96453325Y-118208021D01*
X96434194Y-118199100D01*
X96247088Y-118111851D01*
X96247084Y-118111850D01*
X96247080Y-118111848D01*
X96027289Y-118052956D01*
X96027285Y-118052955D01*
X96027284Y-118052955D01*
X96027283Y-118052954D01*
X96027278Y-118052954D01*
X95800593Y-118033122D01*
X95800589Y-118033122D01*
X95649463Y-118046343D01*
X95573899Y-118052954D01*
X95573896Y-118052954D01*
X95354102Y-118111847D01*
X95354093Y-118111850D01*
X95147860Y-118208019D01*
X95147856Y-118208021D01*
X95095424Y-118244734D01*
X95029218Y-118267061D01*
X94961451Y-118250049D01*
X94913639Y-118199100D01*
X94900775Y-118132351D01*
X94906354Y-118068590D01*
X94886522Y-117841898D01*
X94827625Y-117622093D01*
X94731454Y-117415856D01*
X94600933Y-117229451D01*
X94600931Y-117229448D01*
X94440026Y-117068543D01*
X94253624Y-116938023D01*
X94253620Y-116938021D01*
X94240586Y-116931943D01*
X94047383Y-116841851D01*
X94047379Y-116841850D01*
X94047375Y-116841848D01*
X93827584Y-116782956D01*
X93827580Y-116782955D01*
X93827579Y-116782955D01*
X93827578Y-116782954D01*
X93827573Y-116782954D01*
X93600888Y-116763122D01*
X93600884Y-116763122D01*
X93449758Y-116776343D01*
X93374194Y-116782954D01*
X93374191Y-116782954D01*
X93154397Y-116841847D01*
X93154388Y-116841850D01*
X92948157Y-116938018D01*
X92895720Y-116974734D01*
X92829513Y-116997060D01*
X92761746Y-116980047D01*
X92713935Y-116929098D01*
X92701071Y-116862351D01*
X92706650Y-116798590D01*
X92686818Y-116571898D01*
X92627921Y-116352093D01*
X92531750Y-116145856D01*
X92420824Y-115987436D01*
X92401227Y-115959448D01*
X92240322Y-115798543D01*
X92053920Y-115668023D01*
X92053916Y-115668021D01*
X91916914Y-115604136D01*
X91847679Y-115571851D01*
X91847675Y-115571850D01*
X91847671Y-115571848D01*
X91627880Y-115512956D01*
X91627876Y-115512955D01*
X91627875Y-115512955D01*
X91627874Y-115512954D01*
X91627869Y-115512954D01*
X91401184Y-115493122D01*
X91401180Y-115493122D01*
X91252115Y-115506163D01*
X91174490Y-115512954D01*
X91174487Y-115512954D01*
X90954693Y-115571847D01*
X90954684Y-115571850D01*
X90748451Y-115668019D01*
X90748447Y-115668021D01*
X90696015Y-115704734D01*
X90629809Y-115727061D01*
X90562042Y-115710049D01*
X90514230Y-115659100D01*
X90501366Y-115592351D01*
X90506945Y-115528590D01*
X90487113Y-115301898D01*
X90428216Y-115082093D01*
X90332045Y-114875856D01*
X90221465Y-114717930D01*
X90201522Y-114689448D01*
X90040617Y-114528543D01*
X89854215Y-114398023D01*
X89854211Y-114398021D01*
X89854205Y-114398018D01*
X89647974Y-114301851D01*
X89647970Y-114301850D01*
X89647966Y-114301848D01*
X89428175Y-114242956D01*
X89428171Y-114242955D01*
X89428170Y-114242955D01*
X89428169Y-114242954D01*
X89428164Y-114242954D01*
X89201479Y-114223122D01*
X89201475Y-114223122D01*
X89114421Y-114230738D01*
X88974785Y-114242954D01*
X88974782Y-114242954D01*
X88754988Y-114301847D01*
X88754979Y-114301850D01*
X88548748Y-114398018D01*
X88496311Y-114434734D01*
X88430104Y-114457060D01*
X88362337Y-114440047D01*
X88314526Y-114389098D01*
X88301662Y-114322351D01*
X88307241Y-114258590D01*
X88287409Y-114031898D01*
X88228512Y-113812093D01*
X88132341Y-113605856D01*
X88021415Y-113447436D01*
X88001818Y-113419448D01*
X87840913Y-113258543D01*
X87654511Y-113128023D01*
X87654507Y-113128021D01*
X87636182Y-113119476D01*
X87448270Y-113031851D01*
X87448266Y-113031850D01*
X87448262Y-113031848D01*
X87228471Y-112972956D01*
X87228467Y-112972955D01*
X87228466Y-112972955D01*
X87228465Y-112972954D01*
X87228460Y-112972954D01*
X87001775Y-112953122D01*
X87001771Y-112953122D01*
X86852638Y-112966169D01*
X86775081Y-112972954D01*
X86775078Y-112972954D01*
X86555284Y-113031847D01*
X86555275Y-113031850D01*
X86349042Y-113128019D01*
X86296074Y-113165108D01*
X86229867Y-113187435D01*
X86162100Y-113170424D01*
X86114288Y-113119476D01*
X86101423Y-113052726D01*
X86107034Y-112988591D01*
X86107034Y-112988587D01*
X86087209Y-112761990D01*
X86087207Y-112761979D01*
X86028337Y-112542272D01*
X86028333Y-112542263D01*
X85932202Y-112336108D01*
X85932201Y-112336106D01*
X85801729Y-112149771D01*
X85658010Y-112006052D01*
X85658009Y-112006052D01*
X84975870Y-113187552D01*
X84929709Y-113096955D01*
X84840113Y-113007359D01*
X84727216Y-112949835D01*
X84633549Y-112935000D01*
X84570587Y-112935000D01*
X84541689Y-112939576D01*
X85224997Y-111756054D01*
X85028675Y-111703449D01*
X85028667Y-111703448D01*
X84802071Y-111683624D01*
X84802067Y-111683624D01*
X84575468Y-111703448D01*
X84575460Y-111703449D01*
X84355748Y-111762321D01*
X84355737Y-111762325D01*
X84149590Y-111858453D01*
X84149584Y-111858456D01*
X83963249Y-111988928D01*
X83802406Y-112149771D01*
X83704620Y-112289426D01*
X83601234Y-112468493D01*
X83601234Y-112468494D01*
X84454621Y-112961196D01*
X84364023Y-113007359D01*
X84274427Y-113096955D01*
X84216903Y-113209852D01*
X84197082Y-113335000D01*
X84206644Y-113395376D01*
X83351235Y-112901506D01*
X83351234Y-112901506D01*
X83247853Y-113080570D01*
X83247852Y-113080570D01*
X83175802Y-113235082D01*
X83175798Y-113235092D01*
X83116928Y-113454799D01*
X83116926Y-113454810D01*
X83097102Y-113681407D01*
X83097102Y-113681412D01*
X83116926Y-113908009D01*
X83116927Y-113908017D01*
X83175799Y-114127729D01*
X83175803Y-114127740D01*
X83271932Y-114333889D01*
X83271933Y-114333891D01*
X83402410Y-114520230D01*
X83546125Y-114663945D01*
X84228264Y-113482445D01*
X84274427Y-113573045D01*
X84364023Y-113662641D01*
X84476920Y-113720165D01*
X84570587Y-113735000D01*
X84633549Y-113735000D01*
X84662443Y-113730423D01*
X83979137Y-114913944D01*
X84175461Y-114966550D01*
X84175468Y-114966551D01*
X84402066Y-114986376D01*
X84402070Y-114986376D01*
X84628667Y-114966551D01*
X84628675Y-114966550D01*
X84848387Y-114907678D01*
X84848398Y-114907674D01*
X85054547Y-114811545D01*
X85054557Y-114811540D01*
X85107288Y-114774617D01*
X85173494Y-114752289D01*
X85241261Y-114769299D01*
X85289074Y-114820246D01*
X85301940Y-114886998D01*
X85296305Y-114951407D01*
X85296305Y-114951412D01*
X85299364Y-114986376D01*
X85316137Y-115178102D01*
X85367884Y-115371222D01*
X85375035Y-115397909D01*
X85471201Y-115604136D01*
X85471203Y-115604139D01*
X85471205Y-115604143D01*
X85601726Y-115790549D01*
X85601727Y-115790550D01*
X85601728Y-115790551D01*
X85762632Y-115951455D01*
X85949034Y-116081975D01*
X85949036Y-116081976D01*
X85949039Y-116081978D01*
X86155276Y-116178148D01*
X86375080Y-116237045D01*
X86537003Y-116251211D01*
X86601771Y-116256878D01*
X86601773Y-116256878D01*
X86601775Y-116256878D01*
X86631156Y-116254307D01*
X86828465Y-116237046D01*
X87048269Y-116178149D01*
X87254506Y-116081978D01*
X87306937Y-116045265D01*
X87373142Y-116022939D01*
X87440909Y-116039949D01*
X87488722Y-116090897D01*
X87501587Y-116157648D01*
X87496009Y-116221407D01*
X87496009Y-116221410D01*
X87515841Y-116448102D01*
X87574738Y-116667906D01*
X87574739Y-116667909D01*
X87670905Y-116874136D01*
X87670907Y-116874139D01*
X87670909Y-116874143D01*
X87801430Y-117060549D01*
X87801431Y-117060550D01*
X87801432Y-117060551D01*
X87962336Y-117221455D01*
X88148738Y-117351975D01*
X88148740Y-117351976D01*
X88148743Y-117351978D01*
X88354980Y-117448148D01*
X88574784Y-117507045D01*
X88736707Y-117521211D01*
X88801475Y-117526878D01*
X88801477Y-117526878D01*
X88801479Y-117526878D01*
X88830860Y-117524307D01*
X89028169Y-117507046D01*
X89247973Y-117448149D01*
X89454210Y-117351978D01*
X89506643Y-117315264D01*
X89572847Y-117292938D01*
X89640614Y-117309948D01*
X89688427Y-117360896D01*
X89701292Y-117427647D01*
X89695714Y-117491407D01*
X89695714Y-117491410D01*
X89715546Y-117718102D01*
X89748718Y-117841899D01*
X89774444Y-117937909D01*
X89870610Y-118144136D01*
X89870612Y-118144139D01*
X89870614Y-118144143D01*
X90001135Y-118330549D01*
X90001136Y-118330550D01*
X90001137Y-118330551D01*
X90162041Y-118491455D01*
X90348443Y-118621975D01*
X90348445Y-118621976D01*
X90348448Y-118621978D01*
X90554685Y-118718148D01*
X90774489Y-118777045D01*
X90936412Y-118791211D01*
X91001180Y-118796878D01*
X91001182Y-118796878D01*
X91001184Y-118796878D01*
X91030565Y-118794307D01*
X91227874Y-118777046D01*
X91447678Y-118718149D01*
X91653915Y-118621978D01*
X91706346Y-118585265D01*
X91772551Y-118562939D01*
X91840318Y-118579949D01*
X91888131Y-118630897D01*
X91900996Y-118697649D01*
X91896764Y-118746017D01*
X91871311Y-118811086D01*
X91860917Y-118822890D01*
X89295627Y-121388181D01*
X89234304Y-121421666D01*
X89207946Y-121424500D01*
X82675049Y-121424500D01*
X82608010Y-121404815D01*
X82587368Y-121388181D01*
X82424141Y-121224954D01*
X82237734Y-121094432D01*
X82237732Y-121094431D01*
X82031497Y-120998261D01*
X82031488Y-120998258D01*
X81811697Y-120939366D01*
X81811693Y-120939365D01*
X81811692Y-120939365D01*
X81811691Y-120939364D01*
X81811686Y-120939364D01*
X81585002Y-120919532D01*
X81584998Y-120919532D01*
X81358313Y-120939364D01*
X81358302Y-120939366D01*
X81138511Y-120998258D01*
X81138502Y-120998261D01*
X80932267Y-121094431D01*
X80932265Y-121094432D01*
X80745858Y-121224954D01*
X80584954Y-121385858D01*
X80454432Y-121572265D01*
X80454431Y-121572267D01*
X80358261Y-121778502D01*
X80358258Y-121778511D01*
X80299366Y-121998302D01*
X80299364Y-121998313D01*
X80279532Y-122224998D01*
X80279532Y-122225001D01*
X77141821Y-122225001D01*
X77094846Y-122175291D01*
X77081930Y-122106626D01*
X77108188Y-122041878D01*
X77126367Y-122023345D01*
X77141362Y-122010964D01*
X77141365Y-122010960D01*
X77176676Y-121962601D01*
X77176686Y-121962587D01*
X78325595Y-119972615D01*
X78325595Y-119972614D01*
X77181065Y-119311820D01*
X77181062Y-119311819D01*
X76493063Y-118914603D01*
X77493063Y-118914603D01*
X78575595Y-119539602D01*
X78575596Y-119539602D01*
X78858267Y-119050001D01*
X82184532Y-119050001D01*
X82204364Y-119276686D01*
X82204366Y-119276697D01*
X82263258Y-119496488D01*
X82263261Y-119496497D01*
X82359431Y-119702732D01*
X82359432Y-119702734D01*
X82489954Y-119889141D01*
X82650858Y-120050045D01*
X82650861Y-120050047D01*
X82837266Y-120180568D01*
X83043504Y-120276739D01*
X83043509Y-120276740D01*
X83043511Y-120276741D01*
X83056663Y-120280265D01*
X83263308Y-120335635D01*
X83425230Y-120349801D01*
X83489998Y-120355468D01*
X83490000Y-120355468D01*
X83490002Y-120355468D01*
X83546673Y-120350509D01*
X83716692Y-120335635D01*
X83936496Y-120276739D01*
X84142734Y-120180568D01*
X84329139Y-120050047D01*
X84490047Y-119889139D01*
X84620568Y-119702734D01*
X84716739Y-119496496D01*
X84775635Y-119276692D01*
X84795468Y-119050000D01*
X84775635Y-118823308D01*
X84716739Y-118603504D01*
X84620568Y-118397266D01*
X84522839Y-118257693D01*
X84490045Y-118210858D01*
X84329141Y-118049954D01*
X84142734Y-117919432D01*
X84142732Y-117919431D01*
X83936497Y-117823261D01*
X83936488Y-117823258D01*
X83716697Y-117764366D01*
X83716693Y-117764365D01*
X83716692Y-117764365D01*
X83716691Y-117764364D01*
X83716686Y-117764364D01*
X83490002Y-117744532D01*
X83489998Y-117744532D01*
X83263313Y-117764364D01*
X83263302Y-117764366D01*
X83043511Y-117823258D01*
X83043502Y-117823261D01*
X82837267Y-117919431D01*
X82837265Y-117919432D01*
X82650858Y-118049954D01*
X82489954Y-118210858D01*
X82359432Y-118397265D01*
X82359431Y-118397267D01*
X82263261Y-118603502D01*
X82263258Y-118603511D01*
X82204366Y-118823302D01*
X82204364Y-118823313D01*
X82184532Y-119049998D01*
X82184532Y-119050001D01*
X78858267Y-119050001D01*
X79724511Y-117549623D01*
X79748741Y-117494850D01*
X79772582Y-117353069D01*
X79772583Y-117353067D01*
X79755512Y-117210304D01*
X79698916Y-117078138D01*
X79607372Y-116967265D01*
X79607370Y-116967264D01*
X79559011Y-116931953D01*
X79558997Y-116931943D01*
X78868063Y-116533033D01*
X78868062Y-116533033D01*
X77493063Y-118914602D01*
X77493063Y-118914603D01*
X76493063Y-118914603D01*
X75727519Y-118472616D01*
X75727518Y-118472616D01*
X74578608Y-120462589D01*
X74554373Y-120517371D01*
X74553693Y-120521420D01*
X74552294Y-120524298D01*
X74552144Y-120524800D01*
X74552062Y-120524775D01*
X74523162Y-120584266D01*
X74463501Y-120620629D01*
X74393651Y-120618964D01*
X74368931Y-120607962D01*
X69966030Y-118039604D01*
X75977519Y-118039604D01*
X77060050Y-118664603D01*
X77060051Y-118664603D01*
X78435050Y-116283033D01*
X78435050Y-116283032D01*
X77744116Y-115884122D01*
X77689336Y-115859888D01*
X77547555Y-115836047D01*
X77547553Y-115836046D01*
X77404790Y-115853117D01*
X77272624Y-115909713D01*
X77161751Y-116001257D01*
X77161750Y-116001259D01*
X77126439Y-116049618D01*
X77126429Y-116049632D01*
X75977519Y-118039603D01*
X75977519Y-118039604D01*
X69966030Y-118039604D01*
X69582020Y-117815598D01*
X69534031Y-117764815D01*
X69520500Y-117708489D01*
X69520500Y-110271723D01*
X69540185Y-110204684D01*
X69592989Y-110158929D01*
X69662147Y-110148985D01*
X69674965Y-110152256D01*
X69675070Y-110151813D01*
X69682627Y-110153598D01*
X69742155Y-110159999D01*
X69742172Y-110160000D01*
X72040000Y-110160000D01*
X72040000Y-108910000D01*
X72540000Y-108910000D01*
X72540000Y-110160000D01*
X74837828Y-110160000D01*
X74837844Y-110159999D01*
X74897372Y-110153598D01*
X74897379Y-110153596D01*
X75032086Y-110103354D01*
X75032093Y-110103350D01*
X75147187Y-110017190D01*
X75147190Y-110017187D01*
X75233350Y-109902093D01*
X75233354Y-109902086D01*
X75283596Y-109767379D01*
X75283598Y-109767372D01*
X75289999Y-109707844D01*
X75290000Y-109707827D01*
X75290000Y-108910000D01*
X72540000Y-108910000D01*
X72040000Y-108910000D01*
X72040000Y-108890001D01*
X79009532Y-108890001D01*
X79029364Y-109116686D01*
X79029366Y-109116697D01*
X79088258Y-109336488D01*
X79088261Y-109336497D01*
X79184431Y-109542732D01*
X79184432Y-109542734D01*
X79314954Y-109729141D01*
X79475858Y-109890045D01*
X79475861Y-109890047D01*
X79662266Y-110020568D01*
X79677975Y-110027893D01*
X79730414Y-110074064D01*
X79749567Y-110141257D01*
X79729352Y-110208138D01*
X79677979Y-110252656D01*
X79662512Y-110259868D01*
X79589527Y-110310972D01*
X79589526Y-110310973D01*
X80270600Y-110992046D01*
X80189852Y-111004835D01*
X80076955Y-111062359D01*
X79987359Y-111151955D01*
X79929835Y-111264852D01*
X79917046Y-111345599D01*
X79235973Y-110664526D01*
X79235972Y-110664527D01*
X79184868Y-110737513D01*
X79088734Y-110943673D01*
X79088730Y-110943682D01*
X79029860Y-111163389D01*
X79029858Y-111163400D01*
X79010034Y-111389997D01*
X79010034Y-111390002D01*
X79029858Y-111616599D01*
X79029860Y-111616610D01*
X79088730Y-111836317D01*
X79088734Y-111836326D01*
X79184865Y-112042481D01*
X79184866Y-112042483D01*
X79235973Y-112115471D01*
X79235974Y-112115472D01*
X79917046Y-111434399D01*
X79929835Y-111515148D01*
X79987359Y-111628045D01*
X80076955Y-111717641D01*
X80189852Y-111775165D01*
X80270599Y-111787953D01*
X79589526Y-112469025D01*
X79589526Y-112469026D01*
X79662512Y-112520131D01*
X79662516Y-112520133D01*
X79868673Y-112616265D01*
X79868682Y-112616269D01*
X80088389Y-112675139D01*
X80088400Y-112675141D01*
X80314998Y-112694966D01*
X80315002Y-112694966D01*
X80541599Y-112675141D01*
X80541610Y-112675139D01*
X80761317Y-112616269D01*
X80761331Y-112616264D01*
X80967478Y-112520136D01*
X81040472Y-112469025D01*
X80359401Y-111787953D01*
X80440148Y-111775165D01*
X80553045Y-111717641D01*
X80642641Y-111628045D01*
X80700165Y-111515148D01*
X80712953Y-111434400D01*
X81394025Y-112115472D01*
X81445136Y-112042478D01*
X81541264Y-111836331D01*
X81541269Y-111836317D01*
X81600139Y-111616610D01*
X81600141Y-111616599D01*
X81619966Y-111390002D01*
X81619966Y-111389997D01*
X81600141Y-111163400D01*
X81600139Y-111163389D01*
X81541269Y-110943682D01*
X81541265Y-110943673D01*
X81445133Y-110737516D01*
X81445131Y-110737512D01*
X81394026Y-110664526D01*
X81394025Y-110664526D01*
X80712953Y-111345598D01*
X80700165Y-111264852D01*
X80642641Y-111151955D01*
X80553045Y-111062359D01*
X80440148Y-111004835D01*
X80359400Y-110992046D01*
X81040472Y-110310974D01*
X81040471Y-110310973D01*
X80967483Y-110259866D01*
X80967481Y-110259865D01*
X80952023Y-110252657D01*
X80899584Y-110206484D01*
X80880432Y-110139290D01*
X80900648Y-110072409D01*
X80952023Y-110027893D01*
X80967734Y-110020568D01*
X81154139Y-109890047D01*
X81315047Y-109729139D01*
X81445568Y-109542734D01*
X81541739Y-109336496D01*
X81600635Y-109116692D01*
X81620468Y-108890000D01*
X81600635Y-108663308D01*
X81541739Y-108443504D01*
X81445568Y-108237266D01*
X81337089Y-108082341D01*
X81315045Y-108050858D01*
X81154141Y-107889954D01*
X80967734Y-107759432D01*
X80967732Y-107759431D01*
X80761497Y-107663261D01*
X80761488Y-107663258D01*
X80541697Y-107604366D01*
X80541693Y-107604365D01*
X80541692Y-107604365D01*
X80541691Y-107604364D01*
X80541686Y-107604364D01*
X80315002Y-107584532D01*
X80314998Y-107584532D01*
X80088313Y-107604364D01*
X80088302Y-107604366D01*
X79868511Y-107663258D01*
X79868502Y-107663261D01*
X79662267Y-107759431D01*
X79662265Y-107759432D01*
X79475858Y-107889954D01*
X79314954Y-108050858D01*
X79184432Y-108237265D01*
X79184431Y-108237267D01*
X79088261Y-108443502D01*
X79088258Y-108443511D01*
X79029366Y-108663302D01*
X79029364Y-108663313D01*
X79009532Y-108889998D01*
X79009532Y-108890001D01*
X72040000Y-108890001D01*
X72040000Y-107160000D01*
X72540000Y-107160000D01*
X72540000Y-108410000D01*
X75290000Y-108410000D01*
X75290000Y-107612172D01*
X75289999Y-107612155D01*
X75283598Y-107552627D01*
X75283596Y-107552620D01*
X75233354Y-107417913D01*
X75233350Y-107417906D01*
X75147190Y-107302812D01*
X75147187Y-107302809D01*
X75032093Y-107216649D01*
X75032086Y-107216645D01*
X74897379Y-107166403D01*
X74897372Y-107166401D01*
X74837844Y-107160000D01*
X72540000Y-107160000D01*
X72040000Y-107160000D01*
X69742155Y-107160000D01*
X69682627Y-107166401D01*
X69675070Y-107168187D01*
X69674417Y-107165426D01*
X69618092Y-107169431D01*
X69556783Y-107135921D01*
X69523323Y-107074584D01*
X69520500Y-107048276D01*
X69520500Y-105080001D01*
X70754532Y-105080001D01*
X70774364Y-105306686D01*
X70774366Y-105306697D01*
X70833258Y-105526488D01*
X70833261Y-105526497D01*
X70929431Y-105732732D01*
X70929432Y-105732734D01*
X71059954Y-105919141D01*
X71220858Y-106080045D01*
X71220861Y-106080047D01*
X71407266Y-106210568D01*
X71613504Y-106306739D01*
X71833308Y-106365635D01*
X71995230Y-106379801D01*
X72059998Y-106385468D01*
X72060000Y-106385468D01*
X72060002Y-106385468D01*
X72116673Y-106380509D01*
X72286692Y-106365635D01*
X72506496Y-106306739D01*
X72712734Y-106210568D01*
X72899139Y-106080047D01*
X73060047Y-105919139D01*
X73190568Y-105732734D01*
X73286739Y-105526496D01*
X73345635Y-105306692D01*
X73365468Y-105080000D01*
X73345635Y-104853308D01*
X73286739Y-104633504D01*
X73190568Y-104427266D01*
X73067307Y-104251229D01*
X73060045Y-104240858D01*
X72899141Y-104079954D01*
X72712734Y-103949432D01*
X72712732Y-103949431D01*
X72506497Y-103853261D01*
X72506488Y-103853258D01*
X72286697Y-103794366D01*
X72286693Y-103794365D01*
X72286692Y-103794365D01*
X72286691Y-103794364D01*
X72286686Y-103794364D01*
X72060002Y-103774532D01*
X72059998Y-103774532D01*
X71833313Y-103794364D01*
X71833302Y-103794366D01*
X71613511Y-103853258D01*
X71613502Y-103853261D01*
X71407267Y-103949431D01*
X71407265Y-103949432D01*
X71220858Y-104079954D01*
X71059954Y-104240858D01*
X70929432Y-104427265D01*
X70929431Y-104427267D01*
X70833261Y-104633502D01*
X70833258Y-104633511D01*
X70774366Y-104853302D01*
X70774364Y-104853313D01*
X70754532Y-105079998D01*
X70754532Y-105080001D01*
X69520500Y-105080001D01*
X69520500Y-94920001D01*
X70754532Y-94920001D01*
X70774364Y-95146686D01*
X70774366Y-95146697D01*
X70833258Y-95366488D01*
X70833261Y-95366497D01*
X70929431Y-95572732D01*
X70929432Y-95572734D01*
X71059954Y-95759141D01*
X71223181Y-95922368D01*
X71256666Y-95983691D01*
X71259500Y-96010049D01*
X71259500Y-99783253D01*
X71259501Y-99783262D01*
X71268791Y-99823970D01*
X71269955Y-99830825D01*
X71274632Y-99872321D01*
X71288420Y-99911724D01*
X71290345Y-99918407D01*
X71299639Y-99959123D01*
X71317759Y-99996750D01*
X71320421Y-100003176D01*
X71334212Y-100042587D01*
X71356422Y-100077934D01*
X71359787Y-100084021D01*
X71377910Y-100121651D01*
X71403940Y-100154291D01*
X71407966Y-100159966D01*
X71430182Y-100195321D01*
X71430184Y-100195324D01*
X73769677Y-102534817D01*
X73769680Y-102534819D01*
X73805027Y-102557029D01*
X73810701Y-102561055D01*
X73838544Y-102583258D01*
X73843352Y-102587092D01*
X73860373Y-102595289D01*
X73880971Y-102605209D01*
X73887060Y-102608574D01*
X73922409Y-102630785D01*
X73922412Y-102630786D01*
X73922416Y-102630789D01*
X73961837Y-102644583D01*
X73968245Y-102647238D01*
X74005877Y-102665360D01*
X74046579Y-102674650D01*
X74053266Y-102676576D01*
X74092680Y-102690367D01*
X74092683Y-102690368D01*
X74134179Y-102695043D01*
X74141031Y-102696207D01*
X74181744Y-102705500D01*
X74226984Y-102705500D01*
X76813060Y-102705500D01*
X76880099Y-102725185D01*
X76925854Y-102777989D01*
X76935798Y-102847147D01*
X76906773Y-102910703D01*
X76900741Y-102917181D01*
X76070326Y-103747594D01*
X76009003Y-103781079D01*
X75971838Y-103783441D01*
X75870002Y-103774532D01*
X75869998Y-103774532D01*
X75643313Y-103794364D01*
X75643302Y-103794366D01*
X75423511Y-103853258D01*
X75423502Y-103853261D01*
X75217267Y-103949431D01*
X75217265Y-103949432D01*
X75030858Y-104079954D01*
X74869954Y-104240858D01*
X74739432Y-104427265D01*
X74739431Y-104427267D01*
X74643261Y-104633502D01*
X74643258Y-104633511D01*
X74584366Y-104853302D01*
X74584364Y-104853313D01*
X74564532Y-105079998D01*
X74564532Y-105080001D01*
X74584364Y-105306686D01*
X74584366Y-105306697D01*
X74643258Y-105526488D01*
X74643261Y-105526497D01*
X74739431Y-105732732D01*
X74739432Y-105732734D01*
X74869954Y-105919141D01*
X75030858Y-106080045D01*
X75030861Y-106080047D01*
X75217266Y-106210568D01*
X75423504Y-106306739D01*
X75643308Y-106365635D01*
X75805230Y-106379801D01*
X75869998Y-106385468D01*
X75870000Y-106385468D01*
X75870002Y-106385468D01*
X75926673Y-106380509D01*
X76096692Y-106365635D01*
X76316496Y-106306739D01*
X76522734Y-106210568D01*
X76709139Y-106080047D01*
X76870047Y-105919139D01*
X77000568Y-105732734D01*
X77096739Y-105526496D01*
X77155635Y-105306692D01*
X77175468Y-105080000D01*
X77166557Y-104978158D01*
X77180323Y-104909662D01*
X77202401Y-104879675D01*
X78070259Y-104011819D01*
X78131582Y-103978334D01*
X78157940Y-103975500D01*
X78645951Y-103975500D01*
X78712990Y-103995185D01*
X78758745Y-104047989D01*
X78768689Y-104117147D01*
X78739664Y-104180703D01*
X78733632Y-104187181D01*
X78679954Y-104240858D01*
X78549432Y-104427265D01*
X78549431Y-104427267D01*
X78453261Y-104633502D01*
X78453258Y-104633511D01*
X78394366Y-104853302D01*
X78394364Y-104853313D01*
X78374532Y-105079998D01*
X78374532Y-105080001D01*
X78394364Y-105306686D01*
X78394366Y-105306697D01*
X78453258Y-105526488D01*
X78453261Y-105526497D01*
X78549431Y-105732732D01*
X78549432Y-105732734D01*
X78679954Y-105919141D01*
X78840858Y-106080045D01*
X78840861Y-106080047D01*
X79027266Y-106210568D01*
X79233504Y-106306739D01*
X79453308Y-106365635D01*
X79615230Y-106379801D01*
X79679998Y-106385468D01*
X79680000Y-106385468D01*
X79680002Y-106385468D01*
X79736673Y-106380509D01*
X79906692Y-106365635D01*
X80126496Y-106306739D01*
X80332734Y-106210568D01*
X80519139Y-106080047D01*
X80577039Y-106022147D01*
X80682368Y-105916819D01*
X80743691Y-105883334D01*
X80770049Y-105880500D01*
X86616564Y-105880500D01*
X86623502Y-105880889D01*
X86652400Y-105884145D01*
X86664998Y-105885565D01*
X86665000Y-105885565D01*
X86665002Y-105885565D01*
X86677599Y-105884145D01*
X86706497Y-105880889D01*
X86713436Y-105880500D01*
X87189463Y-105880500D01*
X87256502Y-105900185D01*
X87302257Y-105952989D01*
X87312201Y-106022147D01*
X87296850Y-106066499D01*
X87085404Y-106432736D01*
X87057409Y-106481224D01*
X86985332Y-106635793D01*
X86985330Y-106635797D01*
X86985330Y-106635799D01*
X86960439Y-106728691D01*
X86926433Y-106855601D01*
X86926432Y-106855608D01*
X86907581Y-107071082D01*
X86906600Y-107082296D01*
X86926432Y-107308988D01*
X86959604Y-107432785D01*
X86985330Y-107528795D01*
X87081496Y-107735022D01*
X87081498Y-107735025D01*
X87081500Y-107735029D01*
X87212021Y-107921435D01*
X87212022Y-107921436D01*
X87212023Y-107921437D01*
X87372927Y-108082341D01*
X87559329Y-108212861D01*
X87559331Y-108212862D01*
X87559334Y-108212864D01*
X87765571Y-108309034D01*
X87985375Y-108367931D01*
X88147298Y-108382097D01*
X88212066Y-108387764D01*
X88212068Y-108387764D01*
X88212070Y-108387764D01*
X88241451Y-108385193D01*
X88438760Y-108367932D01*
X88658564Y-108309035D01*
X88864801Y-108212864D01*
X88917234Y-108176150D01*
X88983438Y-108153824D01*
X89051205Y-108170834D01*
X89099018Y-108221782D01*
X89111883Y-108288533D01*
X89106305Y-108352293D01*
X89106305Y-108352296D01*
X89126137Y-108578988D01*
X89159309Y-108702785D01*
X89185035Y-108798795D01*
X89281201Y-109005022D01*
X89281203Y-109005025D01*
X89281205Y-109005029D01*
X89411726Y-109191435D01*
X89411727Y-109191436D01*
X89411728Y-109191437D01*
X89572632Y-109352341D01*
X89759034Y-109482861D01*
X89759036Y-109482862D01*
X89759039Y-109482864D01*
X89965276Y-109579034D01*
X90185080Y-109637931D01*
X90347003Y-109652097D01*
X90411771Y-109657764D01*
X90411773Y-109657764D01*
X90411775Y-109657764D01*
X90444762Y-109654878D01*
X90638465Y-109637932D01*
X90858269Y-109579035D01*
X91064506Y-109482864D01*
X91116937Y-109446151D01*
X91183142Y-109423825D01*
X91250909Y-109440835D01*
X91298722Y-109491783D01*
X91311587Y-109558534D01*
X91306009Y-109622293D01*
X91306009Y-109622296D01*
X91325841Y-109848988D01*
X91373779Y-110027892D01*
X91384739Y-110068795D01*
X91480905Y-110275022D01*
X91480907Y-110275025D01*
X91480909Y-110275029D01*
X91611430Y-110461435D01*
X91611431Y-110461436D01*
X91611432Y-110461437D01*
X91772336Y-110622341D01*
X91958738Y-110752861D01*
X91958740Y-110752862D01*
X91958743Y-110752864D01*
X92164980Y-110849034D01*
X92384784Y-110907931D01*
X92546707Y-110922097D01*
X92611475Y-110927764D01*
X92611477Y-110927764D01*
X92611479Y-110927764D01*
X92640860Y-110925193D01*
X92838169Y-110907932D01*
X93057973Y-110849035D01*
X93264210Y-110752864D01*
X93316643Y-110716150D01*
X93382847Y-110693824D01*
X93450614Y-110710834D01*
X93498427Y-110761782D01*
X93511292Y-110828533D01*
X93506556Y-110882669D01*
X93505714Y-110892296D01*
X93525546Y-111118988D01*
X93574082Y-111300123D01*
X93584444Y-111338795D01*
X93680610Y-111545022D01*
X93680612Y-111545025D01*
X93680614Y-111545029D01*
X93811135Y-111731435D01*
X93811136Y-111731436D01*
X93811137Y-111731437D01*
X93972041Y-111892341D01*
X94158443Y-112022861D01*
X94158445Y-112022862D01*
X94158448Y-112022864D01*
X94364685Y-112119034D01*
X94584489Y-112177931D01*
X94746412Y-112192097D01*
X94811180Y-112197764D01*
X94811182Y-112197764D01*
X94811184Y-112197764D01*
X94840565Y-112195193D01*
X95037874Y-112177932D01*
X95257678Y-112119035D01*
X95463915Y-112022864D01*
X95516881Y-111985776D01*
X95583083Y-111963450D01*
X95650851Y-111980460D01*
X95698664Y-112031407D01*
X95711530Y-112098157D01*
X95705920Y-112162291D01*
X95705920Y-112162298D01*
X95725744Y-112388895D01*
X95725745Y-112388903D01*
X95784617Y-112608615D01*
X95784621Y-112608626D01*
X95880750Y-112814775D01*
X95880751Y-112814777D01*
X96011228Y-113001116D01*
X96154943Y-113144831D01*
X96837082Y-111963332D01*
X96883245Y-112053931D01*
X96972841Y-112143527D01*
X97085738Y-112201051D01*
X97179405Y-112215886D01*
X97242367Y-112215886D01*
X97271261Y-112211309D01*
X96587955Y-113394830D01*
X96784279Y-113447436D01*
X96784286Y-113447437D01*
X97010884Y-113467262D01*
X97010888Y-113467262D01*
X97237485Y-113447437D01*
X97237493Y-113447436D01*
X97457205Y-113388564D01*
X97457216Y-113388560D01*
X97663365Y-113292431D01*
X97663375Y-113292426D01*
X97716106Y-113255503D01*
X97782312Y-113233175D01*
X97850079Y-113250185D01*
X97897892Y-113301132D01*
X97910758Y-113367884D01*
X97905123Y-113432293D01*
X97905123Y-113432298D01*
X97908182Y-113467262D01*
X97924955Y-113658988D01*
X97983852Y-113878792D01*
X97983853Y-113878795D01*
X98080019Y-114085022D01*
X98080021Y-114085025D01*
X98080023Y-114085029D01*
X98210544Y-114271435D01*
X98210545Y-114271436D01*
X98210546Y-114271437D01*
X98371450Y-114432341D01*
X98557852Y-114562861D01*
X98557854Y-114562862D01*
X98557857Y-114562864D01*
X98764094Y-114659034D01*
X98983898Y-114717931D01*
X99145821Y-114732097D01*
X99210589Y-114737764D01*
X99210591Y-114737764D01*
X99210593Y-114737764D01*
X99239974Y-114735193D01*
X99437283Y-114717932D01*
X99657087Y-114659035D01*
X99863324Y-114562864D01*
X99916290Y-114525776D01*
X99982492Y-114503450D01*
X100050260Y-114520460D01*
X100098073Y-114571407D01*
X100110939Y-114638157D01*
X100105329Y-114702291D01*
X100105329Y-114702298D01*
X100125153Y-114928895D01*
X100125154Y-114928903D01*
X100184026Y-115148615D01*
X100184030Y-115148626D01*
X100280159Y-115354775D01*
X100280160Y-115354777D01*
X100410637Y-115541116D01*
X100554352Y-115684831D01*
X101236491Y-114503332D01*
X101282654Y-114593931D01*
X101372250Y-114683527D01*
X101485147Y-114741051D01*
X101578814Y-114755886D01*
X101641776Y-114755886D01*
X101670670Y-114751309D01*
X100987364Y-115934830D01*
X101183688Y-115987436D01*
X101183695Y-115987437D01*
X101410293Y-116007262D01*
X101410297Y-116007262D01*
X101636894Y-115987437D01*
X101636902Y-115987436D01*
X101856614Y-115928564D01*
X101856625Y-115928560D01*
X102062774Y-115832431D01*
X102062784Y-115832426D01*
X102115515Y-115795503D01*
X102181721Y-115773175D01*
X102249488Y-115790185D01*
X102297301Y-115841132D01*
X102310167Y-115907884D01*
X102304532Y-115972293D01*
X102304532Y-115972298D01*
X102306493Y-115994717D01*
X102324364Y-116198988D01*
X102365388Y-116352089D01*
X102383262Y-116418795D01*
X102479428Y-116625022D01*
X102479430Y-116625025D01*
X102479432Y-116625029D01*
X102609953Y-116811435D01*
X102609954Y-116811436D01*
X102609955Y-116811437D01*
X102770859Y-116972341D01*
X102957261Y-117102861D01*
X102957263Y-117102862D01*
X102957266Y-117102864D01*
X103163503Y-117199034D01*
X103383307Y-117257931D01*
X103545230Y-117272097D01*
X103609998Y-117277764D01*
X103610000Y-117277764D01*
X103610002Y-117277764D01*
X103639383Y-117275193D01*
X103836692Y-117257932D01*
X104056496Y-117199035D01*
X104262733Y-117102864D01*
X104449139Y-116972343D01*
X104610046Y-116811435D01*
X104707871Y-116671727D01*
X104707871Y-116671728D01*
X104724457Y-116643000D01*
X104983047Y-116195109D01*
X107320890Y-116195109D01*
X107320891Y-116195111D01*
X107344756Y-116337035D01*
X107344757Y-116337039D01*
X107344758Y-116337040D01*
X107351415Y-116352089D01*
X107369015Y-116391872D01*
X108316881Y-118033624D01*
X108352240Y-118082051D01*
X108463221Y-118173685D01*
X108463223Y-118173687D01*
X108595518Y-118230338D01*
X108595521Y-118230339D01*
X108595524Y-118230340D01*
X108715906Y-118244734D01*
X108738427Y-118247427D01*
X108738427Y-118247426D01*
X108738428Y-118247427D01*
X108857554Y-118227394D01*
X108880353Y-118223561D01*
X108880353Y-118223560D01*
X108880358Y-118223560D01*
X108935186Y-118199305D01*
X110576949Y-117251432D01*
X110625369Y-117216077D01*
X110677423Y-117153033D01*
X120058064Y-117153033D01*
X121433063Y-119534603D01*
X121433064Y-119534603D01*
X122515595Y-118909604D01*
X122515595Y-118909603D01*
X121366686Y-116919632D01*
X121366676Y-116919618D01*
X121331365Y-116871259D01*
X121331364Y-116871257D01*
X121220491Y-116779713D01*
X121088325Y-116723117D01*
X120945562Y-116706046D01*
X120945560Y-116706047D01*
X120803779Y-116729888D01*
X120748999Y-116754122D01*
X120058064Y-117153032D01*
X120058064Y-117153033D01*
X110677423Y-117153033D01*
X110717004Y-117105096D01*
X110717959Y-117102867D01*
X110773656Y-116972799D01*
X110773657Y-116972796D01*
X110773656Y-116972796D01*
X110773658Y-116972794D01*
X110790745Y-116829890D01*
X110777181Y-116749227D01*
X110785476Y-116679852D01*
X110829961Y-116625974D01*
X110896513Y-116604699D01*
X110919871Y-116606354D01*
X111139474Y-116643000D01*
X111139475Y-116643000D01*
X111371571Y-116643000D01*
X111371572Y-116643000D01*
X111600504Y-116604798D01*
X111820026Y-116529436D01*
X112024149Y-116418970D01*
X112207307Y-116276413D01*
X112364502Y-116105653D01*
X112491447Y-115911349D01*
X112584680Y-115698800D01*
X112641657Y-115473805D01*
X112651520Y-115354775D01*
X112660823Y-115242506D01*
X112660823Y-115242493D01*
X112641658Y-115011202D01*
X112641656Y-115011191D01*
X112584680Y-114786199D01*
X112491447Y-114573651D01*
X112364506Y-114379352D01*
X112364503Y-114379349D01*
X112364502Y-114379347D01*
X112207307Y-114208587D01*
X112207302Y-114208583D01*
X112207300Y-114208581D01*
X112024157Y-114066035D01*
X112024151Y-114066031D01*
X111820027Y-113955564D01*
X111820018Y-113955561D01*
X111600507Y-113880202D01*
X111428805Y-113851550D01*
X111371572Y-113842000D01*
X111139474Y-113842000D01*
X111093687Y-113849640D01*
X110910538Y-113880202D01*
X110691027Y-113955561D01*
X110691018Y-113955564D01*
X110486894Y-114066031D01*
X110486888Y-114066035D01*
X110303745Y-114208581D01*
X110303742Y-114208584D01*
X110146539Y-114379352D01*
X110019598Y-114573651D01*
X109926364Y-114786202D01*
X109912751Y-114839958D01*
X109877211Y-114900113D01*
X109814790Y-114931505D01*
X109745307Y-114924165D01*
X109713600Y-114905137D01*
X109648414Y-114851314D01*
X109648412Y-114851313D01*
X109648411Y-114851312D01*
X109516117Y-114794661D01*
X109516114Y-114794660D01*
X109373208Y-114777572D01*
X109373206Y-114777573D01*
X109231282Y-114801438D01*
X109176445Y-114825697D01*
X107534693Y-115773563D01*
X107486266Y-115808922D01*
X107486266Y-115808923D01*
X107394632Y-115919903D01*
X107394630Y-115919905D01*
X107337979Y-116052200D01*
X107337978Y-116052203D01*
X107320890Y-116195109D01*
X104983047Y-116195109D01*
X105164658Y-115880550D01*
X105236739Y-115725972D01*
X105295635Y-115506169D01*
X105315468Y-115279476D01*
X105295636Y-115052784D01*
X105236739Y-114832979D01*
X105140568Y-114626742D01*
X105036254Y-114477765D01*
X105010045Y-114440334D01*
X104849140Y-114279429D01*
X104662738Y-114148909D01*
X104662734Y-114148907D01*
X104617341Y-114127740D01*
X104456497Y-114052737D01*
X104456493Y-114052736D01*
X104456489Y-114052734D01*
X104236698Y-113993842D01*
X104236694Y-113993841D01*
X104236693Y-113993841D01*
X104236692Y-113993840D01*
X104236687Y-113993840D01*
X104010002Y-113974008D01*
X104009998Y-113974008D01*
X103858872Y-113987229D01*
X103783308Y-113993840D01*
X103783305Y-113993840D01*
X103563511Y-114052733D01*
X103563502Y-114052736D01*
X103357269Y-114148905D01*
X103304301Y-114185994D01*
X103238094Y-114208321D01*
X103170327Y-114191310D01*
X103122515Y-114140362D01*
X103109650Y-114073612D01*
X103115261Y-114009477D01*
X103115261Y-114009473D01*
X103098935Y-113822870D01*
X115549500Y-113822870D01*
X115549501Y-113822876D01*
X115555908Y-113882483D01*
X115606202Y-114017328D01*
X115606206Y-114017335D01*
X115692452Y-114132544D01*
X115692455Y-114132547D01*
X115807664Y-114218793D01*
X115807671Y-114218797D01*
X115942517Y-114269091D01*
X115942516Y-114269091D01*
X115949444Y-114269835D01*
X116002127Y-114275500D01*
X122097872Y-114275499D01*
X122157483Y-114269091D01*
X122292331Y-114218796D01*
X122407546Y-114132546D01*
X122493796Y-114017331D01*
X122544091Y-113882483D01*
X122550500Y-113822873D01*
X122550500Y-113374500D01*
X122570185Y-113307461D01*
X122622989Y-113261706D01*
X122674500Y-113250500D01*
X127645194Y-113250500D01*
X127685905Y-113241208D01*
X127692760Y-113240043D01*
X127734255Y-113235368D01*
X127773680Y-113221571D01*
X127780321Y-113219658D01*
X127821061Y-113210360D01*
X127822116Y-113209852D01*
X127826421Y-113207779D01*
X127880221Y-113195500D01*
X128044754Y-113195500D01*
X128044756Y-113195500D01*
X128250701Y-113157002D01*
X128446066Y-113081317D01*
X128621077Y-112972955D01*
X128624194Y-112971025D01*
X128624194Y-112971024D01*
X128624197Y-112971023D01*
X128779029Y-112829876D01*
X128905288Y-112662681D01*
X128998676Y-112475133D01*
X129056012Y-112273619D01*
X129075343Y-112065000D01*
X129056012Y-111856381D01*
X128998676Y-111654867D01*
X128985320Y-111628045D01*
X128943983Y-111545029D01*
X128905288Y-111467319D01*
X128779029Y-111300124D01*
X128779026Y-111300121D01*
X128779023Y-111300118D01*
X128624199Y-111158978D01*
X128624194Y-111158974D01*
X128446069Y-111048684D01*
X128446063Y-111048682D01*
X128250701Y-110972998D01*
X128044756Y-110934500D01*
X127835244Y-110934500D01*
X127629299Y-110972998D01*
X127514385Y-111017516D01*
X127433936Y-111048682D01*
X127433930Y-111048684D01*
X127255805Y-111158974D01*
X127255800Y-111158978D01*
X127100971Y-111300122D01*
X127100971Y-111300123D01*
X127086453Y-111319348D01*
X127030343Y-111360983D01*
X126960631Y-111365674D01*
X126899450Y-111331931D01*
X126888547Y-111319348D01*
X126874028Y-111300123D01*
X126874028Y-111300122D01*
X126719199Y-111158978D01*
X126719194Y-111158974D01*
X126541069Y-111048684D01*
X126541063Y-111048682D01*
X126345701Y-110972998D01*
X126139756Y-110934500D01*
X125930244Y-110934500D01*
X125724299Y-110972998D01*
X125609385Y-111017516D01*
X125528936Y-111048682D01*
X125528930Y-111048684D01*
X125350805Y-111158974D01*
X125350800Y-111158978D01*
X125195976Y-111300118D01*
X125195973Y-111300121D01*
X125069713Y-111467316D01*
X125069706Y-111467328D01*
X125013219Y-111580771D01*
X124965717Y-111632009D01*
X124902219Y-111649500D01*
X122674499Y-111649500D01*
X122607460Y-111629815D01*
X122561705Y-111577011D01*
X122550499Y-111525500D01*
X122550499Y-111077129D01*
X122550498Y-111077123D01*
X122550497Y-111077116D01*
X122544091Y-111017517D01*
X122516552Y-110943682D01*
X122493797Y-110882671D01*
X122493793Y-110882664D01*
X122407547Y-110767455D01*
X122407544Y-110767452D01*
X122292335Y-110681206D01*
X122292328Y-110681202D01*
X122157482Y-110630908D01*
X122157483Y-110630908D01*
X122097883Y-110624501D01*
X122097881Y-110624500D01*
X122097873Y-110624500D01*
X122097864Y-110624500D01*
X116002129Y-110624500D01*
X116002123Y-110624501D01*
X115942516Y-110630908D01*
X115807671Y-110681202D01*
X115807664Y-110681206D01*
X115692455Y-110767452D01*
X115692452Y-110767455D01*
X115606206Y-110882664D01*
X115606202Y-110882671D01*
X115555908Y-111017517D01*
X115549501Y-111077116D01*
X115549501Y-111077123D01*
X115549500Y-111077135D01*
X115549500Y-113822870D01*
X103098935Y-113822870D01*
X103095436Y-113782876D01*
X103095434Y-113782865D01*
X103036564Y-113563158D01*
X103036560Y-113563149D01*
X102940429Y-113356994D01*
X102940428Y-113356992D01*
X102809956Y-113170657D01*
X102666237Y-113026938D01*
X102666236Y-113026938D01*
X101984097Y-114208438D01*
X101937936Y-114117841D01*
X101848340Y-114028245D01*
X101735443Y-113970721D01*
X101641776Y-113955886D01*
X101578814Y-113955886D01*
X101549917Y-113960462D01*
X102233223Y-112776940D01*
X102036902Y-112724335D01*
X102036894Y-112724334D01*
X101810298Y-112704510D01*
X101810294Y-112704510D01*
X101583695Y-112724334D01*
X101583687Y-112724335D01*
X101363975Y-112783207D01*
X101363964Y-112783211D01*
X101157817Y-112879339D01*
X101157807Y-112879345D01*
X101105072Y-112916269D01*
X101038866Y-112938596D01*
X100971099Y-112921583D01*
X100923287Y-112870634D01*
X100910423Y-112803887D01*
X100914712Y-112754864D01*
X100940165Y-112689798D01*
X100950551Y-112678002D01*
X103901736Y-109726819D01*
X103963059Y-109693334D01*
X103989417Y-109690500D01*
X104867012Y-109690500D01*
X104934051Y-109710185D01*
X104950548Y-109722861D01*
X104968958Y-109739645D01*
X105030800Y-109796021D01*
X105030805Y-109796025D01*
X105208930Y-109906315D01*
X105208931Y-109906315D01*
X105208934Y-109906317D01*
X105404299Y-109982002D01*
X105610244Y-110020500D01*
X105610246Y-110020500D01*
X105819754Y-110020500D01*
X105819756Y-110020500D01*
X106025701Y-109982002D01*
X106221066Y-109906317D01*
X106399197Y-109796023D01*
X106554029Y-109654876D01*
X106680288Y-109487681D01*
X106773676Y-109300133D01*
X106831012Y-109098619D01*
X106850343Y-108890000D01*
X106831012Y-108681381D01*
X106773676Y-108479867D01*
X106755569Y-108443504D01*
X106710153Y-108352296D01*
X106680288Y-108292319D01*
X106554029Y-108125124D01*
X106554026Y-108125121D01*
X106554023Y-108125118D01*
X106399199Y-107983978D01*
X106399194Y-107983974D01*
X106221069Y-107873684D01*
X106221063Y-107873682D01*
X106025701Y-107797998D01*
X105819756Y-107759500D01*
X105610244Y-107759500D01*
X105404299Y-107797998D01*
X105347490Y-107820006D01*
X105208936Y-107873682D01*
X105208930Y-107873684D01*
X105030805Y-107983974D01*
X105030800Y-107983978D01*
X104950550Y-108057137D01*
X104887746Y-108087754D01*
X104867012Y-108089500D01*
X103696671Y-108089500D01*
X103516283Y-108089500D01*
X103510365Y-108090850D01*
X103475566Y-108098791D01*
X103468712Y-108099955D01*
X103427221Y-108104632D01*
X103387818Y-108118419D01*
X103381136Y-108120344D01*
X103340416Y-108129640D01*
X103302783Y-108147761D01*
X103296357Y-108150423D01*
X103256952Y-108164212D01*
X103221600Y-108186424D01*
X103215514Y-108189787D01*
X103177890Y-108207907D01*
X103177885Y-108207911D01*
X103145239Y-108233944D01*
X103139567Y-108237969D01*
X103104215Y-108260183D01*
X103104212Y-108260185D01*
X103087657Y-108276742D01*
X103072225Y-108292174D01*
X102474401Y-108889998D01*
X99945217Y-111419180D01*
X99883894Y-111452665D01*
X99842749Y-111453484D01*
X99842677Y-111454313D01*
X99837284Y-111453841D01*
X99726545Y-111444152D01*
X99610593Y-111434008D01*
X99610589Y-111434008D01*
X99459463Y-111447229D01*
X99383899Y-111453840D01*
X99383896Y-111453840D01*
X99164102Y-111512733D01*
X99164093Y-111512736D01*
X98957860Y-111608905D01*
X98904892Y-111645994D01*
X98838685Y-111668321D01*
X98770918Y-111651310D01*
X98723106Y-111600362D01*
X98710241Y-111533612D01*
X98715852Y-111469477D01*
X98715852Y-111469473D01*
X98696027Y-111242876D01*
X98696025Y-111242865D01*
X98637155Y-111023158D01*
X98637151Y-111023149D01*
X98541020Y-110816994D01*
X98541019Y-110816992D01*
X98410547Y-110630657D01*
X98266828Y-110486938D01*
X98266827Y-110486938D01*
X97584688Y-111668438D01*
X97538527Y-111577841D01*
X97448931Y-111488245D01*
X97336034Y-111430721D01*
X97242367Y-111415886D01*
X97179405Y-111415886D01*
X97150508Y-111420462D01*
X97833814Y-110236940D01*
X97637493Y-110184335D01*
X97637485Y-110184334D01*
X97410889Y-110164510D01*
X97410885Y-110164510D01*
X97184286Y-110184334D01*
X97184278Y-110184335D01*
X96964566Y-110243207D01*
X96964555Y-110243211D01*
X96758408Y-110339339D01*
X96758398Y-110339345D01*
X96705663Y-110376269D01*
X96639457Y-110398596D01*
X96571690Y-110381583D01*
X96523878Y-110330634D01*
X96511014Y-110263887D01*
X96516650Y-110199476D01*
X96516299Y-110195468D01*
X96505678Y-110074064D01*
X96496818Y-109972784D01*
X96437921Y-109752979D01*
X96341750Y-109546742D01*
X96211229Y-109360337D01*
X96211227Y-109360334D01*
X96050322Y-109199429D01*
X95863920Y-109068909D01*
X95863916Y-109068907D01*
X95726914Y-109005022D01*
X95657679Y-108972737D01*
X95657675Y-108972736D01*
X95657671Y-108972734D01*
X95437880Y-108913842D01*
X95437876Y-108913841D01*
X95437875Y-108913841D01*
X95437874Y-108913840D01*
X95437869Y-108913840D01*
X95211184Y-108894008D01*
X95211180Y-108894008D01*
X95075089Y-108905914D01*
X94984490Y-108913840D01*
X94984487Y-108913840D01*
X94764693Y-108972733D01*
X94764684Y-108972736D01*
X94558451Y-109068905D01*
X94558447Y-109068907D01*
X94506015Y-109105620D01*
X94439809Y-109127947D01*
X94372042Y-109110935D01*
X94324230Y-109059986D01*
X94311366Y-108993237D01*
X94316945Y-108929476D01*
X94297113Y-108702784D01*
X94238216Y-108482979D01*
X94142045Y-108276742D01*
X94011524Y-108090337D01*
X94011522Y-108090334D01*
X93850617Y-107929429D01*
X93664215Y-107798909D01*
X93664211Y-107798907D01*
X93662262Y-107797998D01*
X93457974Y-107702737D01*
X93457970Y-107702736D01*
X93457966Y-107702734D01*
X93238175Y-107643842D01*
X93238171Y-107643841D01*
X93238170Y-107643841D01*
X93238169Y-107643840D01*
X93238164Y-107643840D01*
X93011479Y-107624008D01*
X93011475Y-107624008D01*
X92860349Y-107637229D01*
X92784785Y-107643840D01*
X92784782Y-107643840D01*
X92564988Y-107702733D01*
X92564979Y-107702736D01*
X92358748Y-107798904D01*
X92306311Y-107835620D01*
X92240104Y-107857946D01*
X92172337Y-107840933D01*
X92124526Y-107789984D01*
X92111662Y-107723237D01*
X92117241Y-107659476D01*
X92097409Y-107432784D01*
X92038512Y-107212979D01*
X91942341Y-107006742D01*
X91812532Y-106821354D01*
X112582199Y-106821354D01*
X112848832Y-107071082D01*
X112848832Y-107071083D01*
X113324577Y-107461517D01*
X113324576Y-107461517D01*
X113824848Y-107820006D01*
X114347484Y-108145002D01*
X114347484Y-108145001D01*
X114890258Y-108435120D01*
X115450851Y-108689121D01*
X116026856Y-108905914D01*
X116026857Y-108905914D01*
X116615792Y-109084566D01*
X117215173Y-109224322D01*
X117822399Y-109324575D01*
X117822400Y-109324575D01*
X118434874Y-109384899D01*
X119050000Y-109405036D01*
X119665126Y-109384899D01*
X120277600Y-109324575D01*
X120277601Y-109324575D01*
X120884827Y-109224322D01*
X121484208Y-109084566D01*
X122073143Y-108905914D01*
X122073144Y-108905914D01*
X122649149Y-108689121D01*
X123209742Y-108435120D01*
X123752516Y-108145001D01*
X123752516Y-108145002D01*
X124275152Y-107820006D01*
X124775424Y-107461517D01*
X124775423Y-107461517D01*
X125251175Y-107071076D01*
X125251176Y-107071076D01*
X125517800Y-106821354D01*
X119050000Y-100353553D01*
X112582199Y-106821354D01*
X91812532Y-106821354D01*
X91811820Y-106820337D01*
X91811818Y-106820334D01*
X91650913Y-106659429D01*
X91464511Y-106528909D01*
X91464507Y-106528907D01*
X91445376Y-106519986D01*
X91258270Y-106432737D01*
X91258266Y-106432736D01*
X91258262Y-106432734D01*
X91038471Y-106373842D01*
X91038467Y-106373841D01*
X91038466Y-106373841D01*
X91038465Y-106373840D01*
X91038460Y-106373840D01*
X90811775Y-106354008D01*
X90811771Y-106354008D01*
X90678892Y-106365633D01*
X90585081Y-106373840D01*
X90585078Y-106373840D01*
X90365284Y-106432733D01*
X90365275Y-106432736D01*
X90159042Y-106528905D01*
X90159038Y-106528907D01*
X90106606Y-106565620D01*
X90040400Y-106587947D01*
X89972633Y-106570935D01*
X89924821Y-106519986D01*
X89911957Y-106453237D01*
X89917536Y-106389476D01*
X89917185Y-106385468D01*
X89910298Y-106306739D01*
X89897704Y-106162784D01*
X89863891Y-106036593D01*
X89865554Y-105966744D01*
X89904716Y-105908881D01*
X89968945Y-105881377D01*
X89983666Y-105880500D01*
X105170194Y-105880500D01*
X105210905Y-105871208D01*
X105217760Y-105870043D01*
X105259255Y-105865368D01*
X105298680Y-105851571D01*
X105305321Y-105849658D01*
X105346061Y-105840360D01*
X105383693Y-105822236D01*
X105390105Y-105819580D01*
X105429522Y-105805789D01*
X105464889Y-105783565D01*
X105470961Y-105780209D01*
X105508587Y-105762091D01*
X105541236Y-105736052D01*
X105546895Y-105732037D01*
X105582262Y-105709816D01*
X105709816Y-105582262D01*
X106149674Y-105142402D01*
X106210995Y-105108919D01*
X106248156Y-105106557D01*
X106350000Y-105115468D01*
X106350000Y-105115467D01*
X106350001Y-105115468D01*
X106350002Y-105115468D01*
X106424855Y-105108919D01*
X106576692Y-105095635D01*
X106796496Y-105036739D01*
X107002734Y-104940568D01*
X107189139Y-104810047D01*
X107350047Y-104649139D01*
X107480568Y-104462734D01*
X107576739Y-104256496D01*
X107635635Y-104036692D01*
X107655468Y-103810000D01*
X107655434Y-103809617D01*
X107637021Y-103599149D01*
X107635635Y-103583308D01*
X107576739Y-103363504D01*
X107480568Y-103157266D01*
X107350047Y-102970861D01*
X107350045Y-102970858D01*
X107189141Y-102809954D01*
X107002734Y-102679432D01*
X107002732Y-102679431D01*
X106796497Y-102583261D01*
X106796488Y-102583258D01*
X106576697Y-102524366D01*
X106576693Y-102524365D01*
X106576692Y-102524365D01*
X106576691Y-102524364D01*
X106576686Y-102524364D01*
X106350002Y-102504532D01*
X106349998Y-102504532D01*
X106123313Y-102524364D01*
X106123302Y-102524366D01*
X105903511Y-102583258D01*
X105903502Y-102583261D01*
X105697267Y-102679431D01*
X105697265Y-102679432D01*
X105510858Y-102809954D01*
X105349954Y-102970858D01*
X105219432Y-103157265D01*
X105219431Y-103157267D01*
X105123261Y-103363502D01*
X105123258Y-103363511D01*
X105064366Y-103583302D01*
X105064364Y-103583313D01*
X105044532Y-103809998D01*
X105044532Y-103810002D01*
X105053441Y-103911838D01*
X105039674Y-103980338D01*
X105017594Y-104010326D01*
X104784739Y-104243182D01*
X104723419Y-104276666D01*
X104697060Y-104279500D01*
X87589500Y-104279500D01*
X87522461Y-104259815D01*
X87476706Y-104207011D01*
X87465500Y-104155500D01*
X87465500Y-101489751D01*
X87485185Y-101422712D01*
X87500578Y-101404489D01*
X87500166Y-101404114D01*
X87504024Y-101399880D01*
X87504029Y-101399876D01*
X87630288Y-101232681D01*
X87723676Y-101045133D01*
X87781012Y-100843619D01*
X87800343Y-100635000D01*
X87800324Y-100634800D01*
X87781012Y-100426381D01*
X87723676Y-100224867D01*
X87708965Y-100195324D01*
X87632911Y-100042587D01*
X87630288Y-100037319D01*
X87602106Y-100000000D01*
X109644964Y-100000000D01*
X109665101Y-100615126D01*
X109725425Y-101227600D01*
X109725425Y-101227601D01*
X109825678Y-101834827D01*
X109965434Y-102434208D01*
X110144086Y-103023143D01*
X110144086Y-103023144D01*
X110360879Y-103599149D01*
X110614880Y-104159742D01*
X110904999Y-104702516D01*
X110904998Y-104702516D01*
X111229994Y-105225152D01*
X111588483Y-105725424D01*
X111588483Y-105725423D01*
X111978917Y-106201168D01*
X111978918Y-106201168D01*
X112228644Y-106467799D01*
X112228645Y-106467800D01*
X118696446Y-100000000D01*
X112228645Y-93532199D01*
X111978918Y-93798832D01*
X111978917Y-93798832D01*
X111588483Y-94274577D01*
X111588483Y-94274576D01*
X111229994Y-94774848D01*
X110904998Y-95297484D01*
X110904999Y-95297484D01*
X110614880Y-95840258D01*
X110360879Y-96400851D01*
X110144086Y-96976856D01*
X110144086Y-96976857D01*
X109965434Y-97565792D01*
X109825678Y-98165173D01*
X109725425Y-98772399D01*
X109725425Y-98772400D01*
X109665101Y-99384874D01*
X109644964Y-100000000D01*
X87602106Y-100000000D01*
X87504029Y-99870124D01*
X87504026Y-99870121D01*
X87504023Y-99870118D01*
X87349199Y-99728978D01*
X87349194Y-99728974D01*
X87171069Y-99618684D01*
X87171063Y-99618682D01*
X86975701Y-99542998D01*
X86769756Y-99504500D01*
X86560244Y-99504500D01*
X86354299Y-99542998D01*
X86230752Y-99590860D01*
X86158936Y-99618682D01*
X86158930Y-99618684D01*
X85980805Y-99728974D01*
X85980800Y-99728978D01*
X85825976Y-99870118D01*
X85825973Y-99870121D01*
X85699712Y-100037318D01*
X85606328Y-100224856D01*
X85606323Y-100224869D01*
X85548987Y-100426381D01*
X85529657Y-100634999D01*
X85529657Y-100635001D01*
X85530033Y-100639059D01*
X85516618Y-100707629D01*
X85468261Y-100758061D01*
X85406562Y-100774500D01*
X85290244Y-100774500D01*
X85084299Y-100812998D01*
X84960752Y-100860860D01*
X84888936Y-100888682D01*
X84888930Y-100888684D01*
X84710805Y-100998974D01*
X84710800Y-100998978D01*
X84630550Y-101072137D01*
X84567746Y-101102754D01*
X84547012Y-101104500D01*
X74751559Y-101104500D01*
X74684520Y-101084815D01*
X74638765Y-101032011D01*
X74628821Y-100962853D01*
X74657846Y-100899297D01*
X74668021Y-100888863D01*
X74729450Y-100832863D01*
X74792254Y-100802246D01*
X74812988Y-100800500D01*
X78500194Y-100800500D01*
X78540905Y-100791208D01*
X78547760Y-100790043D01*
X78589255Y-100785368D01*
X78628680Y-100771571D01*
X78635321Y-100769658D01*
X78676061Y-100760360D01*
X78713693Y-100742236D01*
X78720105Y-100739580D01*
X78759522Y-100725789D01*
X78794889Y-100703565D01*
X78800961Y-100700209D01*
X78838587Y-100682091D01*
X78871236Y-100656052D01*
X78876895Y-100652037D01*
X78912262Y-100629816D01*
X79039816Y-100502262D01*
X85045259Y-94496819D01*
X85106582Y-94463334D01*
X85132940Y-94460500D01*
X86199951Y-94460500D01*
X86266990Y-94480185D01*
X86287632Y-94496819D01*
X86450858Y-94660045D01*
X86450861Y-94660047D01*
X86637266Y-94790568D01*
X86843504Y-94886739D01*
X87063308Y-94945635D01*
X87225230Y-94959801D01*
X87289998Y-94965468D01*
X87290000Y-94965468D01*
X87290002Y-94965468D01*
X87346673Y-94960509D01*
X87516692Y-94945635D01*
X87736496Y-94886739D01*
X87942734Y-94790568D01*
X88129139Y-94660047D01*
X88290047Y-94499139D01*
X88420568Y-94312734D01*
X88516739Y-94106496D01*
X88575635Y-93886692D01*
X88595468Y-93660000D01*
X88575635Y-93433308D01*
X88516739Y-93213504D01*
X88420568Y-93007266D01*
X88296317Y-92829815D01*
X88290045Y-92820858D01*
X88129141Y-92659954D01*
X87942734Y-92529432D01*
X87942728Y-92529429D01*
X87884725Y-92502382D01*
X87832285Y-92456210D01*
X87813133Y-92389017D01*
X87833348Y-92322135D01*
X87884725Y-92277618D01*
X87942734Y-92250568D01*
X88129139Y-92120047D01*
X88290047Y-91959139D01*
X88420568Y-91772734D01*
X88516739Y-91566496D01*
X88575635Y-91346692D01*
X88595468Y-91120000D01*
X88575635Y-90893308D01*
X88524290Y-90701686D01*
X88516741Y-90673511D01*
X88516738Y-90673502D01*
X88504773Y-90647844D01*
X88420568Y-90467266D01*
X88314343Y-90315559D01*
X88290045Y-90280858D01*
X88129141Y-90119954D01*
X87942734Y-89989432D01*
X87942728Y-89989429D01*
X87884725Y-89962382D01*
X87832285Y-89916210D01*
X87813133Y-89849017D01*
X87833348Y-89782135D01*
X87884725Y-89737618D01*
X87942734Y-89710568D01*
X88129139Y-89580047D01*
X88290047Y-89419139D01*
X88420568Y-89232734D01*
X88516739Y-89026496D01*
X88575635Y-88806692D01*
X88580534Y-88750694D01*
X88605986Y-88685626D01*
X88662577Y-88644647D01*
X88732339Y-88640769D01*
X88791743Y-88673821D01*
X93577594Y-93459672D01*
X93611079Y-93520995D01*
X93613441Y-93558160D01*
X93604532Y-93659997D01*
X93604532Y-93660001D01*
X93624364Y-93886686D01*
X93624366Y-93886697D01*
X93683258Y-94106488D01*
X93683261Y-94106497D01*
X93779431Y-94312732D01*
X93779432Y-94312734D01*
X93909954Y-94499141D01*
X94070858Y-94660045D01*
X94070861Y-94660047D01*
X94257266Y-94790568D01*
X94463504Y-94886739D01*
X94683308Y-94945635D01*
X94845230Y-94959801D01*
X94909998Y-94965468D01*
X94910000Y-94965468D01*
X94910002Y-94965468D01*
X94966673Y-94960509D01*
X95136692Y-94945635D01*
X95356496Y-94886739D01*
X95562734Y-94790568D01*
X95749139Y-94660047D01*
X95910047Y-94499139D01*
X95910048Y-94499138D01*
X95913526Y-94494994D01*
X95915493Y-94496644D01*
X95961680Y-94459742D01*
X96008655Y-94450500D01*
X105259951Y-94450500D01*
X105326990Y-94470185D01*
X105347632Y-94486819D01*
X105510858Y-94650045D01*
X105510861Y-94650047D01*
X105697266Y-94780568D01*
X105903504Y-94876739D01*
X106123308Y-94935635D01*
X106285230Y-94949801D01*
X106349998Y-94955468D01*
X106350000Y-94955468D01*
X106350002Y-94955468D01*
X106406673Y-94950509D01*
X106576692Y-94935635D01*
X106796496Y-94876739D01*
X107002734Y-94780568D01*
X107189139Y-94650047D01*
X107350047Y-94489139D01*
X107480568Y-94302734D01*
X107576739Y-94096496D01*
X107635635Y-93876692D01*
X107655468Y-93650000D01*
X107635635Y-93423308D01*
X107579420Y-93213511D01*
X107576741Y-93203511D01*
X107576738Y-93203502D01*
X107565147Y-93178645D01*
X112582199Y-93178645D01*
X119049999Y-99646445D01*
X125517800Y-93178645D01*
X125517799Y-93178644D01*
X125251168Y-92928918D01*
X125251168Y-92928917D01*
X124775423Y-92538483D01*
X124775424Y-92538483D01*
X124275152Y-92179994D01*
X123752516Y-91854998D01*
X123752516Y-91854999D01*
X123209742Y-91564880D01*
X122649149Y-91310879D01*
X122073144Y-91094086D01*
X122073143Y-91094086D01*
X121484208Y-90915434D01*
X120884827Y-90775678D01*
X120277601Y-90675425D01*
X120277600Y-90675425D01*
X119665126Y-90615101D01*
X119050000Y-90594964D01*
X118434874Y-90615101D01*
X117822400Y-90675425D01*
X117822399Y-90675425D01*
X117215173Y-90775678D01*
X116615792Y-90915434D01*
X116026857Y-91094086D01*
X116026856Y-91094086D01*
X115450851Y-91310879D01*
X114890258Y-91564880D01*
X114347484Y-91854999D01*
X114347484Y-91854998D01*
X113824848Y-92179994D01*
X113324576Y-92538483D01*
X113324577Y-92538483D01*
X112848832Y-92928917D01*
X112848832Y-92928918D01*
X112582199Y-93178645D01*
X107565147Y-93178645D01*
X107480568Y-92997266D01*
X107363319Y-92829815D01*
X107350045Y-92810858D01*
X107186819Y-92647632D01*
X107153334Y-92586309D01*
X107150500Y-92559951D01*
X107150500Y-91565049D01*
X107170185Y-91498010D01*
X107186819Y-91477368D01*
X107350045Y-91314141D01*
X107350047Y-91314139D01*
X107480568Y-91127734D01*
X107576739Y-90921496D01*
X107635635Y-90701692D01*
X107655468Y-90475000D01*
X107646557Y-90373158D01*
X107660323Y-90304662D01*
X107682401Y-90274675D01*
X111395259Y-86561819D01*
X111456582Y-86528334D01*
X111482940Y-86525500D01*
X112224333Y-86525500D01*
X112291372Y-86545185D01*
X112337127Y-86597989D01*
X112347071Y-86667147D01*
X112318046Y-86730703D01*
X112265283Y-86766543D01*
X112231339Y-86778419D01*
X112224658Y-86780344D01*
X112183935Y-86789641D01*
X112146308Y-86807759D01*
X112139885Y-86810420D01*
X112100481Y-86824210D01*
X112100475Y-86824212D01*
X112065122Y-86846425D01*
X112059036Y-86849789D01*
X112021414Y-86867907D01*
X111988768Y-86893941D01*
X111983097Y-86897965D01*
X111947734Y-86920186D01*
X111947733Y-86920187D01*
X111926410Y-86941511D01*
X111915748Y-86952174D01*
X111670735Y-87197187D01*
X111464741Y-87403181D01*
X111403418Y-87436666D01*
X111377060Y-87439500D01*
X111325244Y-87439500D01*
X111119299Y-87477998D01*
X111075371Y-87495016D01*
X110923936Y-87553682D01*
X110923930Y-87553684D01*
X110745805Y-87663974D01*
X110745800Y-87663978D01*
X110590976Y-87805118D01*
X110590973Y-87805121D01*
X110464712Y-87972318D01*
X110371328Y-88159856D01*
X110371323Y-88159869D01*
X110313987Y-88361381D01*
X110294657Y-88569999D01*
X110294657Y-88570000D01*
X110313987Y-88778618D01*
X110371323Y-88980130D01*
X110371328Y-88980143D01*
X110452220Y-89142594D01*
X110464712Y-89167681D01*
X110545011Y-89274015D01*
X110590973Y-89334878D01*
X110590976Y-89334881D01*
X110745800Y-89476021D01*
X110745805Y-89476025D01*
X110923930Y-89586315D01*
X110923931Y-89586315D01*
X110923934Y-89586317D01*
X111119299Y-89662002D01*
X111325244Y-89700500D01*
X111325246Y-89700500D01*
X111534754Y-89700500D01*
X111534756Y-89700500D01*
X111740701Y-89662002D01*
X111936066Y-89586317D01*
X112114197Y-89476023D01*
X112269029Y-89334876D01*
X112283546Y-89315651D01*
X112339654Y-89274015D01*
X112409366Y-89269323D01*
X112470548Y-89303065D01*
X112481452Y-89315650D01*
X112495971Y-89334876D01*
X112495974Y-89334878D01*
X112495976Y-89334881D01*
X112650800Y-89476021D01*
X112650805Y-89476025D01*
X112828930Y-89586315D01*
X112828931Y-89586315D01*
X112828934Y-89586317D01*
X113024299Y-89662002D01*
X113230244Y-89700500D01*
X113230246Y-89700500D01*
X113439754Y-89700500D01*
X113439756Y-89700500D01*
X113645701Y-89662002D01*
X113841066Y-89586317D01*
X114019197Y-89476023D01*
X114174029Y-89334876D01*
X114300288Y-89167681D01*
X114393676Y-88980133D01*
X114451012Y-88778619D01*
X114466545Y-88610978D01*
X114492331Y-88546044D01*
X114502318Y-88534758D01*
X114650260Y-88386816D01*
X114711583Y-88353334D01*
X114737940Y-88350500D01*
X115425501Y-88350500D01*
X115492540Y-88370185D01*
X115538295Y-88422989D01*
X115549501Y-88474500D01*
X115549501Y-88922876D01*
X115555908Y-88982483D01*
X115606202Y-89117328D01*
X115606206Y-89117335D01*
X115692452Y-89232544D01*
X115692455Y-89232547D01*
X115807664Y-89318793D01*
X115807671Y-89318797D01*
X115942517Y-89369091D01*
X115942516Y-89369091D01*
X115949444Y-89369835D01*
X116002127Y-89375500D01*
X122097872Y-89375499D01*
X122157483Y-89369091D01*
X122292331Y-89318796D01*
X122407546Y-89232546D01*
X122493796Y-89117331D01*
X122544091Y-88982483D01*
X122550500Y-88922873D01*
X122550499Y-87156938D01*
X122570184Y-87089900D01*
X122622987Y-87044145D01*
X122692146Y-87034201D01*
X122755702Y-87063226D01*
X122762180Y-87069258D01*
X123056923Y-87364001D01*
X123090408Y-87425324D01*
X123085424Y-87495016D01*
X123080245Y-87506948D01*
X123071327Y-87524860D01*
X123071319Y-87524878D01*
X123013988Y-87726378D01*
X123013987Y-87726381D01*
X122994657Y-87934999D01*
X122994657Y-87935000D01*
X123013987Y-88143618D01*
X123071323Y-88345130D01*
X123071328Y-88345143D01*
X123144764Y-88492620D01*
X123164712Y-88532681D01*
X123271295Y-88673821D01*
X123290973Y-88699878D01*
X123290976Y-88699881D01*
X123445800Y-88841021D01*
X123445805Y-88841025D01*
X123623930Y-88951315D01*
X123623931Y-88951315D01*
X123623934Y-88951317D01*
X123819299Y-89027002D01*
X124025244Y-89065500D01*
X124025246Y-89065500D01*
X124234754Y-89065500D01*
X124234756Y-89065500D01*
X124440701Y-89027002D01*
X124636066Y-88951317D01*
X124814197Y-88841023D01*
X124969029Y-88699876D01*
X125095288Y-88532681D01*
X125188676Y-88345133D01*
X125246012Y-88143619D01*
X125265343Y-87935000D01*
X125264626Y-87927267D01*
X125246012Y-87726381D01*
X125228256Y-87663977D01*
X125188676Y-87524867D01*
X125179753Y-87506948D01*
X125128083Y-87403181D01*
X125095288Y-87337319D01*
X124969029Y-87170124D01*
X124969026Y-87170121D01*
X124969023Y-87170118D01*
X124936208Y-87140204D01*
X124899926Y-87080493D01*
X124898854Y-87076159D01*
X124895902Y-87063226D01*
X124890359Y-87038939D01*
X124872245Y-87001326D01*
X124869583Y-86994898D01*
X124855789Y-86955478D01*
X124833614Y-86920187D01*
X124833563Y-86920106D01*
X124830213Y-86914044D01*
X124812091Y-86876413D01*
X124786049Y-86843757D01*
X124782038Y-86838104D01*
X124762971Y-86807759D01*
X124759818Y-86802740D01*
X123052262Y-85095184D01*
X123052259Y-85095182D01*
X123016904Y-85072966D01*
X123011229Y-85068940D01*
X122978589Y-85042910D01*
X122940959Y-85024787D01*
X122934872Y-85021422D01*
X122899525Y-84999212D01*
X122860114Y-84985421D01*
X122853688Y-84982759D01*
X122816061Y-84964639D01*
X122775345Y-84955345D01*
X122768662Y-84953420D01*
X122729259Y-84939632D01*
X122687763Y-84934955D01*
X122680908Y-84933791D01*
X122640200Y-84924501D01*
X122640196Y-84924500D01*
X122640194Y-84924500D01*
X122594954Y-84924500D01*
X111190194Y-84924500D01*
X111009805Y-84924500D01*
X111009803Y-84924500D01*
X111009797Y-84924501D01*
X110969098Y-84933790D01*
X110962242Y-84934955D01*
X110920743Y-84939632D01*
X110881328Y-84953423D01*
X110874646Y-84955348D01*
X110833940Y-84964640D01*
X110796326Y-84982753D01*
X110789901Y-84985414D01*
X110750482Y-84999209D01*
X110750474Y-84999213D01*
X110715117Y-85021428D01*
X110709032Y-85024791D01*
X110671413Y-85042908D01*
X110671411Y-85042909D01*
X110638769Y-85068941D01*
X110633096Y-85072966D01*
X110597739Y-85095183D01*
X110597735Y-85095186D01*
X110565748Y-85127174D01*
X106550326Y-89142594D01*
X106489003Y-89176079D01*
X106451838Y-89178441D01*
X106350002Y-89169532D01*
X106349998Y-89169532D01*
X106123313Y-89189364D01*
X106123302Y-89189366D01*
X105903511Y-89248258D01*
X105903502Y-89248261D01*
X105697267Y-89344431D01*
X105697265Y-89344432D01*
X105510858Y-89474954D01*
X105349954Y-89635858D01*
X105219432Y-89822265D01*
X105219431Y-89822267D01*
X105123261Y-90028502D01*
X105123258Y-90028511D01*
X105064366Y-90248302D01*
X105064364Y-90248313D01*
X105044532Y-90474998D01*
X105044532Y-90475001D01*
X105064364Y-90701686D01*
X105064366Y-90701697D01*
X105123258Y-90921488D01*
X105123261Y-90921497D01*
X105219431Y-91127732D01*
X105219432Y-91127734D01*
X105349954Y-91314141D01*
X105513181Y-91477368D01*
X105546666Y-91538691D01*
X105549500Y-91565049D01*
X105549500Y-92559951D01*
X105529815Y-92626990D01*
X105513181Y-92647632D01*
X105347632Y-92813181D01*
X105286309Y-92846666D01*
X105259951Y-92849500D01*
X95990049Y-92849500D01*
X95923010Y-92829815D01*
X95902368Y-92813181D01*
X95749141Y-92659954D01*
X95562734Y-92529432D01*
X95562728Y-92529429D01*
X95504725Y-92502382D01*
X95452285Y-92456210D01*
X95433133Y-92389017D01*
X95453348Y-92322135D01*
X95504725Y-92277618D01*
X95562734Y-92250568D01*
X95749139Y-92120047D01*
X95816858Y-92052328D01*
X95912368Y-91956819D01*
X95973691Y-91923334D01*
X96000049Y-91920500D01*
X100432981Y-91920500D01*
X100500020Y-91940185D01*
X100516519Y-91952863D01*
X100585802Y-92016022D01*
X100585804Y-92016024D01*
X100763930Y-92126315D01*
X100763931Y-92126315D01*
X100763934Y-92126317D01*
X100959299Y-92202002D01*
X101165244Y-92240500D01*
X101165246Y-92240500D01*
X101374754Y-92240500D01*
X101374756Y-92240500D01*
X101580701Y-92202002D01*
X101776066Y-92126317D01*
X101954197Y-92016023D01*
X102109029Y-91874876D01*
X102235288Y-91707681D01*
X102328676Y-91520133D01*
X102386012Y-91318619D01*
X102405343Y-91110000D01*
X102400638Y-91059229D01*
X102386012Y-90901381D01*
X102359101Y-90806799D01*
X102328676Y-90699867D01*
X102316505Y-90675425D01*
X102274152Y-90590368D01*
X102235288Y-90512319D01*
X102109029Y-90345124D01*
X102109026Y-90345121D01*
X102109023Y-90345118D01*
X101954199Y-90203978D01*
X101954194Y-90203974D01*
X101776069Y-90093684D01*
X101776063Y-90093682D01*
X101580701Y-90017998D01*
X101374756Y-89979500D01*
X101165244Y-89979500D01*
X100959299Y-90017998D01*
X100835752Y-90065860D01*
X100763936Y-90093682D01*
X100763930Y-90093684D01*
X100585806Y-90203974D01*
X100585803Y-90203977D01*
X100498920Y-90283181D01*
X100494579Y-90287138D01*
X100431774Y-90317754D01*
X100411041Y-90319500D01*
X96000049Y-90319500D01*
X95933010Y-90299815D01*
X95912368Y-90283181D01*
X95749141Y-90119954D01*
X95562734Y-89989432D01*
X95562728Y-89989429D01*
X95504725Y-89962382D01*
X95452285Y-89916210D01*
X95433133Y-89849017D01*
X95453348Y-89782135D01*
X95504725Y-89737618D01*
X95562734Y-89710568D01*
X95749139Y-89580047D01*
X95910047Y-89419139D01*
X96040568Y-89232734D01*
X96136739Y-89026496D01*
X96195635Y-88806692D01*
X96215468Y-88580000D01*
X96195635Y-88353308D01*
X96149325Y-88180474D01*
X96136741Y-88133511D01*
X96136738Y-88133502D01*
X96040568Y-87927266D01*
X95910047Y-87740861D01*
X95910045Y-87740858D01*
X95749143Y-87579956D01*
X95723912Y-87562289D01*
X95680287Y-87507712D01*
X95673095Y-87438213D01*
X95704617Y-87375859D01*
X95764847Y-87340445D01*
X95781781Y-87337424D01*
X95817380Y-87333596D01*
X95952086Y-87283354D01*
X95952093Y-87283350D01*
X96067187Y-87197190D01*
X96067190Y-87197187D01*
X96153350Y-87082093D01*
X96153354Y-87082086D01*
X96203596Y-86947379D01*
X96203598Y-86947372D01*
X96209999Y-86887844D01*
X96210000Y-86887827D01*
X96210000Y-86290000D01*
X95225686Y-86290000D01*
X95237641Y-86278045D01*
X95295165Y-86165148D01*
X95314986Y-86040000D01*
X95295165Y-85914852D01*
X95237641Y-85801955D01*
X95225686Y-85790000D01*
X96210000Y-85790000D01*
X96210000Y-85192172D01*
X96209999Y-85192155D01*
X96203598Y-85132627D01*
X96203596Y-85132620D01*
X96153354Y-84997913D01*
X96153350Y-84997906D01*
X96067190Y-84882812D01*
X96067187Y-84882809D01*
X95952093Y-84796649D01*
X95952086Y-84796645D01*
X95817379Y-84746403D01*
X95817372Y-84746401D01*
X95757844Y-84740000D01*
X95160000Y-84740000D01*
X95160000Y-85724314D01*
X95148045Y-85712359D01*
X95035148Y-85654835D01*
X94941481Y-85640000D01*
X94878519Y-85640000D01*
X94784852Y-85654835D01*
X94671955Y-85712359D01*
X94660000Y-85724314D01*
X94660000Y-84740000D01*
X94062155Y-84740000D01*
X94002627Y-84746401D01*
X94002620Y-84746403D01*
X93867913Y-84796645D01*
X93867906Y-84796649D01*
X93752812Y-84882809D01*
X93752809Y-84882812D01*
X93666649Y-84997906D01*
X93666645Y-84997913D01*
X93616403Y-85132620D01*
X93616401Y-85132627D01*
X93610000Y-85192155D01*
X93610000Y-85790000D01*
X94594314Y-85790000D01*
X94582359Y-85801955D01*
X94524835Y-85914852D01*
X94505014Y-86040000D01*
X94524835Y-86165148D01*
X94582359Y-86278045D01*
X94594314Y-86290000D01*
X93610000Y-86290000D01*
X93610000Y-86887844D01*
X93616401Y-86947372D01*
X93616403Y-86947379D01*
X93666645Y-87082086D01*
X93666649Y-87082093D01*
X93752809Y-87197187D01*
X93752812Y-87197190D01*
X93867906Y-87283350D01*
X93867913Y-87283354D01*
X94002620Y-87333596D01*
X94002627Y-87333598D01*
X94038218Y-87337425D01*
X94102769Y-87364163D01*
X94142618Y-87421555D01*
X94145111Y-87491380D01*
X94109459Y-87551469D01*
X94096088Y-87562287D01*
X94070861Y-87579951D01*
X93909954Y-87740858D01*
X93779432Y-87927265D01*
X93779431Y-87927267D01*
X93683261Y-88133502D01*
X93683258Y-88133511D01*
X93624366Y-88353302D01*
X93624364Y-88353313D01*
X93604532Y-88579998D01*
X93604532Y-88580001D01*
X93624364Y-88806686D01*
X93624366Y-88806697D01*
X93683258Y-89026488D01*
X93683261Y-89026497D01*
X93779431Y-89232732D01*
X93779432Y-89232734D01*
X93909954Y-89419141D01*
X94070858Y-89580045D01*
X94117693Y-89612839D01*
X94257266Y-89710568D01*
X94315275Y-89737618D01*
X94367714Y-89783791D01*
X94386866Y-89850984D01*
X94366650Y-89917865D01*
X94315275Y-89962382D01*
X94257267Y-89989431D01*
X94257265Y-89989432D01*
X94070858Y-90119954D01*
X93909954Y-90280858D01*
X93779432Y-90467265D01*
X93779431Y-90467267D01*
X93683261Y-90673502D01*
X93683258Y-90673511D01*
X93624366Y-90893302D01*
X93624364Y-90893312D01*
X93619465Y-90949306D01*
X93594011Y-91014375D01*
X93537420Y-91055352D01*
X93467658Y-91059229D01*
X93408256Y-91026178D01*
X88622404Y-86240326D01*
X88588919Y-86179003D01*
X88586557Y-86141842D01*
X88595468Y-86040000D01*
X88575635Y-85813308D01*
X88516739Y-85593504D01*
X88420568Y-85387266D01*
X88290047Y-85200861D01*
X88290045Y-85200858D01*
X88129141Y-85039954D01*
X87942734Y-84909432D01*
X87942732Y-84909431D01*
X87736497Y-84813261D01*
X87736488Y-84813258D01*
X87516697Y-84754366D01*
X87516693Y-84754365D01*
X87516692Y-84754365D01*
X87516691Y-84754364D01*
X87516686Y-84754364D01*
X87290002Y-84734532D01*
X87289998Y-84734532D01*
X87063313Y-84754364D01*
X87063302Y-84754366D01*
X86843511Y-84813258D01*
X86843502Y-84813261D01*
X86637267Y-84909431D01*
X86637265Y-84909432D01*
X86450858Y-85039954D01*
X86289954Y-85200858D01*
X86159432Y-85387265D01*
X86159431Y-85387267D01*
X86063261Y-85593502D01*
X86063258Y-85593511D01*
X86004366Y-85813302D01*
X86004364Y-85813313D01*
X85984532Y-86039998D01*
X85984532Y-86040001D01*
X86004364Y-86266686D01*
X86004366Y-86266697D01*
X86063258Y-86486488D01*
X86063261Y-86486497D01*
X86159431Y-86692732D01*
X86159432Y-86692734D01*
X86289954Y-86879141D01*
X86450858Y-87040045D01*
X86483964Y-87063226D01*
X86637266Y-87170568D01*
X86694357Y-87197190D01*
X86695275Y-87197618D01*
X86747714Y-87243791D01*
X86766866Y-87310984D01*
X86746650Y-87377865D01*
X86695275Y-87422381D01*
X86678272Y-87430310D01*
X86637267Y-87449431D01*
X86637265Y-87449432D01*
X86450858Y-87579954D01*
X86289954Y-87740858D01*
X86159432Y-87927265D01*
X86159431Y-87927267D01*
X86063261Y-88133502D01*
X86063258Y-88133511D01*
X86004366Y-88353302D01*
X86004364Y-88353313D01*
X85984532Y-88579998D01*
X85984532Y-88580001D01*
X86004364Y-88806686D01*
X86004366Y-88806697D01*
X86063258Y-89026488D01*
X86063261Y-89026497D01*
X86159431Y-89232732D01*
X86159432Y-89232734D01*
X86289954Y-89419141D01*
X86450858Y-89580045D01*
X86497693Y-89612839D01*
X86637266Y-89710568D01*
X86695275Y-89737618D01*
X86747714Y-89783791D01*
X86766866Y-89850984D01*
X86746650Y-89917865D01*
X86695275Y-89962382D01*
X86637267Y-89989431D01*
X86637265Y-89989432D01*
X86450862Y-90119951D01*
X86428298Y-90142516D01*
X86377631Y-90193182D01*
X86316311Y-90226666D01*
X86289952Y-90229500D01*
X85146763Y-90229500D01*
X85079724Y-90209815D01*
X85059082Y-90193181D01*
X84921819Y-90055918D01*
X84888334Y-89994595D01*
X84885500Y-89968237D01*
X84885500Y-88439807D01*
X84885500Y-88439806D01*
X84876207Y-88399093D01*
X84875042Y-88392233D01*
X84871566Y-88361381D01*
X84870368Y-88350745D01*
X84866210Y-88338862D01*
X84856576Y-88311328D01*
X84854653Y-88304655D01*
X84845360Y-88263939D01*
X84834872Y-88242161D01*
X84827239Y-88226310D01*
X84824576Y-88219881D01*
X84810789Y-88180478D01*
X84810787Y-88180475D01*
X84810787Y-88180474D01*
X84797839Y-88159869D01*
X84788569Y-88145116D01*
X84785218Y-88139054D01*
X84767092Y-88101413D01*
X84741048Y-88068755D01*
X84737032Y-88063095D01*
X84714816Y-88027738D01*
X84587262Y-87900184D01*
X82898942Y-86211864D01*
X82865457Y-86150541D01*
X82863095Y-86113380D01*
X82870391Y-86030000D01*
X82863095Y-85946620D01*
X82876861Y-85878124D01*
X82898939Y-85848137D01*
X85030112Y-83716966D01*
X121564948Y-83716966D01*
X122255883Y-84115877D01*
X122310663Y-84140111D01*
X122452444Y-84163952D01*
X122452446Y-84163953D01*
X122595209Y-84146882D01*
X122727375Y-84090286D01*
X122838248Y-83998742D01*
X122838249Y-83998740D01*
X122873560Y-83950381D01*
X122873570Y-83950367D01*
X124022479Y-81960395D01*
X124022479Y-81960394D01*
X122939948Y-81335395D01*
X122939947Y-81335395D01*
X121564948Y-83716965D01*
X121564948Y-83716966D01*
X85030112Y-83716966D01*
X85730259Y-83016819D01*
X85791582Y-82983334D01*
X85817940Y-82980500D01*
X92233023Y-82980500D01*
X92300062Y-83000185D01*
X92345817Y-83052989D01*
X92353266Y-83080134D01*
X92354124Y-83079932D01*
X92355907Y-83087479D01*
X92406202Y-83222328D01*
X92406206Y-83222335D01*
X92492452Y-83337544D01*
X92492455Y-83337547D01*
X92607664Y-83423793D01*
X92607671Y-83423797D01*
X92742517Y-83474091D01*
X92742516Y-83474091D01*
X92749444Y-83474835D01*
X92802127Y-83480500D01*
X94497872Y-83480499D01*
X94557483Y-83474091D01*
X94692331Y-83423796D01*
X94807546Y-83337546D01*
X94893796Y-83222331D01*
X94944091Y-83087483D01*
X94950500Y-83027873D01*
X94950500Y-82646932D01*
X120227416Y-82646932D01*
X120244487Y-82789695D01*
X120301083Y-82921861D01*
X120392627Y-83032734D01*
X120392629Y-83032735D01*
X120440988Y-83068046D01*
X120441002Y-83068056D01*
X121131935Y-83466965D01*
X121131936Y-83466965D01*
X122506935Y-81085396D01*
X122506935Y-81085395D01*
X121424403Y-80460396D01*
X121424402Y-80460396D01*
X120275492Y-82450369D01*
X120251258Y-82505149D01*
X120227417Y-82646930D01*
X120227416Y-82646932D01*
X94950500Y-82646932D01*
X94950499Y-81332128D01*
X94944091Y-81272517D01*
X94908352Y-81176697D01*
X94893797Y-81137671D01*
X94893793Y-81137664D01*
X94807547Y-81022455D01*
X94807544Y-81022452D01*
X94692335Y-80936206D01*
X94692328Y-80936202D01*
X94557482Y-80885908D01*
X94557483Y-80885908D01*
X94497883Y-80879501D01*
X94497881Y-80879500D01*
X94497873Y-80879500D01*
X94497864Y-80879500D01*
X94494548Y-80879322D01*
X94494627Y-80877847D01*
X94433215Y-80859815D01*
X94387460Y-80807011D01*
X94379969Y-80763522D01*
X93694401Y-80077953D01*
X93775148Y-80065165D01*
X93888045Y-80007641D01*
X93977641Y-79918045D01*
X94035165Y-79805148D01*
X94047953Y-79724400D01*
X94729025Y-80405472D01*
X94780136Y-80332478D01*
X94788286Y-80315001D01*
X105044532Y-80315001D01*
X105064364Y-80541686D01*
X105064366Y-80541697D01*
X105123258Y-80761488D01*
X105123261Y-80761497D01*
X105219431Y-80967732D01*
X105219432Y-80967734D01*
X105349954Y-81154141D01*
X105510858Y-81315045D01*
X105510861Y-81315047D01*
X105697266Y-81445568D01*
X105903504Y-81541739D01*
X106123308Y-81600635D01*
X106285230Y-81614801D01*
X106349998Y-81620468D01*
X106350000Y-81620468D01*
X106350002Y-81620468D01*
X106406673Y-81615509D01*
X106576692Y-81600635D01*
X106796496Y-81541739D01*
X107002734Y-81445568D01*
X107189139Y-81315047D01*
X107350047Y-81154139D01*
X107480568Y-80967734D01*
X107488837Y-80950001D01*
X115204532Y-80950001D01*
X115224364Y-81176686D01*
X115224366Y-81176697D01*
X115283258Y-81396488D01*
X115283261Y-81396497D01*
X115379431Y-81602732D01*
X115379432Y-81602734D01*
X115509954Y-81789141D01*
X115670858Y-81950045D01*
X115670861Y-81950047D01*
X115857266Y-82080568D01*
X116063504Y-82176739D01*
X116063509Y-82176740D01*
X116063511Y-82176741D01*
X116073991Y-82179549D01*
X116283308Y-82235635D01*
X116445230Y-82249801D01*
X116509998Y-82255468D01*
X116510000Y-82255468D01*
X116510002Y-82255468D01*
X116566673Y-82250509D01*
X116736692Y-82235635D01*
X116956496Y-82176739D01*
X117162734Y-82080568D01*
X117349139Y-81950047D01*
X117510047Y-81789139D01*
X117640568Y-81602734D01*
X117736739Y-81396496D01*
X117795635Y-81176692D01*
X117812634Y-80982384D01*
X117815468Y-80950001D01*
X117815468Y-80949998D01*
X117802958Y-80807011D01*
X117795635Y-80723308D01*
X117736739Y-80503504D01*
X117640568Y-80297266D01*
X117510047Y-80110861D01*
X117510045Y-80110858D01*
X117349141Y-79949954D01*
X117162734Y-79819432D01*
X117162732Y-79819431D01*
X116956497Y-79723261D01*
X116956488Y-79723258D01*
X116736697Y-79664366D01*
X116736693Y-79664365D01*
X116736692Y-79664365D01*
X116736691Y-79664364D01*
X116736686Y-79664364D01*
X116510002Y-79644532D01*
X116509998Y-79644532D01*
X116283313Y-79664364D01*
X116283302Y-79664366D01*
X116063511Y-79723258D01*
X116063502Y-79723261D01*
X115857267Y-79819431D01*
X115857265Y-79819432D01*
X115670858Y-79949954D01*
X115509954Y-80110858D01*
X115379432Y-80297265D01*
X115379431Y-80297267D01*
X115283261Y-80503502D01*
X115283258Y-80503511D01*
X115224366Y-80723302D01*
X115224364Y-80723313D01*
X115204532Y-80949998D01*
X115204532Y-80950001D01*
X107488837Y-80950001D01*
X107576739Y-80761496D01*
X107635635Y-80541692D01*
X107655468Y-80315000D01*
X107653916Y-80297266D01*
X107637608Y-80110861D01*
X107635635Y-80088308D01*
X107586949Y-79906610D01*
X107576741Y-79868511D01*
X107576738Y-79868502D01*
X107565491Y-79844383D01*
X107480568Y-79662266D01*
X107350047Y-79475861D01*
X107350045Y-79475858D01*
X107189141Y-79314954D01*
X107002734Y-79184432D01*
X107002732Y-79184431D01*
X106796497Y-79088261D01*
X106796488Y-79088258D01*
X106576697Y-79029366D01*
X106576693Y-79029365D01*
X106576692Y-79029365D01*
X106576691Y-79029364D01*
X106576686Y-79029364D01*
X106350002Y-79009532D01*
X106349998Y-79009532D01*
X106123313Y-79029364D01*
X106123302Y-79029366D01*
X105903511Y-79088258D01*
X105903502Y-79088261D01*
X105697267Y-79184431D01*
X105697265Y-79184432D01*
X105510858Y-79314954D01*
X105349954Y-79475858D01*
X105219432Y-79662265D01*
X105219431Y-79662267D01*
X105123261Y-79868502D01*
X105123258Y-79868511D01*
X105064366Y-80088302D01*
X105064364Y-80088313D01*
X105044532Y-80314998D01*
X105044532Y-80315001D01*
X94788286Y-80315001D01*
X94876267Y-80126325D01*
X94876269Y-80126317D01*
X94935139Y-79906610D01*
X94935141Y-79906599D01*
X94954966Y-79680002D01*
X94954966Y-79679997D01*
X94935141Y-79453400D01*
X94935139Y-79453389D01*
X94876269Y-79233682D01*
X94876265Y-79233673D01*
X94780133Y-79027516D01*
X94780131Y-79027512D01*
X94729026Y-78954526D01*
X94729025Y-78954526D01*
X94047953Y-79635598D01*
X94035165Y-79554852D01*
X93977641Y-79441955D01*
X93888045Y-79352359D01*
X93775148Y-79294835D01*
X93694400Y-79282046D01*
X94375472Y-78600974D01*
X94375471Y-78600973D01*
X94302483Y-78549866D01*
X94302481Y-78549865D01*
X94096326Y-78453734D01*
X94096317Y-78453730D01*
X93876610Y-78394860D01*
X93876599Y-78394858D01*
X93650002Y-78375034D01*
X93649998Y-78375034D01*
X93423400Y-78394858D01*
X93423389Y-78394860D01*
X93203682Y-78453730D01*
X93203673Y-78453734D01*
X92997513Y-78549868D01*
X92924527Y-78600972D01*
X92924526Y-78600973D01*
X93605600Y-79282046D01*
X93524852Y-79294835D01*
X93411955Y-79352359D01*
X93322359Y-79441955D01*
X93264835Y-79554852D01*
X93252046Y-79635599D01*
X92570973Y-78954526D01*
X92570972Y-78954527D01*
X92519868Y-79027513D01*
X92423734Y-79233673D01*
X92423730Y-79233682D01*
X92364860Y-79453389D01*
X92364858Y-79453400D01*
X92345034Y-79679997D01*
X92345034Y-79680002D01*
X92364858Y-79906599D01*
X92364860Y-79906610D01*
X92423730Y-80126317D01*
X92423733Y-80126325D01*
X92519865Y-80332481D01*
X92519866Y-80332483D01*
X92570973Y-80405471D01*
X92570974Y-80405472D01*
X93252046Y-79724399D01*
X93264835Y-79805148D01*
X93322359Y-79918045D01*
X93411955Y-80007641D01*
X93524852Y-80065165D01*
X93605599Y-80077953D01*
X92919351Y-80764200D01*
X92909505Y-80813194D01*
X92860889Y-80863376D01*
X92805367Y-80878048D01*
X92805423Y-80879099D01*
X92805429Y-80879146D01*
X92805426Y-80879146D01*
X92805436Y-80879324D01*
X92802123Y-80879501D01*
X92742516Y-80885908D01*
X92607671Y-80936202D01*
X92607664Y-80936206D01*
X92492455Y-81022452D01*
X92492452Y-81022455D01*
X92406206Y-81137664D01*
X92406202Y-81137671D01*
X92355908Y-81272517D01*
X92354126Y-81280062D01*
X92351853Y-81279525D01*
X92329571Y-81333312D01*
X92272177Y-81373157D01*
X92233024Y-81379500D01*
X85525194Y-81379500D01*
X85344806Y-81379500D01*
X85338888Y-81380850D01*
X85304089Y-81388791D01*
X85297235Y-81389955D01*
X85255744Y-81394632D01*
X85216341Y-81408419D01*
X85209659Y-81410344D01*
X85168939Y-81419639D01*
X85131320Y-81437755D01*
X85124895Y-81440416D01*
X85085483Y-81454208D01*
X85085476Y-81454212D01*
X85050120Y-81476427D01*
X85044033Y-81479791D01*
X85006410Y-81497910D01*
X84973769Y-81523941D01*
X84968095Y-81527967D01*
X84945443Y-81542200D01*
X84878206Y-81561201D01*
X84811371Y-81540834D01*
X84766157Y-81487566D01*
X84756918Y-81418310D01*
X84761157Y-81401787D01*
X84760929Y-81401726D01*
X84795550Y-81272516D01*
X84821226Y-81176692D01*
X84838225Y-80982384D01*
X84841059Y-80950001D01*
X84841059Y-80949998D01*
X84828549Y-80807011D01*
X84821226Y-80723308D01*
X84762330Y-80503504D01*
X84666159Y-80297266D01*
X84535638Y-80110861D01*
X84535636Y-80110858D01*
X84374732Y-79949954D01*
X84188325Y-79819432D01*
X84188323Y-79819431D01*
X83982088Y-79723261D01*
X83982079Y-79723258D01*
X83762288Y-79664366D01*
X83762284Y-79664365D01*
X83762283Y-79664365D01*
X83762282Y-79664364D01*
X83762277Y-79664364D01*
X83535593Y-79644532D01*
X83535589Y-79644532D01*
X83308904Y-79664364D01*
X83308893Y-79664366D01*
X83089102Y-79723258D01*
X83089093Y-79723261D01*
X82882858Y-79819431D01*
X82882856Y-79819432D01*
X82696449Y-79949954D01*
X82535545Y-80110858D01*
X82405023Y-80297265D01*
X82405022Y-80297267D01*
X82308852Y-80503502D01*
X82308849Y-80503511D01*
X82249957Y-80723302D01*
X82249955Y-80723313D01*
X82230123Y-80949998D01*
X82230123Y-80950001D01*
X82249955Y-81176686D01*
X82249957Y-81176697D01*
X82308849Y-81396488D01*
X82308852Y-81396497D01*
X82405022Y-81602732D01*
X82405023Y-81602734D01*
X82535545Y-81789141D01*
X82696449Y-81950045D01*
X82696452Y-81950047D01*
X82882857Y-82080568D01*
X83089095Y-82176739D01*
X83089100Y-82176740D01*
X83089102Y-82176741D01*
X83099582Y-82179549D01*
X83308899Y-82235635D01*
X83470821Y-82249801D01*
X83535589Y-82255468D01*
X83535591Y-82255468D01*
X83535593Y-82255468D01*
X83592264Y-82250509D01*
X83762283Y-82235635D01*
X83977806Y-82177886D01*
X84047654Y-82179549D01*
X84105517Y-82218711D01*
X84133021Y-82282940D01*
X84121435Y-82351842D01*
X84097579Y-82385342D01*
X81766864Y-84716056D01*
X81705541Y-84749541D01*
X81668376Y-84751903D01*
X81585002Y-84744609D01*
X81584998Y-84744609D01*
X81361799Y-84764136D01*
X81361791Y-84764137D01*
X81145374Y-84822126D01*
X81145368Y-84822129D01*
X80942306Y-84916818D01*
X80942304Y-84916819D01*
X80758764Y-85045334D01*
X80600334Y-85203764D01*
X80471819Y-85387304D01*
X80471818Y-85387306D01*
X80377129Y-85590368D01*
X80377126Y-85590374D01*
X80319137Y-85806791D01*
X80319136Y-85806799D01*
X80299609Y-86029998D01*
X80299609Y-86030001D01*
X80319136Y-86253200D01*
X80319137Y-86253208D01*
X80377126Y-86469625D01*
X80377127Y-86469627D01*
X80377128Y-86469630D01*
X80436983Y-86597989D01*
X80471819Y-86672696D01*
X80471821Y-86672700D01*
X80600329Y-86856228D01*
X80600334Y-86856234D01*
X80758765Y-87014665D01*
X80758771Y-87014670D01*
X80942299Y-87143178D01*
X80942301Y-87143179D01*
X80942304Y-87143181D01*
X81145370Y-87237872D01*
X81361794Y-87295863D01*
X81521226Y-87309811D01*
X81584998Y-87315391D01*
X81584999Y-87315391D01*
X81584999Y-87315390D01*
X81585000Y-87315391D01*
X81668377Y-87308095D01*
X81736873Y-87321860D01*
X81766864Y-87343942D01*
X83248181Y-88825259D01*
X83281666Y-88886582D01*
X83284500Y-88912940D01*
X83284500Y-89968237D01*
X83264815Y-90035276D01*
X83248181Y-90055918D01*
X83100334Y-90203764D01*
X82971819Y-90387304D01*
X82971818Y-90387306D01*
X82877129Y-90590368D01*
X82877126Y-90590374D01*
X82819137Y-90806791D01*
X82819136Y-90806799D01*
X82799609Y-91029998D01*
X82799609Y-91030001D01*
X82819136Y-91253200D01*
X82819137Y-91253208D01*
X82877126Y-91469625D01*
X82877127Y-91469627D01*
X82877128Y-91469630D01*
X82922298Y-91566497D01*
X82971819Y-91672696D01*
X82971821Y-91672700D01*
X83100329Y-91856228D01*
X83100334Y-91856234D01*
X83258765Y-92014665D01*
X83258771Y-92014670D01*
X83442299Y-92143178D01*
X83442301Y-92143179D01*
X83442304Y-92143181D01*
X83645370Y-92237872D01*
X83861794Y-92295863D01*
X84021226Y-92309811D01*
X84084998Y-92315391D01*
X84085000Y-92315391D01*
X84085002Y-92315391D01*
X84140927Y-92310498D01*
X84308206Y-92295863D01*
X84524630Y-92237872D01*
X84727696Y-92143181D01*
X84911233Y-92014667D01*
X85059082Y-91866818D01*
X85120405Y-91833334D01*
X85146763Y-91830500D01*
X86135329Y-91830500D01*
X86202368Y-91850185D01*
X86236904Y-91883377D01*
X86289954Y-91959141D01*
X86450858Y-92120045D01*
X86483896Y-92143178D01*
X86637266Y-92250568D01*
X86695275Y-92277618D01*
X86747714Y-92323791D01*
X86766866Y-92390984D01*
X86746650Y-92457865D01*
X86695275Y-92502382D01*
X86637267Y-92529431D01*
X86637265Y-92529432D01*
X86450858Y-92659954D01*
X86287632Y-92823181D01*
X86226309Y-92856666D01*
X86199951Y-92859500D01*
X84840194Y-92859500D01*
X84659806Y-92859500D01*
X84653888Y-92860850D01*
X84619089Y-92868791D01*
X84612235Y-92869955D01*
X84570744Y-92874632D01*
X84531341Y-92888419D01*
X84524659Y-92890344D01*
X84483939Y-92899639D01*
X84446320Y-92917755D01*
X84439895Y-92920416D01*
X84400483Y-92934208D01*
X84400476Y-92934212D01*
X84365120Y-92956427D01*
X84359033Y-92959791D01*
X84321410Y-92977910D01*
X84288769Y-93003941D01*
X84283096Y-93007966D01*
X84247739Y-93030183D01*
X84247735Y-93030186D01*
X78114741Y-99163181D01*
X78053418Y-99196666D01*
X78027060Y-99199500D01*
X74812988Y-99199500D01*
X74745949Y-99179815D01*
X74729450Y-99167137D01*
X74649199Y-99093978D01*
X74649194Y-99093974D01*
X74471069Y-98983684D01*
X74471063Y-98983682D01*
X74275701Y-98907998D01*
X74069756Y-98869500D01*
X73860244Y-98869500D01*
X73654299Y-98907998D01*
X73530752Y-98955860D01*
X73458936Y-98983682D01*
X73458930Y-98983684D01*
X73280805Y-99093974D01*
X73280800Y-99093978D01*
X73125976Y-99235118D01*
X73125972Y-99235122D01*
X73125971Y-99235124D01*
X73083454Y-99291426D01*
X73027345Y-99333062D01*
X72957633Y-99337753D01*
X72896451Y-99304011D01*
X72863224Y-99242547D01*
X72860500Y-99216699D01*
X72860500Y-96010049D01*
X72880185Y-95943010D01*
X72896819Y-95922368D01*
X73060045Y-95759141D01*
X73060047Y-95759139D01*
X73190568Y-95572734D01*
X73286739Y-95366496D01*
X73345635Y-95146692D01*
X73365468Y-94920001D01*
X74564532Y-94920001D01*
X74584364Y-95146686D01*
X74584366Y-95146697D01*
X74643258Y-95366488D01*
X74643261Y-95366497D01*
X74739431Y-95572732D01*
X74739432Y-95572734D01*
X74869954Y-95759141D01*
X75030858Y-95920045D01*
X75030861Y-95920047D01*
X75217266Y-96050568D01*
X75423504Y-96146739D01*
X75643308Y-96205635D01*
X75805230Y-96219801D01*
X75869998Y-96225468D01*
X75870000Y-96225468D01*
X75870002Y-96225468D01*
X75926673Y-96220509D01*
X76096692Y-96205635D01*
X76316496Y-96146739D01*
X76522734Y-96050568D01*
X76709139Y-95920047D01*
X76870047Y-95759139D01*
X77000568Y-95572734D01*
X77096739Y-95366496D01*
X77155635Y-95146692D01*
X77175468Y-94920001D01*
X78374532Y-94920001D01*
X78394364Y-95146686D01*
X78394366Y-95146697D01*
X78453258Y-95366488D01*
X78453261Y-95366497D01*
X78549431Y-95572732D01*
X78549432Y-95572734D01*
X78679954Y-95759141D01*
X78840858Y-95920045D01*
X78840861Y-95920047D01*
X79027266Y-96050568D01*
X79233504Y-96146739D01*
X79453308Y-96205635D01*
X79615230Y-96219801D01*
X79679998Y-96225468D01*
X79680000Y-96225468D01*
X79680002Y-96225468D01*
X79736673Y-96220509D01*
X79906692Y-96205635D01*
X80126496Y-96146739D01*
X80332734Y-96050568D01*
X80519139Y-95920047D01*
X80680047Y-95759139D01*
X80810568Y-95572734D01*
X80906739Y-95366496D01*
X80965635Y-95146692D01*
X80985468Y-94920000D01*
X80965635Y-94693308D01*
X80906739Y-94473504D01*
X80810568Y-94267266D01*
X80680047Y-94080861D01*
X80680045Y-94080858D01*
X80519141Y-93919954D01*
X80332734Y-93789432D01*
X80332732Y-93789431D01*
X80126497Y-93693261D01*
X80126488Y-93693258D01*
X79906697Y-93634366D01*
X79906693Y-93634365D01*
X79906692Y-93634365D01*
X79906691Y-93634364D01*
X79906686Y-93634364D01*
X79680002Y-93614532D01*
X79679998Y-93614532D01*
X79453313Y-93634364D01*
X79453302Y-93634366D01*
X79233511Y-93693258D01*
X79233502Y-93693261D01*
X79027267Y-93789431D01*
X79027265Y-93789432D01*
X78840858Y-93919954D01*
X78679954Y-94080858D01*
X78549432Y-94267265D01*
X78549431Y-94267267D01*
X78453261Y-94473502D01*
X78453258Y-94473511D01*
X78394366Y-94693302D01*
X78394364Y-94693313D01*
X78374532Y-94919998D01*
X78374532Y-94920001D01*
X77175468Y-94920001D01*
X77175468Y-94920000D01*
X77155635Y-94693308D01*
X77096739Y-94473504D01*
X77000568Y-94267266D01*
X76870047Y-94080861D01*
X76870045Y-94080858D01*
X76709141Y-93919954D01*
X76522734Y-93789432D01*
X76522732Y-93789431D01*
X76316497Y-93693261D01*
X76316488Y-93693258D01*
X76096697Y-93634366D01*
X76096693Y-93634365D01*
X76096692Y-93634365D01*
X76096691Y-93634364D01*
X76096686Y-93634364D01*
X75870002Y-93614532D01*
X75869998Y-93614532D01*
X75643313Y-93634364D01*
X75643302Y-93634366D01*
X75423511Y-93693258D01*
X75423502Y-93693261D01*
X75217267Y-93789431D01*
X75217265Y-93789432D01*
X75030858Y-93919954D01*
X74869954Y-94080858D01*
X74739432Y-94267265D01*
X74739431Y-94267267D01*
X74643261Y-94473502D01*
X74643258Y-94473511D01*
X74584366Y-94693302D01*
X74584364Y-94693313D01*
X74564532Y-94919998D01*
X74564532Y-94920001D01*
X73365468Y-94920001D01*
X73365468Y-94920000D01*
X73345635Y-94693308D01*
X73286739Y-94473504D01*
X73190568Y-94267266D01*
X73060047Y-94080861D01*
X73060045Y-94080858D01*
X72899141Y-93919954D01*
X72712734Y-93789432D01*
X72712732Y-93789431D01*
X72506497Y-93693261D01*
X72506488Y-93693258D01*
X72286697Y-93634366D01*
X72286693Y-93634365D01*
X72286692Y-93634365D01*
X72286691Y-93634364D01*
X72286686Y-93634364D01*
X72060002Y-93614532D01*
X72059998Y-93614532D01*
X71833313Y-93634364D01*
X71833302Y-93634366D01*
X71613511Y-93693258D01*
X71613502Y-93693261D01*
X71407267Y-93789431D01*
X71407265Y-93789432D01*
X71220858Y-93919954D01*
X71059954Y-94080858D01*
X70929432Y-94267265D01*
X70929431Y-94267267D01*
X70833261Y-94473502D01*
X70833258Y-94473511D01*
X70774366Y-94693302D01*
X70774364Y-94693313D01*
X70754532Y-94919998D01*
X70754532Y-94920001D01*
X69520500Y-94920001D01*
X69520500Y-91857870D01*
X77804500Y-91857870D01*
X77804501Y-91857876D01*
X77810908Y-91917483D01*
X77861202Y-92052328D01*
X77861206Y-92052335D01*
X77947452Y-92167544D01*
X77947455Y-92167547D01*
X78062664Y-92253793D01*
X78062671Y-92253797D01*
X78197517Y-92304091D01*
X78197516Y-92304091D01*
X78204444Y-92304835D01*
X78257127Y-92310500D01*
X79912872Y-92310499D01*
X79972483Y-92304091D01*
X80107331Y-92253796D01*
X80222546Y-92167546D01*
X80308796Y-92052331D01*
X80359091Y-91917483D01*
X80365500Y-91857873D01*
X80365499Y-90202128D01*
X80359091Y-90142517D01*
X80350675Y-90119953D01*
X80308797Y-90007671D01*
X80308793Y-90007664D01*
X80222547Y-89892455D01*
X80222544Y-89892452D01*
X80107335Y-89806206D01*
X80107328Y-89806202D01*
X79972482Y-89755908D01*
X79972483Y-89755908D01*
X79912883Y-89749501D01*
X79912881Y-89749500D01*
X79912873Y-89749500D01*
X79912864Y-89749500D01*
X78257129Y-89749500D01*
X78257123Y-89749501D01*
X78197516Y-89755908D01*
X78062671Y-89806202D01*
X78062664Y-89806206D01*
X77947455Y-89892452D01*
X77947452Y-89892455D01*
X77861206Y-90007664D01*
X77861202Y-90007671D01*
X77810908Y-90142517D01*
X77805462Y-90193181D01*
X77804501Y-90202123D01*
X77804500Y-90202135D01*
X77804500Y-91857870D01*
X69520500Y-91857870D01*
X69520500Y-91211723D01*
X69540185Y-91144684D01*
X69592989Y-91098929D01*
X69662147Y-91088985D01*
X69674965Y-91092256D01*
X69675070Y-91091813D01*
X69682627Y-91093598D01*
X69742155Y-91099999D01*
X69742172Y-91100000D01*
X72040000Y-91100000D01*
X72040000Y-89850000D01*
X72540000Y-89850000D01*
X72540000Y-91100000D01*
X74837828Y-91100000D01*
X74837844Y-91099999D01*
X74897372Y-91093598D01*
X74897379Y-91093596D01*
X75032086Y-91043354D01*
X75032093Y-91043350D01*
X75147187Y-90957190D01*
X75147190Y-90957187D01*
X75233350Y-90842093D01*
X75233354Y-90842086D01*
X75283596Y-90707379D01*
X75283598Y-90707372D01*
X75289999Y-90647844D01*
X75290000Y-90647827D01*
X75290000Y-89850000D01*
X72540000Y-89850000D01*
X72040000Y-89850000D01*
X72040000Y-88100000D01*
X72540000Y-88100000D01*
X72540000Y-89350000D01*
X75290000Y-89350000D01*
X75290000Y-88552172D01*
X75289999Y-88552155D01*
X75283598Y-88492627D01*
X75283596Y-88492620D01*
X75233354Y-88357913D01*
X75233350Y-88357906D01*
X75147190Y-88242812D01*
X75147187Y-88242809D01*
X75032093Y-88156649D01*
X75032086Y-88156645D01*
X74897379Y-88106403D01*
X74897372Y-88106401D01*
X74837844Y-88100000D01*
X72540000Y-88100000D01*
X72040000Y-88100000D01*
X69742155Y-88100000D01*
X69682627Y-88106401D01*
X69675070Y-88108187D01*
X69674417Y-88105426D01*
X69618092Y-88109431D01*
X69556783Y-88075921D01*
X69523323Y-88014584D01*
X69520500Y-87988276D01*
X69520500Y-82291509D01*
X69540185Y-82224470D01*
X69582019Y-82184400D01*
X71457456Y-81090395D01*
X77484403Y-81090395D01*
X78633313Y-83080367D01*
X78633323Y-83080381D01*
X78668634Y-83128740D01*
X78668635Y-83128742D01*
X78779508Y-83220286D01*
X78911674Y-83276882D01*
X79054437Y-83293953D01*
X79054439Y-83293952D01*
X79196220Y-83270111D01*
X79250993Y-83245881D01*
X79941934Y-82846966D01*
X79941934Y-82846965D01*
X78566935Y-80465395D01*
X78566934Y-80465395D01*
X77484403Y-81090394D01*
X77484403Y-81090395D01*
X71457456Y-81090395D01*
X75874438Y-78513822D01*
X75942260Y-78497048D01*
X76008388Y-78519605D01*
X76051824Y-78574332D01*
X76059197Y-78600369D01*
X76061259Y-78612631D01*
X76085492Y-78667410D01*
X76085491Y-78667410D01*
X77234402Y-80657382D01*
X77234403Y-80657382D01*
X78642560Y-79844383D01*
X78710460Y-79827910D01*
X78776487Y-79850763D01*
X78811947Y-79889770D01*
X78948522Y-80126325D01*
X80374946Y-82596965D01*
X80374947Y-82596965D01*
X81065881Y-82198056D01*
X81065895Y-82198046D01*
X81114254Y-82162735D01*
X81114256Y-82162734D01*
X81205800Y-82051861D01*
X81262396Y-81919695D01*
X81279467Y-81776932D01*
X81279466Y-81776930D01*
X81255625Y-81635149D01*
X81231395Y-81580376D01*
X79034362Y-77775001D01*
X80279532Y-77775001D01*
X80299364Y-78001686D01*
X80299366Y-78001697D01*
X80358258Y-78221488D01*
X80358261Y-78221497D01*
X80454431Y-78427732D01*
X80454432Y-78427734D01*
X80584954Y-78614141D01*
X80745858Y-78775045D01*
X80745861Y-78775047D01*
X80932266Y-78905568D01*
X81138504Y-79001739D01*
X81358308Y-79060635D01*
X81520230Y-79074801D01*
X81584998Y-79080468D01*
X81585000Y-79080468D01*
X81585002Y-79080468D01*
X81641673Y-79075509D01*
X81811692Y-79060635D01*
X82031496Y-79001739D01*
X82237734Y-78905568D01*
X82424139Y-78775047D01*
X82585047Y-78614139D01*
X82715568Y-78427734D01*
X82811739Y-78221496D01*
X82870635Y-78001692D01*
X82890468Y-77775000D01*
X82870635Y-77548308D01*
X82811739Y-77328504D01*
X82715568Y-77122266D01*
X82598319Y-76954815D01*
X82585045Y-76935858D01*
X82424141Y-76774954D01*
X82237734Y-76644432D01*
X82237732Y-76644431D01*
X82031497Y-76548261D01*
X82031488Y-76548258D01*
X81811697Y-76489366D01*
X81811693Y-76489365D01*
X81811692Y-76489365D01*
X81811691Y-76489364D01*
X81811686Y-76489364D01*
X81585002Y-76469532D01*
X81584998Y-76469532D01*
X81358313Y-76489364D01*
X81358302Y-76489366D01*
X81138511Y-76548258D01*
X81138502Y-76548261D01*
X80932267Y-76644431D01*
X80932265Y-76644432D01*
X80745858Y-76774954D01*
X80584954Y-76935858D01*
X80454432Y-77122265D01*
X80454431Y-77122267D01*
X80358261Y-77328502D01*
X80358258Y-77328511D01*
X80299366Y-77548302D01*
X80299364Y-77548313D01*
X80279532Y-77774998D01*
X80279532Y-77775001D01*
X79034362Y-77775001D01*
X78683570Y-77167412D01*
X78683560Y-77167398D01*
X78648249Y-77119039D01*
X78648248Y-77119037D01*
X78626849Y-77101369D01*
X78587687Y-77043506D01*
X78586024Y-76973656D01*
X78622389Y-76913996D01*
X78643309Y-76898647D01*
X80406702Y-75870001D01*
X91028941Y-75870001D01*
X91048773Y-76096686D01*
X91048775Y-76096697D01*
X91107667Y-76316488D01*
X91107670Y-76316497D01*
X91203840Y-76522732D01*
X91203841Y-76522734D01*
X91334363Y-76709141D01*
X91495267Y-76870045D01*
X91495270Y-76870047D01*
X91681675Y-77000568D01*
X91887913Y-77096739D01*
X92107717Y-77155635D01*
X92242169Y-77167398D01*
X92334407Y-77175468D01*
X92334409Y-77175468D01*
X92334411Y-77175468D01*
X92391082Y-77170509D01*
X92561101Y-77155635D01*
X92780905Y-77096739D01*
X92987143Y-77000568D01*
X93173548Y-76870047D01*
X93334456Y-76709139D01*
X93464977Y-76522734D01*
X93561148Y-76316496D01*
X93620044Y-76096692D01*
X93639877Y-75870000D01*
X93620044Y-75643308D01*
X93561148Y-75423504D01*
X93464977Y-75217266D01*
X93334456Y-75030861D01*
X93334454Y-75030858D01*
X93173550Y-74869954D01*
X92987143Y-74739432D01*
X92987141Y-74739431D01*
X92780906Y-74643261D01*
X92780897Y-74643258D01*
X92561106Y-74584366D01*
X92561102Y-74584365D01*
X92561101Y-74584365D01*
X92561100Y-74584364D01*
X92561095Y-74584364D01*
X92334411Y-74564532D01*
X92334407Y-74564532D01*
X92107722Y-74584364D01*
X92107711Y-74584366D01*
X91887920Y-74643258D01*
X91887911Y-74643261D01*
X91681676Y-74739431D01*
X91681674Y-74739432D01*
X91495267Y-74869954D01*
X91334363Y-75030858D01*
X91203841Y-75217265D01*
X91203840Y-75217267D01*
X91107670Y-75423502D01*
X91107667Y-75423511D01*
X91048775Y-75643302D01*
X91048773Y-75643313D01*
X91028941Y-75869998D01*
X91028941Y-75870001D01*
X80406702Y-75870001D01*
X85849559Y-72695001D01*
X89078350Y-72695001D01*
X89098182Y-72921686D01*
X89098184Y-72921697D01*
X89157076Y-73141488D01*
X89157079Y-73141497D01*
X89253249Y-73347732D01*
X89253250Y-73347734D01*
X89383772Y-73534141D01*
X89544676Y-73695045D01*
X89544679Y-73695047D01*
X89731084Y-73825568D01*
X89937322Y-73921739D01*
X90157126Y-73980635D01*
X90319048Y-73994801D01*
X90383816Y-74000468D01*
X90383818Y-74000468D01*
X90383820Y-74000468D01*
X90440491Y-73995509D01*
X90610510Y-73980635D01*
X90830314Y-73921739D01*
X91036552Y-73825568D01*
X91222957Y-73695047D01*
X91383865Y-73534139D01*
X91514386Y-73347734D01*
X91610557Y-73141496D01*
X91669453Y-72921692D01*
X91689286Y-72695000D01*
X91669453Y-72468308D01*
X91610557Y-72248504D01*
X91514386Y-72042266D01*
X91383865Y-71855861D01*
X91383863Y-71855858D01*
X91222959Y-71694954D01*
X91036552Y-71564432D01*
X91036550Y-71564431D01*
X90830315Y-71468261D01*
X90830306Y-71468258D01*
X90688997Y-71430395D01*
X93964403Y-71430395D01*
X95113313Y-73420367D01*
X95113323Y-73420381D01*
X95148634Y-73468740D01*
X95148635Y-73468742D01*
X95259508Y-73560286D01*
X95391674Y-73616882D01*
X95534437Y-73633953D01*
X95534439Y-73633952D01*
X95676220Y-73610111D01*
X95731000Y-73585877D01*
X97545881Y-72538056D01*
X97545895Y-72538046D01*
X97594254Y-72502735D01*
X97594256Y-72502734D01*
X97685800Y-72391861D01*
X97742396Y-72259695D01*
X97759467Y-72116932D01*
X97759466Y-72116930D01*
X97735625Y-71975149D01*
X97711391Y-71920369D01*
X97711392Y-71920369D01*
X96562480Y-69930396D01*
X96562479Y-69930396D01*
X95083390Y-70784349D01*
X95083386Y-70784350D01*
X93964403Y-71430394D01*
X93964403Y-71430395D01*
X90688997Y-71430395D01*
X90610515Y-71409366D01*
X90610511Y-71409365D01*
X90610510Y-71409365D01*
X90610509Y-71409364D01*
X90610504Y-71409364D01*
X90383820Y-71389532D01*
X90383816Y-71389532D01*
X90157131Y-71409364D01*
X90157120Y-71409366D01*
X89937329Y-71468258D01*
X89937320Y-71468261D01*
X89731085Y-71564431D01*
X89731083Y-71564432D01*
X89544676Y-71694954D01*
X89383772Y-71855858D01*
X89253250Y-72042265D01*
X89253249Y-72042267D01*
X89157079Y-72248502D01*
X89157076Y-72248511D01*
X89098184Y-72468302D01*
X89098182Y-72468313D01*
X89078350Y-72694998D01*
X89078350Y-72695001D01*
X85849559Y-72695001D01*
X92364827Y-68894428D01*
X92432649Y-68877654D01*
X92498777Y-68900211D01*
X92540703Y-68951374D01*
X92565492Y-69007410D01*
X92565491Y-69007410D01*
X93714402Y-70997382D01*
X93714403Y-70997382D01*
X95229948Y-70122384D01*
X96312479Y-69497384D01*
X96312479Y-69497383D01*
X95163570Y-67507412D01*
X95163560Y-67507398D01*
X95128250Y-67459039D01*
X95127845Y-67458610D01*
X95127636Y-67458199D01*
X95123674Y-67452773D01*
X95124553Y-67452130D01*
X95096199Y-67396318D01*
X95103255Y-67326806D01*
X95146771Y-67272142D01*
X95155585Y-67266486D01*
X99937522Y-64477023D01*
X100005345Y-64460248D01*
X100062478Y-64477023D01*
G37*
G04 #@! TD.AperFunction*
M02*
