G04 #@! TF.GenerationSoftware,KiCad,Pcbnew,7.0.9*
G04 #@! TF.CreationDate,2024-02-04T19:54:10+01:00*
G04 #@! TF.ProjectId,Toolbox,546f6f6c-626f-4782-9e6b-696361645f70,rev?*
G04 #@! TF.SameCoordinates,Original*
G04 #@! TF.FileFunction,Soldermask,Top*
G04 #@! TF.FilePolarity,Negative*
%FSLAX46Y46*%
G04 Gerber Fmt 4.6, Leading zero omitted, Abs format (unit mm)*
G04 Created by KiCad (PCBNEW 7.0.9) date 2024-02-04 19:54:10*
%MOMM*%
%LPD*%
G01*
G04 APERTURE LIST*
G04 Aperture macros list*
%AMHorizOval*
0 Thick line with rounded ends*
0 $1 width*
0 $2 $3 position (X,Y) of the first rounded end (center of the circle)*
0 $4 $5 position (X,Y) of the second rounded end (center of the circle)*
0 Add line between two ends*
20,1,$1,$2,$3,$4,$5,0*
0 Add two circle primitives to create the rounded ends*
1,1,$1,$2,$3*
1,1,$1,$4,$5*%
%AMRotRect*
0 Rectangle, with rotation*
0 The origin of the aperture is its center*
0 $1 length*
0 $2 width*
0 $3 Rotation angle, in degrees counterclockwise*
0 Add horizontal line*
21,1,$1,$2,0,0,$3*%
G04 Aperture macros list end*
%ADD10R,5.000000X2.000000*%
%ADD11RotRect,2.000000X5.000000X30.000000*%
%ADD12RotRect,2.000000X5.000000X210.000000*%
%ADD13RotRect,2.000000X5.000000X330.000000*%
%ADD14R,6.000000X2.650000*%
%ADD15C,17.800000*%
%ADD16RotRect,2.000000X5.000000X150.000000*%
%ADD17C,1.600000*%
%ADD18R,1.600000X1.600000*%
%ADD19HorizOval,1.600000X0.000000X0.000000X0.000000X0.000000X0*%
%ADD20HorizOval,1.600000X0.000000X0.000000X0.000000X0.000000X0*%
%ADD21HorizOval,1.600000X0.000000X0.000000X0.000000X0.000000X0*%
%ADD22O,1.600000X1.600000*%
%ADD23RotRect,2.400000X1.600000X60.000000*%
%ADD24HorizOval,1.600000X0.200000X0.346410X-0.200000X-0.346410X0*%
%ADD25R,1.560000X1.560000*%
%ADD26C,1.560000*%
%ADD27C,1.800000*%
%ADD28RotRect,1.800000X1.800000X30.000000*%
%ADD29HorizOval,1.600000X0.000000X0.000000X0.000000X0.000000X0*%
G04 APERTURE END LIST*
D10*
X72290000Y-108660000D03*
D11*
X121341558Y-119876110D03*
D12*
X95138442Y-70463890D03*
D13*
X77151558Y-119006110D03*
D14*
X119050000Y-87550000D03*
X119050000Y-112450000D03*
D15*
X119050000Y-100000000D03*
D12*
X78658442Y-80123890D03*
D16*
X106368442Y-71333890D03*
X122848442Y-80993890D03*
D11*
X104861558Y-129536110D03*
D10*
X72290000Y-89600000D03*
D13*
X93631558Y-128666110D03*
D17*
X93650000Y-79680000D03*
D18*
X93650000Y-82180000D03*
D19*
X90383818Y-127305000D03*
D17*
X81585000Y-122225000D03*
X109616182Y-127305000D03*
D20*
X118415000Y-122225000D03*
D21*
X83490000Y-119050000D03*
D17*
X92288818Y-124130000D03*
D20*
X92334409Y-75870000D03*
D17*
X83535591Y-80950000D03*
D22*
X106350000Y-93650000D03*
D17*
X106350000Y-103810000D03*
X79680000Y-94920000D03*
D22*
X79680000Y-105080000D03*
D23*
X100000000Y-122225000D03*
D24*
X97800295Y-120955000D03*
X95600591Y-119685000D03*
X93400886Y-118415000D03*
X91201182Y-117145000D03*
X89001477Y-115875000D03*
X86801773Y-114605000D03*
X84602068Y-113335000D03*
X88412068Y-106735886D03*
X90611773Y-108005886D03*
X92811477Y-109275886D03*
X95011182Y-110545886D03*
X97210886Y-111815886D03*
X99410591Y-113085886D03*
X101610295Y-114355886D03*
X103810000Y-115625886D03*
D22*
X106350000Y-80315000D03*
D17*
X106350000Y-90475000D03*
X72060000Y-94920000D03*
D22*
X72060000Y-105080000D03*
D18*
X94910000Y-86040000D03*
D22*
X94910000Y-88580000D03*
X94910000Y-91120000D03*
X94910000Y-93660000D03*
X87290000Y-93660000D03*
X87290000Y-91120000D03*
X87290000Y-88580000D03*
X87290000Y-86040000D03*
D17*
X107711182Y-75870000D03*
D19*
X116510000Y-80950000D03*
D25*
X79085000Y-91030000D03*
D26*
X81585000Y-86030000D03*
X84085000Y-91030000D03*
D22*
X75870000Y-94920000D03*
D17*
X75870000Y-105080000D03*
D27*
X111255523Y-115242500D03*
D28*
X109055818Y-116512500D03*
D29*
X81585000Y-77775000D03*
D17*
X90383818Y-72695000D03*
D29*
X107711182Y-124130000D03*
D17*
X116510000Y-119050000D03*
X118369409Y-77775000D03*
D21*
X109570591Y-72695000D03*
D17*
X80315000Y-111390000D03*
X80315000Y-108890000D03*
M02*
